<svg xmlns="http://www.w3.org/2000/svg" xmlns:xlink="http://www.w3.org/1999/xlink" preserveAspectRatio="xMidYMid" width="24" height="24" viewBox="0 0 24 24">
  <defs>
    <style>

      .cls-2 {
        fill: #592a7e;
      }
    </style>
  </defs>
  <path d="M11.987,24.010 C5.359,24.010 -0.014,18.637 -0.014,12.013 C-0.014,5.385 5.359,0.011 11.987,0.011 C18.612,0.011 23.985,5.385 23.985,12.013 C23.985,18.637 18.612,24.010 11.987,24.010 ZM11.987,3.652 C7.377,3.652 3.629,7.403 3.629,12.013 C3.629,16.619 7.377,20.367 11.987,20.367 C16.594,20.367 20.342,16.619 20.342,12.013 C20.342,7.403 16.594,3.652 11.987,3.652 ZM13.017,13.415 C13.017,13.415 13.017,13.419 13.017,13.419 C13.017,13.419 10.951,13.419 10.951,13.419 C10.951,13.419 10.951,6.717 10.951,6.717 C10.951,6.148 11.412,5.688 11.987,5.688 C12.555,5.688 13.020,6.148 13.020,6.717 C13.020,6.717 13.017,11.349 13.017,11.349 C13.017,11.349 17.652,11.349 17.652,11.349 C18.220,11.349 18.682,11.813 18.682,12.386 C18.682,12.957 18.220,13.419 17.652,13.419 C17.652,13.419 13.017,13.415 13.017,13.415 Z" id="path-1" class="cls-2" fill-rule="evenodd"/>
</svg>
