<svg xmlns="http://www.w3.org/2000/svg" xmlns:xlink="http://www.w3.org/1999/xlink" preserveAspectRatio="xMidYMid" width="9" height="9" viewBox="0 0 9 9">
  <defs>
    <style>

      .cls-2 {
        fill: #ffffff;
        opacity: 0.5;
      }
    </style>
  </defs>
  <path d="M8.493,7.785 C8.493,7.785 7.786,8.493 7.786,8.493 C7.786,8.493 4.250,4.957 4.250,4.957 C4.250,4.957 0.714,8.493 0.714,8.493 C0.714,8.493 0.007,7.785 0.007,7.785 C0.007,7.785 3.543,4.250 3.543,4.250 C3.543,4.250 0.007,0.714 0.007,0.714 C0.007,0.714 0.714,0.007 0.714,0.007 C0.714,0.007 4.250,3.543 4.250,3.543 C4.250,3.543 7.786,0.007 7.786,0.007 C7.786,0.007 8.493,0.714 8.493,0.714 C8.493,0.714 4.957,4.250 4.957,4.250 C4.957,4.250 8.493,7.785 8.493,7.785 Z" id="path-1" class="cls-2" fill-rule="evenodd"/>
</svg>
