<svg xmlns="http://www.w3.org/2000/svg" xmlns:xlink="http://www.w3.org/1999/xlink" preserveAspectRatio="xMidYMid" width="22" height="24" viewBox="0 0 22 24">
  <defs>
    <style>

      .cls-2 {
        fill: #592a7e;
      }
    </style>
  </defs>
  <path d="M19.983,24.000 C19.983,24.000 2.017,24.000 2.017,24.000 C0.903,24.000 0.000,23.024 0.000,21.836 C0.000,21.836 0.000,4.822 0.000,4.822 C0.000,3.656 0.883,2.707 1.958,2.672 C1.958,2.672 1.958,5.576 1.958,5.576 C1.958,6.888 2.956,7.945 4.186,7.945 C4.186,7.945 5.592,7.945 5.592,7.945 C6.822,7.945 7.833,6.888 7.833,5.576 C7.833,5.576 7.833,2.662 7.833,2.662 C7.833,2.662 14.167,2.662 14.167,2.662 C14.167,2.662 14.167,5.576 14.167,5.576 C14.167,6.888 15.178,7.945 16.408,7.945 C16.408,7.945 17.814,7.945 17.814,7.945 C19.044,7.945 20.042,6.888 20.042,5.576 C20.042,5.576 20.042,2.672 20.042,2.672 C21.117,2.707 22.000,3.656 22.000,4.822 C22.000,4.822 22.000,21.836 22.000,21.836 C22.000,23.022 21.095,24.000 19.983,24.000 ZM19.389,11.988 C19.389,11.474 18.999,11.058 18.517,11.058 C18.517,11.058 3.444,11.058 3.444,11.058 C2.963,11.058 2.572,11.474 2.572,11.988 C2.572,11.988 2.572,20.776 2.572,20.776 C2.572,21.290 2.963,21.706 3.444,21.706 C3.444,21.706 18.517,21.706 18.517,21.706 C18.999,21.706 19.389,21.290 19.389,20.776 C19.389,20.776 19.389,11.988 19.389,11.988 ZM16.345,20.437 C16.345,20.437 14.563,20.437 14.563,20.437 C14.281,20.437 14.052,20.193 14.052,19.892 C14.052,19.892 14.052,17.992 14.052,17.992 C14.052,17.691 14.281,17.447 14.563,17.447 C14.563,17.447 16.345,17.447 16.345,17.447 C16.627,17.447 16.855,17.691 16.855,17.992 C16.855,17.992 16.855,19.892 16.855,19.892 C16.855,20.193 16.627,20.437 16.345,20.437 ZM16.345,15.686 C16.345,15.686 14.563,15.686 14.563,15.686 C14.281,15.686 14.052,15.442 14.052,15.141 C14.052,15.141 14.052,13.241 14.052,13.241 C14.052,12.940 14.281,12.696 14.563,12.696 C14.563,12.696 16.345,12.696 16.345,12.696 C16.627,12.696 16.855,12.940 16.855,13.241 C16.855,13.241 16.855,15.141 16.855,15.141 C16.855,15.442 16.627,15.686 16.345,15.686 ZM11.891,20.437 C11.891,20.437 10.109,20.437 10.109,20.437 C9.827,20.437 9.598,20.193 9.598,19.892 C9.598,19.892 9.598,17.992 9.598,17.992 C9.598,17.691 9.827,17.447 10.109,17.447 C10.109,17.447 11.891,17.447 11.891,17.447 C12.173,17.447 12.401,17.691 12.401,17.992 C12.401,17.992 12.401,19.892 12.401,19.892 C12.401,20.193 12.173,20.437 11.891,20.437 ZM11.891,15.686 C11.891,15.686 10.109,15.686 10.109,15.686 C9.827,15.686 9.598,15.442 9.598,15.141 C9.598,15.141 9.598,13.241 9.598,13.241 C9.598,12.940 9.827,12.696 10.109,12.696 C10.109,12.696 11.891,12.696 11.891,12.696 C12.173,12.696 12.401,12.940 12.401,13.241 C12.401,13.241 12.401,15.141 12.401,15.141 C12.401,15.442 12.173,15.686 11.891,15.686 ZM7.437,20.437 C7.437,20.437 5.655,20.437 5.655,20.437 C5.374,20.437 5.145,20.193 5.145,19.892 C5.145,19.892 5.145,17.992 5.145,17.992 C5.145,17.691 5.374,17.447 5.655,17.447 C5.655,17.447 7.437,17.447 7.437,17.447 C7.719,17.447 7.948,17.691 7.948,17.992 C7.948,17.992 7.948,19.892 7.948,19.892 C7.948,20.193 7.719,20.437 7.437,20.437 ZM7.437,15.686 C7.437,15.686 5.655,15.686 5.655,15.686 C5.374,15.686 5.145,15.442 5.145,15.141 C5.145,15.141 5.145,13.241 5.145,13.241 C5.145,12.940 5.374,12.696 5.655,12.696 C5.655,12.696 7.437,12.696 7.437,12.696 C7.719,12.696 7.948,12.940 7.948,13.241 C7.948,13.241 7.948,15.141 7.948,15.141 C7.948,15.442 7.719,15.686 7.437,15.686 ZM17.781,6.389 C17.781,6.389 16.391,6.389 16.391,6.389 C15.969,6.389 15.627,6.024 15.627,5.574 C15.627,5.574 15.627,0.815 15.627,0.815 C15.627,0.365 15.969,0.000 16.391,0.000 C16.391,0.000 17.781,0.000 17.781,0.000 C18.203,0.000 18.545,0.365 18.545,0.815 C18.545,0.815 18.545,5.574 18.545,5.574 C18.545,6.024 18.203,6.389 17.781,6.389 ZM5.571,6.389 C5.571,6.389 4.181,6.389 4.181,6.389 C3.759,6.389 3.417,6.024 3.417,5.574 C3.417,5.574 3.417,0.815 3.417,0.815 C3.417,0.365 3.759,0.000 4.181,0.000 C4.181,0.000 5.571,0.000 5.571,0.000 C5.993,0.000 6.335,0.365 6.335,0.815 C6.335,0.815 6.335,5.574 6.335,5.574 C6.335,6.024 5.993,6.389 5.571,6.389 Z" id="path-1" class="cls-2" fill-rule="evenodd"/>
</svg>
