<svg xmlns="http://www.w3.org/2000/svg" xmlns:xlink="http://www.w3.org/1999/xlink" preserveAspectRatio="xMidYMid" width="76" height="72" viewBox="0 0 76 72">
  <defs>
    <style>

      .cls-2 {
        fill: #522a7e;
      }
    </style>
  </defs>
  <path d="M75.999,60.805 C75.999,60.805 75.999,63.538 75.999,63.538 C75.999,63.538 68.805,63.538 68.805,63.538 C68.805,63.538 68.805,50.936 68.805,50.936 C68.805,50.936 75.999,50.936 75.999,50.936 C75.999,50.936 75.999,53.669 75.999,53.669 C75.999,53.669 72.092,53.669 72.092,53.669 C72.092,53.669 72.092,55.820 72.092,55.820 C72.092,55.820 75.786,55.820 75.786,55.820 C75.786,55.820 75.786,58.553 75.786,58.553 C75.786,58.553 72.092,58.553 72.092,58.553 C72.092,58.553 72.092,60.805 72.092,60.805 C72.092,60.805 75.999,60.805 75.999,60.805 ZM60.039,56.540 C60.039,56.540 66.558,56.540 66.558,56.540 C66.558,57.907 66.404,59.020 66.095,59.882 C65.626,61.193 64.851,62.202 63.771,62.910 C62.728,63.587 61.493,63.926 60.067,63.926 C57.746,63.926 55.965,63.138 54.725,61.562 C53.786,60.368 53.317,58.944 53.317,57.288 C53.317,55.453 53.866,53.913 54.965,52.663 C56.212,51.241 57.953,50.530 60.188,50.530 C61.681,50.530 62.947,50.912 63.984,51.675 C64.725,52.217 65.358,53.016 65.882,54.075 C65.882,54.075 62.771,55.359 62.771,55.359 C62.505,54.770 62.195,54.329 61.842,54.036 C61.334,53.619 60.731,53.410 60.031,53.410 C58.601,53.410 57.604,54.144 57.040,55.611 C56.830,56.152 56.725,56.711 56.725,57.288 C56.725,58.485 57.105,59.483 57.867,60.281 C58.430,60.877 59.183,61.174 60.124,61.174 C60.960,61.174 61.622,60.932 62.112,60.448 C62.434,60.130 62.644,59.657 62.743,59.032 C62.743,59.032 60.039,59.032 60.039,59.032 C60.039,59.032 60.039,56.540 60.039,56.540 ZM55.355,26.261 C55.355,26.261 55.068,26.546 55.068,26.546 C55.068,26.546 55.797,27.273 55.797,27.273 C55.797,27.273 54.476,28.542 54.476,28.542 C54.476,28.542 53.755,27.824 53.755,27.824 C53.755,27.824 53.468,28.110 53.468,28.110 C53.468,28.110 54.184,28.823 54.184,28.823 C54.184,28.823 52.862,30.092 52.862,30.092 C52.862,30.092 52.155,29.387 52.155,29.387 C52.155,29.387 51.868,29.673 51.868,29.673 C51.868,29.673 52.570,30.373 52.570,30.373 C52.570,30.373 50.991,31.891 50.991,31.891 C50.991,31.891 48.984,26.430 48.984,26.430 C48.984,26.430 49.989,25.492 49.989,25.492 C49.989,25.492 50.199,25.629 50.199,25.629 C51.056,26.192 52.516,26.135 54.421,25.463 C55.791,24.979 56.980,25.447 57.031,25.468 C57.031,25.468 57.485,25.651 57.485,25.651 C57.485,25.651 56.089,26.992 56.089,26.992 C56.089,26.992 55.355,26.261 55.355,26.261 ZM38.206,7.816 C36.045,7.816 34.286,6.063 34.286,3.908 C34.286,1.752 36.045,-0.001 38.206,-0.001 C40.368,-0.001 42.127,1.752 42.127,3.908 C42.127,6.063 40.368,7.816 38.206,7.816 ZM23.435,30.382 C23.435,30.382 24.146,29.673 24.146,29.673 C24.146,29.673 23.859,29.387 23.859,29.387 C23.859,29.387 23.143,30.101 23.143,30.101 C23.143,30.101 21.822,28.831 21.822,28.831 C21.822,28.831 22.546,28.110 22.546,28.110 C22.546,28.110 22.259,27.824 22.259,27.824 C22.259,27.824 21.530,28.551 21.530,28.551 C21.530,28.551 20.209,27.281 20.209,27.281 C20.209,27.281 20.946,26.546 20.946,26.546 C20.946,26.546 20.659,26.261 20.659,26.261 C20.659,26.261 19.917,27.001 19.917,27.001 C19.917,27.001 18.512,25.651 18.512,25.651 C18.512,25.651 18.966,25.468 18.966,25.468 C19.016,25.447 20.206,24.980 21.575,25.463 C23.480,26.135 24.940,26.192 25.798,25.629 C25.798,25.629 26.007,25.492 26.007,25.492 C26.007,25.492 27.084,26.498 27.084,26.498 C27.084,26.498 25.078,31.959 25.078,31.959 C25.078,31.959 23.435,30.382 23.435,30.382 ZM21.208,55.086 C21.208,56.224 20.940,57.164 20.403,57.908 C19.705,58.873 18.548,59.356 16.930,59.356 C16.930,59.356 14.875,59.356 14.875,59.356 C14.875,59.356 14.875,63.538 14.875,63.538 C14.875,63.538 11.588,63.538 11.588,63.538 C11.588,63.538 11.588,50.936 11.588,50.936 C11.588,50.936 16.819,50.936 16.819,50.936 C18.307,50.936 19.436,51.370 20.208,52.237 C20.875,52.981 21.208,53.931 21.208,55.086 ZM17.387,53.998 C17.112,53.717 16.643,53.577 15.980,53.577 C15.980,53.577 14.875,53.577 14.875,53.577 C14.875,53.577 14.875,56.715 14.875,56.715 C14.875,56.715 15.971,56.715 15.971,56.715 C16.683,56.715 17.172,56.561 17.438,56.253 C17.680,55.975 17.801,55.598 17.801,55.123 C17.801,54.654 17.663,54.279 17.387,53.998 ZM4.526,55.310 C4.712,55.421 5.268,55.613 6.196,55.884 C7.358,56.224 8.187,56.704 8.682,57.326 C9.108,57.856 9.322,58.537 9.322,59.369 C9.322,61.501 8.383,62.890 6.507,63.537 C5.853,63.765 5.149,63.879 4.396,63.879 C2.815,63.879 1.349,63.402 -0.003,62.448 C-0.003,62.448 1.405,59.808 1.405,59.808 C2.395,60.701 3.362,61.146 4.309,61.146 C4.736,61.146 5.098,61.047 5.395,60.849 C5.741,60.624 5.914,60.307 5.914,59.897 C5.914,59.524 5.723,59.213 5.339,58.965 C5.055,58.778 4.576,58.588 3.901,58.396 C3.085,58.156 2.572,57.990 2.362,57.898 C2.028,57.756 1.744,57.591 1.508,57.400 C0.834,56.847 0.498,56.010 0.498,54.892 C0.498,53.724 0.846,52.756 1.544,51.988 C2.359,51.084 3.445,50.632 4.803,50.632 C6.167,50.632 7.504,50.973 8.813,51.656 C8.813,51.656 7.498,54.205 7.498,54.205 C6.780,53.644 6.055,53.364 5.325,53.364 C4.973,53.364 4.657,53.454 4.379,53.633 C4.063,53.837 3.905,54.109 3.905,54.449 C3.905,54.782 4.112,55.069 4.526,55.310 ZM14.206,70.588 C14.206,71.367 13.581,71.953 12.745,71.953 C12.745,71.953 11.714,71.953 11.714,71.953 C11.714,71.953 11.714,69.228 11.714,69.228 C11.714,69.228 12.745,69.228 12.745,69.228 C13.592,69.228 14.206,69.797 14.206,70.588 ZM12.200,71.511 C12.200,71.511 12.748,71.511 12.748,71.511 C13.277,71.511 13.690,71.127 13.690,70.596 C13.690,70.061 13.296,69.669 12.748,69.669 C12.748,69.669 12.200,69.669 12.200,69.669 C12.200,69.669 12.200,71.511 12.200,71.511 ZM15.923,71.953 C15.923,71.953 15.441,71.953 15.441,71.953 C15.441,71.953 15.441,69.228 15.441,69.228 C15.441,69.228 15.923,69.228 15.923,69.228 C15.923,69.228 15.923,71.953 15.923,71.953 ZM18.623,69.181 C19.234,69.181 19.587,69.402 19.587,69.402 C19.587,69.402 19.420,69.813 19.420,69.813 C19.420,69.813 19.066,69.635 18.705,69.635 C18.063,69.635 17.671,70.038 17.671,70.596 C17.671,71.143 18.091,71.545 18.658,71.545 C18.911,71.545 19.133,71.491 19.280,71.437 C19.280,71.437 19.280,70.952 19.280,70.952 C19.280,70.952 18.518,70.952 18.518,70.952 C18.518,70.952 18.518,70.522 18.518,70.522 C18.518,70.522 19.747,70.522 19.747,70.522 C19.747,70.522 19.747,71.689 19.747,71.689 C19.747,71.689 19.338,71.999 18.689,71.999 C17.764,71.999 17.150,71.395 17.150,70.588 C17.150,69.801 17.814,69.181 18.623,69.181 ZM21.535,71.953 C21.535,71.953 21.053,71.953 21.053,71.953 C21.053,71.953 21.053,69.228 21.053,69.228 C21.053,69.228 21.535,69.228 21.535,69.228 C21.535,69.228 21.535,71.953 21.535,71.953 ZM36.286,7.989 C36.286,7.989 37.742,12.023 37.742,12.023 C37.742,12.023 34.728,20.374 34.728,20.374 C34.728,20.374 33.756,20.579 32.641,21.324 C32.365,21.532 32.054,21.780 31.708,22.072 C31.125,22.622 30.563,23.333 30.137,24.265 C29.531,25.588 28.100,28.720 26.620,31.962 C26.620,31.962 24.676,36.219 24.676,36.219 C24.676,36.219 24.676,36.219 24.676,36.219 C23.302,39.229 22.225,41.590 22.225,41.590 C22.225,41.590 34.928,7.013 34.928,7.013 C35.313,7.418 35.774,7.748 36.286,7.989 ZM24.257,52.764 C25.559,51.294 27.322,50.558 29.544,50.558 C31.766,50.558 33.529,51.294 34.832,52.764 C35.973,54.057 36.544,55.561 36.544,57.279 C36.544,58.990 35.973,60.491 34.832,61.784 C33.529,63.255 31.766,63.990 29.544,63.990 C27.328,63.990 25.568,63.255 24.266,61.784 C23.124,60.491 22.553,58.990 22.553,57.279 C22.553,56.497 22.707,55.695 23.016,54.874 C23.325,54.052 23.738,53.349 24.257,52.764 ZM26.814,59.565 C27.520,60.398 28.430,60.814 29.544,60.814 C30.658,60.814 31.571,60.401 32.283,59.573 C32.852,58.914 33.137,58.149 33.137,57.279 C33.137,56.390 32.852,55.622 32.283,54.974 C31.552,54.147 30.639,53.734 29.544,53.734 C28.789,53.734 28.105,53.945 27.492,54.368 C26.879,54.791 26.443,55.354 26.183,56.057 C26.035,56.458 25.961,56.865 25.961,57.279 C25.961,58.130 26.245,58.892 26.814,59.565 ZM24.880,69.669 C24.880,69.669 23.981,69.669 23.981,69.669 C23.981,69.669 23.981,71.953 23.981,71.953 C23.981,71.953 23.495,71.953 23.495,71.953 C23.495,71.953 23.495,69.669 23.495,69.669 C23.495,69.669 22.582,69.669 22.582,69.669 C22.582,69.669 22.582,69.228 22.582,69.228 C22.582,69.228 24.880,69.228 24.880,69.228 C24.880,69.228 24.880,69.669 24.880,69.669 ZM26.674,69.204 C26.674,69.204 27.957,71.953 27.957,71.953 C27.957,71.953 27.440,71.953 27.440,71.953 C27.440,71.953 27.199,71.410 27.199,71.410 C27.199,71.410 26.025,71.410 26.025,71.410 C26.025,71.410 25.788,71.953 25.788,71.953 C25.788,71.953 25.282,71.953 25.282,71.953 C25.282,71.953 26.565,69.204 26.565,69.204 C26.565,69.204 26.674,69.204 26.674,69.204 ZM27.028,71.026 C27.028,71.026 26.612,70.088 26.612,70.088 C26.612,70.088 26.196,71.026 26.196,71.026 C26.196,71.026 27.028,71.026 27.028,71.026 ZM29.496,71.511 C29.496,71.511 30.791,71.511 30.791,71.511 C30.791,71.511 30.791,71.953 30.791,71.953 C30.791,71.953 29.014,71.953 29.014,71.953 C29.014,71.953 29.014,69.228 29.014,69.228 C29.014,69.228 29.496,69.228 29.496,69.228 C29.496,69.228 29.496,71.511 29.496,71.511 ZM35.040,69.204 C35.040,69.204 36.323,71.953 36.323,71.953 C36.323,71.953 35.806,71.953 35.806,71.953 C35.806,71.953 35.565,71.410 35.565,71.410 C35.565,71.410 34.391,71.410 34.391,71.410 C34.391,71.410 34.154,71.953 34.154,71.953 C34.154,71.953 33.648,71.953 33.648,71.953 C33.648,71.953 34.931,69.204 34.931,69.204 C34.931,69.204 35.040,69.204 35.040,69.204 ZM35.394,71.026 C35.394,71.026 34.978,70.088 34.978,70.088 C34.978,70.088 34.562,71.026 34.562,71.026 C34.562,71.026 35.394,71.026 35.394,71.026 ZM39.222,70.968 C39.222,70.968 39.222,69.228 39.222,69.228 C39.222,69.228 39.705,69.228 39.705,69.228 C39.705,69.228 39.705,71.972 39.705,71.972 C39.705,71.972 39.577,71.972 39.577,71.972 C39.577,71.972 37.861,70.263 37.861,70.263 C37.861,70.263 37.861,71.953 37.861,71.953 C37.861,71.953 37.380,71.953 37.380,71.953 C37.380,71.953 37.380,69.212 37.380,69.212 C37.380,69.212 37.531,69.212 37.531,69.212 C37.531,69.212 39.222,70.968 39.222,70.968 ZM43.598,70.588 C43.598,71.367 42.972,71.953 42.136,71.953 C42.136,71.953 41.106,71.953 41.106,71.953 C41.106,71.953 41.106,69.228 41.106,69.228 C41.106,69.228 42.136,69.228 42.136,69.228 C42.984,69.228 43.598,69.797 43.598,70.588 ZM41.592,71.511 C41.592,71.511 42.140,71.511 42.140,71.511 C42.669,71.511 43.081,71.127 43.081,70.596 C43.081,70.061 42.688,69.669 42.140,69.669 C42.140,69.669 41.592,69.669 41.592,69.669 C41.592,69.669 41.592,71.511 41.592,71.511 ZM49.461,70.588 C49.461,71.367 48.835,71.953 47.999,71.953 C47.999,71.953 46.969,71.953 46.969,71.953 C46.969,71.953 46.969,69.228 46.969,69.228 C46.969,69.228 47.999,69.228 47.999,69.228 C48.847,69.228 49.461,69.797 49.461,70.588 ZM47.455,71.511 C47.455,71.511 48.003,71.511 48.003,71.511 C48.531,71.511 48.944,71.127 48.944,70.596 C48.944,70.061 48.551,69.669 48.003,69.669 C48.003,69.669 47.455,69.669 47.455,69.669 C47.455,69.669 47.455,71.511 47.455,71.511 ZM38.206,8.423 C39.381,8.423 40.449,7.971 41.255,7.237 C41.255,7.237 53.876,41.590 53.876,41.590 C53.876,41.590 52.948,39.558 51.718,36.862 C51.718,36.862 51.718,36.862 51.718,36.862 C51.718,36.862 48.984,30.875 48.984,30.875 C48.984,30.875 48.984,30.875 48.984,30.875 C47.689,28.039 46.502,25.439 45.964,24.265 C44.481,21.025 41.373,20.374 41.373,20.374 C41.373,20.374 36.998,8.254 36.998,8.254 C37.384,8.361 37.787,8.423 38.206,8.423 ZM38.412,63.538 C38.412,63.538 38.412,50.936 38.412,50.936 C38.412,50.936 41.699,50.936 41.699,50.936 C41.699,50.936 47.745,58.645 47.745,58.645 C47.745,58.645 47.745,50.936 47.745,50.936 C47.745,50.936 51.033,50.936 51.033,50.936 C51.033,50.936 51.033,63.538 51.033,63.538 C51.033,63.538 47.745,63.538 47.745,63.538 C47.745,63.538 41.699,55.820 41.699,55.820 C41.699,55.820 41.699,63.538 41.699,63.538 C41.699,63.538 38.412,63.538 38.412,63.538 ZM27.983,34.751 C27.983,34.751 26.589,33.412 26.589,33.412 C27.406,31.621 28.236,29.805 28.951,28.240 C28.951,28.240 37.999,36.689 37.999,36.689 C37.999,36.689 47.114,28.176 47.114,28.176 C47.827,29.736 48.656,31.553 49.475,33.347 C49.475,33.347 48.023,34.743 48.023,34.743 C48.023,34.743 47.355,34.076 47.355,34.076 C47.355,34.076 47.068,34.363 47.068,34.363 C47.068,34.363 47.730,35.023 47.730,35.023 C47.730,35.023 46.409,36.293 46.409,36.293 C46.409,36.293 45.754,35.640 45.754,35.640 C45.754,35.640 45.468,35.926 45.468,35.926 C45.468,35.926 46.117,36.574 46.117,36.574 C46.117,36.574 44.796,37.843 44.796,37.843 C44.796,37.843 44.154,37.203 44.154,37.203 C44.154,37.203 43.868,37.489 43.868,37.489 C43.868,37.489 44.504,38.124 44.504,38.124 C44.504,38.124 43.183,39.393 43.183,39.393 C43.183,39.393 42.554,38.766 42.554,38.766 C42.554,38.766 42.267,39.052 42.267,39.052 C42.267,39.052 42.891,39.674 42.891,39.674 C42.891,39.674 41.569,40.943 41.569,40.943 C41.569,40.943 40.954,40.330 40.954,40.330 C40.954,40.330 40.667,40.616 40.667,40.616 C40.667,40.616 41.278,41.223 41.278,41.223 C41.278,41.223 39.956,42.494 39.956,42.494 C39.956,42.494 39.354,41.893 39.354,41.893 C39.354,41.893 39.067,42.179 39.067,42.179 C39.067,42.179 39.664,42.774 39.664,42.774 C39.664,42.774 38.112,44.265 38.112,44.265 C38.112,44.265 38.112,44.265 38.112,44.265 C38.112,44.265 37.996,44.381 37.996,44.381 C37.996,44.381 37.742,44.128 37.742,44.128 C37.742,44.128 36.341,42.782 36.341,42.782 C36.341,42.782 36.947,42.179 36.947,42.179 C36.947,42.179 36.660,41.893 36.660,41.893 C36.660,41.893 36.049,42.502 36.049,42.502 C36.049,42.502 34.728,41.232 34.728,41.232 C34.728,41.232 35.347,40.616 35.347,40.616 C35.347,40.616 35.060,40.330 35.060,40.330 C35.060,40.330 34.436,40.951 34.436,40.951 C34.436,40.951 33.115,39.682 33.115,39.682 C33.115,39.682 33.747,39.052 33.747,39.052 C33.747,39.052 33.460,38.766 33.460,38.766 C33.460,38.766 32.823,39.402 32.823,39.402 C32.823,39.402 31.502,38.132 31.502,38.132 C31.502,38.132 32.147,37.489 32.147,37.489 C32.147,37.489 31.860,37.203 31.860,37.203 C31.860,37.203 31.209,37.852 31.209,37.852 C31.209,37.852 29.888,36.582 29.888,36.582 C29.888,36.582 30.547,35.926 30.547,35.926 C30.547,35.926 30.260,35.640 30.260,35.640 C30.260,35.640 29.596,36.302 29.596,36.302 C29.596,36.302 28.275,35.032 28.275,35.032 C28.275,35.032 28.946,34.363 28.946,34.363 C28.946,34.363 28.659,34.076 28.659,34.076 C28.659,34.076 27.983,34.751 27.983,34.751 ZM52.466,69.669 C52.466,69.669 51.171,69.669 51.171,69.669 C51.171,69.669 51.171,70.433 51.171,70.433 C51.171,70.433 52.345,70.433 52.345,70.433 C52.345,70.433 52.345,70.860 52.345,70.860 C52.345,70.860 51.171,70.860 51.171,70.860 C51.171,70.860 51.171,71.511 51.171,71.511 C51.171,71.511 52.466,71.511 52.466,71.511 C52.466,71.511 52.466,71.953 52.466,71.953 C52.466,71.953 50.689,71.953 50.689,71.953 C50.689,71.953 50.689,69.228 50.689,69.228 C50.689,69.228 52.466,69.228 52.466,69.228 C52.466,69.228 52.466,69.669 52.466,69.669 ZM54.456,71.550 C54.779,71.550 54.927,71.390 54.927,71.217 C54.927,71.034 54.826,70.926 54.332,70.743 C53.800,70.550 53.617,70.298 53.617,69.972 C53.617,69.561 53.951,69.181 54.534,69.181 C54.826,69.181 55.114,69.266 55.289,69.367 C55.289,69.367 55.133,69.794 55.133,69.794 C54.974,69.705 54.733,69.611 54.523,69.611 C54.235,69.611 54.103,69.771 54.103,69.960 C54.103,70.135 54.251,70.244 54.636,70.383 C55.246,70.620 55.421,70.860 55.421,71.217 C55.421,71.700 55.051,71.999 54.441,71.999 C54.118,71.999 53.796,71.891 53.547,71.739 C53.547,71.739 53.714,71.305 53.714,71.305 C53.939,71.457 54.212,71.550 54.456,71.550 ZM57.113,71.953 C57.113,71.953 56.631,71.953 56.631,71.953 C56.631,71.953 56.631,69.228 56.631,69.228 C56.631,69.228 57.113,69.228 57.113,69.228 C57.113,69.228 57.113,71.953 57.113,71.953 ZM59.813,69.181 C60.423,69.181 60.777,69.402 60.777,69.402 C60.777,69.402 60.610,69.813 60.610,69.813 C60.610,69.813 60.256,69.635 59.895,69.635 C59.253,69.635 58.861,70.038 58.861,70.596 C58.861,71.143 59.280,71.545 59.848,71.545 C60.100,71.545 60.322,71.491 60.470,71.437 C60.470,71.437 60.470,70.952 60.470,70.952 C60.470,70.952 59.708,70.952 59.708,70.952 C59.708,70.952 59.708,70.522 59.708,70.522 C59.708,70.522 60.936,70.522 60.936,70.522 C60.936,70.522 60.936,71.689 60.936,71.689 C60.936,71.689 60.528,71.999 59.879,71.999 C58.953,71.999 58.339,71.395 58.339,70.588 C58.339,69.801 59.004,69.181 59.813,69.181 ZM64.078,70.968 C64.078,70.968 64.078,69.228 64.078,69.228 C64.078,69.228 64.560,69.228 64.560,69.228 C64.560,69.228 64.560,71.972 64.560,71.972 C64.560,71.972 64.432,71.972 64.432,71.972 C64.432,71.972 62.717,70.263 62.717,70.263 C62.717,70.263 62.717,71.953 62.717,71.953 C62.717,71.953 62.235,71.953 62.235,71.953 C62.235,71.953 62.235,69.212 62.235,69.212 C62.235,69.212 62.387,69.212 62.387,69.212 C62.387,69.212 64.078,70.968 64.078,70.968 Z" id="path-1" class="cls-2" fill-rule="evenodd"/>
</svg>
