<svg xmlns="http://www.w3.org/2000/svg" xmlns:xlink="http://www.w3.org/1999/xlink" preserveAspectRatio="xMidYMid" width="150" height="85" viewBox="0 0 150 85">
  <defs>
    <style>

      .cls-2 {
        fill: #ffffff;
      }
    </style>
  </defs>
  <path d="M72.748,84.937 C72.748,84.937 81.634,84.937 81.634,84.937 C81.634,84.937 84.317,84.639 85.689,83.156 C86.950,81.793 86.910,79.235 86.910,79.235 C86.910,79.235 86.736,67.129 92.269,65.365 C97.725,63.626 104.730,76.939 112.155,82.058 C117.770,85.930 122.036,84.935 122.036,84.935 C122.036,84.935 141.890,84.952 141.890,84.952 C141.890,84.952 152.274,84.161 147.350,75.960 C146.947,75.289 144.482,69.892 132.587,58.804 C120.138,47.199 121.806,49.077 136.802,29.002 C145.935,16.776 149.585,9.313 148.444,6.117 C147.357,3.072 140.689,3.597 140.689,3.597 C140.689,3.597 118.287,3.588 118.287,3.588 C118.287,3.588 116.629,3.427 115.400,4.164 C114.199,4.886 113.428,6.759 113.428,6.759 C113.428,6.759 109.889,16.394 105.171,24.442 C95.218,41.417 91.237,42.316 89.610,41.260 C85.825,38.802 86.771,31.391 86.771,26.124 C86.771,9.672 89.255,2.812 81.932,1.036 C79.504,0.447 77.714,0.059 71.499,-0.006 C63.522,-0.088 56.773,0.019 52.951,1.900 C50.407,3.151 48.445,5.938 49.641,6.098 C51.119,6.296 54.464,7.005 56.238,9.429 C58.529,12.561 58.448,19.589 58.448,19.589 C58.448,19.589 59.765,38.956 55.374,41.362 C52.362,43.011 48.228,39.642 39.354,24.241 C34.809,16.352 31.375,7.466 31.375,7.466 C31.375,7.466 30.714,5.836 29.532,4.965 C28.100,3.908 26.099,3.573 26.099,3.573 C26.099,3.573 4.857,3.580 4.857,3.580 C4.857,3.580 1.669,3.669 0.497,5.062 C-0.545,6.303 0.414,8.864 0.414,8.864 C0.414,8.864 17.043,48.238 35.874,67.931 C53.142,85.990 72.748,84.937 72.748,84.937 Z" id="path-1" class="cls-2" fill-rule="evenodd"/>
</svg>
