<svg xmlns="http://www.w3.org/2000/svg" xmlns:xlink="http://www.w3.org/1999/xlink" preserveAspectRatio="xMidYMid" width="7" height="16" viewBox="0 0 7 16">
  <defs>
    <style>

      .cls-2 {
        fill: #ffffff;
      }
    </style>
  </defs>
  <path d="M4.679,16.000 C4.679,16.000 1.872,16.000 1.872,16.000 C1.872,16.000 1.872,8.000 1.872,8.000 C1.872,8.000 -0.000,8.000 -0.000,8.000 C-0.000,8.000 -0.000,5.243 -0.000,5.243 C-0.000,5.243 1.872,5.242 1.872,5.242 C1.872,5.242 1.869,3.618 1.869,3.618 C1.869,1.369 2.440,-0.000 4.921,-0.000 C4.921,-0.000 6.986,-0.000 6.986,-0.000 C6.986,-0.000 6.986,2.757 6.986,2.757 C6.986,2.757 5.695,2.757 5.695,2.757 C4.729,2.757 4.683,3.143 4.683,3.862 C4.683,3.862 4.679,5.242 4.679,5.242 C4.679,5.242 7.000,5.242 7.000,5.242 C7.000,5.242 6.727,7.999 6.727,7.999 C6.727,7.999 4.681,8.000 4.681,8.000 C4.681,8.000 4.679,16.000 4.679,16.000 Z" id="path-1" class="cls-2" fill-rule="evenodd"/>
</svg>
