<svg xmlns="http://www.w3.org/2000/svg" xmlns:xlink="http://www.w3.org/1999/xlink" preserveAspectRatio="xMidYMid" width="16" height="16" viewBox="0 0 16 16">
  <defs>
    <style>

      .cls-2 {
        fill: #ffffff;
      }
    </style>
  </defs>
  <path d="M0.850,3.990 C0.850,5.347 1.295,6.328 2.173,6.904 C2.892,7.375 3.727,7.446 4.160,7.446 C4.265,7.446 4.350,7.442 4.409,7.438 C4.409,7.438 4.271,8.350 4.935,9.252 C4.935,9.252 4.905,9.252 4.905,9.252 C3.754,9.252 0.001,9.497 0.001,12.639 C0.001,15.837 3.449,15.999 4.140,15.999 C4.194,15.999 4.226,15.998 4.226,15.998 C4.233,15.998 4.283,16.000 4.367,16.000 C4.811,16.000 5.958,15.943 7.023,15.416 C8.405,14.733 9.106,13.544 9.106,11.884 C9.106,10.279 8.038,9.325 7.258,8.626 C6.782,8.201 6.371,7.834 6.371,7.477 C6.371,7.113 6.672,6.840 7.051,6.493 C7.666,5.933 8.246,5.136 8.246,3.629 C8.246,2.304 8.077,1.415 7.038,0.850 C7.146,0.794 7.529,0.753 7.719,0.726 C8.282,0.648 9.106,0.559 9.106,0.090 C9.106,0.090 9.106,-0.000 9.106,-0.000 C9.106,-0.000 5.001,-0.000 5.001,-0.000 C4.960,0.001 0.850,0.156 0.850,3.990 ZM7.476,12.183 C7.555,13.462 6.481,14.405 4.869,14.525 C3.231,14.647 1.882,13.896 1.804,12.619 C1.766,12.005 2.031,11.403 2.550,10.925 C3.076,10.440 3.798,10.141 4.583,10.081 C4.676,10.075 4.768,10.072 4.860,10.072 C6.376,10.072 7.402,10.979 7.476,12.183 ZM6.404,3.115 C6.807,4.557 6.199,6.065 5.230,6.344 C5.119,6.375 5.003,6.392 4.887,6.392 C3.999,6.392 3.120,5.477 2.794,4.217 C2.612,3.509 2.626,2.891 2.835,2.296 C3.041,1.711 3.409,1.315 3.873,1.182 C3.985,1.150 4.100,1.134 4.217,1.134 C5.289,1.134 5.978,1.586 6.404,3.115 ZM13.321,6.256 C13.321,6.256 13.321,3.529 13.321,3.529 C13.321,3.529 11.625,3.529 11.625,3.529 C11.625,3.529 11.625,6.256 11.625,6.256 C11.625,6.256 8.947,6.256 8.947,6.256 C8.947,6.256 8.947,7.984 8.947,7.984 C8.947,7.984 11.625,7.984 11.625,7.984 C11.625,7.984 11.625,10.711 11.625,10.711 C11.625,10.711 13.321,10.711 13.321,10.711 C13.321,10.711 13.321,7.984 13.321,7.984 C13.321,7.984 15.999,7.984 15.999,7.984 C15.999,7.984 15.999,6.256 15.999,6.256 C15.999,6.256 13.321,6.256 13.321,6.256 Z" id="path-1" class="cls-2" fill-rule="evenodd"/>
</svg>
