<svg xmlns="http://www.w3.org/2000/svg" xmlns:xlink="http://www.w3.org/1999/xlink" preserveAspectRatio="xMidYMid" width="16" height="16" viewBox="0 0 16 16">
  <defs>
    <style>

      .cls-2 {
        fill: #ffffff;
      }
    </style>
  </defs>
  <path d="M16.000,9.810 C16.000,9.810 16.000,16.000 16.000,16.000 C16.000,16.000 12.571,16.000 12.571,16.000 C12.571,16.000 12.571,10.224 12.571,10.224 C12.571,8.773 12.075,7.783 10.833,7.783 C9.886,7.783 9.322,8.450 9.074,9.096 C8.983,9.327 8.960,9.648 8.960,9.971 C8.960,9.971 8.960,16.000 8.960,16.000 C8.960,16.000 5.530,16.000 5.530,16.000 C5.530,16.000 5.576,6.218 5.530,5.204 C5.530,5.204 8.960,5.204 8.960,5.204 C8.960,5.204 8.960,6.734 8.960,6.734 C8.953,6.746 8.944,6.758 8.937,6.769 C8.937,6.769 8.960,6.769 8.960,6.769 C8.960,6.769 8.960,6.734 8.960,6.734 C9.415,6.000 10.229,4.950 12.051,4.950 C14.308,4.950 16.000,6.493 16.000,9.810 ZM1.941,-0.000 C0.768,-0.000 -0.000,0.806 -0.000,1.865 C-0.000,2.901 0.745,3.731 1.896,3.731 C1.896,3.731 1.919,3.731 1.919,3.731 C3.115,3.731 3.859,2.901 3.859,1.865 C3.836,0.806 3.115,-0.000 1.941,-0.000 ZM0.204,16.000 C0.204,16.000 3.633,16.000 3.633,16.000 C3.633,16.000 3.633,5.204 3.633,5.204 C3.633,5.204 0.204,5.204 0.204,5.204 C0.204,5.204 0.204,16.000 0.204,16.000 Z" id="path-1" class="cls-2" fill-rule="evenodd"/>
</svg>
