<svg xmlns="http://www.w3.org/2000/svg" xmlns:xlink="http://www.w3.org/1999/xlink" preserveAspectRatio="xMidYMid" width="13" height="16" viewBox="0 0 13 16">
  <defs>
    <style>

      .cls-2 {
        fill: #ffffff;
      }
    </style>
  </defs>
  <path d="M2.357,9.267 C3.163,7.899 2.098,7.599 1.931,6.609 C1.248,2.558 6.801,-0.208 9.709,2.622 C11.722,4.582 10.396,10.608 7.152,9.981 C4.045,9.384 8.674,4.587 6.194,3.645 C4.178,2.880 3.108,5.985 4.064,7.529 C3.503,10.185 2.296,12.685 2.784,16.013 C4.369,14.910 4.904,12.798 5.342,10.595 C6.138,11.060 6.564,11.542 7.580,11.617 C11.325,11.895 13.418,8.030 12.905,4.463 C12.451,1.301 9.165,-0.310 5.660,0.068 C2.889,0.366 0.126,2.515 0.011,5.588 C-0.058,7.464 0.496,8.871 2.357,9.267 Z" id="path-1" class="cls-2" fill-rule="evenodd"/>
</svg>
