<svg xmlns="http://www.w3.org/2000/svg" xmlns:xlink="http://www.w3.org/1999/xlink" preserveAspectRatio="xMidYMid" width="37" height="37" viewBox="0 0 37 37">
  <defs>
    <style>

      .cls-2 {
        fill: #ffffff;
        opacity: 0.5;
      }
    </style>
  </defs>
  <path d="M18.339,-0.000 C28.472,-0.000 36.687,8.283 36.687,18.500 C36.687,28.717 28.472,37.000 18.339,37.000 C8.206,37.000 -0.009,28.717 -0.009,18.500 C-0.009,8.283 8.206,-0.000 18.339,-0.000 ZM18.339,35.195 C27.484,35.195 34.897,27.720 34.897,18.500 C34.897,9.279 27.484,1.805 18.339,1.805 C9.194,1.805 1.781,9.279 1.781,18.500 C1.781,27.720 9.194,35.195 18.339,35.195 ZM15.551,10.263 C16.011,9.807 16.757,9.807 17.217,10.263 C17.217,10.263 24.712,17.688 24.712,17.688 C25.172,18.144 25.172,18.883 24.712,19.338 C24.712,19.338 17.217,26.764 17.217,26.764 C16.757,27.219 16.011,27.219 15.551,26.764 C15.091,26.308 15.091,25.569 15.551,25.114 C15.551,25.114 22.214,18.513 22.214,18.513 C22.214,18.513 15.551,11.913 15.551,11.913 C15.091,11.457 15.091,10.719 15.551,10.263 Z" id="path-1" class="cls-2" fill-rule="evenodd"/>
</svg>
