<svg xmlns="http://www.w3.org/2000/svg" xmlns:xlink="http://www.w3.org/1999/xlink" preserveAspectRatio="xMidYMid" width="148" height="122" viewBox="0 0 148 122">
  <defs>
    <style>

      .cls-2 {
        fill: #7e8286;
      }
    </style>
  </defs>
  <path d="M147.895,67.546 C147.831,67.789 147.733,68.116 147.605,68.526 C147.351,69.338 147.194,70.078 147.129,70.749 C147.129,70.749 147.129,70.753 147.129,70.753 C147.129,70.753 147.116,70.852 147.116,70.852 C147.116,70.852 147.115,70.852 147.115,70.852 C147.115,70.848 147.116,70.845 147.116,70.841 C147.116,70.841 146.907,70.826 146.907,70.826 C146.907,70.826 147.115,70.852 147.115,70.852 C147.089,71.206 147.017,71.490 146.870,71.708 C146.726,71.929 146.479,72.059 146.210,72.053 C146.210,72.053 146.198,72.053 146.198,72.053 C146.198,72.053 146.011,72.041 146.011,72.041 C146.011,72.041 146.000,72.041 146.000,72.041 C145.267,71.956 144.501,71.909 143.703,71.909 C143.703,71.909 136.066,71.909 136.066,71.909 C135.758,71.909 135.384,71.933 134.945,71.981 C134.945,71.981 134.945,71.980 134.945,71.980 C134.497,72.029 134.222,72.053 134.084,72.053 C133.890,72.053 133.712,72.010 133.574,71.894 C133.427,71.773 133.368,71.584 133.372,71.394 C133.367,71.210 133.464,71.028 133.616,70.926 C133.768,70.818 133.958,70.761 134.189,70.727 C134.189,70.727 134.198,70.726 134.198,70.726 C134.358,70.712 134.483,70.698 134.554,70.682 C134.554,70.682 134.570,70.680 134.570,70.680 C135.181,70.601 135.534,70.416 135.682,70.188 C135.751,70.091 135.830,69.840 135.878,69.471 C135.927,69.101 135.951,68.608 135.951,68.001 C135.951,68.001 135.951,59.656 135.951,59.656 C135.959,58.449 135.833,57.686 135.682,57.478 C135.534,57.247 135.183,57.059 134.579,56.974 C134.579,56.974 134.568,56.973 134.568,56.973 C134.489,56.958 134.361,56.939 134.189,56.915 C133.965,56.882 133.778,56.825 133.630,56.715 C133.484,56.609 133.392,56.428 133.398,56.246 C133.394,56.068 133.444,55.888 133.583,55.768 C133.583,55.768 133.582,55.770 133.582,55.770 C133.723,55.647 133.905,55.612 134.109,55.612 C134.229,55.612 134.500,55.616 134.939,55.625 C135.373,55.632 135.749,55.637 136.066,55.637 C136.066,55.637 142.553,55.637 142.553,55.637 C143.523,55.637 144.489,55.610 145.447,55.564 C145.447,55.564 145.465,55.773 145.465,55.773 C145.465,55.773 145.454,55.564 145.454,55.564 C145.451,55.564 145.449,55.564 145.447,55.564 C145.447,55.564 145.447,55.564 145.447,55.564 C145.672,55.549 145.802,55.540 145.867,55.539 C145.867,55.539 145.892,55.539 145.892,55.539 C145.892,55.539 145.931,55.545 145.931,55.545 C145.931,55.545 146.301,55.615 146.301,55.615 C146.301,55.615 146.401,55.667 146.401,55.667 C146.401,55.667 146.531,55.782 146.531,55.782 C146.531,55.782 146.585,55.872 146.585,55.872 C146.585,55.872 146.619,55.965 146.619,55.965 C146.619,55.965 146.629,56.029 146.629,56.029 C146.625,56.105 146.609,56.179 146.577,56.367 C146.408,57.326 146.324,58.285 146.324,59.254 C146.324,59.254 146.324,59.253 146.324,59.253 C146.324,59.253 146.324,59.256 146.324,59.256 C146.324,59.255 146.324,59.255 146.324,59.254 C146.324,59.254 146.326,59.293 146.326,59.293 C146.326,59.293 146.345,59.454 146.345,59.454 C146.345,59.454 146.345,59.456 146.345,59.456 C146.363,59.605 146.374,59.751 146.374,59.896 C146.375,60.060 146.309,60.220 146.195,60.329 C146.195,60.329 146.189,60.334 146.189,60.334 C146.081,60.442 145.920,60.509 145.756,60.505 C145.604,60.508 145.443,60.433 145.352,60.312 C145.258,60.192 145.213,60.045 145.183,59.875 C145.183,59.875 145.388,59.836 145.388,59.836 C145.388,59.836 145.181,59.869 145.181,59.869 C145.181,59.871 145.182,59.873 145.183,59.875 C145.183,59.875 145.181,59.875 145.181,59.875 C145.134,59.624 145.082,59.416 145.029,59.262 C145.029,59.262 145.029,59.262 145.029,59.262 C145.029,59.262 145.030,59.263 145.030,59.263 C145.030,59.263 145.230,59.195 145.230,59.195 C145.230,59.195 145.029,59.262 145.029,59.262 C144.729,58.416 144.314,57.839 143.796,57.498 C143.796,57.498 143.796,57.497 143.796,57.497 C143.797,57.498 143.799,57.499 143.800,57.499 C143.800,57.499 143.796,57.495 143.796,57.495 C143.796,57.495 143.796,57.497 143.796,57.497 C143.279,57.159 142.525,56.977 141.523,56.977 C141.523,56.977 140.595,56.977 140.595,56.977 C139.936,56.977 139.569,57.145 139.398,57.415 C139.398,57.415 139.394,57.415 139.394,57.415 C139.206,57.682 139.075,58.458 139.080,59.656 C139.080,59.656 139.080,62.798 139.080,62.798 C139.080,62.798 139.953,62.812 139.953,62.812 C139.953,62.812 139.954,62.812 139.954,62.812 C140.335,62.816 140.847,62.819 141.498,62.819 C142.450,62.819 143.145,62.801 143.573,62.763 C143.997,62.731 144.279,62.661 144.374,62.604 C144.372,62.605 144.370,62.609 144.368,62.610 C144.368,62.610 144.485,62.784 144.485,62.784 C144.485,62.784 144.378,62.603 144.378,62.603 C144.377,62.603 144.375,62.603 144.374,62.604 C144.506,62.515 144.652,62.316 144.768,61.983 C144.768,61.983 144.768,61.980 144.768,61.980 C144.840,61.783 144.922,61.623 145.038,61.500 C145.154,61.379 145.317,61.299 145.487,61.302 C145.487,61.302 145.573,61.318 145.573,61.318 C145.573,61.318 145.824,61.427 145.824,61.427 C145.824,61.427 145.903,61.490 145.903,61.490 C146.000,61.605 146.043,61.757 146.041,61.911 C146.041,61.969 146.027,62.049 146.007,62.235 C145.984,62.416 145.951,62.673 145.907,63.011 C145.907,63.011 145.907,63.011 145.907,63.011 C145.816,63.679 145.772,64.330 145.772,64.967 C145.772,65.148 145.779,65.355 145.798,65.588 C145.798,65.588 145.798,65.592 145.798,65.592 C145.813,65.833 145.817,65.969 145.817,66.032 C145.821,66.195 145.760,66.355 145.642,66.466 C145.530,66.583 145.367,66.644 145.207,66.643 C145.207,66.643 145.134,66.630 145.134,66.630 C145.134,66.630 144.864,66.532 144.864,66.532 C144.864,66.532 144.748,66.432 144.748,66.432 C144.748,66.432 144.625,66.189 144.625,66.189 C144.625,66.189 144.605,66.130 144.605,66.130 C144.590,66.028 144.567,65.871 144.544,65.660 C144.544,65.660 144.544,65.659 144.544,65.659 C144.485,65.081 144.346,64.711 144.207,64.568 C144.209,64.570 144.213,64.571 144.214,64.573 C144.214,64.573 144.361,64.423 144.361,64.423 C144.361,64.423 144.205,64.565 144.205,64.565 C144.205,64.566 144.206,64.568 144.207,64.568 C144.081,64.448 143.812,64.331 143.397,64.264 C143.397,64.264 143.398,64.264 143.398,64.264 C142.981,64.195 142.269,64.155 141.278,64.155 C140.667,64.155 140.189,64.160 139.850,64.163 C139.850,64.163 139.850,64.163 139.850,64.163 C139.584,64.168 139.333,64.171 139.092,64.178 C139.092,64.178 139.090,64.178 139.090,64.178 C139.090,64.178 139.080,67.525 139.080,67.525 C139.080,67.525 139.080,67.525 139.080,67.525 C139.080,67.525 139.080,67.527 139.080,67.527 C139.080,67.527 139.080,67.525 139.080,67.525 C139.080,68.278 139.118,68.886 139.182,69.340 C139.247,69.792 139.358,70.091 139.457,70.210 C139.669,70.484 140.149,70.666 140.949,70.665 C141.914,70.665 142.826,70.482 143.685,70.113 C144.546,69.743 145.248,69.241 145.803,68.603 C146.101,68.267 146.360,67.855 146.583,67.367 C146.700,67.110 146.807,66.910 146.923,66.764 C147.039,66.621 147.159,66.500 147.359,66.492 C147.511,66.491 147.667,66.537 147.786,66.635 C147.786,66.635 147.845,66.699 147.845,66.699 C147.845,66.699 147.974,66.930 147.974,66.930 C147.974,66.930 147.999,67.032 147.999,67.032 C147.994,67.153 147.960,67.298 147.895,67.546 ZM2.217,47.516 C2.217,47.516 145.627,47.516 145.627,47.516 C145.627,47.516 145.627,49.018 145.627,49.018 C145.627,49.018 2.217,49.018 2.217,49.018 C2.217,49.018 2.217,47.516 2.217,47.516 ZM109.047,41.421 C109.047,41.421 108.966,41.500 108.966,41.500 C107.713,41.460 106.060,41.440 104.017,41.440 C104.017,41.440 101.120,41.421 101.120,41.421 C100.459,41.421 99.784,41.447 99.097,41.500 C99.097,41.500 99.017,41.421 99.017,41.421 C99.017,41.421 99.017,41.097 99.017,41.097 C99.017,41.097 99.097,40.999 99.097,40.999 C99.508,40.790 99.732,40.663 99.772,40.617 C99.810,40.571 99.851,40.148 99.897,39.352 C99.940,38.552 99.959,37.592 99.959,36.467 C99.959,36.467 99.959,32.257 99.959,32.257 C99.959,32.257 99.940,30.344 99.940,30.344 C99.933,29.597 99.913,29.117 99.886,28.902 C99.855,28.686 99.808,28.541 99.747,28.469 C99.685,28.397 99.563,28.338 99.383,28.293 C99.207,28.246 98.764,28.212 98.066,28.184 C98.066,28.184 97.984,28.116 97.984,28.116 C97.984,28.116 97.984,27.625 97.984,27.625 C97.984,27.625 98.066,27.557 98.066,27.557 C99.704,27.609 100.651,27.635 100.901,27.635 C101.127,27.635 102.077,27.609 103.749,27.557 C103.749,27.557 103.829,27.625 103.829,27.625 C103.829,27.625 103.829,28.116 103.829,28.116 C103.829,28.116 103.749,28.184 103.749,28.184 C103.292,28.197 102.941,28.217 102.693,28.244 C102.446,28.270 102.266,28.320 102.150,28.391 C102.039,28.463 101.966,28.631 101.929,28.897 C101.892,29.161 101.875,29.529 101.875,30.001 C101.875,30.001 101.856,32.257 101.856,32.257 C101.856,32.257 101.856,36.594 101.856,36.594 C101.856,37.680 101.863,38.439 101.875,38.870 C101.875,38.870 101.925,40.568 101.925,40.568 C101.925,40.568 103.949,40.568 103.949,40.568 C105.562,40.568 106.569,40.548 106.969,40.509 C107.370,40.469 107.755,40.375 108.127,40.224 C108.196,40.061 108.301,39.685 108.439,39.096 C108.573,38.507 108.645,38.168 108.653,38.075 C108.653,38.075 108.740,37.997 108.740,37.997 C108.740,37.997 109.225,37.997 109.225,37.997 C109.225,37.997 109.295,38.075 109.295,38.075 C109.241,38.337 109.186,38.844 109.130,39.596 C109.074,40.348 109.047,40.956 109.047,41.421 ZM87.666,30.579 C87.666,30.095 87.661,29.701 87.649,29.397 C87.635,29.093 87.611,28.875 87.578,28.744 C87.545,28.615 87.507,28.521 87.462,28.469 C87.419,28.416 87.351,28.374 87.254,28.337 C87.158,28.301 86.995,28.270 86.764,28.244 C86.764,28.244 86.010,28.184 86.010,28.184 C86.010,28.184 85.932,28.116 85.932,28.116 C85.932,28.116 85.932,27.625 85.932,27.625 C85.932,27.625 86.010,27.557 86.010,27.557 C88.279,27.597 89.733,27.616 90.367,27.616 C92.535,27.615 94.467,27.597 96.158,27.557 C96.158,27.557 96.209,27.625 96.209,27.625 C96.045,28.254 95.922,29.238 95.841,30.580 C95.841,30.580 95.784,30.657 95.784,30.657 C95.784,30.657 95.298,30.657 95.298,30.657 C95.298,30.657 95.207,30.579 95.207,30.579 C95.215,30.520 95.216,30.468 95.216,30.423 C95.216,29.866 95.173,29.337 95.088,28.832 C94.672,28.650 94.095,28.530 93.356,28.474 C92.619,28.419 92.066,28.391 91.695,28.391 C91.173,28.390 90.505,28.427 89.693,28.500 C89.693,28.500 89.650,30.069 89.650,30.069 C89.650,30.069 89.624,31.864 89.624,31.864 C89.624,31.864 89.591,33.856 89.591,33.856 C90.308,33.896 90.965,33.914 91.568,33.914 C92.176,33.914 92.684,33.896 93.092,33.856 C93.503,33.817 93.743,33.777 93.812,33.733 C93.882,33.692 93.936,33.609 93.971,33.488 C94.010,33.368 94.040,33.153 94.069,32.846 C94.069,32.846 94.106,32.238 94.106,32.238 C94.106,32.238 94.184,32.159 94.184,32.159 C94.184,32.159 94.642,32.159 94.642,32.159 C94.642,32.159 94.722,32.238 94.722,32.238 C94.706,32.951 94.693,33.666 94.672,34.386 C94.672,34.386 94.722,36.594 94.722,36.594 C94.722,36.594 94.642,36.672 94.642,36.672 C94.642,36.672 94.184,36.672 94.184,36.672 C94.184,36.672 94.106,36.594 94.106,36.594 C94.106,36.594 94.038,36.005 94.038,36.005 C93.977,35.547 93.934,35.274 93.908,35.186 C93.881,35.098 93.820,35.021 93.725,34.956 C93.629,34.890 93.381,34.837 92.983,34.799 C92.589,34.758 92.042,34.740 91.349,34.740 C90.965,34.740 90.377,34.755 89.591,34.788 C89.560,35.338 89.541,36.254 89.541,37.535 C89.541,38.909 89.560,39.920 89.591,40.568 C89.591,40.568 91.417,40.568 91.417,40.568 C93.025,40.568 94.029,40.548 94.435,40.509 C94.837,40.469 95.220,40.375 95.583,40.224 C95.642,40.074 95.739,39.725 95.878,39.180 C96.011,38.634 96.092,38.292 96.110,38.154 C96.110,38.154 96.209,38.085 96.209,38.085 C96.209,38.085 96.685,38.085 96.685,38.085 C96.685,38.085 96.765,38.153 96.765,38.153 C96.706,38.435 96.647,38.926 96.591,39.625 C96.535,40.326 96.507,40.925 96.507,41.421 C96.507,41.421 96.438,41.500 96.438,41.500 C95.173,41.460 93.521,41.440 91.476,41.440 C91.476,41.440 88.778,41.421 88.778,41.421 C88.151,41.421 87.495,41.447 86.814,41.500 C86.814,41.500 86.734,41.421 86.734,41.421 C86.734,41.421 86.734,41.097 86.734,41.097 C86.734,41.097 86.814,40.999 86.814,40.999 C87.203,40.804 87.428,40.680 87.485,40.631 C87.542,40.582 87.587,40.010 87.623,38.915 C87.660,37.819 87.677,36.983 87.677,36.407 C87.677,36.407 87.677,32.807 87.677,32.807 C87.677,32.807 87.666,30.579 87.666,30.579 ZM96.231,22.304 C94.116,22.304 93.340,20.981 93.340,20.981 C93.340,20.981 93.834,21.607 96.231,21.675 C98.626,21.747 100.175,19.586 100.175,18.820 C100.175,18.051 101.304,15.123 95.736,14.984 C90.166,14.846 89.510,18.123 83.895,18.259 C78.889,18.388 74.632,14.364 74.309,9.550 C74.005,4.969 77.479,-0.011 81.233,-0.001 C84.704,0.004 87.843,1.671 87.913,5.223 C87.981,8.780 85.163,9.550 84.318,9.550 C83.471,9.550 81.637,9.339 81.287,7.597 C80.933,5.852 82.413,5.223 82.413,5.223 C82.413,5.223 81.425,6.202 81.921,7.388 C82.417,8.572 83.472,8.850 84.318,8.780 C85.163,8.711 87.560,8.363 87.350,5.085 C87.138,1.808 83.497,0.788 81.287,0.834 C79.546,0.870 74.571,3.939 74.943,9.476 C75.321,15.053 80.918,17.982 83.895,17.841 C87.295,17.683 91.364,14.220 95.736,14.220 C100.109,14.220 101.588,16.657 101.094,18.958 C100.601,21.259 98.342,22.304 96.231,22.304 ZM81.442,3.874 C75.510,4.135 77.479,11.221 77.478,11.221 C75.790,9.685 75.347,2.715 81.569,2.715 C87.491,2.715 84.742,7.525 84.742,7.525 C84.742,7.525 85.562,3.690 81.442,3.874 ZM85.375,12.454 C85.375,12.454 84.435,12.031 84.342,11.151 C84.239,10.209 85.422,9.989 85.634,10.037 C85.850,10.081 87.738,9.803 87.738,12.543 C87.738,15.180 84.387,16.076 82.368,16.076 C80.348,16.076 78.442,14.403 78.442,14.403 C78.442,14.403 80.533,15.522 81.943,15.522 C83.354,15.522 87.021,14.914 87.160,12.454 C87.300,9.991 84.797,10.490 84.858,11.221 C84.904,11.785 85.375,12.453 85.375,12.453 C85.375,12.453 85.375,12.454 85.375,12.454 ZM95.019,11.551 C93.751,11.623 92.412,12.224 90.026,14.312 C87.160,16.822 83.354,16.822 83.354,16.822 C83.354,16.822 87.126,16.036 89.649,13.892 C91.349,12.452 92.516,10.685 95.055,10.500 C97.592,10.316 98.439,12.637 98.439,12.637 C98.439,12.637 97.318,11.415 95.019,11.551 ZM77.975,28.519 C77.975,28.519 76.497,28.519 76.497,28.519 C75.887,28.519 75.363,28.531 74.917,28.558 C74.476,28.584 74.220,28.651 74.150,28.760 C74.080,28.866 74.017,29.219 73.957,29.814 C73.957,29.814 73.858,30.716 73.858,30.716 C73.858,30.716 73.769,30.805 73.769,30.805 C73.769,30.805 73.311,30.805 73.311,30.805 C73.311,30.805 73.233,30.727 73.233,30.727 C73.219,29.150 73.187,28.124 73.143,27.645 C73.143,27.645 73.233,27.557 73.233,27.557 C74.384,27.609 76.297,27.635 78.974,27.635 C81.708,27.635 83.625,27.609 84.732,27.557 C84.732,27.557 84.821,27.645 84.821,27.645 C84.759,28.233 84.732,29.261 84.732,30.727 C84.732,30.727 84.649,30.805 84.649,30.805 C84.649,30.805 84.184,30.805 84.184,30.805 C84.184,30.805 84.106,30.716 84.106,30.716 C84.106,30.716 83.998,29.814 83.998,29.814 C83.944,29.329 83.902,29.033 83.872,28.925 C83.843,28.818 83.794,28.739 83.728,28.690 C83.661,28.641 83.447,28.599 83.082,28.568 C82.719,28.535 82.312,28.519 81.864,28.519 C81.864,28.519 79.988,28.519 79.988,28.519 C79.934,29.996 79.907,30.851 79.907,31.080 C79.907,31.080 79.907,36.799 79.907,36.799 C79.907,36.799 79.930,38.713 79.930,38.713 C79.934,39.452 79.956,39.931 79.983,40.150 C80.012,40.370 80.061,40.514 80.121,40.582 C80.186,40.650 80.306,40.709 80.482,40.758 C80.663,40.808 81.103,40.846 81.815,40.872 C81.815,40.872 81.883,40.931 81.883,40.931 C81.883,40.931 81.883,41.421 81.883,41.421 C81.883,41.421 81.815,41.500 81.815,41.500 C80.120,41.447 79.175,41.421 78.974,41.421 C78.763,41.421 77.821,41.447 76.150,41.500 C76.150,41.500 76.070,41.421 76.070,41.421 C76.070,41.421 76.070,40.931 76.070,40.931 C76.070,40.931 76.150,40.872 76.150,40.872 C76.771,40.846 77.183,40.812 77.385,40.773 C77.586,40.735 77.719,40.684 77.791,40.621 C77.860,40.560 77.918,40.428 77.964,40.224 C78.011,40.021 78.032,39.570 78.032,38.870 C78.032,38.870 78.053,36.799 78.053,36.799 C78.053,36.799 78.053,31.080 78.053,31.080 C78.053,30.976 78.028,30.121 77.975,28.519 ZM61.614,27.876 C62.582,27.480 63.670,27.282 64.889,27.282 C67.144,27.282 68.940,27.890 70.276,29.102 C71.613,30.316 72.280,31.973 72.280,34.072 C72.280,35.550 71.954,36.878 71.299,38.056 C70.642,39.233 69.705,40.148 68.485,40.804 C67.265,41.458 65.894,41.784 64.373,41.784 C63.292,41.784 62.301,41.606 61.397,41.250 C60.490,40.893 59.718,40.361 59.079,39.655 C58.443,38.948 57.979,38.131 57.691,37.202 C57.403,36.273 57.258,35.427 57.258,34.661 C57.258,33.680 57.402,32.764 57.685,31.914 C57.969,31.064 58.454,30.277 59.138,29.554 C59.824,28.831 60.649,28.271 61.614,27.876 ZM59.323,34.013 C59.323,34.812 59.451,35.671 59.714,36.589 C59.975,37.508 60.367,38.297 60.885,38.953 C61.405,39.611 62.002,40.099 62.682,40.420 C63.358,40.741 64.130,40.901 64.998,40.901 C66.023,40.901 66.937,40.669 67.735,40.205 C68.537,39.740 69.145,39.019 69.561,38.041 C69.978,37.064 70.186,35.966 70.186,34.749 C70.186,33.428 69.950,32.234 69.473,31.168 C68.995,30.101 68.318,29.326 67.439,28.842 C66.559,28.359 65.583,28.116 64.512,28.116 C62.905,28.116 61.638,28.615 60.713,29.609 C59.786,30.603 59.323,32.071 59.323,34.013 C59.323,34.013 59.323,34.013 59.323,34.013 ZM64.019,18.259 C58.404,18.123 57.746,14.846 52.177,14.984 C46.609,15.123 47.740,18.051 47.740,18.820 C47.740,19.586 49.286,21.747 51.684,21.675 C54.079,21.607 54.574,20.981 54.574,20.981 C54.574,20.981 53.799,22.304 51.684,22.304 C49.571,22.304 47.315,21.259 46.822,18.958 C46.329,16.657 47.809,14.220 52.177,14.220 C56.548,14.220 60.622,17.683 64.019,17.841 C66.995,17.982 72.595,15.053 72.972,9.476 C73.342,3.939 68.365,0.870 66.624,0.834 C64.420,0.788 60.778,1.808 60.567,5.085 C60.353,8.363 62.752,8.711 63.597,8.780 C64.443,8.850 65.498,8.572 65.994,7.388 C66.489,6.202 65.500,5.223 65.500,5.223 C65.500,5.223 66.980,5.852 66.624,7.597 C66.275,9.339 64.443,9.550 63.597,9.550 C62.752,9.550 59.931,8.780 60.004,5.223 C60.072,1.671 63.212,0.004 66.678,-0.001 C70.434,-0.011 73.914,4.969 73.606,9.550 C73.285,14.364 69.023,18.388 64.019,18.259 ZM65.546,16.076 C63.524,16.076 60.178,15.180 60.178,12.543 C60.178,9.803 62.065,10.081 62.280,10.037 C62.493,9.989 63.674,10.209 63.573,11.151 C63.479,12.031 62.536,12.454 62.536,12.454 C62.536,12.454 62.536,12.453 62.536,12.453 C62.536,12.453 63.008,11.785 63.058,11.221 C63.118,10.490 60.614,9.991 60.755,12.454 C60.895,14.914 64.562,15.522 65.969,15.522 C67.379,15.522 69.474,14.403 69.474,14.403 C69.474,14.403 67.568,16.076 65.546,16.076 ZM66.472,3.874 C62.354,3.690 63.173,7.525 63.176,7.525 C63.176,7.525 60.426,2.715 66.346,2.715 C72.565,2.715 72.126,9.685 70.434,11.221 C70.434,11.221 72.405,4.135 66.472,3.874 ZM57.887,14.312 C55.499,12.224 54.165,11.623 52.894,11.551 C50.597,11.415 49.477,12.637 49.477,12.637 C49.477,12.637 50.322,10.316 52.861,10.500 C55.398,10.685 56.564,12.452 58.262,13.892 C60.788,16.036 64.562,16.822 64.562,16.822 C64.562,16.822 60.755,16.822 57.887,14.312 ZM45.090,28.244 C44.842,28.270 44.662,28.320 44.550,28.391 C44.437,28.463 44.362,28.631 44.327,28.897 C44.290,29.161 44.272,29.529 44.272,30.001 C44.272,30.001 44.254,32.257 44.254,32.257 C44.254,32.257 44.254,33.631 44.254,33.631 C45.701,33.670 47.075,33.689 48.370,33.689 C50.142,33.689 51.491,33.670 52.418,33.631 C52.418,33.631 52.419,32.257 52.419,32.257 C52.419,32.257 52.397,30.344 52.397,30.344 C52.392,29.597 52.371,29.117 52.339,28.902 C52.304,28.686 52.260,28.541 52.198,28.469 C52.139,28.397 52.020,28.338 51.842,28.293 C51.664,28.246 51.220,28.212 50.512,28.184 C50.512,28.184 50.443,28.116 50.443,28.116 C50.443,28.116 50.443,27.625 50.443,27.625 C50.443,27.625 50.512,27.557 50.512,27.557 C52.206,27.609 53.154,27.635 53.359,27.635 C53.586,27.635 54.534,27.609 56.208,27.557 C56.208,27.557 56.288,27.625 56.288,27.625 C56.288,27.625 56.288,28.116 56.288,28.116 C56.288,28.116 56.208,28.184 56.208,28.184 C55.743,28.197 55.389,28.217 55.140,28.244 C54.894,28.270 54.713,28.320 54.601,28.391 C54.488,28.463 54.415,28.631 54.382,28.897 C54.348,29.161 54.329,29.529 54.322,30.001 C54.322,30.001 54.303,32.257 54.303,32.257 C54.303,32.257 54.303,36.799 54.303,36.799 C54.303,36.799 54.322,38.713 54.322,38.713 C54.329,39.452 54.348,39.930 54.382,40.146 C54.415,40.361 54.461,40.506 54.526,40.577 C54.591,40.649 54.708,40.709 54.882,40.758 C55.059,40.808 55.499,40.846 56.208,40.872 C56.208,40.872 56.288,40.931 56.288,40.931 C56.288,40.931 56.288,41.421 56.288,41.421 C56.288,41.421 56.208,41.500 56.208,41.500 C54.514,41.447 53.565,41.421 53.359,41.421 C53.150,41.421 52.198,41.447 50.512,41.500 C50.512,41.500 50.443,41.421 50.443,41.421 C50.443,41.421 50.443,40.931 50.443,40.931 C50.443,40.931 50.512,40.872 50.512,40.872 C51.136,40.846 51.548,40.812 51.753,40.773 C51.958,40.735 52.093,40.684 52.160,40.621 C52.225,40.560 52.282,40.428 52.328,40.224 C52.374,40.021 52.397,39.570 52.397,38.870 C52.397,38.870 52.419,36.799 52.419,36.799 C52.419,36.799 52.419,34.563 52.419,34.563 C50.461,34.523 49.087,34.504 48.301,34.504 C47.492,34.503 46.143,34.523 44.254,34.563 C44.254,34.563 44.254,36.799 44.254,36.799 C44.254,36.799 44.264,38.713 44.264,38.713 C44.270,39.452 44.289,39.930 44.323,40.146 C44.355,40.361 44.403,40.506 44.466,40.577 C44.529,40.649 44.648,40.709 44.829,40.758 C45.007,40.808 45.446,40.846 46.148,40.872 C46.148,40.872 46.227,40.931 46.227,40.931 C46.227,40.931 46.227,41.421 46.227,41.421 C46.227,41.421 46.148,41.500 46.148,41.500 C44.461,41.447 43.511,41.421 43.299,41.421 C43.094,41.421 42.149,41.447 40.463,41.500 C40.463,41.500 40.384,41.421 40.384,41.421 C40.384,41.421 40.384,40.931 40.384,40.931 C40.384,40.931 40.463,40.872 40.463,40.872 C41.077,40.846 41.489,40.812 41.694,40.773 C41.898,40.735 42.035,40.684 42.105,40.621 C42.174,40.560 42.231,40.428 42.273,40.224 C42.315,40.021 42.340,39.570 42.347,38.870 C42.347,38.870 42.356,36.799 42.356,36.799 C42.356,36.799 42.356,32.257 42.356,32.257 C42.356,32.257 42.338,30.344 42.338,30.344 C42.330,29.597 42.313,29.117 42.283,28.902 C42.254,28.686 42.206,28.541 42.144,28.469 C42.081,28.397 41.960,28.338 41.782,28.293 C41.604,28.246 41.163,28.212 40.463,28.184 C40.463,28.184 40.384,28.116 40.384,28.116 C40.384,28.116 40.384,27.625 40.384,27.625 C40.384,27.625 40.463,27.557 40.463,27.557 C42.149,27.609 43.094,27.635 43.299,27.635 C43.519,27.635 44.469,27.609 46.148,27.557 C46.148,27.557 46.227,27.625 46.227,27.625 C46.227,27.625 46.227,28.116 46.227,28.116 C46.227,28.116 46.148,28.184 46.148,28.184 C45.692,28.197 45.339,28.217 45.090,28.244 ZM3.918,55.795 C4.507,55.795 5.146,55.770 5.824,55.717 C6.516,55.662 6.890,55.637 7.002,55.637 C7.203,55.639 7.376,55.667 7.519,55.773 C7.519,55.773 7.519,55.775 7.519,55.775 C7.657,55.881 7.721,56.056 7.715,56.221 C7.715,56.379 7.681,56.530 7.587,56.656 C7.486,56.787 7.340,56.869 7.138,56.958 C7.138,56.958 7.081,56.974 7.081,56.974 C6.607,57.037 6.295,57.136 6.187,57.221 C6.187,57.221 6.186,57.221 6.186,57.221 C6.073,57.307 6.019,57.408 6.015,57.617 C6.012,57.724 6.048,57.916 6.127,58.168 C6.127,58.168 6.129,58.171 6.129,58.171 C6.203,58.417 6.380,58.885 6.648,59.552 C6.648,59.552 6.647,59.552 6.647,59.552 C6.647,59.552 9.948,67.585 9.948,67.585 C9.948,67.585 9.951,67.587 9.951,67.587 C9.951,67.587 12.744,61.376 12.744,61.376 C12.744,61.376 12.746,61.375 12.746,61.375 C13.225,60.336 13.564,59.526 13.764,58.951 C13.764,58.951 13.764,58.949 13.764,58.949 C13.968,58.376 14.061,57.938 14.061,57.666 C14.056,57.424 13.992,57.296 13.866,57.200 C13.866,57.200 13.870,57.200 13.870,57.200 C13.747,57.106 13.454,57.013 13.014,56.976 C13.014,56.976 13.009,56.976 13.009,56.976 C12.942,56.966 12.846,56.954 12.715,56.939 C12.715,56.939 12.714,56.939 12.714,56.939 C12.714,56.939 12.713,56.939 12.713,56.939 C12.457,56.902 12.254,56.851 12.094,56.762 C11.936,56.675 11.803,56.512 11.809,56.319 C11.806,56.126 11.857,55.941 11.995,55.811 C11.995,55.811 11.995,55.809 11.995,55.809 C12.142,55.676 12.330,55.637 12.543,55.637 C12.690,55.637 13.004,55.663 13.522,55.718 C13.522,55.718 13.520,55.718 13.520,55.718 C14.028,55.770 14.473,55.795 14.848,55.795 C15.318,55.795 15.835,55.770 16.392,55.718 C16.392,55.718 16.391,55.718 16.391,55.718 C16.959,55.663 17.271,55.637 17.379,55.637 C17.579,55.637 17.755,55.669 17.898,55.766 C17.898,55.766 17.902,55.768 17.902,55.768 C18.048,55.872 18.119,56.049 18.115,56.221 C18.118,56.392 18.043,56.559 17.914,56.675 C17.789,56.792 17.622,56.867 17.424,56.921 C17.424,56.921 17.422,56.923 17.422,56.923 C17.422,56.923 17.242,56.967 17.242,56.967 C17.242,56.967 17.184,56.768 17.184,56.768 C17.184,56.768 17.238,56.969 17.238,56.969 C17.238,56.969 17.242,56.967 17.242,56.967 C17.242,56.967 17.243,56.969 17.243,56.969 C16.794,57.099 16.455,57.294 16.208,57.546 C16.208,57.546 16.208,57.544 16.208,57.544 C15.970,57.785 15.621,58.371 15.211,59.268 C15.211,59.268 10.657,69.227 10.657,69.227 C10.657,69.227 10.657,69.228 10.657,69.228 C10.411,69.751 10.174,70.383 9.954,71.126 C9.838,71.512 9.723,71.807 9.595,72.021 C9.474,72.224 9.330,72.395 9.081,72.404 C8.905,72.395 8.816,72.296 8.723,72.191 C8.633,72.081 8.547,71.934 8.450,71.746 C8.252,71.368 8.026,70.817 7.760,70.083 C7.229,68.634 6.690,67.304 6.137,66.098 C6.137,66.098 6.137,66.096 6.137,66.096 C6.137,66.096 3.276,59.812 3.276,59.812 C3.000,59.196 2.742,58.693 2.508,58.307 C2.275,57.922 2.041,57.614 1.811,57.386 C1.811,57.386 1.806,57.381 1.806,57.381 C1.602,57.159 1.223,57.006 0.630,56.977 C0.630,56.977 0.555,56.958 0.555,56.958 C0.356,56.869 0.214,56.798 0.111,56.651 C0.111,56.651 0.285,56.537 0.285,56.537 C0.285,56.537 0.109,56.650 0.109,56.650 C0.109,56.650 0.110,56.651 0.111,56.651 C0.111,56.651 0.109,56.653 0.109,56.653 C0.030,56.534 0.000,56.393 0.000,56.246 C0.000,56.068 0.049,55.897 0.183,55.778 C0.183,55.778 0.187,55.775 0.187,55.775 C0.332,55.665 0.504,55.640 0.712,55.637 C0.816,55.637 1.204,55.662 1.925,55.717 C1.925,55.717 1.924,55.717 1.924,55.717 C2.634,55.770 3.297,55.795 3.918,55.795 ZM26.328,70.210 C26.537,70.484 27.021,70.666 27.819,70.665 C28.785,70.665 29.695,70.482 30.552,70.113 C31.415,69.743 32.119,69.241 32.675,68.603 C32.970,68.267 33.231,67.855 33.448,67.367 C33.570,67.110 33.678,66.910 33.793,66.764 C33.910,66.621 34.028,66.500 34.229,66.492 C34.383,66.491 34.535,66.537 34.660,66.635 C34.660,66.635 34.714,66.699 34.714,66.699 C34.714,66.699 34.843,66.930 34.843,66.930 C34.843,66.930 34.868,67.032 34.868,67.032 C34.865,67.153 34.830,67.298 34.766,67.546 C34.701,67.789 34.604,68.116 34.476,68.526 C34.220,69.338 34.065,70.078 34.001,70.749 C34.001,70.749 34.000,70.753 34.000,70.753 C34.000,70.753 33.987,70.852 33.987,70.852 C33.987,70.852 33.987,70.852 33.987,70.852 C33.987,70.848 33.988,70.845 33.988,70.841 C33.988,70.841 33.777,70.826 33.777,70.826 C33.777,70.826 33.987,70.852 33.987,70.852 C33.958,71.206 33.887,71.490 33.743,71.708 C33.597,71.929 33.345,72.059 33.080,72.053 C33.080,72.053 33.066,72.053 33.066,72.053 C33.066,72.053 32.882,72.041 32.882,72.041 C32.882,72.041 32.873,72.041 32.873,72.041 C32.136,71.956 31.370,71.909 30.573,71.909 C30.573,71.909 22.937,71.909 22.937,71.909 C22.629,71.909 22.255,71.933 21.817,71.981 C21.817,71.981 21.817,71.980 21.817,71.980 C21.366,72.029 21.092,72.053 20.955,72.053 C20.762,72.053 20.580,72.010 20.442,71.894 C20.442,71.894 20.447,71.894 20.447,71.894 C20.299,71.773 20.241,71.584 20.241,71.394 C20.237,71.210 20.333,71.028 20.486,70.926 C20.637,70.818 20.827,70.761 21.060,70.727 C21.060,70.727 21.067,70.726 21.067,70.726 C21.228,70.712 21.353,70.698 21.423,70.682 C21.423,70.682 21.441,70.680 21.441,70.680 C22.052,70.601 22.406,70.416 22.553,70.188 C22.620,70.091 22.701,69.840 22.748,69.471 C22.798,69.101 22.824,68.608 22.824,68.001 C22.824,68.001 22.824,59.656 22.824,59.656 C22.830,58.449 22.704,57.686 22.553,57.478 C22.403,57.247 22.053,57.059 21.451,56.974 C21.451,56.974 21.441,56.973 21.441,56.973 C21.359,56.958 21.228,56.939 21.061,56.915 C21.061,56.915 21.057,56.915 21.057,56.915 C20.834,56.882 20.649,56.825 20.503,56.715 C20.352,56.609 20.263,56.428 20.265,56.246 C20.266,56.068 20.314,55.888 20.453,55.768 C20.453,55.768 20.452,55.770 20.452,55.770 C20.592,55.647 20.773,55.612 20.981,55.612 C21.099,55.612 21.373,55.616 21.810,55.625 C22.244,55.632 22.618,55.637 22.937,55.637 C22.937,55.637 29.421,55.637 29.421,55.637 C30.393,55.637 31.360,55.610 32.319,55.564 C32.319,55.564 32.335,55.773 32.335,55.773 C32.335,55.773 32.324,55.564 32.324,55.564 C32.322,55.564 32.320,55.564 32.319,55.564 C32.319,55.564 32.319,55.564 32.319,55.564 C32.541,55.549 32.671,55.540 32.738,55.539 C32.738,55.539 32.761,55.539 32.761,55.539 C32.761,55.539 32.804,55.545 32.804,55.545 C32.804,55.545 33.168,55.615 33.168,55.615 C33.168,55.615 33.271,55.667 33.271,55.667 C33.271,55.667 33.399,55.782 33.399,55.782 C33.399,55.782 33.458,55.872 33.458,55.872 C33.458,55.872 33.490,55.965 33.490,55.965 C33.490,55.965 33.499,56.029 33.499,56.029 C33.496,56.105 33.480,56.179 33.446,56.367 C33.279,57.325 33.194,58.285 33.193,59.254 C33.193,59.254 33.193,59.253 33.193,59.253 C33.193,59.253 33.193,59.256 33.193,59.256 C33.193,59.255 33.193,59.254 33.193,59.254 C33.193,59.254 33.196,59.293 33.196,59.293 C33.196,59.293 33.216,59.454 33.216,59.454 C33.216,59.454 33.216,59.456 33.216,59.456 C33.235,59.605 33.242,59.751 33.242,59.896 C33.247,60.060 33.178,60.220 33.066,60.329 C33.066,60.329 33.063,60.334 33.063,60.334 C32.950,60.442 32.790,60.509 32.625,60.505 C32.472,60.508 32.315,60.433 32.222,60.312 C32.130,60.191 32.079,60.043 32.050,59.869 C32.050,59.869 32.051,59.869 32.051,59.869 C32.052,59.871 32.052,59.873 32.053,59.875 C32.053,59.875 32.260,59.836 32.260,59.836 C32.260,59.836 32.051,59.869 32.051,59.869 C32.003,59.621 31.952,59.415 31.899,59.262 C31.899,59.262 31.901,59.261 31.901,59.261 C31.901,59.262 31.901,59.262 31.901,59.263 C31.901,59.263 32.098,59.195 32.098,59.195 C32.098,59.195 31.901,59.261 31.901,59.261 C31.601,58.416 31.184,57.839 30.669,57.498 C30.669,57.498 30.668,57.495 30.668,57.495 C30.668,57.495 30.669,57.499 30.669,57.499 C30.151,57.160 29.395,56.977 28.395,56.977 C28.395,56.977 27.462,56.977 27.462,56.977 C26.806,56.977 26.439,57.145 26.265,57.415 C26.265,57.415 26.262,57.415 26.262,57.415 C26.079,57.682 25.944,58.458 25.949,59.656 C25.949,59.656 25.949,62.798 25.949,62.798 C25.949,62.798 26.823,62.812 26.823,62.812 C26.823,62.812 26.824,62.812 26.824,62.812 C27.201,62.816 27.718,62.819 28.369,62.819 C29.322,62.819 30.012,62.801 30.444,62.763 C30.866,62.731 31.143,62.662 31.241,62.605 C31.240,62.606 31.239,62.609 31.237,62.610 C31.237,62.610 31.355,62.784 31.355,62.784 C31.355,62.784 31.250,62.603 31.250,62.603 C31.249,62.604 31.243,62.605 31.241,62.605 C31.377,62.517 31.522,62.317 31.638,61.983 C31.638,61.983 31.640,61.980 31.640,61.980 C31.709,61.783 31.794,61.623 31.910,61.500 C32.025,61.379 32.188,61.299 32.356,61.302 C32.356,61.302 32.441,61.318 32.441,61.318 C32.441,61.318 32.694,61.427 32.694,61.427 C32.694,61.427 32.775,61.490 32.775,61.490 C32.870,61.605 32.912,61.757 32.911,61.911 C32.909,61.969 32.897,62.049 32.876,62.235 C32.854,62.416 32.819,62.673 32.776,63.011 C32.686,63.679 32.642,64.330 32.642,64.967 C32.642,65.148 32.650,65.355 32.667,65.588 C32.667,65.588 32.667,65.592 32.667,65.592 C32.681,65.833 32.691,65.969 32.691,66.032 C32.692,66.195 32.631,66.355 32.512,66.466 C32.399,66.583 32.238,66.644 32.076,66.643 C32.076,66.643 32.004,66.630 32.004,66.630 C32.004,66.630 31.733,66.532 31.733,66.532 C31.733,66.532 31.617,66.432 31.617,66.432 C31.617,66.432 31.496,66.189 31.496,66.189 C31.496,66.189 31.475,66.130 31.475,66.130 C31.461,66.028 31.439,65.871 31.415,65.660 C31.415,65.660 31.415,65.659 31.415,65.659 C31.355,65.081 31.218,64.712 31.079,64.569 C31.080,64.570 31.084,64.571 31.085,64.573 C31.085,64.573 31.231,64.423 31.231,64.423 C31.231,64.423 31.076,64.565 31.076,64.565 C31.077,64.566 31.078,64.568 31.079,64.569 C30.953,64.448 30.684,64.331 30.266,64.264 C29.851,64.195 29.139,64.155 28.148,64.155 C27.539,64.155 27.060,64.160 26.719,64.163 C26.719,64.163 26.722,64.163 26.722,64.163 C26.457,64.168 26.203,64.171 25.964,64.178 C25.964,64.178 25.960,64.178 25.960,64.178 C25.960,64.178 25.949,67.525 25.949,67.525 C25.949,67.525 25.949,67.525 25.949,67.525 C25.949,67.525 25.949,67.527 25.949,67.527 C25.949,67.527 25.949,67.525 25.949,67.525 C25.949,68.278 25.985,68.886 26.053,69.340 C26.119,69.792 26.228,70.091 26.328,70.210 ZM41.431,70.142 C41.631,70.396 42.132,70.572 42.956,70.568 C43.877,70.568 44.697,70.402 45.425,70.072 C46.153,69.743 46.804,69.239 47.381,68.559 C47.381,68.559 47.387,68.557 47.387,68.557 C47.663,68.235 47.909,67.837 48.123,67.358 C48.238,67.101 48.345,66.904 48.460,66.759 C48.576,66.615 48.706,66.500 48.902,66.492 C48.902,66.492 48.970,66.505 48.970,66.505 C48.970,66.505 49.256,66.602 49.256,66.602 C49.256,66.602 49.373,66.698 49.373,66.698 C49.373,66.698 49.504,66.930 49.504,66.930 C49.504,66.930 49.530,67.032 49.530,67.032 C49.528,67.153 49.491,67.298 49.426,67.548 C49.360,67.789 49.264,68.116 49.135,68.526 C48.879,69.338 48.723,70.078 48.657,70.749 C48.657,70.749 48.651,70.793 48.651,70.793 C48.651,70.793 48.644,70.817 48.644,70.817 C48.645,70.803 48.649,70.793 48.650,70.780 C48.650,70.780 48.436,70.766 48.436,70.766 C48.436,70.766 48.640,70.829 48.640,70.829 C48.640,70.829 48.644,70.817 48.644,70.817 C48.612,71.170 48.542,71.457 48.394,71.675 C48.245,71.900 47.989,72.033 47.716,72.029 C47.716,72.029 47.704,72.029 47.704,72.029 C47.704,72.029 47.519,72.016 47.519,72.016 C47.519,72.016 47.509,72.016 47.509,72.016 C46.792,71.944 46.038,71.909 45.244,71.909 C45.244,71.909 38.048,71.909 38.048,71.909 C37.739,71.909 37.364,71.929 36.926,71.969 C36.475,72.007 36.203,72.029 36.068,72.029 C35.870,72.029 35.693,71.994 35.552,71.878 C35.552,71.878 35.548,71.877 35.548,71.877 C35.548,71.877 35.548,71.875 35.548,71.875 C35.409,71.758 35.353,71.577 35.356,71.394 C35.348,71.208 35.453,71.025 35.611,70.924 C35.767,70.819 35.962,70.768 36.206,70.741 C36.206,70.741 36.203,70.741 36.203,70.741 C36.354,70.725 36.470,70.713 36.552,70.705 C36.552,70.705 36.581,70.910 36.581,70.910 C36.581,70.910 36.561,70.704 36.561,70.704 C36.559,70.704 36.554,70.704 36.552,70.705 C36.552,70.705 36.552,70.704 36.552,70.704 C37.162,70.621 37.513,70.430 37.664,70.198 C37.819,69.985 37.943,69.212 37.936,68.001 C37.936,68.001 37.936,59.656 37.936,59.656 C37.943,58.442 37.819,57.671 37.664,57.458 C37.513,57.224 37.165,57.035 36.563,56.951 C36.563,56.951 36.559,56.950 36.559,56.950 C36.468,56.934 36.344,56.920 36.192,56.902 C36.192,56.902 36.192,56.902 36.192,56.902 C36.193,56.902 36.194,56.902 36.195,56.902 C36.195,56.902 36.214,56.696 36.214,56.696 C36.214,56.696 36.192,56.902 36.192,56.902 C35.956,56.880 35.763,56.830 35.606,56.725 C35.448,56.620 35.353,56.434 35.356,56.246 C35.352,56.068 35.406,55.890 35.548,55.776 C35.548,55.776 35.552,55.773 35.552,55.773 C35.693,55.667 35.863,55.639 36.068,55.637 C36.150,55.637 36.545,55.662 37.317,55.717 C37.317,55.717 37.317,55.717 37.317,55.717 C38.081,55.770 38.810,55.795 39.506,55.795 C40.186,55.795 40.903,55.770 41.657,55.717 C42.418,55.662 42.821,55.637 42.908,55.637 C43.110,55.639 43.281,55.667 43.421,55.771 C43.421,55.771 43.428,55.776 43.428,55.776 C43.562,55.882 43.620,56.056 43.619,56.221 C43.624,56.424 43.511,56.623 43.334,56.726 C43.160,56.832 42.941,56.878 42.672,56.891 C42.672,56.891 42.669,56.891 42.669,56.891 C42.413,56.901 42.217,56.919 42.081,56.943 C42.083,56.942 42.085,56.941 42.087,56.940 C42.087,56.940 42.056,56.946 42.056,56.946 C42.062,56.945 42.074,56.944 42.081,56.943 C41.712,57.081 41.456,57.378 41.301,57.920 C41.147,58.458 41.061,59.794 41.063,61.863 C41.063,61.863 41.063,66.813 41.063,66.813 C41.063,66.813 41.063,67.525 41.063,67.525 C41.063,68.268 41.098,68.861 41.166,69.305 C41.228,69.746 41.337,70.034 41.431,70.142 ZM56.525,70.210 C56.738,70.484 57.217,70.666 58.017,70.665 C58.982,70.665 59.895,70.482 60.753,70.113 C61.614,69.743 62.317,69.241 62.872,68.603 C63.170,68.267 63.429,67.855 63.651,67.367 C63.768,67.110 63.876,66.910 63.991,66.764 C64.107,66.621 64.228,66.500 64.427,66.492 C64.580,66.491 64.736,66.537 64.855,66.635 C64.855,66.635 64.913,66.699 64.913,66.699 C64.913,66.699 65.042,66.930 65.042,66.930 C65.042,66.930 65.067,67.032 65.067,67.032 C65.062,67.153 65.029,67.298 64.963,67.546 C64.900,67.789 64.801,68.116 64.674,68.526 C64.420,69.338 64.262,70.078 64.197,70.749 C64.197,70.749 64.197,70.753 64.197,70.753 C64.197,70.753 64.185,70.852 64.185,70.852 C64.185,70.852 64.183,70.852 64.183,70.852 C64.183,70.848 64.184,70.845 64.185,70.841 C64.185,70.841 63.976,70.826 63.976,70.826 C63.976,70.826 64.183,70.852 64.183,70.852 C64.157,71.206 64.086,71.490 63.939,71.708 C63.795,71.929 63.547,72.059 63.278,72.053 C63.278,72.053 63.266,72.053 63.266,72.053 C63.266,72.053 63.079,72.041 63.079,72.041 C63.079,72.041 63.068,72.041 63.068,72.041 C62.336,71.956 61.569,71.909 60.771,71.909 C60.771,71.909 53.135,71.909 53.135,71.909 C52.827,71.909 52.452,71.933 52.014,71.981 C52.014,71.981 52.014,71.980 52.014,71.980 C51.565,72.029 51.290,72.053 51.152,72.053 C50.959,72.053 50.781,72.010 50.643,71.894 C50.495,71.773 50.437,71.584 50.440,71.394 C50.435,71.210 50.532,71.028 50.685,70.926 C50.836,70.818 51.027,70.761 51.258,70.727 C51.258,70.727 51.266,70.726 51.266,70.726 C51.427,70.712 51.552,70.698 51.623,70.682 C51.623,70.682 51.639,70.680 51.639,70.680 C52.250,70.601 52.603,70.416 52.750,70.188 C52.820,70.091 52.899,69.840 52.946,69.471 C52.995,69.101 53.020,68.608 53.020,68.001 C53.020,68.001 53.020,59.656 53.020,59.656 C53.027,58.449 52.902,57.686 52.750,57.478 C52.603,57.247 52.251,57.059 51.647,56.974 C51.647,56.974 51.636,56.973 51.636,56.973 C51.558,56.958 51.429,56.939 51.258,56.915 C51.034,56.882 50.847,56.825 50.699,56.715 C50.553,56.609 50.460,56.428 50.466,56.246 C50.463,56.068 50.513,55.888 50.651,55.768 C50.651,55.768 50.650,55.770 50.650,55.770 C50.791,55.647 50.973,55.612 51.178,55.612 C51.298,55.612 51.569,55.616 52.008,55.625 C52.442,55.632 52.817,55.637 53.135,55.637 C53.135,55.637 59.621,55.637 59.621,55.637 C60.591,55.637 61.558,55.610 62.516,55.564 C62.516,55.564 62.533,55.773 62.533,55.773 C62.533,55.773 62.522,55.564 62.522,55.564 C62.520,55.564 62.518,55.564 62.516,55.564 C62.516,55.564 62.516,55.564 62.516,55.564 C62.741,55.549 62.870,55.540 62.936,55.539 C62.936,55.539 62.961,55.539 62.961,55.539 C62.961,55.539 62.999,55.545 62.999,55.545 C62.999,55.545 63.370,55.615 63.370,55.615 C63.370,55.615 63.470,55.667 63.470,55.667 C63.470,55.667 63.600,55.782 63.600,55.782 C63.600,55.782 63.654,55.872 63.654,55.872 C63.654,55.872 63.688,55.965 63.688,55.965 C63.688,55.965 63.697,56.029 63.697,56.029 C63.693,56.105 63.677,56.179 63.646,56.367 C63.477,57.326 63.393,58.285 63.392,59.254 C63.392,59.254 63.392,59.253 63.392,59.253 C63.392,59.253 63.392,59.256 63.392,59.256 C63.392,59.255 63.392,59.255 63.392,59.254 C63.392,59.254 63.395,59.293 63.395,59.293 C63.395,59.293 63.414,59.454 63.414,59.454 C63.414,59.454 63.414,59.456 63.414,59.456 C63.431,59.605 63.442,59.751 63.442,59.896 C63.444,60.060 63.377,60.220 63.263,60.329 C63.263,60.329 63.258,60.334 63.258,60.334 C63.150,60.442 62.988,60.509 62.824,60.505 C62.672,60.508 62.511,60.433 62.421,60.312 C62.327,60.192 62.282,60.045 62.251,59.875 C62.251,59.875 62.457,59.836 62.457,59.836 C62.457,59.836 62.249,59.869 62.249,59.869 C62.250,59.871 62.251,59.873 62.251,59.875 C62.251,59.875 62.249,59.875 62.249,59.875 C62.202,59.624 62.151,59.416 62.097,59.262 C62.097,59.262 62.098,59.262 62.098,59.262 C62.098,59.262 62.098,59.263 62.098,59.263 C62.098,59.263 62.298,59.195 62.298,59.195 C62.298,59.195 62.098,59.262 62.098,59.262 C61.798,58.416 61.383,57.839 60.864,57.498 C60.864,57.498 60.864,57.497 60.864,57.497 C60.865,57.498 60.867,57.499 60.868,57.499 C60.868,57.499 60.864,57.495 60.864,57.495 C60.864,57.495 60.864,57.497 60.864,57.497 C60.347,57.159 59.594,56.977 58.591,56.977 C58.591,56.977 57.663,56.977 57.663,56.977 C57.005,56.977 56.637,57.145 56.466,57.415 C56.466,57.415 56.462,57.415 56.462,57.415 C56.275,57.682 56.144,58.458 56.148,59.656 C56.148,59.656 56.148,62.798 56.148,62.798 C56.148,62.798 57.021,62.812 57.021,62.812 C57.021,62.812 57.023,62.812 57.023,62.812 C57.403,62.816 57.916,62.819 58.567,62.819 C59.519,62.819 60.213,62.801 60.641,62.763 C61.066,62.731 61.348,62.661 61.443,62.604 C61.441,62.605 61.439,62.609 61.437,62.610 C61.437,62.610 61.553,62.784 61.553,62.784 C61.553,62.784 61.446,62.603 61.446,62.603 C61.446,62.603 61.443,62.603 61.443,62.604 C61.575,62.515 61.721,62.316 61.836,61.983 C61.836,61.983 61.836,61.980 61.836,61.980 C61.908,61.783 61.991,61.623 62.107,61.500 C62.223,61.379 62.386,61.299 62.556,61.302 C62.556,61.302 62.641,61.318 62.641,61.318 C62.641,61.318 62.892,61.427 62.892,61.427 C62.892,61.427 62.972,61.490 62.972,61.490 C63.068,61.605 63.111,61.757 63.110,61.911 C63.110,61.969 63.096,62.049 63.075,62.235 C63.053,62.416 63.019,62.673 62.975,63.011 C62.975,63.011 62.976,63.011 62.976,63.011 C62.885,63.679 62.841,64.330 62.841,64.967 C62.841,65.148 62.848,65.355 62.867,65.588 C62.867,65.588 62.867,65.592 62.867,65.592 C62.881,65.833 62.886,65.969 62.886,66.032 C62.890,66.195 62.828,66.355 62.711,66.466 C62.598,66.583 62.436,66.644 62.276,66.643 C62.276,66.643 62.202,66.630 62.202,66.630 C62.202,66.630 61.933,66.532 61.933,66.532 C61.933,66.532 61.817,66.432 61.817,66.432 C61.817,66.432 61.693,66.189 61.693,66.189 C61.693,66.189 61.673,66.130 61.673,66.130 C61.659,66.028 61.636,65.871 61.612,65.660 C61.612,65.660 61.612,65.659 61.612,65.659 C61.554,65.081 61.415,64.710 61.276,64.568 C61.277,64.570 61.282,64.571 61.283,64.573 C61.283,64.573 61.430,64.423 61.430,64.423 C61.430,64.423 61.273,64.565 61.273,64.565 C61.274,64.566 61.275,64.567 61.276,64.568 C61.149,64.448 60.880,64.331 60.466,64.264 C60.466,64.264 60.466,64.264 60.466,64.264 C60.050,64.195 59.337,64.155 58.346,64.155 C57.736,64.155 57.257,64.160 56.919,64.163 C56.919,64.163 56.919,64.163 56.919,64.163 C56.653,64.168 56.401,64.171 56.160,64.178 C56.160,64.178 56.159,64.178 56.159,64.178 C56.159,64.178 56.148,67.525 56.148,67.525 C56.148,67.525 56.148,67.525 56.148,67.525 C56.148,67.525 56.148,67.527 56.148,67.527 C56.148,67.527 56.148,67.525 56.148,67.525 C56.148,68.278 56.186,68.886 56.251,69.340 C56.315,69.792 56.426,70.091 56.525,70.210 ZM88.601,60.493 C89.026,59.438 89.637,58.495 90.428,57.668 C90.428,57.668 90.430,57.666 90.430,57.666 C91.232,56.853 92.150,56.239 93.183,55.823 C94.215,55.409 95.339,55.201 96.543,55.201 C97.189,55.201 97.813,55.262 98.410,55.381 C98.410,55.381 98.453,55.337 98.453,55.337 C98.453,55.337 98.600,55.423 98.600,55.423 C99.056,55.525 99.498,55.662 99.925,55.836 C100.976,56.257 101.909,56.875 102.724,57.687 C102.724,57.687 102.724,57.687 102.724,57.687 C103.520,58.484 104.119,59.401 104.521,60.435 C104.921,61.469 105.120,62.609 105.120,63.850 C105.121,65.018 104.909,66.130 104.485,67.187 C104.061,68.240 103.447,69.174 102.656,69.977 C101.855,70.796 100.941,71.413 99.920,71.820 C98.897,72.228 97.768,72.429 96.543,72.429 C95.854,72.429 95.193,72.364 94.557,72.234 C94.064,72.132 93.587,71.989 93.128,71.808 C92.078,71.394 91.139,70.772 90.317,69.955 C89.537,69.181 88.948,68.278 88.552,67.250 C88.161,66.221 87.967,65.077 87.967,63.827 C87.967,62.663 88.181,61.549 88.599,60.493 C88.599,60.493 88.601,60.493 88.601,60.493 ZM91.532,65.468 C91.767,66.403 92.097,67.235 92.523,67.967 C92.523,67.967 92.523,67.968 92.523,67.968 C93.130,69.001 93.807,69.768 94.537,70.279 C95.267,70.789 96.044,71.041 96.883,71.043 C98.254,71.039 99.390,70.426 100.354,69.143 C101.308,67.862 101.786,66.249 101.789,64.276 C101.789,63.366 101.659,62.479 101.399,61.614 C101.140,60.746 100.754,59.928 100.239,59.151 C100.239,59.151 100.237,59.149 100.237,59.149 C99.640,58.222 98.994,57.546 98.299,57.109 C97.611,56.671 96.848,56.456 95.993,56.456 C94.551,56.459 93.421,57.003 92.525,58.123 C91.633,59.243 91.182,60.718 91.182,62.579 C91.182,63.573 91.299,64.536 91.532,65.468 ZM84.803,68.162 C85.748,69.270 86.474,70.001 86.949,70.342 C86.948,70.341 86.946,70.340 86.945,70.339 C86.945,70.339 86.825,70.511 86.825,70.511 C86.825,70.511 86.950,70.343 86.950,70.343 C86.950,70.342 86.950,70.342 86.949,70.342 C87.057,70.418 87.246,70.517 87.506,70.628 C87.658,70.694 87.778,70.768 87.876,70.863 C87.972,70.957 88.041,71.087 88.037,71.225 C88.041,71.368 87.978,71.506 87.884,71.608 C87.790,71.711 87.660,71.788 87.510,71.848 C87.202,71.974 86.821,72.029 86.358,72.029 C85.381,72.024 84.285,71.405 83.005,70.234 C81.723,69.057 80.259,67.306 78.600,64.980 C78.600,64.980 78.600,64.975 78.600,64.975 C78.439,64.737 78.309,64.551 78.209,64.410 C78.209,64.410 77.798,64.410 77.798,64.410 C77.798,64.410 77.798,65.793 77.798,65.793 C77.795,67.870 77.869,69.206 78.004,69.727 C78.136,70.260 78.357,70.549 78.642,70.676 C78.637,70.675 78.628,70.674 78.624,70.673 C78.624,70.673 78.571,70.872 78.571,70.872 C78.571,70.872 78.651,70.682 78.651,70.682 C78.648,70.680 78.645,70.677 78.642,70.676 C78.740,70.701 78.893,70.720 79.101,70.725 C79.101,70.725 79.107,70.725 79.107,70.725 C79.340,70.739 79.539,70.787 79.700,70.897 C79.859,71.009 79.954,71.199 79.954,71.389 C79.954,71.389 79.954,71.394 79.954,71.394 C79.954,71.575 79.909,71.745 79.784,71.868 C79.784,71.868 79.783,71.869 79.783,71.869 C79.783,71.869 79.783,71.871 79.783,71.871 C79.659,71.984 79.489,72.029 79.323,72.029 C79.260,72.029 78.921,72.008 78.254,71.969 C77.590,71.929 76.952,71.909 76.331,71.909 C75.688,71.909 75.008,71.929 74.298,71.969 C73.582,72.008 73.204,72.029 73.123,72.029 C72.934,72.029 72.762,71.993 72.627,71.873 C72.496,71.750 72.443,71.577 72.443,71.394 C72.439,71.215 72.528,71.035 72.670,70.931 C72.817,70.819 72.998,70.761 73.217,70.727 C73.217,70.727 73.226,70.726 73.226,70.726 C73.376,70.712 73.491,70.698 73.556,70.682 C73.556,70.682 73.573,70.680 73.573,70.680 C74.139,70.602 74.463,70.420 74.598,70.196 C74.598,70.196 74.598,70.195 74.598,70.195 C74.663,70.094 74.739,69.842 74.783,69.472 C74.830,69.103 74.849,68.608 74.849,68.001 C74.849,68.001 74.849,59.656 74.849,59.656 C74.858,58.449 74.743,57.679 74.598,57.465 C74.598,57.465 74.597,57.462 74.597,57.462 C74.458,57.231 74.136,57.041 73.581,56.950 C73.581,56.950 73.573,56.947 73.573,56.947 C73.494,56.934 73.380,56.920 73.235,56.902 C73.235,56.902 73.237,56.902 73.237,56.902 C73.022,56.880 72.840,56.827 72.693,56.718 C72.547,56.609 72.463,56.428 72.466,56.246 C72.466,56.073 72.508,55.898 72.649,55.777 C72.649,55.777 72.649,55.777 72.649,55.777 C72.786,55.667 72.956,55.639 73.146,55.637 C73.232,55.637 73.606,55.656 74.312,55.691 C74.312,55.691 74.312,55.691 74.312,55.691 C75.004,55.727 75.662,55.745 76.274,55.745 C76.740,55.745 77.400,55.703 78.239,55.622 C79.088,55.534 79.692,55.492 80.061,55.491 C81.543,55.490 82.750,55.892 83.649,56.706 C84.552,57.516 85.005,58.615 85.004,59.946 C85.004,61.053 84.674,62.005 84.010,62.763 C83.412,63.449 82.604,63.904 81.610,64.134 C81.610,64.134 81.610,64.136 81.610,64.136 C82.839,65.771 83.906,67.112 84.803,68.162 ZM81.987,59.896 C81.986,58.925 81.728,58.160 81.218,57.577 C80.705,56.994 80.069,56.713 79.254,56.709 C78.598,56.712 78.242,56.879 78.086,57.140 C78.010,57.263 77.923,57.576 77.875,58.038 C77.825,58.504 77.798,59.124 77.798,59.896 C77.798,59.896 77.798,63.220 77.798,63.220 C77.798,63.220 78.661,63.220 78.661,63.220 C79.744,63.216 80.545,62.924 81.119,62.355 C81.693,61.779 81.986,60.978 81.987,59.896 ZM113.197,61.631 C113.452,61.767 113.647,61.874 113.794,61.958 C113.794,61.958 113.692,62.140 113.692,62.140 C113.692,62.140 113.800,61.962 113.800,61.962 C113.798,61.960 113.796,61.959 113.794,61.958 C113.794,61.958 113.794,61.957 113.794,61.957 C115.379,62.810 116.455,63.609 117.019,64.406 C117.581,65.195 117.854,66.196 117.853,67.382 C117.854,68.837 117.336,70.064 116.312,71.009 C115.289,71.956 113.960,72.432 112.366,72.429 C111.710,72.429 111.042,72.312 110.365,72.086 C110.365,72.086 110.363,72.086 110.363,72.086 C109.778,71.886 109.417,71.776 109.358,71.766 C109.361,71.766 109.363,71.764 109.365,71.764 C109.365,71.764 109.365,71.763 109.365,71.763 C109.365,71.763 109.344,71.763 109.344,71.763 C109.346,71.763 109.356,71.766 109.358,71.766 C109.231,71.768 109.085,71.834 108.908,72.027 C108.908,72.027 108.908,72.029 108.908,72.029 C108.688,72.258 108.523,72.415 108.266,72.429 C108.266,72.429 108.152,72.395 108.152,72.395 C108.152,72.395 107.933,72.258 107.933,72.258 C107.933,72.258 107.856,72.160 107.856,72.160 C107.795,72.004 107.784,71.816 107.783,71.530 C107.783,70.613 107.652,69.595 107.387,68.485 C107.252,67.921 107.152,67.482 107.085,67.169 C107.017,66.844 106.982,66.671 106.981,66.556 C106.981,66.556 107.006,66.459 107.006,66.459 C107.006,66.459 107.127,66.229 107.127,66.229 C107.127,66.229 107.244,66.126 107.244,66.126 C107.244,66.126 107.525,66.032 107.525,66.032 C107.525,66.032 107.593,66.023 107.593,66.023 C107.593,66.023 107.839,66.122 107.839,66.122 C107.839,66.122 107.981,66.317 107.981,66.317 C108.062,66.465 108.128,66.661 108.197,66.917 C108.242,67.083 108.280,67.218 108.309,67.323 C108.309,67.323 108.108,67.382 108.108,67.382 C108.108,67.382 108.309,67.326 108.309,67.326 C108.309,67.325 108.309,67.324 108.309,67.323 C108.309,67.323 108.309,67.323 108.309,67.323 C108.722,68.705 109.233,69.677 109.808,70.254 C110.389,70.829 111.112,71.113 112.034,71.115 C112.960,71.113 113.679,70.843 114.239,70.301 C114.795,69.756 115.073,69.073 115.076,68.194 C115.075,67.468 114.859,66.854 114.419,66.320 C113.984,65.791 112.960,65.062 111.370,64.180 C108.913,62.809 107.617,61.362 107.607,59.778 C107.607,58.458 108.101,57.339 109.067,56.487 C110.034,55.628 111.277,55.199 112.754,55.201 C113.550,55.201 114.343,55.320 115.123,55.556 C115.760,55.748 116.124,55.856 116.227,55.887 C116.222,55.888 116.217,55.892 116.213,55.892 C116.213,55.892 116.260,55.898 116.260,55.898 C116.260,55.898 116.259,55.897 116.259,55.897 C116.254,55.896 116.235,55.890 116.227,55.887 C116.337,55.884 116.473,55.822 116.643,55.631 C116.746,55.514 116.834,55.421 116.926,55.353 C117.015,55.288 117.097,55.231 117.231,55.226 C117.231,55.226 117.310,55.241 117.310,55.241 C117.310,55.241 117.470,55.306 117.470,55.306 C117.470,55.306 117.584,55.414 117.584,55.414 C117.584,55.414 117.654,55.567 117.654,55.567 C117.654,55.567 117.669,55.653 117.669,55.653 C117.668,55.733 117.651,55.829 117.620,56.014 C117.620,56.014 117.620,56.016 117.620,56.016 C117.488,56.764 117.417,57.495 117.417,58.211 C117.417,58.632 117.441,59.076 117.488,59.543 C117.531,60.024 117.554,60.255 117.555,60.324 C117.554,60.476 117.535,60.617 117.425,60.737 C117.425,60.737 117.423,60.742 117.423,60.742 C117.310,60.852 117.165,60.882 117.014,60.884 C117.014,60.884 117.002,60.884 117.002,60.884 C116.828,60.879 116.676,60.757 116.606,60.618 C116.526,60.477 116.484,60.304 116.460,60.091 C116.460,60.091 116.459,60.087 116.459,60.087 C116.430,59.794 116.398,59.544 116.359,59.341 C116.174,58.340 115.821,57.622 115.314,57.157 C114.812,56.695 114.137,56.456 113.244,56.456 C112.379,56.456 111.724,56.667 111.248,57.074 C110.772,57.483 110.535,58.003 110.531,58.711 C110.531,59.187 110.733,59.662 111.173,60.152 C111.613,60.643 112.287,61.140 113.197,61.631 ZM130.259,64.406 C130.823,65.195 131.093,66.196 131.093,67.382 C131.093,68.837 130.576,70.064 129.556,71.009 C128.536,71.956 127.210,72.429 125.624,72.429 C125.624,72.429 125.608,72.429 125.608,72.429 C125.608,72.429 125.575,72.429 125.575,72.429 C125.575,72.429 125.547,72.429 125.547,72.429 C125.547,72.429 125.517,72.429 125.517,72.429 C124.869,72.425 124.211,72.310 123.542,72.086 C123.007,71.902 122.652,71.793 122.552,71.768 C122.436,71.785 122.304,71.857 122.150,72.027 C122.150,72.027 122.150,72.029 122.150,72.029 C121.927,72.258 121.764,72.415 121.508,72.429 C121.508,72.429 121.495,72.425 121.495,72.425 C121.495,72.425 121.449,72.429 121.449,72.429 C121.280,72.441 121.090,72.323 121.036,72.159 C121.036,72.159 121.036,72.160 121.036,72.160 C120.977,72.005 120.966,71.816 120.964,71.530 C120.964,70.613 120.833,69.595 120.569,68.485 C120.434,67.921 120.335,67.482 120.266,67.166 C120.203,66.844 120.165,66.671 120.162,66.556 C120.162,66.556 120.186,66.460 120.186,66.460 C120.186,66.460 120.310,66.230 120.310,66.230 C120.310,66.230 120.426,66.126 120.426,66.126 C120.426,66.126 120.706,66.032 120.706,66.032 C120.706,66.032 120.774,66.023 120.774,66.023 C120.774,66.023 120.789,66.029 120.789,66.029 C120.789,66.029 120.833,66.023 120.833,66.023 C120.833,66.023 121.081,66.122 121.081,66.122 C121.081,66.122 121.225,66.317 121.225,66.317 C121.302,66.465 121.369,66.661 121.439,66.917 C121.483,67.083 121.519,67.218 121.550,67.323 C121.550,67.323 121.495,67.338 121.495,67.338 C121.495,67.338 121.495,67.341 121.495,67.341 C121.495,67.341 121.551,67.326 121.551,67.326 C121.551,67.325 121.551,67.324 121.550,67.323 C121.550,67.323 121.551,67.323 121.551,67.323 C121.962,68.705 122.475,69.677 123.052,70.254 C123.617,70.817 124.322,71.100 125.212,71.115 C125.212,71.115 125.233,71.115 125.233,71.115 C125.233,71.115 125.259,71.115 125.259,71.115 C125.259,71.115 125.274,71.115 125.274,71.115 C126.173,71.102 126.873,70.830 127.422,70.301 C127.981,69.756 128.256,69.073 128.258,68.194 C128.258,67.471 128.041,66.854 127.600,66.320 C127.167,65.791 126.143,65.062 124.552,64.180 C122.094,62.809 120.798,61.362 120.790,59.778 C120.788,58.458 121.282,57.339 122.247,56.487 C123.215,55.628 124.452,55.201 125.926,55.201 C125.926,55.201 125.936,55.201 125.936,55.201 C125.936,55.201 125.973,55.201 125.973,55.201 C125.973,55.201 125.993,55.201 125.993,55.201 C125.993,55.201 126.011,55.201 126.011,55.201 C126.011,55.201 126.033,55.201 126.033,55.201 C126.820,55.204 127.596,55.323 128.366,55.556 C128.366,55.556 129.461,55.883 129.461,55.883 C129.560,55.863 129.682,55.792 129.826,55.629 C129.826,55.629 129.826,55.629 129.826,55.629 C129.825,55.630 129.825,55.630 129.824,55.631 C129.824,55.631 129.858,55.660 129.858,55.660 C129.858,55.660 129.858,55.658 129.858,55.658 C129.858,55.658 129.826,55.629 129.826,55.629 C129.925,55.514 130.015,55.423 130.103,55.355 C130.194,55.288 130.279,55.229 130.411,55.226 C130.411,55.226 130.429,55.229 130.429,55.229 C130.429,55.229 130.472,55.226 130.472,55.226 C130.472,55.226 130.551,55.241 130.551,55.241 C130.551,55.241 130.712,55.306 130.712,55.306 C130.712,55.306 130.824,55.414 130.824,55.414 C130.824,55.414 130.892,55.567 130.892,55.567 C130.892,55.567 130.912,55.653 130.912,55.653 C130.911,55.733 130.892,55.829 130.862,56.014 C130.862,56.014 130.862,56.016 130.862,56.016 C130.728,56.764 130.660,57.495 130.660,58.211 C130.660,58.632 130.681,59.076 130.728,59.543 C130.773,60.024 130.796,60.255 130.796,60.324 C130.793,60.476 130.776,60.617 130.668,60.737 C130.668,60.737 130.664,60.742 130.664,60.742 C130.551,60.852 130.407,60.882 130.255,60.884 C130.255,60.884 130.244,60.884 130.244,60.884 C130.244,60.884 130.230,60.884 130.230,60.884 C130.230,60.884 130.194,60.884 130.194,60.884 C130.194,60.884 130.182,60.884 130.182,60.884 C130.008,60.879 129.858,60.758 129.788,60.618 C129.705,60.476 129.667,60.304 129.640,60.090 C129.640,60.090 129.639,60.088 129.639,60.088 C129.612,59.794 129.577,59.544 129.539,59.341 C129.539,59.341 129.539,59.341 129.539,59.341 C129.354,58.340 129.003,57.621 128.497,57.157 C128.005,56.706 127.348,56.469 126.488,56.456 C126.488,56.456 126.466,56.456 126.466,56.456 C126.466,56.456 126.447,56.456 126.447,56.456 C126.447,56.456 126.427,56.456 126.427,56.456 C125.589,56.466 124.954,56.675 124.488,57.074 C124.010,57.483 123.778,58.003 123.775,58.711 C123.775,59.187 123.976,59.662 124.415,60.152 C124.852,60.643 125.525,61.140 126.438,61.631 C126.698,61.768 126.897,61.877 127.040,61.962 C127.040,61.962 127.039,61.962 127.039,61.962 C127.037,61.960 127.035,61.959 127.032,61.957 C127.032,61.957 127.019,61.983 127.019,61.983 C127.019,61.983 127.027,61.986 127.027,61.986 C127.027,61.986 127.039,61.962 127.039,61.962 C128.625,62.813 129.696,63.611 130.259,64.406 ZM145.693,79.510 C145.693,79.510 2.287,79.510 2.287,79.510 C2.287,79.510 2.287,78.007 2.287,78.007 C2.287,78.007 145.693,78.007 145.693,78.007 C145.693,78.007 145.693,79.510 145.693,79.510 ZM7.896,89.099 C8.130,89.920 9.596,92.202 13.956,92.436 C14.056,89.584 16.459,87.189 18.968,86.751 C22.020,86.215 23.241,88.044 23.241,88.044 C23.241,88.044 21.486,86.650 19.071,87.137 C16.390,87.674 14.634,89.941 14.544,92.449 C18.974,92.364 22.671,87.100 30.056,87.153 C30.056,87.153 30.058,87.149 30.058,87.149 C30.058,87.149 30.063,87.153 30.063,87.153 C30.063,87.153 30.344,87.153 30.344,87.153 C33.282,87.229 35.838,87.912 38.003,88.917 C39.897,88.007 42.250,87.481 45.115,87.589 C46.835,87.653 48.349,87.883 49.689,88.225 C50.768,87.412 52.214,86.923 53.885,86.879 C57.516,86.789 61.128,88.621 64.147,90.405 C65.936,87.687 69.455,87.020 71.035,87.020 C72.500,87.022 73.597,87.404 73.922,87.532 C74.251,87.407 75.345,87.022 76.807,87.020 C78.388,87.020 81.907,87.687 83.698,90.405 C86.720,88.621 90.327,86.789 93.961,86.879 C95.632,86.923 97.078,87.412 98.156,88.225 C99.493,87.883 101.009,87.653 102.729,87.589 C105.592,87.481 107.949,88.007 109.842,88.917 C112.009,87.912 114.561,87.228 117.500,87.153 C117.500,87.153 117.781,87.153 117.781,87.153 C117.781,87.153 117.786,87.149 117.786,87.149 C117.786,87.149 117.790,87.153 117.790,87.153 C125.170,87.100 128.871,92.364 133.300,92.449 C133.207,89.941 131.453,87.674 128.772,87.137 C126.358,86.650 124.601,88.044 124.601,88.044 C124.601,88.044 125.824,86.215 128.873,86.751 C131.384,87.189 133.789,89.584 133.886,92.436 C138.246,92.202 139.713,89.920 139.946,89.099 C140.264,87.980 139.338,86.755 139.335,86.751 C139.338,86.754 140.763,87.901 140.421,89.366 C140.069,90.891 138.220,93.038 133.851,93.248 C133.807,93.605 133.728,93.966 133.606,94.330 C133.537,94.530 133.458,94.721 133.373,94.907 C136.500,94.863 139.048,92.518 139.048,92.518 C139.048,92.518 137.652,95.366 132.952,95.675 C131.265,98.276 127.778,99.230 125.008,99.213 C122.195,99.188 120.252,97.666 119.765,95.537 C119.209,95.578 118.675,95.503 118.210,95.374 C117.042,95.046 115.676,94.329 115.056,93.095 C114.939,93.145 114.801,93.214 114.643,93.299 C115.633,94.996 116.086,96.831 116.055,98.457 C115.977,103.165 114.649,105.137 112.398,107.614 C109.595,110.683 103.133,110.932 103.133,110.932 C103.133,110.932 109.872,109.470 111.681,107.464 C112.377,106.691 115.497,104.340 115.497,98.406 C115.497,96.437 115.048,94.827 114.270,93.518 C113.131,94.229 111.277,95.760 109.038,99.010 C106.949,102.036 104.693,106.496 101.764,110.429 C96.932,116.920 92.556,117.422 90.368,117.372 C88.628,117.330 84.757,116.428 83.280,112.987 C83.076,112.978 82.873,112.965 82.688,112.943 C82.299,112.899 81.871,112.772 81.425,112.583 C81.498,113.312 81.470,114.081 81.314,114.855 C80.509,118.841 77.704,121.312 73.994,121.979 C73.994,121.979 73.957,122.000 73.957,122.000 C73.957,122.000 73.922,121.991 73.922,121.991 C73.922,121.991 73.889,122.000 73.889,122.000 C73.889,122.000 73.852,121.979 73.852,121.979 C70.139,121.312 67.336,118.841 66.529,114.855 C66.370,114.081 66.346,113.312 66.415,112.583 C65.973,112.772 65.545,112.899 65.157,112.943 C64.970,112.965 64.772,112.978 64.565,112.987 C63.084,116.428 59.215,117.330 57.475,117.372 C55.287,117.422 50.913,116.920 46.083,110.429 C43.151,106.496 40.893,102.036 38.806,99.010 C36.567,95.760 34.713,94.229 33.575,93.518 C32.797,94.827 32.348,96.437 32.348,98.406 C32.348,104.340 35.468,106.691 36.162,107.464 C37.972,109.470 44.706,110.932 44.706,110.932 C44.706,110.932 38.245,110.683 35.449,107.614 C33.195,105.137 31.865,103.165 31.786,98.457 C31.760,96.831 32.212,94.996 33.199,93.299 C33.045,93.214 32.906,93.145 32.790,93.095 C32.170,94.329 30.801,95.046 29.635,95.374 C29.170,95.503 28.636,95.578 28.081,95.537 C27.592,97.666 25.647,99.188 22.834,99.213 C20.065,99.230 16.576,98.274 14.893,95.675 C10.193,95.366 8.796,92.518 8.796,92.518 C8.796,92.518 11.342,94.863 14.468,94.907 C14.387,94.721 14.306,94.530 14.238,94.330 C14.117,93.966 14.035,93.605 13.992,93.248 C9.626,93.038 7.775,90.891 7.422,89.366 C7.083,87.900 8.507,86.751 8.507,86.751 C8.507,86.751 7.579,87.978 7.896,89.099 ZM45.166,88.595 C43.040,88.616 40.953,88.878 39.101,89.473 C42.062,91.090 44.206,93.296 45.521,95.229 C47.895,98.716 49.277,104.203 51.072,106.767 C52.339,108.576 54.866,111.590 57.614,111.739 C58.055,111.762 58.569,111.564 59.046,111.300 C58.100,110.538 57.360,109.490 57.068,108.063 C56.879,107.138 56.887,106.286 57.035,105.518 C56.616,105.868 56.173,106.170 55.746,106.354 C54.221,107.008 52.134,106.605 51.855,104.721 C51.530,102.515 53.303,101.324 56.508,101.626 C57.419,101.709 58.332,101.856 59.200,102.086 C59.465,101.550 59.663,101.005 59.663,100.569 C59.663,100.071 59.642,99.511 59.548,98.917 C58.834,98.454 58.217,97.868 57.762,97.210 C56.805,98.113 55.421,98.759 53.812,98.724 C50.694,98.656 47.902,96.840 47.640,92.653 C47.555,91.285 47.978,90.065 48.775,89.102 C47.629,88.774 46.417,88.583 45.166,88.595 ZM57.209,104.831 C57.512,103.909 58.039,103.134 58.706,102.550 C58.074,102.433 57.376,102.368 56.612,102.380 C52.631,102.427 52.542,104.091 52.594,104.795 C52.642,105.498 54.019,106.454 55.543,105.902 C56.120,105.691 56.708,105.272 57.209,104.831 C57.209,104.831 57.209,104.831 57.209,104.831 ZM58.630,94.494 C58.630,94.494 58.630,94.493 58.630,94.493 C58.686,93.849 58.321,93.431 57.969,93.547 C58.228,93.889 58.446,94.205 58.630,94.494 ZM57.412,94.640 C57.394,94.790 57.376,94.953 57.373,95.137 C57.362,95.558 57.480,95.967 57.696,96.355 C57.900,96.110 58.079,95.859 58.217,95.617 C58.025,95.346 57.753,95.013 57.412,94.640 ZM58.589,96.193 C58.443,96.432 58.271,96.666 58.071,96.891 C58.414,97.316 58.860,97.704 59.361,98.034 C59.200,97.441 58.954,96.822 58.589,96.193 ZM49.294,89.257 C48.294,90.289 48.046,91.598 48.149,92.621 C48.522,96.309 50.963,97.820 53.812,98.086 C55.341,98.231 56.583,97.524 57.422,96.659 C57.160,96.159 56.983,95.635 56.921,95.101 C56.879,94.738 56.902,94.428 56.961,94.163 C55.337,92.509 52.605,90.334 49.294,89.257 ZM54.389,87.575 C52.638,87.575 51.347,87.909 50.401,88.424 C54.102,89.531 56.335,91.523 57.666,93.165 C58.316,92.861 59.137,93.296 59.137,94.432 C59.137,94.671 59.103,94.916 59.035,95.163 C59.035,95.163 59.053,95.184 59.053,95.184 C59.721,96.328 60.114,97.491 60.291,98.561 C61.219,99.012 62.197,99.271 62.934,99.255 C63.850,99.236 64.533,98.938 64.991,98.464 C63.818,97.600 62.924,96.155 63.070,93.795 C63.094,93.398 63.148,93.026 63.222,92.671 C62.379,92.072 61.647,91.747 61.647,91.747 C62.219,91.881 62.772,92.093 63.291,92.368 C63.414,91.876 63.587,91.428 63.794,91.016 C61.156,89.221 58.310,87.575 54.389,87.575 ZM65.394,97.895 C65.631,97.430 65.726,96.877 65.684,96.277 C65.581,94.885 64.615,93.776 63.657,93.002 C63.627,93.239 63.604,93.473 63.613,93.692 C63.674,95.249 64.047,96.888 65.394,97.895 ZM63.722,92.625 C65.070,93.482 66.052,94.802 66.123,96.309 C66.145,96.839 66.079,97.535 65.817,98.177 C66.561,98.600 67.540,98.868 68.834,98.893 C70.801,98.931 72.194,97.350 72.295,95.370 C72.309,95.109 72.299,94.883 72.272,94.684 C70.650,94.500 68.231,94.035 66.442,92.845 C65.698,92.349 64.960,91.825 64.213,91.306 C63.982,91.747 63.818,92.191 63.722,92.625 ZM71.035,87.575 C67.867,87.575 65.728,89.001 64.590,90.668 C65.598,91.271 66.534,91.859 67.376,92.352 C69.279,93.463 70.943,93.891 72.115,94.045 C71.806,93.222 71.229,92.782 71.277,91.244 C71.344,89.184 72.686,88.221 73.517,87.822 C73.257,87.694 72.600,87.575 71.035,87.575 ZM71.782,91.071 C71.616,93.092 72.509,93.017 72.847,94.117 C73.145,94.132 73.386,94.129 73.560,94.120 C73.560,94.120 73.550,94.095 73.550,94.095 C73.550,94.095 73.615,94.104 73.730,94.112 C73.730,94.112 73.889,94.095 73.889,94.095 C73.889,94.095 73.894,94.120 73.894,94.120 C74.141,94.132 74.525,94.132 75.003,94.095 C75.345,93.017 76.226,93.080 76.058,91.071 C75.885,88.953 74.335,88.497 73.922,88.412 C73.506,88.498 71.960,88.953 71.782,91.071 ZM76.807,87.575 C75.246,87.575 74.589,87.694 74.327,87.822 C75.157,88.221 76.502,89.184 76.570,91.244 C76.615,92.768 76.050,93.209 75.739,94.016 C76.996,93.838 78.674,93.399 80.468,92.352 C81.309,91.859 82.247,91.271 83.254,90.668 C82.117,89.001 79.977,87.575 76.807,87.575 ZM83.633,91.306 C82.881,91.825 82.143,92.349 81.402,92.845 C79.613,94.035 77.196,94.500 75.574,94.684 C75.547,94.883 75.537,95.109 75.550,95.370 C75.650,97.350 77.040,98.931 79.011,98.893 C80.304,98.868 81.286,98.600 82.026,98.177 C81.762,97.535 81.697,96.839 81.722,96.309 C81.789,94.802 82.772,93.482 84.122,92.625 C84.023,92.191 83.862,91.747 83.633,91.306 ZM82.163,96.277 C82.118,96.877 82.214,97.430 82.452,97.895 C83.798,96.888 84.174,95.249 84.229,93.692 C84.238,93.473 84.220,93.239 84.185,93.002 C83.229,93.776 82.263,94.885 82.163,96.277 ZM93.455,87.575 C89.535,87.575 86.685,89.221 84.052,91.016 C84.260,91.428 84.433,91.876 84.553,92.368 C85.069,92.093 85.628,91.881 86.197,91.747 C86.197,91.747 85.465,92.072 84.623,92.671 C84.695,93.026 84.748,93.398 84.774,93.795 C84.918,96.155 84.027,97.600 82.854,98.464 C83.313,98.938 83.993,99.236 84.908,99.255 C85.649,99.271 86.624,99.010 87.554,98.561 C87.730,97.491 88.124,96.328 88.793,95.184 C88.793,95.184 88.806,95.163 88.806,95.163 C88.744,94.916 88.705,94.671 88.705,94.432 C88.705,93.296 89.528,92.861 90.173,93.165 C91.511,91.523 93.746,89.531 97.441,88.424 C96.501,87.909 95.207,87.575 93.455,87.575 ZM89.625,95.617 C89.765,95.859 89.943,96.110 90.149,96.355 C90.362,95.967 90.479,95.558 90.472,95.137 C90.468,94.953 90.454,94.787 90.431,94.640 C90.093,95.013 89.821,95.346 89.625,95.617 ZM89.873,93.547 C89.524,93.431 89.159,93.849 89.215,94.493 C89.215,94.493 89.215,94.494 89.215,94.494 C89.396,94.205 89.616,93.889 89.873,93.547 ZM89.254,96.193 C88.889,96.822 88.644,97.441 88.482,98.034 C88.981,97.704 89.431,97.316 89.775,96.891 C89.576,96.666 89.402,96.432 89.254,96.193 ZM90.881,94.163 C90.944,94.428 90.966,94.737 90.924,95.101 C90.864,95.635 90.685,96.159 90.422,96.659 C91.259,97.524 92.504,98.231 94.029,98.086 C96.881,97.820 99.323,96.309 99.693,92.621 C99.798,91.598 99.547,90.289 98.551,89.257 C95.240,90.334 92.508,92.509 90.881,94.163 ZM102.678,88.595 C101.425,88.583 100.216,88.774 99.068,89.102 C99.863,90.065 100.289,91.285 100.203,92.653 C99.943,96.840 97.151,98.656 94.029,98.724 C92.426,98.759 91.040,98.113 90.085,97.210 C89.625,97.868 89.010,98.454 88.296,98.917 C88.206,99.512 88.182,100.071 88.182,100.569 C88.182,101.005 88.381,101.550 88.643,102.086 C89.514,101.856 90.422,101.709 91.337,101.626 C94.538,101.324 96.312,102.515 95.990,104.721 C95.710,106.605 93.624,107.006 92.096,106.354 C91.674,106.170 91.231,105.868 90.810,105.518 C90.957,106.286 90.966,107.138 90.776,108.063 C90.484,109.490 89.744,110.538 88.799,111.300 C89.275,111.564 89.787,111.762 90.231,111.739 C92.976,111.590 95.506,108.576 96.771,106.767 C98.568,104.203 99.951,98.716 102.323,95.229 C103.637,93.296 105.782,91.090 108.745,89.473 C106.889,88.878 104.803,88.615 102.678,88.595 ZM89.138,102.550 C89.802,103.134 90.330,103.909 90.633,104.831 C91.139,105.272 91.726,105.691 92.299,105.902 C93.828,106.454 95.202,105.498 95.253,104.795 C95.305,104.091 95.215,102.427 91.234,102.380 C90.468,102.368 89.770,102.433 89.138,102.550 ZM120.152,95.117 C120.774,94.996 121.387,94.671 121.857,93.979 C122.567,92.931 122.209,92.319 121.704,92.268 C121.257,92.224 119.678,93.274 120.152,95.117 ZM115.194,92.067 C115.194,92.067 115.497,92.929 115.497,92.929 C116.158,94.124 117.638,94.830 118.460,95.035 C118.828,95.127 119.256,95.188 119.694,95.170 C119.694,95.170 119.670,94.985 119.670,94.985 C119.416,92.570 120.991,91.514 122.008,91.664 C122.775,91.777 123.486,93.073 122.209,94.382 C121.607,95.003 120.932,95.330 120.266,95.467 C120.325,95.619 120.395,95.778 120.482,95.942 C121.758,98.293 123.064,98.284 125.304,98.457 C127.442,98.620 130.734,97.734 132.321,95.689 C129.154,95.613 125.469,93.235 124.502,92.469 C123.486,91.664 121.501,90.308 119.618,90.308 C117.735,90.308 117.380,91.968 117.380,91.968 C117.380,91.968 117.229,89.701 119.618,89.551 C122.008,89.403 123.942,90.962 125.008,91.664 C126.077,92.369 129.330,94.582 132.741,94.883 C132.741,94.883 132.821,94.888 132.821,94.888 C132.929,94.661 133.029,94.428 133.095,94.180 C133.183,93.872 133.234,93.568 133.266,93.263 C126.504,93.269 124.404,87.500 117.572,87.892 C116.613,88.650 114.902,90.268 115.194,92.067 ZM114.756,92.159 C114.756,92.159 114.735,92.017 114.735,92.017 C114.543,90.227 115.734,88.805 116.678,87.973 C114.627,88.213 112.810,88.855 111.229,89.702 C112.390,90.470 113.328,91.396 114.057,92.400 C114.339,92.286 114.580,92.210 114.756,92.159 ZM90.419,116.667 C95.914,117.070 98.818,112.204 100.489,109.322 C102.341,106.136 103.341,103.135 107.664,97.752 C110.157,94.650 112.279,93.235 113.626,92.593 C112.780,91.557 111.699,90.752 110.448,90.147 C107.472,91.947 105.418,94.407 104.273,95.942 C102.373,98.490 99.458,104.527 97.409,107.343 C95.365,110.161 93.269,112.255 90.164,112.255 C89.544,112.255 88.966,111.947 88.469,111.554 C87.093,112.517 85.373,112.927 83.925,112.984 C84.907,114.819 86.935,116.410 90.419,116.667 ZM83.741,112.607 C85.292,112.411 86.810,111.901 87.944,111.082 C87.664,110.797 87.427,110.514 87.249,110.296 C86.957,109.933 87.441,110.404 88.164,110.907 C89.122,110.145 89.768,109.148 89.859,107.913 C89.984,106.305 89.640,104.672 88.831,103.478 C88.710,103.328 88.641,103.237 88.641,103.237 C88.641,103.237 88.668,103.240 88.668,103.240 C88.537,103.071 88.393,102.917 88.240,102.769 C84.358,103.941 83.323,107.505 83.193,109.775 C83.145,110.667 83.313,111.658 83.741,112.607 ZM65.157,112.694 C65.478,112.703 65.940,112.536 66.454,112.264 C66.858,109.376 68.798,107.235 70.242,108.063 C71.498,108.781 69.219,111.162 66.980,112.316 C66.845,113.171 66.832,114.057 66.988,114.855 C67.978,119.966 73.465,120.979 73.922,121.055 C74.381,120.979 79.864,119.966 80.855,114.855 C81.011,114.057 80.998,113.171 80.864,112.316 C78.624,111.162 76.348,108.781 77.603,108.063 C79.048,107.235 80.987,109.376 81.389,112.264 C81.902,112.536 82.363,112.703 82.688,112.694 C82.842,112.689 82.996,112.677 83.149,112.663 C82.853,111.856 82.681,110.915 82.688,109.825 C82.722,105.475 84.918,103.363 87.748,102.361 C87.143,101.943 86.414,101.688 85.553,101.678 C83.348,101.642 82.179,103.285 82.179,103.285 C82.179,103.285 82.688,101.509 85.584,101.324 C86.353,101.274 87.110,101.409 87.810,101.709 C87.635,101.324 87.507,100.932 87.468,100.569 C87.431,100.197 87.427,99.799 87.455,99.380 C86.660,99.749 85.789,99.964 84.908,99.964 C83.618,99.964 82.829,99.459 82.356,98.788 C81.167,99.470 79.815,99.663 78.973,99.663 C77.347,99.663 74.812,98.757 74.874,95.002 C74.874,95.002 74.886,94.749 74.886,94.749 C74.508,94.780 74.209,94.790 74.026,94.796 C74.026,94.796 74.026,94.800 74.026,94.800 C74.026,94.800 73.922,94.798 73.922,94.798 C73.922,94.798 73.818,94.800 73.818,94.800 C73.818,94.800 73.814,94.796 73.814,94.796 C73.634,94.790 73.335,94.779 72.958,94.749 C72.958,94.749 72.976,95.002 72.976,95.002 C73.032,98.757 70.496,99.663 68.868,99.663 C68.029,99.663 66.675,99.470 65.486,98.788 C65.012,99.459 64.227,99.964 62.934,99.964 C62.055,99.964 61.186,99.749 60.389,99.380 C60.418,99.799 60.414,100.197 60.374,100.569 C60.338,100.932 60.209,101.324 60.038,101.709 C60.734,101.409 61.494,101.274 62.255,101.324 C65.157,101.509 65.666,103.285 65.665,103.285 C65.665,103.285 64.496,101.642 62.292,101.678 C61.427,101.688 60.702,101.943 60.098,102.361 C62.924,103.363 65.117,105.475 65.157,109.825 C65.165,110.915 64.993,111.856 64.694,112.663 C64.849,112.677 65.003,112.689 65.157,112.694 ZM67.053,111.911 C68.771,110.819 70.669,108.930 69.886,108.567 C68.676,108.004 67.493,109.787 67.053,111.911 ZM80.791,111.911 C80.354,109.787 79.169,108.004 77.958,108.567 C77.176,108.930 79.071,110.819 80.791,111.911 ZM64.645,109.775 C64.523,107.505 63.487,103.941 59.603,102.769 C59.450,102.917 59.306,103.071 59.176,103.240 C59.176,103.240 59.203,103.237 59.203,103.237 C59.203,103.237 59.136,103.328 59.010,103.478 C58.205,104.672 57.861,106.305 57.983,107.913 C58.078,109.148 58.725,110.145 59.678,110.907 C60.405,110.404 60.888,109.933 60.595,110.296 C60.418,110.514 60.180,110.797 59.900,111.082 C61.038,111.901 62.553,112.411 64.103,112.607 C64.532,111.658 64.697,110.667 64.645,109.775 ZM40.179,97.752 C44.505,103.135 45.504,106.136 47.352,109.322 C49.024,112.204 51.933,117.070 57.423,116.667 C60.910,116.410 62.938,114.819 63.917,112.984 C62.472,112.927 60.748,112.517 59.373,111.554 C58.879,111.947 58.298,112.255 57.678,112.255 C54.575,112.255 52.478,110.161 50.435,107.343 C48.387,104.527 45.471,98.490 43.571,95.942 C42.429,94.407 40.374,91.947 37.397,90.147 C36.147,90.752 35.061,91.557 34.220,92.593 C35.569,93.235 37.688,94.650 40.179,97.752 ZM33.109,92.017 C33.109,92.017 33.084,92.159 33.084,92.159 C33.267,92.210 33.503,92.286 33.786,92.400 C34.514,91.396 35.458,90.470 36.614,89.702 C35.033,88.855 33.216,88.212 31.162,87.973 C32.111,88.805 33.301,90.227 33.109,92.017 ZM26.144,92.268 C25.632,92.319 25.275,92.931 25.990,93.979 C26.461,94.671 27.072,94.996 27.692,95.117 C28.168,93.274 26.586,92.224 26.144,92.268 ZM14.747,94.180 C14.813,94.428 14.913,94.661 15.024,94.888 C15.024,94.888 15.103,94.883 15.103,94.883 C18.511,94.582 21.768,92.369 22.834,91.664 C23.904,90.962 25.837,89.403 28.226,89.551 C30.618,89.702 30.464,91.968 30.464,91.968 C30.464,91.968 30.108,90.308 28.226,90.308 C26.345,90.308 24.361,91.664 23.344,92.469 C22.373,93.235 18.691,95.613 15.522,95.689 C17.113,97.734 20.404,98.620 22.539,98.457 C24.780,98.284 26.086,98.291 27.361,95.942 C27.450,95.778 27.519,95.619 27.577,95.467 C26.912,95.330 26.235,95.003 25.632,94.382 C24.361,93.073 25.067,91.777 25.837,91.664 C26.852,91.514 28.431,92.570 28.176,94.985 C28.176,94.985 28.147,95.170 28.147,95.170 C28.589,95.188 29.017,95.127 29.383,95.035 C30.205,94.830 31.686,94.124 32.348,92.929 C32.348,92.929 32.651,92.067 32.651,92.067 C32.941,90.268 31.234,88.650 30.273,87.892 C23.440,87.500 21.340,93.269 14.577,93.263 C14.612,93.568 14.662,93.872 14.747,94.180 ZM72.180,108.389 C72.762,109.022 73.516,109.368 73.811,109.489 C74.175,109.368 75.083,109.022 75.665,108.389 C76.502,107.476 75.988,105.945 75.988,105.945 C75.988,105.945 76.528,107.028 76.200,108.151 C75.794,109.516 74.201,110.005 73.941,110.076 C73.941,110.076 73.941,110.088 73.941,110.088 C73.941,110.088 73.921,110.083 73.921,110.083 C73.921,110.083 73.902,110.088 73.902,110.088 C73.902,110.088 73.896,110.076 73.896,110.076 C73.622,109.999 72.046,109.510 71.645,108.151 C71.311,107.028 71.857,105.945 71.857,105.945 C71.857,105.945 71.344,107.476 72.180,108.389 ZM139.334,86.751 C139.334,86.751 139.335,86.751 139.335,86.751 C139.335,86.751 139.334,86.751 139.334,86.751 C139.334,86.751 139.334,86.751 139.334,86.751 Z" id="path-1" class="cls-2" fill-rule="evenodd"/>
</svg>
