<svg xmlns="http://www.w3.org/2000/svg" xmlns:xlink="http://www.w3.org/1999/xlink" preserveAspectRatio="xMidYMid" width="26" height="26" viewBox="0 0 26 26">
  <defs>
    <style>

      .cls-2 {
        fill: #e23458;
      }
    </style>
  </defs>
  <path d="M21.341,-0.008 C21.341,-0.008 4.478,-0.008 4.478,-0.008 C2.009,-0.008 0.007,2.010 0.007,4.499 C0.007,4.499 0.007,21.494 0.007,21.494 C0.007,23.982 2.009,25.999 4.478,25.999 C4.478,25.999 21.341,25.999 21.341,25.999 C23.810,25.999 25.811,23.982 25.811,21.494 C25.811,21.494 25.811,4.499 25.811,4.499 C25.811,2.010 23.810,-0.008 21.341,-0.008 ZM19.540,9.568 C19.546,9.716 19.550,9.865 19.550,10.015 C19.550,14.571 16.109,19.825 9.816,19.825 C7.884,19.825 6.085,19.253 4.572,18.275 C4.840,18.308 5.112,18.323 5.388,18.323 C6.991,18.323 8.466,17.773 9.637,16.848 C8.139,16.820 6.875,15.823 6.441,14.453 C6.650,14.493 6.865,14.515 7.084,14.515 C7.397,14.515 7.699,14.473 7.985,14.394 C6.421,14.078 5.241,12.684 5.241,11.013 C5.241,10.998 5.241,10.984 5.241,10.970 C5.703,11.228 6.231,11.383 6.791,11.401 C5.873,10.783 5.270,9.727 5.270,8.532 C5.270,7.900 5.438,7.307 5.733,6.798 C7.420,8.884 9.941,10.257 12.784,10.400 C12.726,10.148 12.695,9.885 12.695,9.615 C12.695,7.711 14.227,6.167 16.116,6.167 C17.100,6.167 17.989,6.586 18.613,7.255 C19.392,7.101 20.126,6.815 20.787,6.419 C20.530,7.224 19.988,7.900 19.282,8.327 C19.974,8.243 20.633,8.058 21.247,7.783 C20.787,8.475 20.208,9.082 19.540,9.568 Z" id="path-1" class="cls-2" fill-rule="evenodd"/>
</svg>
