<svg xmlns="http://www.w3.org/2000/svg" xmlns:xlink="http://www.w3.org/1999/xlink" preserveAspectRatio="xMidYMid" width="17" height="17" viewBox="0 0 17 17">
  <defs>
    <style>

      .cls-2 {
        fill: #6c6c6c;
      }
    </style>
  </defs>
  <path d="M17.004,15.696 C17.004,15.696 15.696,17.004 15.696,17.004 C15.696,17.004 8.500,9.808 8.500,9.808 C8.500,9.808 1.304,17.004 1.304,17.004 C1.304,17.004 -0.005,15.696 -0.005,15.696 C-0.005,15.696 7.192,8.500 7.192,8.500 C7.192,8.500 -0.005,1.304 -0.005,1.304 C-0.005,1.304 1.304,-0.005 1.304,-0.005 C1.304,-0.005 8.500,7.191 8.500,7.191 C8.500,7.191 15.696,-0.005 15.696,-0.005 C15.696,-0.005 17.004,1.304 17.004,1.304 C17.004,1.304 9.808,8.500 9.808,8.500 C9.808,8.500 17.004,15.696 17.004,15.696 Z" id="path-1" class="cls-2" fill-rule="evenodd"/>
</svg>
