<svg xmlns="http://www.w3.org/2000/svg" xmlns:xlink="http://www.w3.org/1999/xlink" preserveAspectRatio="xMidYMid" width="112" height="11" viewBox="0 0 112 11">
  <defs>
    <style>

      .cls-2 {
        fill: #ffffff;
      }
    </style>
  </defs>
  <path d="M105.340,10.848 C105.340,10.848 105.340,0.181 105.340,0.181 C105.340,0.181 108.685,0.181 108.685,0.181 C108.685,0.181 108.685,7.693 108.685,7.693 C108.685,7.693 112.000,7.693 112.000,7.693 C112.000,7.693 112.000,10.848 112.000,10.848 C112.000,10.848 105.340,10.848 105.340,10.848 ZM101.250,9.346 C101.250,9.346 98.331,9.346 98.331,9.346 C98.331,9.346 97.890,10.848 97.890,10.848 C97.890,10.848 95.062,10.848 95.062,10.848 C95.062,10.848 95.062,10.202 95.062,10.202 C95.062,9.150 95.214,8.279 95.594,7.287 C95.594,7.287 98.240,0.181 98.240,0.181 C98.240,0.181 101.311,0.181 101.311,0.181 C101.311,0.181 103.911,7.272 103.911,7.272 C104.276,8.264 104.428,9.135 104.428,10.187 C104.428,10.187 104.428,10.848 104.428,10.848 C104.428,10.848 101.706,10.848 101.706,10.848 C101.706,10.848 101.250,9.346 101.250,9.346 ZM100.049,4.688 C100.049,4.688 99.775,2.915 99.775,2.915 C99.775,2.915 99.486,4.688 99.486,4.688 C99.411,5.214 99.319,5.710 99.213,6.190 C99.213,6.190 100.323,6.190 100.323,6.190 C100.216,5.710 100.125,5.214 100.049,4.688 ZM92.887,10.848 C92.887,10.848 89.542,10.848 89.542,10.848 C89.542,10.848 89.542,3.336 89.542,3.336 C89.542,3.336 87.125,3.336 87.125,3.336 C87.125,3.336 87.125,0.181 87.125,0.181 C87.125,0.181 95.305,0.181 95.305,0.181 C95.305,0.181 95.305,3.336 95.305,3.336 C95.305,3.336 92.887,3.336 92.887,3.336 C92.887,3.336 92.887,10.848 92.887,10.848 ZM82.867,0.181 C82.867,0.181 86.212,0.181 86.212,0.181 C86.212,0.181 86.212,10.848 86.212,10.848 C86.212,10.848 82.867,10.848 82.867,10.848 C82.867,10.848 82.867,0.181 82.867,0.181 ZM77.424,10.983 C73.714,10.983 71.859,9.376 71.859,5.484 C71.859,1.593 73.714,0.000 77.515,0.000 C79.218,0.000 80.556,0.676 81.027,0.992 C81.027,0.992 79.872,3.802 79.872,3.802 C79.081,3.456 77.956,3.276 77.424,3.276 C76.177,3.276 75.189,3.471 75.189,5.484 C75.189,7.483 76.177,7.693 77.424,7.693 C77.424,7.693 77.424,7.723 77.424,7.723 C77.622,7.723 77.941,7.708 78.306,7.663 C78.306,7.663 78.306,6.792 78.306,6.792 C78.306,6.792 77.424,6.792 77.424,6.792 C77.424,6.792 77.424,4.237 77.424,4.237 C77.424,4.237 81.347,4.237 81.347,4.237 C81.347,4.237 81.347,10.007 81.347,10.007 C81.347,10.007 81.316,10.022 81.316,10.022 C80.799,10.352 79.142,10.998 77.424,10.983 ZM67.145,0.181 C67.145,0.181 70.490,0.181 70.490,0.181 C70.490,0.181 70.490,10.848 70.490,10.848 C70.490,10.848 67.145,10.848 67.145,10.848 C67.145,10.848 67.145,0.181 67.145,0.181 ZM60.379,10.848 C60.379,10.848 56.350,10.848 56.350,10.848 C56.350,10.848 56.350,0.181 56.350,0.181 C56.350,0.181 60.227,0.181 60.227,0.181 C63.922,0.181 65.777,1.608 65.777,5.499 C65.777,9.391 64.074,10.848 60.379,10.848 ZM60.227,3.306 C60.227,3.306 59.680,3.306 59.680,3.306 C59.680,3.306 59.680,7.723 59.680,7.723 C59.680,7.723 60.349,7.723 60.349,7.723 C61.459,7.723 62.462,7.498 62.462,5.499 C62.462,3.486 61.459,3.306 60.227,3.306 ZM46.862,10.848 C46.862,10.848 45.585,7.468 45.585,7.468 C45.585,7.468 44.718,7.468 44.718,7.468 C44.718,7.468 44.718,10.848 44.718,10.848 C44.718,10.848 41.373,10.848 41.373,10.848 C41.373,10.848 41.373,0.181 41.373,0.181 C41.373,0.181 46.573,0.181 46.573,0.181 C48.382,0.181 50.192,0.271 50.192,3.862 C50.192,5.499 49.644,6.416 48.869,6.927 C48.869,6.927 50.420,10.848 50.420,10.848 C50.420,10.848 46.862,10.848 46.862,10.848 ZM46.087,3.110 C46.087,3.110 44.718,3.110 44.718,3.110 C44.718,3.110 44.718,4.613 44.718,4.613 C44.718,4.613 46.087,4.613 46.087,4.613 C46.512,4.613 46.847,4.583 46.847,3.862 C46.847,3.141 46.512,3.110 46.087,3.110 ZM37.617,7.528 C37.617,7.528 37.617,10.848 37.617,10.848 C37.617,10.848 34.272,10.848 34.272,10.848 C34.272,10.848 34.272,7.528 34.272,7.528 C34.272,7.528 32.311,3.486 32.311,3.486 C31.855,2.540 31.429,1.803 31.429,0.752 C31.429,0.752 31.429,0.181 31.429,0.181 C31.429,0.181 34.151,0.181 34.151,0.181 C34.151,0.181 34.744,1.503 34.744,1.503 C35.184,2.479 35.443,3.321 35.686,4.342 C35.686,4.342 35.945,5.590 35.945,5.590 C35.945,5.590 36.203,4.342 36.203,4.342 C36.447,3.321 36.720,2.464 37.146,1.503 C37.146,1.503 37.724,0.181 37.724,0.181 C37.724,0.181 40.460,0.181 40.460,0.181 C40.460,0.181 40.460,0.767 40.460,0.767 C40.460,1.818 40.050,2.540 39.579,3.501 C39.579,3.501 37.617,7.528 37.617,7.528 ZM21.911,10.127 C21.911,9.075 22.184,8.264 22.792,7.408 C22.792,7.408 25.757,3.336 25.757,3.336 C25.757,3.336 22.032,3.336 22.032,3.336 C22.032,3.336 22.032,0.181 22.032,0.181 C22.032,0.181 30.273,0.181 30.273,0.181 C30.273,0.181 30.273,0.917 30.273,0.917 C30.273,1.969 30.015,2.780 29.391,3.636 C29.391,3.636 26.442,7.693 26.442,7.693 C26.442,7.693 30.517,7.693 30.517,7.693 C30.517,7.693 30.517,10.848 30.517,10.848 C30.517,10.848 21.911,10.848 21.911,10.848 C21.911,10.848 21.911,10.127 21.911,10.127 ZM15.296,10.998 C11.906,10.998 10.035,9.391 10.035,5.499 C10.035,1.608 11.906,0.000 15.296,0.000 C18.687,0.000 20.542,1.608 20.542,5.499 C20.542,9.391 18.687,10.998 15.296,10.998 ZM15.296,3.291 C14.050,3.291 13.365,3.486 13.365,5.499 C13.365,7.498 14.050,7.708 15.296,7.708 C16.528,7.708 17.227,7.498 17.227,5.499 C17.227,3.486 16.528,3.291 15.296,3.291 ZM5.945,10.848 C5.945,10.848 4.151,7.092 4.151,7.092 C4.151,7.092 3.345,7.092 3.345,7.092 C3.345,7.092 3.345,10.848 3.345,10.848 C3.345,10.848 -0.000,10.848 -0.000,10.848 C-0.000,10.848 -0.000,0.181 -0.000,0.181 C-0.000,0.181 3.345,0.181 3.345,0.181 C3.345,0.181 3.345,3.937 3.345,3.937 C3.345,3.937 4.151,3.937 4.151,3.937 C4.151,3.937 5.945,0.181 5.945,0.181 C5.945,0.181 9.503,0.181 9.503,0.181 C9.503,0.181 6.949,5.529 6.949,5.529 C6.949,5.529 9.503,10.848 9.503,10.848 C9.503,10.848 5.945,10.848 5.945,10.848 Z" id="path-1" class="cls-2" fill-rule="evenodd"/>
</svg>
