<svg xmlns="http://www.w3.org/2000/svg" xmlns:xlink="http://www.w3.org/1999/xlink" preserveAspectRatio="xMidYMid" width="26" height="22" viewBox="0 0 26 22">
  <defs>
    <style>

      .cls-2 {
        fill: #ffffff;
      }
    </style>
  </defs>
  <path d="M24.000,13.000 C24.000,13.000 2.000,13.000 2.000,13.000 C0.895,13.000 -0.000,12.104 -0.000,11.000 C-0.000,9.895 0.895,9.000 2.000,9.000 C2.000,9.000 24.000,9.000 24.000,9.000 C25.105,9.000 26.000,9.895 26.000,11.000 C26.000,12.104 25.105,13.000 24.000,13.000 ZM24.000,4.000 C24.000,4.000 2.000,4.000 2.000,4.000 C0.895,4.000 -0.000,3.104 -0.000,2.000 C-0.000,0.895 0.895,-0.000 2.000,-0.000 C2.000,-0.000 24.000,-0.000 24.000,-0.000 C25.105,-0.000 26.000,0.895 26.000,2.000 C26.000,3.104 25.105,4.000 24.000,4.000 ZM2.000,18.000 C2.000,18.000 24.000,18.000 24.000,18.000 C25.105,18.000 26.000,18.895 26.000,20.000 C26.000,21.104 25.105,22.000 24.000,22.000 C24.000,22.000 2.000,22.000 2.000,22.000 C0.895,22.000 -0.000,21.104 -0.000,20.000 C-0.000,18.895 0.895,18.000 2.000,18.000 Z" id="path-1" class="cls-2" fill-rule="evenodd"/>
</svg>
