<svg xmlns="http://www.w3.org/2000/svg" xmlns:xlink="http://www.w3.org/1999/xlink" preserveAspectRatio="xMidYMid" width="56" height="48" viewBox="0 0 56 48">
  <defs>
    <style>

      .cls-2 {
        fill: #f7f7f7;
      }
    </style>
  </defs>
  <path d="M56.000,41.224 C56.000,41.224 56.000,43.223 56.000,43.223 C56.000,43.223 50.699,43.223 50.699,43.223 C50.699,43.223 50.699,34.006 50.699,34.006 C50.699,34.006 56.000,34.006 56.000,34.006 C56.000,34.006 56.000,36.005 56.000,36.005 C56.000,36.005 53.121,36.005 53.121,36.005 C53.121,36.005 53.121,37.578 53.121,37.578 C53.121,37.578 55.843,37.578 55.843,37.578 C55.843,37.578 55.843,39.577 55.843,39.577 C55.843,39.577 53.121,39.577 53.121,39.577 C53.121,39.577 53.121,41.224 53.121,41.224 C53.121,41.224 56.000,41.224 56.000,41.224 ZM44.240,38.105 C44.240,38.105 49.043,38.105 49.043,38.105 C49.043,39.104 48.930,39.919 48.702,40.549 C48.357,41.508 47.786,42.247 46.990,42.764 C46.221,43.259 45.311,43.507 44.261,43.507 C42.550,43.507 41.238,42.930 40.324,41.778 C39.633,40.905 39.287,39.863 39.287,38.652 C39.287,37.310 39.692,36.182 40.501,35.269 C41.420,34.229 42.703,33.709 44.349,33.709 C45.450,33.709 46.383,33.988 47.147,34.546 C47.693,34.942 48.159,35.527 48.545,36.302 C48.545,36.302 46.253,37.241 46.253,37.241 C46.057,36.810 45.829,36.488 45.569,36.273 C45.194,35.968 44.750,35.815 44.234,35.815 C43.180,35.815 42.446,36.352 42.030,37.426 C41.875,37.821 41.798,38.229 41.798,38.652 C41.798,39.527 42.078,40.257 42.639,40.841 C43.055,41.277 43.609,41.494 44.302,41.494 C44.919,41.494 45.407,41.317 45.767,40.964 C46.004,40.730 46.159,40.385 46.233,39.928 C46.233,39.928 44.240,39.928 44.240,39.928 C44.240,39.928 44.240,38.105 44.240,38.105 ZM40.789,19.210 C40.789,19.210 40.578,19.419 40.578,19.419 C40.578,19.419 41.114,19.949 41.114,19.949 C41.114,19.949 40.141,20.878 40.141,20.878 C40.141,20.878 39.610,20.353 39.610,20.353 C39.610,20.353 39.399,20.562 39.399,20.562 C39.399,20.562 39.926,21.083 39.926,21.083 C39.926,21.083 38.952,22.012 38.952,22.012 C38.952,22.012 38.431,21.496 38.431,21.496 C38.431,21.496 38.219,21.705 38.219,21.705 C38.219,21.705 38.737,22.217 38.737,22.217 C38.737,22.217 37.573,23.328 37.573,23.328 C37.573,23.328 36.095,19.333 36.095,19.333 C36.095,19.333 36.835,18.647 36.835,18.647 C36.835,18.647 36.990,18.747 36.990,18.747 C37.621,19.159 38.697,19.118 40.100,18.626 C41.110,18.272 41.986,18.614 42.023,18.629 C42.023,18.629 42.358,18.764 42.358,18.764 C42.358,18.764 41.329,19.744 41.329,19.744 C41.329,19.744 40.789,19.210 40.789,19.210 ZM28.153,5.717 C26.560,5.717 25.265,4.435 25.265,2.859 C25.265,1.282 26.560,-0.000 28.153,-0.000 C29.746,-0.000 31.042,1.282 31.042,2.859 C31.042,4.435 29.746,5.717 28.153,5.717 ZM17.269,22.223 C17.269,22.223 17.793,21.705 17.793,21.705 C17.793,21.705 17.582,21.496 17.582,21.496 C17.582,21.496 17.054,22.018 17.054,22.018 C17.054,22.018 16.081,21.090 16.081,21.090 C16.081,21.090 16.614,20.562 16.614,20.562 C16.614,20.562 16.403,20.353 16.403,20.353 C16.403,20.353 15.866,20.885 15.866,20.885 C15.866,20.885 14.892,19.956 14.892,19.956 C14.892,19.956 15.435,19.419 15.435,19.419 C15.435,19.419 15.224,19.210 15.224,19.210 C15.224,19.210 14.677,19.751 14.677,19.751 C14.677,19.751 13.642,18.764 13.642,18.764 C13.642,18.764 13.976,18.629 13.976,18.629 C14.013,18.614 14.890,18.272 15.899,18.626 C17.303,19.117 18.378,19.159 19.010,18.747 C19.010,18.747 19.164,18.647 19.164,18.647 C19.164,18.647 19.958,19.383 19.958,19.383 C19.958,19.383 18.480,23.378 18.480,23.378 C18.480,23.378 17.269,22.223 17.269,22.223 ZM14.892,34.957 C15.383,35.501 15.629,36.196 15.629,37.041 C15.629,37.873 15.431,38.561 15.035,39.105 C14.521,39.811 13.668,40.164 12.477,40.164 C12.477,40.164 10.962,40.164 10.962,40.164 C10.962,40.164 10.962,43.223 10.962,43.223 C10.962,43.223 8.540,43.223 8.540,43.223 C8.540,43.223 8.540,34.006 8.540,34.006 C8.540,34.006 12.395,34.006 12.395,34.006 C13.491,34.006 14.323,34.323 14.892,34.957 ZM12.813,36.245 C12.610,36.040 12.265,35.937 11.776,35.937 C11.776,35.937 10.962,35.937 10.962,35.937 C10.962,35.937 10.962,38.233 10.962,38.233 C10.962,38.233 11.770,38.233 11.770,38.233 C12.294,38.233 12.655,38.120 12.851,37.894 C13.029,37.691 13.118,37.416 13.118,37.068 C13.118,36.725 13.016,36.451 12.813,36.245 ZM3.337,37.205 C3.474,37.286 3.884,37.427 4.567,37.625 C5.424,37.873 6.034,38.225 6.399,38.680 C6.713,39.067 6.870,39.566 6.870,40.174 C6.870,41.733 6.179,42.750 4.796,43.223 C4.314,43.390 3.796,43.473 3.241,43.473 C2.076,43.473 0.996,43.124 0.000,42.426 C0.000,42.426 1.037,40.495 1.037,40.495 C1.766,41.148 2.479,41.474 3.177,41.474 C3.491,41.474 3.758,41.401 3.977,41.256 C4.232,41.092 4.360,40.860 4.360,40.560 C4.360,40.288 4.219,40.060 3.936,39.878 C3.727,39.742 3.373,39.603 2.877,39.462 C2.275,39.287 1.897,39.165 1.742,39.098 C1.496,38.994 1.287,38.873 1.113,38.734 C0.617,38.329 0.369,37.717 0.369,36.899 C0.369,36.045 0.625,35.336 1.140,34.775 C1.740,34.114 2.540,33.783 3.541,33.783 C4.546,33.783 5.531,34.033 6.495,34.532 C6.495,34.532 5.526,36.396 5.526,36.396 C4.997,35.987 4.464,35.782 3.926,35.782 C3.666,35.782 3.433,35.847 3.228,35.978 C2.995,36.128 2.879,36.326 2.879,36.575 C2.879,36.819 3.032,37.029 3.337,37.205 ZM13.233,47.129 C13.233,47.610 12.844,47.971 12.325,47.971 C12.325,47.971 11.685,47.971 11.685,47.971 C11.685,47.971 11.685,46.290 11.685,46.290 C11.685,46.290 12.325,46.290 12.325,46.290 C12.851,46.290 13.233,46.642 13.233,47.129 ZM11.986,47.699 C11.986,47.699 12.327,47.699 12.327,47.699 C12.656,47.699 12.912,47.462 12.912,47.134 C12.912,46.804 12.668,46.563 12.327,46.563 C12.327,46.563 11.986,46.563 11.986,46.563 C11.986,46.563 11.986,47.699 11.986,47.699 ZM14.300,47.971 C14.300,47.971 14.000,47.971 14.000,47.971 C14.000,47.971 14.000,46.290 14.000,46.290 C14.000,46.290 14.300,46.290 14.300,46.290 C14.300,46.290 14.300,47.971 14.300,47.971 ZM15.978,46.261 C16.357,46.261 16.576,46.398 16.576,46.398 C16.576,46.398 16.472,46.651 16.472,46.651 C16.472,46.651 16.253,46.541 16.028,46.541 C15.629,46.541 15.386,46.790 15.386,47.134 C15.386,47.471 15.646,47.720 15.999,47.720 C16.156,47.720 16.294,47.686 16.386,47.653 C16.386,47.653 16.386,47.354 16.386,47.354 C16.386,47.354 15.912,47.354 15.912,47.354 C15.912,47.354 15.912,47.089 15.912,47.089 C15.912,47.089 16.676,47.089 16.676,47.089 C16.676,47.089 16.676,47.808 16.676,47.808 C16.676,47.808 16.422,48.000 16.018,48.000 C15.444,48.000 15.062,47.626 15.062,47.129 C15.062,46.644 15.475,46.261 15.978,46.261 ZM17.787,47.971 C17.787,47.971 17.487,47.971 17.487,47.971 C17.487,47.971 17.487,46.290 17.487,46.290 C17.487,46.290 17.787,46.290 17.787,46.290 C17.787,46.290 17.787,47.971 17.787,47.971 ZM16.960,36.886 C17.188,36.285 17.493,35.771 17.875,35.343 C18.834,34.267 20.133,33.729 21.770,33.729 C23.408,33.729 24.707,34.267 25.667,35.343 C26.508,36.288 26.928,37.389 26.928,38.645 C26.928,39.897 26.508,40.995 25.667,41.940 C24.707,43.016 23.408,43.554 21.770,43.554 C20.137,43.554 18.841,43.016 17.882,41.940 C17.040,40.995 16.620,39.897 16.620,38.645 C16.620,38.073 16.733,37.487 16.960,36.886 ZM19.759,40.317 C20.279,40.926 20.950,41.231 21.770,41.231 C22.592,41.231 23.264,40.929 23.789,40.324 C24.208,39.841 24.418,39.281 24.418,38.645 C24.418,37.995 24.208,37.433 23.789,36.959 C23.250,36.354 22.578,36.052 21.770,36.052 C21.214,36.052 20.710,36.207 20.259,36.516 C19.807,36.825 19.486,37.237 19.294,37.751 C19.185,38.045 19.130,38.343 19.130,38.645 C19.130,39.268 19.340,39.825 19.759,40.317 ZM19.865,46.563 C19.865,46.563 19.307,46.563 19.307,46.563 C19.307,46.563 19.307,47.971 19.307,47.971 C19.307,47.971 19.005,47.971 19.005,47.971 C19.005,47.971 19.005,46.563 19.005,46.563 C19.005,46.563 18.437,46.563 18.437,46.563 C18.437,46.563 18.437,46.290 18.437,46.290 C18.437,46.290 19.865,46.290 19.865,46.290 C19.865,46.290 19.865,46.563 19.865,46.563 ZM20.980,46.276 C20.980,46.276 21.777,47.971 21.777,47.971 C21.777,47.971 21.456,47.971 21.456,47.971 C21.456,47.971 21.306,47.636 21.306,47.636 C21.306,47.636 20.576,47.636 20.576,47.636 C20.576,47.636 20.429,47.971 20.429,47.971 C20.429,47.971 20.115,47.971 20.115,47.971 C20.115,47.971 20.912,46.276 20.912,46.276 C20.912,46.276 20.980,46.276 20.980,46.276 ZM21.200,47.399 C21.200,47.399 20.941,46.821 20.941,46.821 C20.941,46.821 20.683,47.399 20.683,47.399 C20.683,47.399 21.200,47.399 21.200,47.399 ZM22.733,47.699 C22.733,47.699 23.538,47.699 23.538,47.699 C23.538,47.699 23.538,47.971 23.538,47.971 C23.538,47.971 22.433,47.971 22.433,47.971 C22.433,47.971 22.433,46.290 22.433,46.290 C22.433,46.290 22.733,46.290 22.733,46.290 C22.733,46.290 22.733,47.699 22.733,47.699 ZM26.178,46.276 C26.178,46.276 26.975,47.971 26.975,47.971 C26.975,47.971 26.654,47.971 26.654,47.971 C26.654,47.971 26.504,47.636 26.504,47.636 C26.504,47.636 25.774,47.636 25.774,47.636 C25.774,47.636 25.627,47.971 25.627,47.971 C25.627,47.971 25.313,47.971 25.313,47.971 C25.313,47.971 26.110,46.276 26.110,46.276 C26.110,46.276 26.178,46.276 26.178,46.276 ZM26.398,47.399 C26.398,47.399 26.139,46.821 26.139,46.821 C26.139,46.821 25.881,47.399 25.881,47.399 C25.881,47.399 26.398,47.399 26.398,47.399 ZM28.777,47.364 C28.777,47.364 28.777,46.290 28.777,46.290 C28.777,46.290 29.076,46.290 29.076,46.290 C29.076,46.290 29.076,47.983 29.076,47.983 C29.076,47.983 28.997,47.983 28.997,47.983 C28.997,47.983 27.931,46.929 27.931,46.929 C27.931,46.929 27.931,47.971 27.931,47.971 C27.931,47.971 27.632,47.971 27.632,47.971 C27.632,47.971 27.632,46.280 27.632,46.280 C27.632,46.280 27.726,46.280 27.726,46.280 C27.726,46.280 28.777,47.364 28.777,47.364 ZM31.495,47.129 C31.495,47.610 31.106,47.971 30.587,47.971 C30.587,47.971 29.947,47.971 29.947,47.971 C29.947,47.971 29.947,46.290 29.947,46.290 C29.947,46.290 30.587,46.290 30.587,46.290 C31.114,46.290 31.495,46.642 31.495,47.129 ZM30.249,47.699 C30.249,47.699 30.589,47.699 30.589,47.699 C30.918,47.699 31.174,47.462 31.174,47.134 C31.174,46.804 30.930,46.563 30.589,46.563 C30.589,46.563 30.249,46.563 30.249,46.563 C30.249,46.563 30.249,47.699 30.249,47.699 ZM35.138,47.129 C35.138,47.610 34.749,47.971 34.230,47.971 C34.230,47.971 33.590,47.971 33.590,47.971 C33.590,47.971 33.590,46.290 33.590,46.290 C33.590,46.290 34.230,46.290 34.230,46.290 C34.756,46.290 35.138,46.642 35.138,47.129 ZM33.892,47.699 C33.892,47.699 34.232,47.699 34.232,47.699 C34.561,47.699 34.817,47.462 34.817,47.134 C34.817,46.804 34.573,46.563 34.232,46.563 C34.232,46.563 33.892,46.563 33.892,46.563 C33.892,46.563 33.892,47.699 33.892,47.699 ZM30.726,43.223 C30.726,43.223 28.304,43.223 28.304,43.223 C28.304,43.223 28.304,34.006 28.304,34.006 C28.304,34.006 30.726,34.006 30.726,34.006 C30.726,34.006 35.182,39.644 35.182,39.644 C35.182,39.644 35.182,34.006 35.182,34.006 C35.182,34.006 37.604,34.006 37.604,34.006 C37.604,34.006 37.604,43.223 37.604,43.223 C37.604,43.223 35.182,43.223 35.182,43.223 C35.182,43.223 30.726,37.578 30.726,37.578 C30.726,37.578 30.726,43.223 30.726,43.223 ZM37.005,46.563 C37.005,46.563 36.201,46.563 36.201,46.563 C36.201,46.563 36.201,47.034 36.201,47.034 C36.201,47.034 36.930,47.034 36.930,47.034 C36.930,47.034 36.930,47.297 36.930,47.297 C36.930,47.297 36.201,47.297 36.201,47.297 C36.201,47.297 36.201,47.699 36.201,47.699 C36.201,47.699 37.005,47.699 37.005,47.699 C37.005,47.699 37.005,47.971 37.005,47.971 C37.005,47.971 35.901,47.971 35.901,47.971 C35.901,47.971 35.901,46.290 35.901,46.290 C35.901,46.290 37.005,46.290 37.005,46.290 C37.005,46.290 37.005,46.563 37.005,46.563 ZM18.184,26.493 C17.172,28.695 16.378,30.422 16.378,30.422 C16.378,30.422 18.939,23.500 18.939,23.500 C18.939,23.500 19.216,22.753 19.216,22.753 C19.216,22.753 19.216,22.753 19.216,22.753 C19.216,22.753 25.737,5.131 25.737,5.131 C26.022,5.426 26.361,5.668 26.738,5.844 C26.738,5.844 27.811,8.795 27.811,8.795 C27.811,8.795 25.590,14.903 25.590,14.903 C25.590,14.903 24.874,15.053 24.052,15.598 C23.849,15.750 23.620,15.932 23.365,16.145 C22.935,16.548 22.522,17.068 22.207,17.750 C21.792,18.651 20.849,20.700 19.840,22.893 C19.840,22.893 19.840,22.893 19.840,22.893 C19.840,22.893 18.184,26.493 18.184,26.493 C18.184,26.493 18.184,26.493 18.184,26.493 ZM20.620,25.420 C20.620,25.420 19.593,24.440 19.593,24.440 C20.196,23.130 20.807,21.801 21.333,20.657 C21.333,20.657 28.000,26.837 28.000,26.837 C28.000,26.837 34.717,20.611 34.717,20.611 C35.242,21.752 35.853,23.080 36.456,24.392 C36.456,24.392 35.386,25.414 35.386,25.414 C35.386,25.414 34.894,24.927 34.894,24.927 C34.894,24.927 34.683,25.136 34.683,25.136 C34.683,25.136 35.171,25.619 35.171,25.619 C35.171,25.619 34.197,26.548 34.197,26.548 C34.197,26.548 33.715,26.070 33.715,26.070 C33.715,26.070 33.503,26.279 33.503,26.279 C33.503,26.279 33.982,26.753 33.982,26.753 C33.982,26.753 33.009,27.681 33.009,27.681 C33.009,27.681 32.536,27.213 32.536,27.213 C32.536,27.213 32.325,27.423 32.325,27.423 C32.325,27.423 32.793,27.886 32.793,27.886 C32.793,27.886 31.820,28.815 31.820,28.815 C31.820,28.815 31.357,28.357 31.357,28.357 C31.357,28.357 31.145,28.566 31.145,28.566 C31.145,28.566 31.605,29.021 31.605,29.021 C31.605,29.021 30.631,29.949 30.631,29.949 C30.631,29.949 30.178,29.500 30.178,29.500 C30.178,29.500 29.966,29.709 29.966,29.709 C29.966,29.709 30.416,30.154 30.416,30.154 C30.416,30.154 29.442,31.083 29.442,31.083 C29.442,31.083 28.999,30.644 28.999,30.644 C28.999,30.644 28.787,30.853 28.787,30.853 C28.787,30.853 29.227,31.288 29.227,31.288 C29.227,31.288 28.084,32.379 28.084,32.379 C28.084,32.379 28.084,32.379 28.084,32.379 C28.084,32.379 27.998,32.464 27.998,32.464 C27.998,32.464 27.811,32.279 27.811,32.279 C27.811,32.279 26.779,31.295 26.779,31.295 C26.779,31.295 27.225,30.853 27.225,30.853 C27.225,30.853 27.014,30.644 27.014,30.644 C27.014,30.644 26.564,31.089 26.564,31.089 C26.564,31.089 25.590,30.161 25.590,30.161 C25.590,30.161 26.046,29.709 26.046,29.709 C26.046,29.709 25.835,29.500 25.835,29.500 C25.835,29.500 25.375,29.955 25.375,29.955 C25.375,29.955 24.402,29.027 24.402,29.027 C24.402,29.027 24.867,28.566 24.867,28.566 C24.867,28.566 24.656,28.357 24.656,28.357 C24.656,28.357 24.187,28.822 24.187,28.822 C24.187,28.822 23.213,27.893 23.213,27.893 C23.213,27.893 23.688,27.423 23.688,27.423 C23.688,27.423 23.477,27.213 23.477,27.213 C23.477,27.213 22.998,27.688 22.998,27.688 C22.998,27.688 22.024,26.759 22.024,26.759 C22.024,26.759 22.509,26.279 22.509,26.279 C22.509,26.279 22.298,26.070 22.298,26.070 C22.298,26.070 21.809,26.554 21.809,26.554 C21.809,26.554 20.836,25.625 20.836,25.625 C20.836,25.625 21.330,25.136 21.330,25.136 C21.330,25.136 21.119,24.927 21.119,24.927 C21.119,24.927 20.620,25.420 20.620,25.420 ZM38.042,26.818 C38.042,26.818 36.113,22.624 36.113,22.624 C35.152,20.534 34.268,18.614 33.869,17.750 C32.777,15.380 30.486,14.903 30.486,14.903 C30.486,14.903 27.263,6.038 27.263,6.038 C27.547,6.116 27.845,6.161 28.153,6.161 C29.019,6.161 29.806,5.831 30.399,5.294 C30.399,5.294 36.798,22.584 36.798,22.584 C36.798,22.584 36.798,22.584 36.798,22.584 C36.798,22.584 38.419,26.964 38.419,26.964 C38.419,26.964 38.419,26.964 38.419,26.964 C38.419,26.964 39.699,30.422 39.699,30.422 C39.699,30.422 38.982,28.863 38.042,26.818 ZM38.242,47.722 C38.443,47.722 38.534,47.624 38.534,47.517 C38.534,47.404 38.472,47.337 38.165,47.225 C37.834,47.105 37.720,46.950 37.720,46.749 C37.720,46.495 37.928,46.261 38.290,46.261 C38.472,46.261 38.650,46.314 38.759,46.376 C38.759,46.376 38.662,46.639 38.662,46.639 C38.564,46.584 38.414,46.527 38.283,46.527 C38.104,46.527 38.022,46.625 38.022,46.742 C38.022,46.850 38.114,46.917 38.353,47.003 C38.732,47.149 38.841,47.297 38.841,47.517 C38.841,47.815 38.612,48.000 38.233,48.000 C38.032,48.000 37.831,47.933 37.677,47.839 C37.677,47.839 37.781,47.572 37.781,47.572 C37.921,47.665 38.090,47.722 38.242,47.722 ZM39.892,47.971 C39.892,47.971 39.593,47.971 39.593,47.971 C39.593,47.971 39.593,46.290 39.593,46.290 C39.593,46.290 39.892,46.290 39.892,46.290 C39.892,46.290 39.892,47.971 39.892,47.971 ZM41.570,46.261 C41.950,46.261 42.169,46.398 42.169,46.398 C42.169,46.398 42.065,46.651 42.065,46.651 C42.065,46.651 41.846,46.541 41.621,46.541 C41.222,46.541 40.978,46.790 40.978,47.134 C40.978,47.471 41.239,47.720 41.592,47.720 C41.749,47.720 41.887,47.686 41.978,47.653 C41.978,47.653 41.978,47.354 41.978,47.354 C41.978,47.354 41.505,47.354 41.505,47.354 C41.505,47.354 41.505,47.089 41.505,47.089 C41.505,47.089 42.268,47.089 42.268,47.089 C42.268,47.089 42.268,47.808 42.268,47.808 C42.268,47.808 42.015,48.000 41.611,48.000 C41.036,48.000 40.655,47.626 40.655,47.129 C40.655,46.644 41.068,46.261 41.570,46.261 ZM44.220,47.364 C44.220,47.364 44.220,46.290 44.220,46.290 C44.220,46.290 44.520,46.290 44.520,46.290 C44.520,46.290 44.520,47.983 44.520,47.983 C44.520,47.983 44.440,47.983 44.440,47.983 C44.440,47.983 43.375,46.929 43.375,46.929 C43.375,46.929 43.375,47.971 43.375,47.971 C43.375,47.971 43.075,47.971 43.075,47.971 C43.075,47.971 43.075,46.280 43.075,46.280 C43.075,46.280 43.169,46.280 43.169,46.280 C43.169,46.280 44.220,47.364 44.220,47.364 Z" id="path-1" class="cls-2" fill-rule="evenodd"/>
</svg>
