<?xml version="1.0" encoding="utf-8"?>
<!-- Generator: Adobe Illustrator 18.0.0, SVG Export Plug-In . SVG Version: 6.00 Build 0)  -->
<!DOCTYPE svg PUBLIC "-//W3C//DTD SVG 1.1//EN" "http://www.w3.org/Graphics/SVG/1.1/DTD/svg11.dtd">
<svg version="1.1" id="Layer_1" xmlns="http://www.w3.org/2000/svg" xmlns:xlink="http://www.w3.org/1999/xlink" x="0px" y="0px"
	 viewBox="0 0 300.4 141" enable-background="new 0 0 300.4 141" xml:space="preserve">
<g id="SMXPsX.tif">
	<g>
		<path fill="#FEFEFE" d="M154,118.1c30,0.2,58-1.4,85.9-3.3c12.3-0.8,24.5-2.5,36-7.5c13.2-5.8,21.1-15.8,23.3-30.2
			c1.6-10.8,1.4-21.6,0.6-32.4c-1.5-18.7-13.8-32.6-31.8-36.4c-15-3.2-30.2-5.2-45.5-6c-31.6-1.7-63.3-2.8-94.9-2.2
			C97.1,0.7,66.8,2.3,36.8,7.2C16.2,10.6,4.3,22.4,1,43.1C-0.6,53.1,0,63,0.8,73c1.9,23,15.5,34.2,36.1,38.7
			c5.8,1.3,11.9,2,17.8,2.2c4.8,0.1,5.8,2.1,5.6,6.4c-0.3,5.5-0.1,11-0.1,16.5c0,1.4-0.7,3.4,1,4.1c1.7,0.7,2.6-1.2,3.5-2.2
			c6-6.5,11.9-13.1,17.7-19.7c1.4-1.5,2.7-2.6,5.1-2.5C110.3,117.9,133.1,118.4,154,118.1z"/>
		<path fill-rule="evenodd" clip-rule="evenodd" fill="#7C529D" d="M154,118.1c-20.8,0.3-43.6-0.3-66.4-1.7
			c-2.4-0.1-3.7,0.9-5.1,2.5c-5.9,6.6-11.8,13.2-17.7,19.7c-0.9,1-1.8,2.9-3.5,2.2c-1.7-0.7-1-2.6-1-4.1c-0.1-5.5-0.3-11,0.1-16.5
			c0.3-4.3-0.8-6.2-5.6-6.4c-6-0.2-12-0.9-17.8-2.2C16.3,107.2,2.8,96,0.8,73C0,63-0.6,53.1,1,43.1C4.3,22.4,16.2,10.6,36.8,7.2
			c30-4.9,60.2-6.5,90.6-7.1c31.7-0.6,63.3,0.5,94.9,2.2c15.3,0.8,30.5,2.8,45.5,6c18,3.8,30.3,17.6,31.8,36.4
			c0.9,10.8,1.1,21.6-0.6,32.4c-2.2,14.4-10.1,24.4-23.3,30.2c-11.5,5-23.7,6.7-36,7.5C211.9,116.7,184,118.3,154,118.1z
			 M160.2,59.9c0,7,0,14,0,21c0,2.7,0.6,5,3.2,6.2c2.5,1.2,5,0.8,6.7-1.5c1.2-1.5,1.7-1,3.1-0.2c8.4,5.2,17.7,2.8,22.7-5.8
			c4.9-8.4,4.4-16.9,0-25.3c-3.8-7.2-11.3-10.2-19.1-7.8c-5.5,1.6-5.5,1.6-5.5-4.4c0-0.8,0-1.7,0-2.5c0.2-3.8-1.1-6.9-5.3-6.9
			c-4.4,0-5.8,3.1-5.7,7.2C160.3,46.5,160.2,53.2,160.2,59.9z M118.1,67.5c-4.1-11-7.6-20.5-11.2-29.9c-1.3-3.4-3.3-6.1-7.5-4.6
			c-4.1,1.5-4.9,4.6-3.4,8.5c5.4,13.9,10.9,27.9,16.4,41.8c1,2.6,2.7,4.6,5.9,4.6c2.9-0.1,4.5-1.9,5.5-4.4c1.7-4.2,3.3-8.3,4.9-12.5
			c3.9-9.9,7.8-19.8,11.6-29.7c1.4-3.6,0.8-6.7-3.2-8.1c-3.8-1.4-6,0.6-7.5,3.8c-0.6,1.4-1.1,2.8-1.6,4.2
			C124.9,49.4,121.8,57.7,118.1,67.5z M225.5,70.8c2.8,0,5.7,0,8.5,0c6-0.1,7.7-2.1,6.5-8.1c-2.1-10.7-11.2-17.7-21.5-16.7
			c-10.2,1-17.8,10-17.7,21.3c0.1,8.7,3.6,15.7,11.8,19.2c8.4,3.6,16.6,2.1,24.1-3.2c2.4-1.7,3.6-4,1.7-6.9
			c-1.7-2.5-3.9-2.8-6.5-1.4c-1.8,1-3.5,1.9-5.4,2.7c-5.1,2-11.2,0.1-13.3-3.8c-1-2-0.9-3.1,1.7-3.1
			C218.9,70.8,222.2,70.8,225.5,70.8z M76.5,87.4c4.2,0,9.1-4,10.5-8c1.4-3.9-1.5-5.4-3.8-7.2c-1.7-1.4-3.5-2.6-5.3-3.8
			c-3.5-2.5-6.8-2.7-9.4,1.3C67.1,71.9,65,72,62.9,71c-6-2.7-10.6-6.9-13.3-12.9c-1.2-2.7-1.2-5.1,1.6-7c1.5-1,3-2.2,2.9-4.4
			c-0.2-2.9-7.1-12.4-9.8-13.4c-1.1-0.4-2.3-0.4-3.4,0c-6.4,2.2-9.1,7.5-6.5,13.7c7.6,18.7,21,31.7,39.4,39.6
			C74.8,87.1,75.9,87.2,76.5,87.4z M244.3,66.4c0,5.2-0.1,10.3,0,15.5c0.1,3.2,1.8,5.5,5.1,5.8c3.5,0.3,5.7-1.9,6-5.3
			c0.3-3,0.5-6,0.1-9c-1-8.4,0.5-15.1,10.2-17.4c2.3-0.6,3.2-2.6,2.7-5.2c-0.5-2.6-2.1-4.1-4.7-4.5c-2.3-0.4-4.3,0.3-6,1.9
			c-1.2,1.1-1.9,1.9-3.3-0.1c-1.6-2.3-4.2-2.3-6.8-1.2c-2.5,1.1-3.4,3-3.3,5.6C244.3,57.1,244.3,61.7,244.3,66.4z M144.2,68.5
			c0,4.3,0.1,8.6,0,13c-0.1,3.8,1.6,6.3,5.4,6.4c3.8,0.1,5.7-2.3,5.7-6.1c0-9,0-17.9,0-26.9c0-3.4-1.5-5.8-5.3-5.8
			c-3.9,0-5.7,2.2-5.7,6C144.2,59.5,144.2,64,144.2,68.5z M63,32.3c-1,0.1-3-0.7-3.1,1.5c-0.1,1.5,1.6,1.2,2.7,1.4
			C76,37.2,82.3,43.7,84,57.2c0.2,1.3-0.3,3.1,1.5,3.2c1.9,0,1.4-1.8,1.4-3.1C87.1,44.5,75.9,32.7,63,32.3z M156.2,39
			c-0.3-3.7-2.4-5.9-6-6.2c-3.4-0.4-6.4,2.8-6.3,6.2c0,3.6,2.9,6.4,6.4,6.2C154.1,44.9,155.8,42.5,156.2,39z M80.2,55
			c0.1-7.9-6.7-15.1-15-16.1c-1.3-0.2-3-0.8-3.3,1c-0.3,1.9,1.6,1.7,2.8,2c8.3,1.9,11.2,4.9,12.6,13.1c0.2,1.2-0.2,3.1,1.8,2.8
			C80.7,57.6,80.1,56,80.2,55z M73.9,53.5c0.1-3.8-4.3-8.2-8-8.2c-0.9,0-1.7,0.1-2,1c-0.5,1.4,0.5,1.7,1.6,1.9
			c3.4,0.5,5.2,2.6,5.6,6c0.1,0.9,0.7,1.7,1.6,1.6C73.8,55.7,74,54.6,73.9,53.5z"/>
		<path fill-rule="evenodd" clip-rule="evenodd" fill="#FAF9FB" d="M160.2,59.9c0-6.7,0-13.3,0-20c0-4,1.3-7.2,5.7-7.2
			c4.2,0,5.5,3.1,5.3,6.9c0,0.8,0,1.7,0,2.5c0,6,0,6,5.5,4.4c7.8-2.3,15.3,0.6,19.1,7.8c4.4,8.4,4.9,16.9,0,25.3
			c-5,8.5-14.2,10.9-22.7,5.8c-1.4-0.8-1.9-1.3-3.1,0.2c-1.7,2.3-4.1,2.7-6.7,1.5c-2.6-1.2-3.2-3.6-3.2-6.2
			C160.2,73.9,160.2,66.9,160.2,59.9z M188.2,67.3c0.1-6.3-3.4-11-8.2-11.2c-5-0.1-8.6,4.3-8.7,10.7c-0.1,6.1,3.6,11.1,8.2,11.2
			C184.4,78.1,188.1,73.6,188.2,67.3z"/>
		<path fill-rule="evenodd" clip-rule="evenodd" fill="#FAF9FB" d="M118.1,67.5c3.6-9.7,6.8-18.1,9.9-26.4c0.5-1.4,1-2.8,1.6-4.2
			c1.5-3.2,3.7-5.2,7.5-3.8c3.9,1.5,4.6,4.6,3.2,8.1c-3.8,9.9-7.7,19.8-11.6,29.7c-1.6,4.2-3.2,8.4-4.9,12.5c-1,2.4-2.6,4.3-5.5,4.4
			c-3.2,0.1-4.8-2-5.9-4.6c-5.5-13.9-10.9-27.8-16.4-41.8c-1.5-3.9-0.7-7,3.4-8.5c4.2-1.5,6.2,1.2,7.5,4.6
			C110.6,47,114.1,56.5,118.1,67.5z"/>
		<path fill-rule="evenodd" clip-rule="evenodd" fill="#F9F7F9" d="M225.5,70.8c-3.3,0-6.7,0-10,0c-2.6,0-2.7,1.1-1.7,3.1
			c2,3.9,8.2,5.7,13.3,3.8c1.9-0.7,3.6-1.7,5.4-2.7c2.6-1.4,4.8-1.1,6.5,1.4c1.9,2.9,0.7,5.2-1.7,6.9c-7.4,5.2-15.6,6.8-24.1,3.2
			c-8.2-3.5-11.7-10.5-11.8-19.2c-0.1-11.2,7.5-20.3,17.7-21.3c10.3-1,19.4,6.1,21.5,16.7c1.2,6-0.5,8-6.5,8.1
			C231.2,70.8,228.4,70.8,225.5,70.8z M220.7,63.2c1,0,2,0.1,3,0c1.8-0.3,4.8,1.1,5.3-1c0.7-2.7-1.6-4.9-4-6.1
			c-3.3-1.6-6.4-1.3-9.2,1.2c-1.5,1.4-3.1,3.1-2.4,5.1c0.7,1.8,2.9,0.6,4.4,0.9C218.7,63.3,219.7,63.2,220.7,63.2z"/>
		<path fill-rule="evenodd" clip-rule="evenodd" fill="#FAF9FB" d="M76.5,87.4c-0.6-0.2-1.8-0.3-2.8-0.8
			C55.3,78.7,41.9,65.7,34.3,47c-2.6-6.3,0.1-11.6,6.5-13.7c1.2-0.4,2.3-0.4,3.4,0c2.7,1,9.7,10.6,9.8,13.4c0.1,2.2-1.4,3.4-2.9,4.4
			c-2.8,1.9-2.8,4.3-1.6,7c2.7,6.1,7.3,10.2,13.3,12.9c2.2,1,4.2,0.9,5.7-1.4c2.6-4,5.9-3.8,9.4-1.3c1.8,1.2,3.6,2.5,5.3,3.8
			c2.3,1.8,5.2,3.4,3.8,7.2C85.6,83.4,80.7,87.4,76.5,87.4z"/>
		<path fill-rule="evenodd" clip-rule="evenodd" fill="#F9F7F9" d="M244.3,66.4c0-4.7,0-9.3,0-14c0-2.6,0.9-4.5,3.3-5.6
			c2.6-1.1,5.2-1,6.8,1.2c1.4,2,2.1,1.2,3.3,0.1c1.7-1.5,3.7-2.2,6-1.9c2.5,0.4,4.1,1.9,4.7,4.5c0.5,2.5-0.4,4.6-2.7,5.2
			c-9.7,2.3-11.1,9-10.2,17.4c0.3,2.9,0.2,6-0.1,9c-0.4,3.4-2.5,5.6-6,5.3c-3.3-0.2-5-2.6-5.1-5.8C244.2,76.7,244.3,71.6,244.3,66.4
			z"/>
		<path fill-rule="evenodd" clip-rule="evenodd" fill="#FAF9FB" d="M144.2,68.5c0-4.5,0-9,0-13.5c0-3.8,1.8-6,5.7-6
			c3.8,0,5.3,2.4,5.3,5.8c0.1,9,0,17.9,0,26.9c0,3.8-1.9,6.2-5.7,6.1c-3.7-0.1-5.4-2.6-5.4-6.4C144.3,77.1,144.2,72.8,144.2,68.5z"
			/>
		<path fill-rule="evenodd" clip-rule="evenodd" fill="#EFE9F3" d="M63,32.3c12.9,0.4,24.1,12.3,23.9,25.1c0,1.3,0.4,3.1-1.4,3.1
			c-1.8,0-1.3-1.9-1.5-3.2c-1.7-13.6-7.9-20-21.4-22.1c-1.1-0.2-2.8,0.1-2.7-1.4C60,31.6,62,32.4,63,32.3z"/>
		<path fill-rule="evenodd" clip-rule="evenodd" fill="#F9F7F9" d="M156.2,39c-0.4,3.6-2.1,5.9-5.9,6.2c-3.5,0.2-6.4-2.6-6.4-6.2
			c0-3.5,3-6.6,6.3-6.2C153.8,33.1,155.9,35.3,156.2,39z"/>
		<path fill-rule="evenodd" clip-rule="evenodd" fill="#EFE9F3" d="M80.2,55c-0.1,0.9,0.4,2.5-1.1,2.8c-2,0.3-1.6-1.6-1.8-2.8
			c-1.4-8.3-4.3-11.3-12.6-13.1c-1.2-0.3-3.1-0.1-2.8-2c0.3-1.8,2-1.2,3.3-1C73.5,39.9,80.3,47.1,80.2,55z"/>
		<path fill-rule="evenodd" clip-rule="evenodd" fill="#EFE9F3" d="M73.9,53.5c0,1-0.1,2.1-1.3,2.3c-0.9,0.1-1.5-0.6-1.6-1.6
			c-0.3-3.4-2.1-5.4-5.6-6c-1-0.2-2-0.5-1.6-1.9c0.3-0.9,1.2-1,2-1C69.7,45.3,74,49.7,73.9,53.5z"/>
		<path fill-rule="evenodd" clip-rule="evenodd" fill="#7C529D" d="M188.2,67.3c-0.1,6.3-3.8,10.9-8.7,10.7
			c-4.7-0.1-8.3-5.1-8.2-11.2c0.1-6.3,3.7-10.8,8.7-10.7C184.7,56.2,188.2,61,188.2,67.3z"/>
		<path fill-rule="evenodd" clip-rule="evenodd" fill="#7C529D" d="M220.7,63.2c-1,0-2,0.1-3,0c-1.5-0.2-3.8,1-4.4-0.9
			c-0.7-2,0.9-3.7,2.4-5.1c2.8-2.5,5.9-2.8,9.2-1.2c2.5,1.2,4.7,3.4,4,6.1c-0.5,2.1-3.4,0.7-5.3,1C222.7,63.3,221.6,63.2,220.7,63.2
			z"/>
	</g>
</g>
</svg>
