<svg xmlns="http://www.w3.org/2000/svg" xmlns:xlink="http://www.w3.org/1999/xlink" preserveAspectRatio="xMidYMid" width="27" height="27" viewBox="0 0 27 27">
  <defs>
    <style>

      .cls-3 {
        fill: #4c75a3;
      }

      .cls-4 {
        fill: #ffffff;
      }
    </style>
  </defs>
  <g id="vk-icosvg">
    <rect id="rect-1" class="cls-3" width="27" height="27" rx="4" ry="4"/>
    <path d="M20.722,12.600 C21.006,12.246 21.232,11.962 21.399,11.748 C22.599,10.210 23.119,9.228 22.960,8.800 C22.960,8.800 22.897,8.699 22.897,8.699 C22.855,8.640 22.748,8.584 22.575,8.534 C22.401,8.484 22.179,8.476 21.908,8.509 C21.908,8.509 18.911,8.529 18.911,8.529 C18.842,8.523 18.772,8.524 18.704,8.534 C18.634,8.545 18.589,8.554 18.568,8.564 C18.547,8.575 18.530,8.582 18.517,8.589 C18.517,8.589 18.475,8.619 18.475,8.619 C18.440,8.640 18.402,8.674 18.361,8.725 C18.319,8.775 18.283,8.833 18.256,8.900 C17.930,9.709 17.559,10.461 17.142,11.156 C16.886,11.570 16.650,11.931 16.435,12.234 C16.220,12.538 16.039,12.763 15.894,12.906 C15.748,13.050 15.616,13.165 15.498,13.252 C15.381,13.339 15.291,13.376 15.228,13.362 C15.165,13.349 15.106,13.336 15.050,13.322 C14.954,13.263 14.876,13.180 14.817,13.077 C14.758,12.973 14.718,12.843 14.697,12.685 C14.677,12.528 14.663,12.393 14.661,12.279 C14.657,12.165 14.659,12.005 14.666,11.798 C14.672,11.591 14.677,11.451 14.677,11.377 C14.677,11.123 14.681,10.847 14.691,10.550 C14.703,10.252 14.711,10.016 14.718,9.843 C14.725,9.669 14.728,9.485 14.728,9.290 C14.728,9.097 14.716,8.946 14.691,8.834 C14.668,8.725 14.631,8.618 14.583,8.514 C14.534,8.410 14.463,8.330 14.369,8.273 C14.275,8.217 14.160,8.171 14.020,8.138 C13.652,8.058 13.185,8.015 12.616,8.007 C11.325,7.994 10.496,8.074 10.128,8.248 C9.982,8.322 9.851,8.422 9.733,8.549 C9.608,8.697 9.591,8.777 9.681,8.790 C10.097,8.849 10.392,8.994 10.566,9.221 C10.566,9.221 10.628,9.341 10.628,9.341 C10.677,9.429 10.725,9.582 10.773,9.803 C10.821,10.024 10.853,10.267 10.868,10.535 C10.902,11.022 10.902,11.440 10.868,11.788 C10.833,12.136 10.800,12.406 10.769,12.600 C10.738,12.794 10.690,12.951 10.629,13.071 C10.566,13.192 10.524,13.266 10.503,13.292 C10.482,13.319 10.465,13.336 10.451,13.343 C10.360,13.375 10.267,13.392 10.170,13.392 C10.073,13.392 9.955,13.346 9.816,13.252 C9.677,13.159 9.533,13.030 9.384,12.866 C9.235,12.702 9.067,12.473 8.879,12.178 C8.692,11.885 8.498,11.537 8.297,11.136 C8.297,11.136 8.131,10.845 8.131,10.845 C8.027,10.658 7.884,10.386 7.704,10.028 C7.523,9.670 7.363,9.325 7.226,8.990 C7.169,8.849 7.087,8.744 6.975,8.669 C6.975,8.669 6.924,8.640 6.924,8.640 C6.889,8.613 6.833,8.584 6.756,8.554 C6.680,8.524 6.601,8.502 6.517,8.488 C6.517,8.488 3.666,8.509 3.666,8.509 C3.375,8.509 3.177,8.572 3.073,8.699 C3.073,8.699 3.031,8.760 3.031,8.760 C3.010,8.793 3.000,8.847 3.000,8.920 C3.000,8.994 3.021,9.084 3.063,9.191 C3.479,10.134 3.931,11.043 4.420,11.918 C4.910,12.794 5.335,13.499 5.695,14.035 C6.057,14.570 6.424,15.074 6.799,15.548 C7.174,16.023 7.422,16.328 7.543,16.460 C7.664,16.595 7.760,16.695 7.829,16.761 C7.829,16.761 8.090,17.002 8.090,17.002 C8.256,17.163 8.500,17.355 8.822,17.579 C9.145,17.803 9.502,18.024 9.895,18.240 C10.286,18.458 10.743,18.635 11.263,18.772 C11.783,18.909 12.289,18.964 12.783,18.938 C12.783,18.938 13.979,18.938 13.979,18.938 C14.222,18.918 14.405,18.845 14.531,18.717 C14.531,18.717 14.573,18.667 14.573,18.667 C14.599,18.627 14.626,18.566 14.650,18.481 C14.675,18.398 14.687,18.306 14.687,18.207 C14.680,17.919 14.703,17.659 14.754,17.429 C14.806,17.198 14.865,17.025 14.932,16.907 C14.998,16.790 15.072,16.692 15.155,16.612 C15.238,16.531 15.297,16.483 15.332,16.466 C15.367,16.450 15.395,16.438 15.415,16.431 C15.581,16.377 15.777,16.429 16.003,16.586 C16.229,16.744 16.441,16.937 16.638,17.168 C16.836,17.399 17.073,17.657 17.351,17.945 C17.629,18.233 17.871,18.447 18.080,18.587 C18.080,18.587 18.288,18.707 18.288,18.707 C18.427,18.787 18.606,18.861 18.828,18.928 C19.051,18.995 19.246,19.012 19.412,18.979 C19.412,18.979 22.075,18.938 22.075,18.938 C22.339,18.938 22.544,18.896 22.689,18.812 C22.835,18.730 22.923,18.637 22.949,18.536 C22.978,18.437 22.980,18.323 22.955,18.196 C22.931,18.069 22.907,17.981 22.882,17.931 C22.858,17.880 22.835,17.839 22.815,17.806 C22.467,17.203 21.805,16.465 20.827,15.589 C20.827,15.589 20.785,15.549 20.785,15.549 C20.785,15.549 20.775,15.549 20.775,15.549 C20.331,15.142 20.050,14.867 19.932,14.727 C19.717,14.459 19.669,14.189 19.786,13.914 C19.869,13.707 20.181,13.269 20.722,12.600 C20.722,12.600 20.722,12.600 20.722,12.600 Z" id="path-1" class="cls-4" fill-rule="evenodd"/>
  </g>
</svg>
