<?xml version="1.0" encoding="utf-8"?>
<!-- Generator: Adobe Illustrator 18.0.0, SVG Export Plug-In . SVG Version: 6.00 Build 0)  -->
<!DOCTYPE svg PUBLIC "-//W3C//DTD SVG 1.1//EN" "http://www.w3.org/Graphics/SVG/1.1/DTD/svg11.dtd">
<svg version="1.1" id="Layer_3" xmlns="http://www.w3.org/2000/svg" xmlns:xlink="http://www.w3.org/1999/xlink" x="0px" y="0px"
	 viewBox="0 0 910.8 331" enable-background="new 0 0 910.8 331" xml:space="preserve">
<path fill-rule="evenodd" clip-rule="evenodd" fill="#254242" d="M872.2,331H38.6C17.3,331,0,313.7,0,292.4V38.6
	C0,17.3,17.3,0,38.6,0h833.6c21.3,0,38.6,17.3,38.6,38.6v253.8C910.8,313.7,893.5,331,872.2,331z"/>
<g>
	<g>
		
			<image overflow="visible" opacity="0.12" width="522" height="106" xlink:href="1B3E33F9.png"  transform="matrix(1 0 0 1 325.2288 127.0237)">
		</image>
		<g>
			<g>
				<path fill-rule="evenodd" clip-rule="evenodd" fill="#FFFFFF" d="M402.5,185h-0.2l-13.4-54.1h-16.2l-13.6,53.4h-0.2l-12.4-53.4
					h-17.3l20.8,78.5h17.5l13.1-53.4h0.2l13.3,53.4h17.1l21.1-78.5h-16.9L402.5,185z M484.9,157.5c-1.5-2-3.6-3.6-6.3-4.7
					c-2.7-1.1-6.1-1.7-10.3-1.7c-2.9,0-5.9,0.8-9,2.3c-3.1,1.5-5.6,3.9-7.6,7.2h-0.3v-29.6h-15.6v78.5h15.6v-29.8
					c0-5.8,0.9-9.9,2.9-12.5c1.9-2.5,5-3.8,9.2-3.8c3.7,0,6.3,1.2,7.8,3.5c1.5,2.3,2.2,5.8,2.2,10.5v32.1h15.6v-34.9
					c0-3.5-0.3-6.7-0.9-9.6C487.5,161.9,486.4,159.5,484.9,157.5z M549.2,196.7v-29.6c0-3.4-0.8-6.2-2.3-8.3
					c-1.5-2.1-3.5-3.7-5.9-4.9c-2.4-1.2-5.1-2-8-2.4c-2.9-0.4-5.8-0.6-8.7-0.6c-3.1,0-6.3,0.3-9.4,0.9c-3.1,0.6-5.9,1.7-8.4,3.1
					c-2.5,1.5-4.5,3.4-6.1,5.8c-1.6,2.4-2.5,5.5-2.8,9.1h15.6c0.3-3.1,1.3-5.3,3.1-6.6c1.8-1.3,4.2-2,7.3-2c1.4,0,2.7,0.1,3.9,0.3
					c1.2,0.2,2.3,0.5,3.2,1.1c0.9,0.6,1.6,1.3,2.2,2.3c0.5,1,0.8,2.3,0.8,4c0.1,1.6-0.4,2.8-1.4,3.7c-1,0.8-2.4,1.5-4.2,1.9
					c-1.8,0.4-3.8,0.8-6,1c-2.3,0.2-4.6,0.5-6.9,0.9c-2.3,0.4-4.7,0.9-7,1.5c-2.3,0.6-4.4,1.6-6.2,2.8c-1.8,1.3-3.3,2.9-4.4,5
					c-1.1,2.1-1.7,4.7-1.7,8c0,2.9,0.5,5.5,1.5,7.6c1,2.1,2.4,3.9,4.1,5.3c1.8,1.4,3.8,2.4,6.2,3.1c2.3,0.7,4.9,1,7.6,1
					c3.5,0,7-0.5,10.3-1.5c3.4-1,6.3-2.8,8.8-5.4c0.1,0.9,0.2,1.9,0.4,2.8c0.2,0.9,0.4,1.8,0.7,2.7h15.8c-0.7-1.2-1.2-2.9-1.5-5.3
					C549.3,201.8,549.2,199.3,549.2,196.7z M533.6,187.4c0,0.9-0.1,2.1-0.3,3.5c-0.2,1.5-0.7,2.9-1.5,4.3c-0.8,1.4-2.1,2.7-3.7,3.7
					c-1.7,1-4.1,1.5-7.1,1.5c-1.2,0-2.5-0.1-3.6-0.3c-1.2-0.2-2.2-0.6-3.1-1.2c-0.9-0.6-1.6-1.3-2.1-2.3c-0.5-1-0.8-2.1-0.8-3.5
					c0-1.5,0.3-2.7,0.8-3.6c0.5-0.9,1.2-1.7,2-2.4c0.8-0.6,1.8-1.1,3-1.5c1.1-0.4,2.3-0.7,3.5-0.9c1.2-0.2,2.5-0.4,3.7-0.5
					c1.3-0.1,2.4-0.3,3.6-0.5c1.1-0.2,2.2-0.5,3.2-0.8c1-0.3,1.8-0.8,2.5-1.4V187.4z M578.3,135.5h-15.6v17h-9.4V163h9.4v33.5
					c0,2.9,0.5,5.2,1.4,6.9c1,1.8,2.3,3.1,3.9,4.1c1.7,1,3.6,1.6,5.7,1.9c2.2,0.3,4.5,0.5,6.9,0.5c1.5,0,3.1,0,4.7-0.1
					c1.6-0.1,3.1-0.2,4.4-0.4v-12.1c-0.7,0.2-1.5,0.3-2.3,0.3c-0.8,0.1-1.6,0.1-2.5,0.1c-2.6,0-4.4-0.4-5.3-1.3
					c-0.9-0.9-1.3-2.6-1.3-5.3V163h11.4v-10.4h-11.4V135.5z M642.8,184.5c-1-1.8-2.4-3.3-4.1-4.5c-1.7-1.2-3.6-2.2-5.8-2.9
					c-2.2-0.7-4.4-1.3-6.6-1.9c-2.2-0.5-4.4-1-6.5-1.4c-2.1-0.4-4-0.9-5.7-1.5c-1.6-0.6-3-1.3-4-2.1c-1-0.9-1.5-2-1.5-3.4
					c0-1.2,0.3-2.1,0.9-2.8c0.6-0.7,1.3-1.2,2.1-1.6c0.8-0.4,1.8-0.6,2.8-0.7c1-0.1,2-0.2,2.9-0.2c2.8,0,5.2,0.5,7.3,1.6
					c2,1.1,3.2,3.1,3.4,6.1h14.8c-0.3-3.5-1.2-6.4-2.7-8.7c-1.5-2.3-3.4-4.2-5.7-5.5c-2.3-1.4-4.9-2.4-7.8-3
					c-2.9-0.6-5.9-0.9-8.9-0.9c-3.1,0-6.1,0.3-9,0.8c-2.9,0.5-5.6,1.5-7.9,2.9c-2.4,1.4-4.2,3.2-5.7,5.5c-1.4,2.3-2.1,5.3-2.1,9
					c0,2.5,0.5,4.6,1.5,6.3c1,1.7,2.4,3.2,4.1,4.3c1.7,1.1,3.6,2.1,5.8,2.7c2.2,0.7,4.4,1.3,6.6,1.8c5.6,1.2,9.9,2.3,13,3.5
					c3.1,1.2,4.7,2.9,4.7,5.3c0,1.4-0.3,2.5-1,3.5c-0.7,0.9-1.5,1.6-2.5,2.2c-1,0.6-2.1,1-3.3,1.2c-1.2,0.3-2.4,0.4-3.5,0.4
					c-1.5,0-3-0.2-4.4-0.6c-1.4-0.4-2.7-0.9-3.8-1.7c-1.1-0.8-2-1.8-2.7-3c-0.7-1.2-1-2.6-1-4.3h-14.8c0.2,3.8,1,7,2.6,9.5
					c1.6,2.5,3.6,4.6,6,6.1c2.5,1.5,5.3,2.6,8.4,3.3c3.1,0.7,6.4,1,9.7,1c3.2,0,6.4-0.3,9.5-0.9c3.1-0.6,5.9-1.7,8.3-3.2
					c2.4-1.5,4.4-3.6,5.9-6.1c1.5-2.5,2.2-5.7,2.2-9.4C644.3,188.5,643.8,186.3,642.8,184.5z M673.8,130.9l-29.7,78.5h17.4l6.1-17.5
					H697l5.9,17.5h17.9l-29.3-78.5H673.8z M672.1,179l10.2-28.8h0.2l9.9,28.8H672.1z M774.8,160.3c-2.1-2.8-4.8-5-8-6.7
					c-3.2-1.7-7.1-2.5-11.5-2.5c-3.5,0-6.7,0.7-9.7,2.1c-2.9,1.4-5.3,3.6-7.3,6.7h-0.2v-7.3h-14.8v76.7h15.6v-26.9h0.2
					c1.9,2.8,4.3,4.9,7.3,6.3c3,1.4,6.2,2.1,9.7,2.1c4.2,0,7.8-0.8,10.9-2.4c3.1-1.6,5.7-3.8,7.8-6.5c2.1-2.7,3.6-5.8,4.7-9.3
					c1-3.5,1.5-7.2,1.5-11c0-4-0.5-7.9-1.5-11.6C778.5,166.3,776.9,163,774.8,160.3z M764.8,187.8c-0.4,2.2-1.2,4.1-2.3,5.8
					c-1.1,1.6-2.5,3-4.2,4c-1.7,1-3.9,1.5-6.4,1.5c-2.5,0-4.6-0.5-6.4-1.5c-1.8-1-3.2-2.4-4.2-4c-1.1-1.6-1.8-3.6-2.3-5.8
					c-0.5-2.2-0.7-4.4-0.7-6.7c0-2.3,0.2-4.6,0.7-6.8c0.4-2.2,1.2-4.1,2.3-5.8c1.1-1.7,2.5-3.1,4.2-4.1c1.7-1.1,3.9-1.6,6.4-1.6
					c2.5,0,4.6,0.5,6.3,1.6c1.7,1.1,3.1,2.5,4.2,4.2c1.1,1.7,1.9,3.7,2.4,5.9c0.5,2.2,0.7,4.4,0.7,6.7
					C765.4,183.4,765.2,185.6,764.8,187.8z M841.7,170c-1-3.7-2.6-6.9-4.7-9.7c-2.1-2.8-4.8-5-8-6.7c-3.2-1.7-7.1-2.5-11.5-2.5
					c-3.5,0-6.7,0.7-9.7,2.1c-2.9,1.4-5.3,3.6-7.3,6.7h-0.2v-7.3h-14.8v76.7H801v-26.9h0.2c1.9,2.8,4.3,4.9,7.3,6.3
					c3,1.4,6.2,2.1,9.7,2.1c4.2,0,7.8-0.8,10.9-2.4c3.1-1.6,5.7-3.8,7.8-6.5c2.1-2.7,3.6-5.8,4.7-9.3c1-3.5,1.5-7.2,1.5-11
					C843.2,177.5,842.7,173.7,841.7,170z M827,187.8c-0.4,2.2-1.2,4.1-2.3,5.8c-1.1,1.6-2.5,3-4.2,4c-1.7,1-3.9,1.5-6.4,1.5
					c-2.5,0-4.6-0.5-6.4-1.5c-1.8-1-3.2-2.4-4.2-4c-1.1-1.6-1.8-3.6-2.3-5.8c-0.5-2.2-0.7-4.4-0.7-6.7c0-2.3,0.2-4.6,0.7-6.8
					c0.4-2.2,1.2-4.1,2.3-5.8c1.1-1.7,2.5-3.1,4.2-4.1c1.7-1.1,3.9-1.6,6.4-1.6c2.5,0,4.6,0.5,6.3,1.6c1.7,1.1,3.1,2.5,4.2,4.2
					c1.1,1.7,1.9,3.7,2.4,5.9c0.5,2.2,0.7,4.4,0.7,6.7C827.6,183.4,827.4,185.6,827,187.8z"/>
			</g>
		</g>
	</g>
</g>
<g>
	
		<image overflow="visible" opacity="0.12" width="235" height="237" xlink:href="1B3E33FB.png"  transform="matrix(1 0 0 1 63.2051 47)">
	</image>
	<g>
		<g>
			<path fill-rule="evenodd" clip-rule="evenodd" fill="#FFFFFF" d="M182.9,50.7C121.1,50.7,71,100.8,71,162.5
				c0,21.1,5.9,40.9,16.1,57.8l-20.2,60l61.9-19.8c16,8.9,34.5,13.9,54.1,13.9c61.8,0,111.9-50.1,111.9-111.9
				C294.8,100.8,244.7,50.7,182.9,50.7z M182.9,256.6c-19.1,0-36.9-5.7-51.7-15.6L95,252.6l11.7-34.9
				c-11.3-15.5-17.9-34.6-17.9-55.1c0-51.9,42.2-94,94-94c51.9,0,94,42.2,94,94C277,214.4,234.8,256.6,182.9,256.6z"/>
		</g>
	</g>
</g>
<linearGradient id="SVGID_1_" gradientUnits="userSpaceOnUse" x1="182.9053" y1="69.6452" x2="182.9053" y2="256.1079">
	<stop  offset="0" style="stop-color:#69BE5A"/>
	<stop  offset="6.541701e-002" style="stop-color:#5FB356"/>
	<stop  offset="0.3605" style="stop-color:#2E9648"/>
	<stop  offset="0.5153" style="stop-color:#0A8D45"/>
	<stop  offset="0.6269" style="stop-color:#219246"/>
	<stop  offset="0.7969" style="stop-color:#42A04D"/>
	<stop  offset="1" style="stop-color:#69BE5B"/>
</linearGradient>
<path fill-rule="evenodd" clip-rule="evenodd" fill="url(#SVGID_1_)" d="M182.9,68.5c-51.9,0-94,42.2-94,94
	c0,20.6,6.7,39.6,17.9,55.1L95,252.6l36.1-11.6c14.9,9.8,32.6,15.6,51.7,15.6c51.9,0,94-42.2,94-94C277,110.7,234.8,68.5,182.9,68.5
	z"/>
<path fill-rule="evenodd" clip-rule="evenodd" fill="#FFFFFF" d="M156.7,116.3c-1.8-4.4-3.2-4.5-6-4.6c-1,0-2-0.1-3.1-0.1
	c-3.6,0-7.3,1.1-9.6,3.4c-2.7,2.8-9.6,9.4-9.6,22.9c0,13.5,9.8,26.5,11.2,28.4c1.4,1.8,19.2,29.9,46.8,41.4
	c21.6,8.9,28,8.2,32.9,7.1c7.2-1.6,16.2-6.8,18.5-13.2c2.3-6.4,2.3-11.9,1.6-13c-0.7-1.1-2.5-1.8-5.3-3.2c-2.7-1.4-16.2-8-18.7-8.9
	c-2.5-0.9-4.8-0.6-6.8,2c-2.7,3.7-5.2,7.5-7.4,9.7c-1.7,1.8-4.4,2-6.7,1c-3-1.3-11.6-4.3-22.1-13.6c-8.2-7.3-13.7-16.2-15.3-19
	c-1.6-2.7-0.1-4.4,1.1-5.9c1.4-1.7,2.7-2.9,4.1-4.5c1.4-1.6,2.1-2.5,3.1-4.3c0.9-1.8,0.3-3.7-0.4-5.1
	C164.4,135.3,158.9,121.8,156.7,116.3z"/>
</svg>
