<svg xmlns="http://www.w3.org/2000/svg" xmlns:xlink="http://www.w3.org/1999/xlink" preserveAspectRatio="xMidYMid" width="37" height="37" viewBox="0 0 37 37">
  <defs>
    <style>

      .cls-2 {
        fill: #ffffff;
        opacity: 0.5;
      }
    </style>
  </defs>
  <path d="M18.348,37.000 C8.215,37.000 -0.000,28.717 -0.000,18.500 C-0.000,8.283 8.215,-0.000 18.348,-0.000 C28.482,-0.000 36.696,8.283 36.696,18.500 C36.696,28.717 28.482,37.000 18.348,37.000 ZM18.348,1.805 C9.203,1.805 1.790,9.279 1.790,18.500 C1.790,27.720 9.203,35.195 18.348,35.195 C27.493,35.195 34.906,27.720 34.906,18.500 C34.906,9.279 27.493,1.805 18.348,1.805 ZM21.136,26.736 C20.676,27.192 19.931,27.192 19.471,26.736 C19.471,26.736 11.975,19.311 11.975,19.311 C11.515,18.856 11.515,18.117 11.975,17.661 C11.975,17.661 19.471,10.236 19.471,10.236 C19.931,9.780 20.676,9.780 21.136,10.236 C21.596,10.691 21.596,11.430 21.136,11.886 C21.136,11.886 14.474,18.486 14.474,18.486 C14.474,18.486 21.136,25.086 21.136,25.086 C21.596,25.542 21.596,26.281 21.136,26.736 Z" id="path-1" class="cls-2" fill-rule="evenodd"/>
</svg>
