<svg xmlns="http://www.w3.org/2000/svg" xmlns:xlink="http://www.w3.org/1999/xlink" preserveAspectRatio="xMidYMid" width="26" height="26" viewBox="0 0 26 26">
  <defs>
    <style>

      .cls-2 {
        fill: #e23458;
      }
    </style>
  </defs>
  <path d="M21.334,-0.008 C21.334,-0.008 4.471,-0.008 4.471,-0.008 C2.002,-0.008 -0.000,2.010 -0.000,4.498 C-0.000,4.498 -0.000,21.493 -0.000,21.493 C-0.000,23.982 2.002,25.999 4.471,25.999 C4.471,25.999 9.340,25.999 9.340,25.999 C9.340,24.676 9.340,19.658 9.340,15.389 C9.340,15.389 7.195,15.389 7.195,15.389 C7.195,15.389 7.195,11.523 7.195,11.523 C7.195,11.523 9.340,11.523 9.340,11.523 C9.340,11.523 9.340,9.020 9.340,9.020 C9.340,7.227 10.186,4.428 13.898,4.428 C13.898,4.428 17.241,4.442 17.241,4.442 C17.241,4.442 17.241,8.195 17.241,8.195 C17.241,8.195 15.208,8.195 14.813,8.195 C14.418,8.195 13.856,8.394 13.856,9.246 C13.856,9.246 13.856,11.523 13.856,11.523 C13.856,11.523 17.296,11.523 17.296,11.523 C17.296,11.523 16.901,15.389 16.901,15.389 C16.901,15.389 13.856,15.389 13.856,15.389 C13.856,19.611 13.856,24.668 13.856,25.999 C13.856,25.999 21.334,25.999 21.334,25.999 C23.803,25.999 25.804,23.982 25.804,21.493 C25.804,21.493 25.804,4.498 25.804,4.498 C25.804,2.010 23.803,-0.008 21.334,-0.008 Z" id="path-1" class="cls-2" fill-rule="evenodd"/>
</svg>
