<svg xmlns="http://www.w3.org/2000/svg" xmlns:xlink="http://www.w3.org/1999/xlink" preserveAspectRatio="xMidYMid" width="26" height="26" viewBox="0 0 26 26">
  <defs>
    <style>

      .cls-2 {
        fill: #e23458;
      }
    </style>
  </defs>
  <path d="M21.337,25.999 C21.337,25.999 4.474,25.999 4.474,25.999 C2.005,25.999 0.004,23.982 0.004,21.494 C0.004,21.494 0.004,4.499 0.004,4.499 C0.004,2.010 2.005,-0.008 4.474,-0.008 C4.474,-0.008 21.337,-0.008 21.337,-0.008 C23.806,-0.008 25.807,2.010 25.807,4.499 C25.807,4.499 25.807,21.494 25.807,21.494 C25.807,23.982 23.806,25.999 21.337,25.999 ZM14.605,4.858 C14.605,4.858 9.475,4.858 9.475,4.858 C8.913,4.858 8.343,4.957 7.783,5.153 C5.912,5.802 4.607,7.408 4.607,9.056 C4.607,11.391 6.401,13.161 8.800,13.217 C8.753,13.402 8.730,13.584 8.730,13.763 C8.730,14.123 8.821,14.464 9.006,14.793 C8.985,14.794 8.964,14.794 8.941,14.794 C6.653,14.794 4.589,15.924 3.804,17.608 C3.600,18.045 3.497,18.488 3.497,18.925 C3.497,19.349 3.604,19.759 3.817,20.143 C4.310,21.031 5.368,21.720 6.798,22.083 C7.535,22.272 8.329,22.368 9.152,22.368 C9.892,22.368 10.597,22.271 11.250,22.080 C13.283,21.486 14.598,19.977 14.598,18.236 C14.598,16.564 14.065,15.565 12.634,14.544 C12.020,14.106 11.463,13.465 11.454,13.267 C11.454,12.908 11.485,12.736 12.284,12.108 C13.318,11.293 13.887,10.221 13.887,9.089 C13.887,8.062 13.576,7.149 13.045,6.509 C13.045,6.509 13.456,6.509 13.456,6.509 C13.541,6.509 13.624,6.482 13.693,6.431 C13.693,6.431 14.841,5.595 14.841,5.595 C14.982,5.492 15.042,5.308 14.988,5.140 C14.934,4.972 14.779,4.858 14.605,4.858 ZM22.837,12.375 C22.837,12.150 22.656,11.968 22.434,11.968 C22.434,11.968 19.518,11.968 19.518,11.968 C19.518,11.968 19.518,9.029 19.518,9.029 C19.518,8.805 19.337,8.622 19.114,8.622 C19.114,8.622 18.285,8.622 18.285,8.622 C18.061,8.622 17.881,8.805 17.881,9.029 C17.881,9.029 17.881,11.968 17.881,11.968 C17.881,11.968 14.965,11.968 14.965,11.968 C14.742,11.968 14.562,12.150 14.562,12.375 C14.562,12.375 14.562,13.211 14.562,13.211 C14.562,13.436 14.742,13.618 14.965,13.618 C14.965,13.618 17.881,13.618 17.881,13.618 C17.881,13.618 17.881,16.557 17.881,16.557 C17.881,16.782 18.061,16.965 18.285,16.965 C18.285,16.965 19.114,16.965 19.114,16.965 C19.337,16.965 19.518,16.782 19.518,16.557 C19.518,16.557 19.518,13.618 19.518,13.618 C19.518,13.618 22.434,13.618 22.434,13.618 C22.656,13.618 22.837,13.436 22.837,13.211 C22.837,13.211 22.837,12.375 22.837,12.375 ZM9.691,11.880 C9.691,11.880 9.690,11.880 9.690,11.880 C9.690,11.880 9.672,11.880 9.672,11.880 C8.560,11.845 7.453,10.523 7.255,8.993 C7.143,8.138 7.321,7.369 7.743,6.884 C8.017,6.570 8.375,6.404 8.776,6.404 C8.776,6.404 8.822,6.405 8.822,6.405 C9.955,6.438 11.040,7.712 11.240,9.243 C11.351,10.101 11.162,10.907 10.734,11.399 C10.462,11.713 10.109,11.880 9.691,11.880 ZM9.480,16.088 C9.860,16.092 10.231,16.148 10.581,16.257 C10.700,16.340 10.816,16.420 10.927,16.496 C11.736,17.051 12.271,17.418 12.420,18.006 C12.455,18.155 12.472,18.303 12.472,18.446 C12.472,19.960 11.351,20.728 9.142,20.728 C7.467,20.728 6.155,19.692 6.155,18.370 C6.155,17.154 7.687,16.088 9.434,16.088 C9.434,16.088 9.480,16.088 9.480,16.088 Z" id="path-1" class="cls-2" fill-rule="evenodd"/>
</svg>
