<svg xmlns="http://www.w3.org/2000/svg" xmlns:xlink="http://www.w3.org/1999/xlink" preserveAspectRatio="xMidYMid" width="17" height="21" viewBox="0 0 17 21">
  <defs>
    <style>

      .cls-2 {
        fill: #ffffff;
      }
    </style>
  </defs>
  <path d="M13.277,21.000 C13.092,21.000 12.911,20.939 12.765,20.825 C6.530,15.952 2.480,10.073 0.020,2.327 C-0.045,2.121 -0.025,1.899 0.076,1.708 C0.177,1.518 0.351,1.375 0.559,1.310 C1.213,1.109 1.535,1.027 1.856,0.945 C2.157,0.868 2.459,0.791 3.074,0.601 C3.140,0.581 3.206,0.569 3.272,0.565 C3.272,0.565 5.004,0.032 5.004,0.032 C5.440,-0.104 5.899,0.136 6.035,0.563 C6.550,2.181 7.197,3.771 7.960,5.286 C8.126,5.617 8.044,6.017 7.761,6.259 C7.200,6.739 6.954,6.949 6.705,7.184 C7.839,9.299 8.953,11.079 10.633,13.010 C10.941,12.867 11.228,12.717 11.878,12.376 C12.207,12.203 12.617,12.271 12.871,12.543 C14.033,13.790 15.306,14.956 16.653,16.009 C17.009,16.287 17.069,16.797 16.786,17.148 C16.786,17.148 14.438,20.064 14.438,20.064 C14.409,20.101 14.375,20.135 14.340,20.166 C14.228,20.309 14.095,20.478 13.921,20.694 C13.786,20.862 13.588,20.970 13.371,20.995 C13.339,20.999 13.308,21.000 13.277,21.000 ZM1.847,2.626 C4.135,9.396 7.749,14.647 13.143,19.040 C13.175,19.000 13.211,18.964 13.248,18.932 C13.248,18.932 14.991,16.768 14.991,16.768 C13.976,15.935 13.005,15.040 12.094,14.099 C11.521,14.396 11.286,14.506 10.740,14.739 C10.416,14.877 10.035,14.795 9.798,14.534 C7.642,12.149 6.306,9.959 4.964,7.403 C4.800,7.093 4.858,6.714 5.107,6.463 C5.534,6.033 5.736,5.846 6.206,5.441 C5.643,4.266 5.145,3.052 4.719,1.819 C4.719,1.819 3.574,2.171 3.574,2.171 C3.508,2.192 3.441,2.204 3.375,2.207 C2.845,2.368 2.558,2.441 2.269,2.515 C2.137,2.549 2.005,2.582 1.847,2.626 Z" id="path-1" class="cls-2" fill-rule="evenodd"/>
</svg>
