<svg xmlns="http://www.w3.org/2000/svg" xmlns:xlink="http://www.w3.org/1999/xlink" preserveAspectRatio="xMidYMid" width="16" height="25" viewBox="0 0 16 25">
  <defs>
    <style>

      .cls-2 {
        fill: #ffffff;
      }
    </style>
  </defs>
  <path d="M12.784,15.286 C12.784,15.286 8.662,24.472 8.662,24.472 C8.517,24.795 8.210,25.000 7.874,25.000 C7.537,25.000 7.230,24.795 7.085,24.472 C7.085,24.472 2.804,14.930 2.804,14.930 C1.022,13.313 0.005,10.976 0.005,8.486 C0.005,3.807 3.595,-0.000 8.006,-0.000 C12.417,-0.000 16.007,3.807 16.007,8.486 C16.007,11.162 14.807,13.685 12.784,15.286 ZM8.006,1.851 C4.557,1.851 1.751,4.827 1.751,8.486 C1.751,10.489 2.593,12.364 4.061,13.632 C4.161,13.719 4.242,13.827 4.298,13.952 C4.298,13.952 7.874,21.920 7.874,21.920 C7.874,21.920 11.303,14.277 11.303,14.277 C11.368,14.133 11.467,14.009 11.591,13.917 C13.263,12.672 14.261,10.642 14.261,8.486 C14.261,4.827 11.455,1.851 8.006,1.851 ZM7.993,12.174 C6.020,12.174 4.414,10.471 4.414,8.378 C4.414,6.285 6.020,4.582 7.993,4.582 C9.966,4.582 11.572,6.285 11.572,8.378 C11.572,10.471 9.966,12.174 7.993,12.174 ZM7.993,6.434 C6.982,6.434 6.159,7.306 6.159,8.378 C6.159,9.450 6.982,10.323 7.993,10.323 C9.004,10.323 9.826,9.450 9.826,8.378 C9.826,7.306 9.004,6.434 7.993,6.434 Z" id="path-1" class="cls-2" fill-rule="evenodd"/>
</svg>
