<svg xmlns="http://www.w3.org/2000/svg" xmlns:xlink="http://www.w3.org/1999/xlink" preserveAspectRatio="xMidYMid" width="40" height="40" viewBox="0 0 40 40">
  <defs>
    <style>

      .cls-2 {
        fill: #43609c;
      }
    </style>
  </defs>
  <path d="M19.998,-0.000 C8.953,-0.000 -0.000,8.956 -0.000,20.001 C-0.000,31.047 8.953,40.000 19.998,40.000 C31.044,40.000 40.000,31.047 40.000,20.001 C40.000,8.956 31.044,-0.000 19.998,-0.000 C19.998,-0.000 19.998,-0.000 19.998,-0.000 ZM24.903,19.918 C24.903,19.918 21.442,19.918 21.442,19.918 C21.442,25.452 21.442,32.267 21.442,32.267 C21.442,32.267 16.385,32.267 16.385,32.267 C16.385,32.267 16.385,25.520 16.385,19.918 C16.385,19.918 13.944,19.918 13.944,19.918 C13.944,19.918 13.944,15.556 13.944,15.556 C13.944,15.556 16.385,15.556 16.385,15.556 C16.385,15.556 16.385,12.731 16.385,12.731 C16.385,10.708 17.269,7.552 21.489,7.552 C21.489,7.552 25.288,7.566 25.288,7.566 C25.288,7.566 25.288,11.801 25.288,11.801 C25.288,11.801 22.978,11.801 22.528,11.801 C22.078,11.801 21.442,12.026 21.442,12.988 C21.442,12.988 21.442,15.556 21.442,15.556 C21.442,15.556 25.354,15.556 25.354,15.556 C25.354,15.556 24.903,19.918 24.903,19.918 C24.903,19.918 24.903,19.918 24.903,19.918 Z" id="path-1" class="cls-2" fill-rule="evenodd"/>
</svg>
