<?xml version="1.0" encoding="utf-8"?>
<!-- Generator: Adobe Illustrator 18.1.1, SVG Export Plug-In . SVG Version: 6.00 Build 0)  -->
<svg version="1.0" id="Layer_1" xmlns="http://www.w3.org/2000/svg" xmlns:xlink="http://www.w3.org/1999/xlink" x="0px" y="0px"
	 width="40px" height="40px" viewBox="-277 400.9 40 40" enable-background="new -277 400.9 40 40" xml:space="preserve">
<path id="path-1" display="none" d="M-257,400.9c-11,0-20,9-20,20c0,11,9,20,20,20c11,0,20-9,20-20C-237,409.8-246,400.9-257,400.9
	L-257,400.9z M-252.1,420.8h-3.5c0,5.5,0,12.3,0,12.3h-5.1c0,0,0-6.7,0-12.3h-2.4v-4.4h2.4v-2.8c0-2,0.9-5.2,5.1-5.2l3.8,0v4.2
	c0,0-2.3,0-2.8,0s-1.1,0.2-1.1,1.2v2.6h3.9L-252.1,420.8L-252.1,420.8z"/>
<g>
	<path fill-rule="evenodd" clip-rule="evenodd" fill="#62A6FB" d="M-257.6,417.1c0-2-1.2-5.2-3.6-5.2c-0.7,0-1.5,0.4-2,0.9
		c-0.5,0.6-0.6,1.4-0.6,2.1c0,1.9,1.1,5,3.5,5c0.7,0,1.5-0.3,1.9-0.8C-257.7,418.5-257.6,417.6-257.6,417.1L-257.6,417.1z
		 M-257.6,417.1"/>
	<path fill-rule="evenodd" clip-rule="evenodd" fill="#62A6FB" d="M-237.1,420.9c0-11-8.9-19.9-19.9-19.9c-11,0-19.9,8.9-19.9,19.9
		c0,11,8.9,19.9,19.9,19.9C-246,440.8-237.1,431.9-237.1,420.9L-237.1,420.9z M-250.9,417.1h1.5v3.1h3.1v1.5h-3.1v3.1h-1.5v-3.1
		h-3.1v-1.5h3.1V417.1z M-267.7,428.5c0-1,0.5-2.5,2.2-3.5c1.8-1.1,4.1-1.2,5.4-1.3c-0.4-0.5-0.8-1.1-0.8-1.9c0-0.5,0.1-0.8,0.3-1.1
		c-0.3,0-0.6,0.1-0.9,0.1c-3,0-4.7-2.2-4.7-4.4c0-1.3,0.6-2.7,1.8-3.8c1.6-1.3,3.5-1.6,5.1-1.6h5.8l-1.8,1h-1.8c0.7,0.5,2,1.7,2,3.8
		c0,2.1-1.2,3.1-2.4,4c-0.4,0.4-0.8,0.8-0.8,1.4c0,0.6,0.4,1,0.7,1.2l1,0.8c1.2,1,2.4,2,2.4,4c0,2.7-2.6,5.3-7.4,5.3
		C-265.7,432.5-267.7,430.5-267.7,428.5L-267.7,428.5z M-267.7,428.5"/>
	<path fill-rule="evenodd" clip-rule="evenodd" fill="#62A6FB" d="M-259.2,424.5c-0.2,0-0.4,0-0.7,0c-0.3,0-1.8,0.1-3,0.5
		c-0.6,0.2-2.4,0.9-2.4,2.9c0,2,2,3.5,5,3.5c2.7,0,4.2-1.3,4.2-3.1C-256.1,426.8-257,426-259.2,424.5L-259.2,424.5z M-259.2,424.5"
		/>
</g>
</svg>
