<svg xmlns="http://www.w3.org/2000/svg" xmlns:xlink="http://www.w3.org/1999/xlink" preserveAspectRatio="xMidYMid" width="40" height="40" viewBox="0 0 40 40">
  <defs>
    <style>

      .cls-2 {
        fill: #5ea9dd;
      }
    </style>
  </defs>
  <path d="M19.998,40.000 C8.954,40.000 -0.000,31.046 -0.000,19.999 C-0.000,8.954 8.954,-0.000 19.998,-0.000 C31.045,-0.000 40.000,8.954 40.000,19.999 C40.000,31.046 31.045,40.000 19.998,40.000 C19.998,40.000 19.998,40.000 19.998,40.000 ZM33.071,10.692 C32.048,11.299 30.916,11.743 29.710,11.981 C28.744,10.947 27.367,10.302 25.844,10.302 C22.920,10.302 20.551,12.682 20.551,15.616 C20.551,16.033 20.597,16.437 20.688,16.827 C16.287,16.606 12.385,14.488 9.775,11.275 C9.319,12.059 9.059,12.971 9.059,13.946 C9.059,15.790 9.993,17.415 11.415,18.369 C10.547,18.341 9.731,18.102 9.015,17.705 C9.015,17.727 9.015,17.749 9.015,17.771 C9.015,20.346 10.842,22.494 13.263,22.981 C12.819,23.102 12.351,23.168 11.868,23.168 C11.528,23.168 11.194,23.136 10.871,23.072 C11.545,25.183 13.500,26.719 15.817,26.764 C14.005,28.188 11.721,29.039 9.241,29.039 C8.814,29.039 8.392,29.012 7.978,28.962 C10.322,30.473 13.104,31.350 16.094,31.350 C25.832,31.350 31.158,23.253 31.158,16.231 C31.158,16.001 31.154,15.773 31.141,15.545 C32.178,14.795 33.075,13.859 33.784,12.795 C32.835,13.216 31.815,13.503 30.744,13.631 C31.837,12.974 32.676,11.932 33.071,10.692 C33.071,10.692 33.071,10.692 33.071,10.692 Z" id="path-1" class="cls-2" fill-rule="evenodd"/>
</svg>
