<svg xmlns="http://www.w3.org/2000/svg" xmlns:xlink="http://www.w3.org/1999/xlink" preserveAspectRatio="xMidYMid" width="73" height="62" viewBox="0 0 73 62">
  <defs>
    <style>

      .cls-2 {
        fill: #eec85e;
      }
    </style>
  </defs>
  <path d="M69.329,61.923 C69.329,61.923 44.297,61.923 44.297,61.923 C42.423,61.923 40.898,60.398 40.898,58.524 C40.898,58.524 40.898,22.134 40.898,22.134 C40.898,20.260 42.423,18.735 44.297,18.735 C44.297,18.735 69.329,18.735 69.329,18.735 C71.203,18.735 72.728,20.260 72.728,22.134 C72.728,22.134 72.728,58.524 72.728,58.524 C72.728,60.398 71.203,61.923 69.329,61.923 ZM70.241,22.134 C70.241,21.631 69.832,21.222 69.329,21.222 C69.329,21.222 44.297,21.222 44.297,21.222 C43.794,21.222 43.385,21.631 43.385,22.134 C43.385,22.134 43.385,58.524 43.385,58.524 C43.385,59.027 43.794,59.436 44.297,59.436 C44.297,59.436 69.329,59.436 69.329,59.436 C69.832,59.436 70.241,59.027 70.241,58.524 C70.241,58.524 70.241,22.134 70.241,22.134 ZM66.511,56.079 C66.511,56.079 65.517,56.079 65.517,56.079 C64.830,56.079 64.273,55.522 64.273,54.835 C64.273,54.149 64.830,53.592 65.517,53.592 C65.517,53.592 66.511,53.592 66.511,53.592 C67.198,53.592 67.755,54.149 67.755,54.835 C67.755,55.522 67.198,56.079 66.511,56.079 ZM66.511,50.317 C66.511,50.317 65.517,50.317 65.517,50.317 C64.830,50.317 64.273,49.761 64.273,49.074 C64.273,48.387 64.830,47.830 65.517,47.830 C65.517,47.830 66.511,47.830 66.511,47.830 C67.198,47.830 67.755,48.387 67.755,49.074 C67.755,49.761 67.198,50.317 66.511,50.317 ZM66.511,44.557 C66.511,44.557 65.517,44.557 65.517,44.557 C64.830,44.557 64.273,44.000 64.273,43.313 C64.273,42.626 64.830,42.070 65.517,42.070 C65.517,42.070 66.511,42.070 66.511,42.070 C67.198,42.070 67.755,42.626 67.755,43.313 C67.755,44.000 67.198,44.557 66.511,44.557 ZM66.511,38.796 C66.511,38.796 59.382,38.796 59.382,38.796 C58.696,38.796 58.139,38.239 58.139,37.552 C58.139,36.865 58.696,36.309 59.382,36.309 C59.382,36.309 66.511,36.309 66.511,36.309 C67.198,36.309 67.755,36.865 67.755,37.552 C67.755,38.239 67.198,38.796 66.511,38.796 ZM66.511,33.159 C66.511,33.159 47.281,33.159 47.281,33.159 C46.594,33.159 46.037,32.602 46.037,31.915 C46.037,31.915 46.037,24.870 46.037,24.870 C46.037,24.183 46.594,23.626 47.281,23.626 C47.281,23.626 66.511,23.626 66.511,23.626 C67.198,23.626 67.755,24.183 67.755,24.870 C67.755,24.870 67.755,31.915 67.755,31.915 C67.755,32.602 67.198,33.159 66.511,33.159 ZM65.268,26.113 C65.268,26.113 48.524,26.113 48.524,26.113 C48.524,26.113 48.524,30.672 48.524,30.672 C48.524,30.672 65.268,30.672 65.268,30.672 C65.268,30.672 65.268,26.113 65.268,26.113 ZM47.281,36.309 C47.281,36.309 54.410,36.309 54.410,36.309 C55.096,36.309 55.653,36.865 55.653,37.552 C55.653,38.239 55.096,38.796 54.410,38.796 C54.410,38.796 47.281,38.796 47.281,38.796 C46.594,38.796 46.037,38.239 46.037,37.552 C46.037,36.865 46.594,36.309 47.281,36.309 ZM47.281,42.070 C47.281,42.070 48.275,42.070 48.275,42.070 C48.962,42.070 49.519,42.626 49.519,43.313 C49.519,44.000 48.962,44.557 48.275,44.557 C48.275,44.557 47.281,44.557 47.281,44.557 C46.594,44.557 46.037,44.000 46.037,43.313 C46.037,42.626 46.594,42.070 47.281,42.070 ZM47.281,47.830 C47.281,47.830 48.275,47.830 48.275,47.830 C48.962,47.830 49.519,48.387 49.519,49.074 C49.519,49.761 48.962,50.317 48.275,50.317 C48.275,50.317 47.281,50.317 47.281,50.317 C46.594,50.317 46.037,49.761 46.037,49.074 C46.037,48.387 46.594,47.830 47.281,47.830 ZM47.281,53.592 C47.281,53.592 48.275,53.592 48.275,53.592 C48.962,53.592 49.519,54.149 49.519,54.835 C49.519,55.522 48.962,56.079 48.275,56.079 C48.275,56.079 47.281,56.079 47.281,56.079 C46.594,56.079 46.037,55.522 46.037,54.835 C46.037,54.149 46.594,53.592 47.281,53.592 ZM53.415,42.070 C53.415,42.070 54.410,42.070 54.410,42.070 C55.096,42.070 55.653,42.626 55.653,43.313 C55.653,44.000 55.096,44.557 54.410,44.557 C54.410,44.557 53.415,44.557 53.415,44.557 C52.728,44.557 52.171,44.000 52.171,43.313 C52.171,42.626 52.728,42.070 53.415,42.070 ZM53.415,47.830 C53.415,47.830 54.410,47.830 54.410,47.830 C55.096,47.830 55.653,48.387 55.653,49.074 C55.653,49.761 55.096,50.317 54.410,50.317 C54.410,50.317 53.415,50.317 53.415,50.317 C52.728,50.317 52.171,49.761 52.171,49.074 C52.171,48.387 52.728,47.830 53.415,47.830 ZM53.415,53.592 C53.415,53.592 54.410,53.592 54.410,53.592 C55.096,53.592 55.653,54.149 55.653,54.835 C55.653,55.522 55.096,56.079 54.410,56.079 C54.410,56.079 53.415,56.079 53.415,56.079 C52.728,56.079 52.171,55.522 52.171,54.835 C52.171,54.149 52.728,53.592 53.415,53.592 ZM59.398,42.070 C59.398,42.070 60.393,42.070 60.393,42.070 C61.079,42.070 61.636,42.626 61.636,43.313 C61.636,44.000 61.079,44.557 60.393,44.557 C60.393,44.557 59.398,44.557 59.398,44.557 C58.711,44.557 58.155,44.000 58.155,43.313 C58.155,42.626 58.711,42.070 59.398,42.070 ZM59.398,47.830 C59.398,47.830 60.393,47.830 60.393,47.830 C61.079,47.830 61.636,48.387 61.636,49.074 C61.636,49.761 61.079,50.317 60.393,50.317 C60.393,50.317 59.398,50.317 59.398,50.317 C58.711,50.317 58.155,49.761 58.155,49.074 C58.155,48.387 58.711,47.830 59.398,47.830 ZM59.398,53.592 C59.398,53.592 60.393,53.592 60.393,53.592 C61.079,53.592 61.636,54.149 61.636,54.835 C61.636,55.522 61.079,56.079 60.393,56.079 C60.393,56.079 59.398,56.079 59.398,56.079 C58.711,56.079 58.155,55.522 58.155,54.835 C58.155,54.149 58.711,53.592 59.398,53.592 ZM48.373,14.550 C48.373,14.550 42.680,14.550 42.680,14.550 C40.966,14.550 39.572,13.155 39.572,11.441 C39.572,11.441 39.572,2.489 39.572,2.489 C39.572,2.489 15.078,2.489 15.078,2.489 C14.735,2.489 14.456,2.768 14.456,3.110 C14.456,3.110 14.456,7.711 14.456,7.711 C14.456,8.398 13.900,8.955 13.213,8.955 C12.526,8.955 11.970,8.398 11.970,7.711 C11.970,7.711 11.970,3.110 11.970,3.110 C11.970,1.396 13.364,0.002 15.078,0.002 C15.078,0.002 40.043,0.002 40.043,0.002 C40.203,0.002 40.362,0.014 40.518,0.038 C41.031,-0.088 41.612,0.160 41.879,0.601 C42.006,0.695 42.127,0.799 42.241,0.912 C42.241,0.912 50.571,9.243 50.571,9.243 C51.463,10.135 51.728,11.465 51.245,12.630 C50.762,13.796 49.635,14.550 48.373,14.550 ZM48.813,11.001 C48.813,11.001 42.059,4.246 42.059,4.246 C42.059,4.246 42.059,11.441 42.059,11.441 C42.059,11.784 42.337,12.063 42.680,12.063 C42.680,12.063 48.373,12.063 48.373,12.063 C48.748,12.063 48.900,11.794 48.948,11.679 C48.996,11.563 49.078,11.266 48.813,11.001 ZM34.498,36.563 C34.500,36.565 34.501,36.568 34.503,36.570 C34.603,36.671 34.679,36.793 34.740,36.925 C34.756,36.958 34.767,36.992 34.780,37.027 C34.795,37.068 34.817,37.106 34.827,37.149 C34.827,37.149 37.257,47.207 37.257,47.207 C37.359,47.628 37.234,48.072 36.928,48.378 C36.692,48.615 36.375,48.743 36.049,48.743 C35.952,48.743 35.854,48.732 35.757,48.708 C35.757,48.708 25.700,46.277 25.700,46.277 C25.660,46.268 25.625,46.247 25.587,46.234 C25.550,46.221 25.515,46.208 25.480,46.192 C25.347,46.131 25.223,46.055 25.121,45.953 C25.118,45.951 25.115,45.951 25.113,45.948 C25.113,45.948 4.889,25.724 4.889,25.724 C4.889,25.724 0.816,21.651 0.816,21.651 C-0.283,20.551 -0.283,18.764 0.816,17.665 C0.816,17.665 6.216,12.266 6.216,12.266 C7.280,11.200 9.137,11.201 10.202,12.266 C10.202,12.266 14.274,16.338 14.274,16.338 C14.274,16.338 34.498,36.563 34.498,36.563 ZM34.362,45.813 C34.362,45.813 32.931,39.888 32.931,39.888 C32.931,39.888 30.684,42.134 30.684,42.134 C30.684,42.134 28.438,44.381 28.438,44.381 C28.438,44.381 34.362,45.813 34.362,45.813 ZM25.992,43.310 C25.992,43.310 28.047,41.255 28.047,41.255 C28.047,41.255 9.582,22.789 9.582,22.789 C9.582,22.789 7.526,24.845 7.526,24.845 C7.526,24.845 25.992,43.310 25.992,43.310 ZM8.443,14.024 C8.362,13.943 8.271,13.926 8.209,13.926 C8.146,13.926 8.055,13.943 7.974,14.024 C7.974,14.024 2.574,19.424 2.574,19.424 C2.445,19.553 2.445,19.763 2.575,19.893 C2.575,19.893 5.768,23.087 5.768,23.087 C5.768,23.087 8.702,20.152 8.702,20.152 C8.702,20.152 8.702,20.152 8.702,20.152 C8.702,20.152 8.703,20.152 8.703,20.152 C8.703,20.152 11.637,17.217 11.637,17.217 C11.637,17.217 8.443,14.024 8.443,14.024 ZM11.340,21.031 C11.340,21.031 29.805,39.497 29.805,39.497 C29.805,39.497 31.776,37.527 31.776,37.527 C31.776,37.527 31.861,37.442 31.861,37.442 C31.861,37.442 13.395,18.976 13.395,18.976 C13.395,18.976 11.340,21.031 11.340,21.031 ZM13.213,39.044 C13.900,39.044 14.456,39.601 14.456,40.288 C14.456,40.288 14.456,58.192 14.456,58.192 C14.456,58.878 15.014,59.436 15.700,59.436 C15.700,59.436 38.329,59.436 38.329,59.436 C39.015,59.436 39.572,59.993 39.572,60.679 C39.572,61.366 39.015,61.923 38.329,61.923 C38.329,61.923 15.700,61.923 15.700,61.923 C13.643,61.923 11.970,60.249 11.970,58.192 C11.970,58.192 11.970,40.288 11.970,40.288 C11.970,39.601 12.526,39.044 13.213,39.044 Z" id="path-1" class="cls-2" fill-rule="evenodd"/>
</svg>
