<svg xmlns="http://www.w3.org/2000/svg" xmlns:xlink="http://www.w3.org/1999/xlink" preserveAspectRatio="xMidYMid" width="62" height="59" viewBox="0 0 62 59">
  <defs>
    <style>

      .cls-2 {
        fill: #eec85e;
      }
    </style>
  </defs>
  <path d="M58.179,36.344 C58.179,36.344 52.772,36.344 52.772,36.344 C52.079,36.344 51.517,35.789 51.517,35.103 C51.517,34.418 52.079,33.863 52.772,33.863 C52.772,33.863 58.179,33.863 58.179,33.863 C58.893,33.863 59.474,33.288 59.474,32.583 C59.474,32.583 59.474,3.753 59.474,3.753 C59.474,3.048 58.893,2.473 58.179,2.473 C58.179,2.473 16.596,2.473 16.596,2.473 C15.883,2.473 15.301,3.048 15.301,3.753 C15.301,3.753 15.301,12.049 15.301,12.049 C15.301,12.735 14.740,13.290 14.047,13.290 C13.353,13.290 12.792,12.735 12.792,12.049 C12.792,12.049 12.792,3.753 12.792,3.753 C12.792,1.679 14.499,-0.008 16.596,-0.008 C16.596,-0.008 58.179,-0.008 58.179,-0.008 C60.277,-0.008 61.984,1.679 61.984,3.753 C61.984,3.753 61.984,32.583 61.984,32.583 C61.984,34.657 60.277,36.344 58.179,36.344 ZM48.933,21.247 C48.933,21.247 48.933,50.201 48.933,50.201 C48.933,52.275 47.226,53.962 45.128,53.962 C45.128,53.962 36.800,53.962 36.800,53.962 C36.087,53.962 35.505,54.536 35.505,55.242 C35.505,57.318 33.798,59.007 31.700,59.007 C31.116,59.007 30.551,58.875 30.017,58.615 C30.017,58.615 20.752,54.094 20.752,54.094 C20.575,54.008 20.376,53.962 20.179,53.962 C20.179,53.962 3.796,53.962 3.796,53.962 C1.699,53.962 -0.008,52.275 -0.008,50.201 C-0.008,50.201 -0.008,21.247 -0.008,21.247 C-0.008,19.173 1.699,17.486 3.796,17.486 C3.796,17.486 45.128,17.486 45.128,17.486 C47.226,17.486 48.933,19.173 48.933,21.247 ZM2.501,21.247 C2.501,21.247 2.501,50.201 2.501,50.201 C2.501,50.906 3.083,51.481 3.796,51.481 C3.796,51.481 20.179,51.481 20.179,51.481 C20.759,51.481 21.342,51.615 21.862,51.869 C21.862,51.869 31.128,56.390 31.128,56.390 C31.900,56.768 32.996,56.283 32.996,55.242 C32.996,53.168 34.702,51.481 36.800,51.481 C36.800,51.481 45.128,51.481 45.128,51.481 C45.842,51.481 46.423,50.906 46.423,50.201 C46.423,50.201 46.423,21.247 46.423,21.247 C46.423,20.541 45.842,19.967 45.128,19.967 C45.128,19.967 3.796,19.967 3.796,19.967 C3.083,19.967 2.501,20.541 2.501,21.247 ZM36.258,40.252 C36.258,40.252 20.447,40.252 20.447,40.252 C19.753,40.252 19.192,39.697 19.192,39.012 C19.192,38.326 19.753,37.771 20.447,37.771 C20.447,37.771 36.258,37.771 36.258,37.771 C36.951,37.771 37.513,38.326 37.513,39.012 C37.513,39.697 36.951,40.252 36.258,40.252 ZM36.258,31.878 C36.258,31.878 9.403,31.878 9.403,31.878 C8.710,31.878 8.148,31.322 8.148,30.637 C8.148,29.952 8.710,29.396 9.403,29.396 C9.403,29.396 36.258,29.396 36.258,29.396 C36.951,29.396 37.513,29.952 37.513,30.637 C37.513,31.322 36.951,31.878 36.258,31.878 Z" id="path-1" class="cls-2" fill-rule="evenodd"/>
</svg>
