<svg xmlns="http://www.w3.org/2000/svg" xmlns:xlink="http://www.w3.org/1999/xlink" preserveAspectRatio="xMidYMid" width="66" height="57" viewBox="0 0 66 57">
  <defs>
    <style>

      .cls-2 {
        fill: #eec85e;
      }
    </style>
  </defs>
  <path d="M65.530,30.651 C64.942,32.482 63.488,34.908 59.886,36.088 C59.004,36.378 58.073,36.525 57.121,36.525 C51.043,36.525 44.257,30.406 39.320,24.807 C37.630,26.483 35.352,27.450 32.968,27.450 C30.583,27.450 28.306,26.484 26.623,24.809 C21.688,30.408 14.903,36.525 8.814,36.525 C7.858,36.525 6.929,36.377 6.053,36.085 C2.449,34.909 0.993,32.482 0.408,30.653 C-0.965,26.334 1.317,21.284 3.092,18.263 C1.314,15.243 -0.968,10.190 0.407,5.865 C0.996,4.038 2.454,1.617 6.057,0.429 C6.948,0.144 7.872,0.001 8.814,0.001 C15.173,0.001 22.349,6.874 26.617,11.718 C28.308,10.042 30.587,9.076 32.968,9.076 C35.357,9.076 37.636,10.041 39.321,11.716 C44.251,6.117 51.031,0.001 57.121,0.001 C58.094,0.001 59.025,0.145 59.888,0.429 C63.483,1.618 64.939,4.038 65.528,5.859 C66.900,10.178 64.623,15.237 62.851,18.262 C64.902,21.749 66.846,26.510 65.530,30.651 ZM63.021,6.681 C62.442,4.891 61.112,3.638 59.071,2.963 C58.473,2.766 57.816,2.666 57.121,2.666 C52.878,2.666 46.751,7.024 40.310,14.621 C40.046,14.933 39.659,15.103 39.247,15.085 C38.840,15.065 38.467,14.857 38.232,14.521 C37.021,12.781 35.053,11.742 32.968,11.742 C30.892,11.742 28.921,12.782 27.699,14.525 C27.463,14.860 27.088,15.067 26.683,15.085 C26.273,15.107 25.887,14.931 25.622,14.619 C22.585,11.025 14.867,2.666 8.814,2.666 C8.143,2.666 7.486,2.767 6.863,2.967 C4.826,3.638 3.494,4.891 2.914,6.686 C1.712,10.471 4.498,15.545 5.752,17.551 C6.024,17.986 6.024,18.540 5.752,18.975 C4.196,21.466 1.758,26.190 2.916,29.835 C3.491,31.631 4.821,32.883 6.870,33.551 C7.487,33.757 8.138,33.860 8.814,33.860 C13.055,33.860 19.186,29.502 25.635,21.903 C25.899,21.592 26.296,21.418 26.697,21.441 C27.104,21.460 27.477,21.669 27.712,22.004 C28.924,23.745 30.889,24.784 32.968,24.784 C35.046,24.784 37.014,23.744 38.234,22.002 C38.469,21.667 38.842,21.460 39.248,21.441 C39.268,21.440 39.289,21.439 39.310,21.439 C39.693,21.439 40.058,21.608 40.309,21.903 C46.762,29.502 52.890,33.860 57.121,33.860 C57.796,33.860 58.452,33.756 59.073,33.552 C61.117,32.883 62.445,31.631 63.022,29.832 C64.176,26.202 61.743,21.470 60.191,18.972 C59.921,18.538 59.922,17.987 60.192,17.553 C61.745,15.056 64.179,10.323 63.021,6.681 ZM32.968,22.217 C30.807,22.217 29.049,20.443 29.049,18.263 C29.049,16.077 30.807,14.299 32.968,14.299 C35.123,14.299 36.877,16.077 36.877,18.263 C36.885,19.306 36.483,20.298 35.747,21.047 C35.006,21.801 34.019,22.217 32.968,22.217 ZM32.968,16.964 C32.260,16.964 31.684,17.547 31.684,18.263 C31.684,18.974 32.260,19.551 32.968,19.551 C33.312,19.551 33.635,19.416 33.878,19.168 C34.115,18.927 34.244,18.608 34.242,18.272 C34.242,17.547 33.671,16.964 32.968,16.964 ZM8.569,46.644 C8.682,46.595 8.791,46.554 8.899,46.514 C8.899,46.514 9.044,46.458 9.044,46.458 C9.044,46.458 9.045,46.458 9.045,46.458 C9.047,46.457 9.049,46.456 9.051,46.456 C11.453,45.494 23.449,40.329 27.067,31.739 C27.132,31.396 27.301,31.099 27.462,30.881 C27.711,30.543 28.103,30.344 28.519,30.344 C28.519,30.344 37.417,30.344 37.417,30.344 C37.833,30.344 38.225,30.543 38.474,30.881 C38.633,31.098 38.802,31.394 38.869,31.736 C42.432,40.204 54.144,45.346 56.778,46.412 C56.810,46.421 56.837,46.443 56.868,46.454 C56.876,46.457 56.884,46.455 56.892,46.458 C56.892,46.458 57.037,46.514 57.037,46.514 C57.145,46.554 57.253,46.595 57.366,46.644 C58.022,46.928 58.335,47.688 58.073,48.359 C57.868,48.881 57.373,49.201 56.847,49.201 C56.697,49.201 56.545,49.175 56.397,49.121 C56.397,49.121 56.225,49.058 55.926,48.938 C55.926,48.938 55.926,48.938 55.925,48.938 C54.554,48.391 53.247,48.114 52.041,48.114 C49.996,48.114 48.821,48.902 48.497,49.154 C48.400,49.475 48.112,50.974 49.286,55.301 C49.423,55.805 49.256,56.343 48.860,56.677 C48.464,57.013 47.910,57.082 47.444,56.854 C47.088,56.682 39.143,52.739 32.968,43.906 C26.793,52.739 18.848,56.682 18.493,56.854 C18.311,56.943 18.115,56.987 17.921,56.987 C17.618,56.987 17.319,56.881 17.077,56.678 C16.680,56.343 16.514,55.805 16.651,55.301 C17.827,50.965 17.535,49.469 17.438,49.152 C17.134,48.916 15.958,48.114 13.895,48.114 C12.689,48.114 11.381,48.391 10.010,48.938 C10.010,48.938 10.010,48.938 10.010,48.938 C9.710,49.058 9.539,49.121 9.539,49.121 C9.391,49.175 9.238,49.201 9.089,49.201 C8.563,49.201 8.068,48.881 7.863,48.359 C7.601,47.688 7.914,46.928 8.569,46.644 ZM19.278,47.235 C19.982,47.820 20.534,49.311 19.893,52.940 C22.894,50.959 27.966,46.996 31.855,40.800 C32.097,40.415 32.517,40.182 32.968,40.182 C33.419,40.182 33.839,40.415 34.081,40.800 C37.982,47.015 43.047,50.971 46.045,52.944 C45.401,49.313 45.954,47.821 46.658,47.235 C46.918,47.000 47.862,46.230 49.493,45.781 C44.834,43.088 39.081,38.791 36.544,33.009 C36.544,33.009 29.393,33.009 29.393,33.009 C26.856,38.793 21.103,43.089 16.444,45.782 C18.073,46.230 19.018,47.000 19.278,47.235 Z" id="path-1" class="cls-2" fill-rule="evenodd"/>
</svg>
