<svg xmlns="http://www.w3.org/2000/svg" xmlns:xlink="http://www.w3.org/1999/xlink" preserveAspectRatio="xMidYMid" width="43" height="64" viewBox="0 0 43 64">
  <defs>
    <style>

      .cls-2 {
        fill: #eec85e;
      }
    </style>
  </defs>
  <path d="M38.719,64.019 C38.719,64.019 4.288,64.019 4.288,64.019 C1.929,64.019 0.009,62.123 0.009,59.792 C0.009,59.792 0.009,13.360 0.009,13.360 C0.009,11.030 1.929,9.134 4.288,9.134 C4.288,9.134 8.619,9.134 8.619,9.134 C8.619,9.134 8.619,5.532 8.619,5.532 C8.619,4.846 9.182,4.290 9.876,4.290 C9.876,4.290 15.907,4.290 15.907,4.290 C16.481,1.842 18.695,0.006 21.346,0.006 C21.346,0.006 21.660,0.006 21.660,0.006 C24.311,0.006 26.526,1.842 27.099,4.290 C27.099,4.290 33.131,4.290 33.131,4.290 C33.825,4.290 34.388,4.846 34.388,5.532 C34.388,5.532 34.388,9.134 34.388,9.134 C34.388,9.134 38.719,9.134 38.719,9.134 C41.078,9.134 42.998,11.030 42.998,13.360 C42.998,13.360 42.998,59.792 42.998,59.792 C42.998,62.123 41.078,64.019 38.719,64.019 ZM21.660,2.490 C21.660,2.490 21.346,2.490 21.346,2.490 C20.095,2.490 19.017,3.230 18.535,4.290 C18.535,4.290 24.472,4.290 24.472,4.290 C23.990,3.230 22.911,2.490 21.660,2.490 ZM31.873,6.774 C31.873,6.774 25.997,6.774 25.997,6.774 C25.997,6.774 17.010,6.774 17.010,6.774 C17.010,6.774 11.133,6.774 11.133,6.774 C11.133,6.774 11.133,9.134 11.133,9.134 C11.133,9.134 31.873,9.134 31.873,9.134 C31.873,9.134 31.873,6.774 31.873,6.774 ZM31.873,11.617 C31.873,11.617 11.133,11.617 11.133,11.617 C11.133,11.617 11.133,14.846 11.133,14.846 C11.133,14.846 31.873,14.846 31.873,14.846 C31.873,14.846 31.873,11.617 31.873,11.617 ZM40.484,13.360 C40.484,12.399 39.692,11.617 38.719,11.617 C38.719,11.617 34.388,11.617 34.388,11.617 C34.388,11.617 34.388,16.087 34.388,16.087 C34.388,16.773 33.825,17.329 33.131,17.329 C33.131,17.329 9.876,17.329 9.876,17.329 C9.182,17.329 8.619,16.773 8.619,16.087 C8.619,16.087 8.619,11.617 8.619,11.617 C8.619,11.617 4.288,11.617 4.288,11.617 C3.314,11.617 2.523,12.399 2.523,13.360 C2.523,13.360 2.523,59.792 2.523,59.792 C2.523,60.753 3.314,61.536 4.288,61.536 C4.288,61.536 38.719,61.536 38.719,61.536 C39.692,61.536 40.484,60.753 40.484,59.792 C40.484,59.792 40.484,13.360 40.484,13.360 ZM21.503,53.279 C16.265,53.279 10.148,51.963 10.148,48.255 C10.148,42.534 15.242,37.880 21.503,37.880 C27.765,37.880 32.858,42.534 32.858,48.255 C32.858,51.963 26.741,53.279 21.503,53.279 ZM21.503,40.364 C16.629,40.364 12.662,43.904 12.662,48.255 C12.662,49.456 16.293,50.796 21.503,50.796 C26.714,50.796 30.344,49.456 30.344,48.255 C30.344,43.904 26.378,40.364 21.503,40.364 ZM21.503,37.073 C18.142,37.073 15.407,34.371 15.407,31.050 C15.407,27.730 18.142,25.028 21.503,25.028 C24.865,25.028 27.600,27.730 27.600,31.050 C27.600,34.371 24.865,37.073 21.503,37.073 ZM21.503,27.512 C19.527,27.512 17.921,29.099 17.921,31.050 C17.921,33.002 19.527,34.590 21.503,34.590 C23.479,34.590 25.086,33.002 25.086,31.050 C25.086,29.099 23.479,27.512 21.503,27.512 Z" id="path-1" class="cls-2" fill-rule="evenodd"/>
</svg>
