<svg xmlns="http://www.w3.org/2000/svg" xmlns:xlink="http://www.w3.org/1999/xlink" preserveAspectRatio="xMidYMid" width="56" height="56" viewBox="0 0 56 56">
  <defs>
    <style>

      .cls-2 {
        fill: #eec85e;
      }
    </style>
  </defs>
  <path d="M6.937,29.629 C6.240,29.629 5.676,29.074 5.676,28.389 C5.676,27.704 6.240,27.149 6.937,27.149 C6.937,27.149 10.089,27.149 10.089,27.149 C10.785,27.149 11.350,27.704 11.350,28.389 C11.350,29.074 10.785,29.629 10.089,29.629 C10.089,29.629 6.937,29.629 6.937,29.629 ZM27.993,44.755 C28.690,44.755 29.254,45.310 29.254,45.995 C29.254,45.995 29.254,49.095 29.254,49.095 C29.254,49.780 28.690,50.335 27.993,50.335 C27.297,50.335 26.732,49.780 26.732,49.095 C26.732,49.095 26.732,45.995 26.732,45.995 C26.732,45.310 27.297,44.755 27.993,44.755 ZM26.732,10.783 C26.732,10.783 26.732,7.683 26.732,7.683 C26.732,6.998 27.297,6.443 27.993,6.443 C28.690,6.443 29.254,6.998 29.254,7.683 C29.254,7.683 29.254,10.783 29.254,10.783 C29.254,11.467 28.690,12.022 27.993,12.022 C27.297,12.022 26.732,11.467 26.732,10.783 ZM33.371,19.177 C33.607,19.504 33.668,19.923 33.534,20.302 C33.534,20.302 28.175,35.491 28.175,35.491 C27.995,36.003 27.507,36.325 26.984,36.325 C26.848,36.325 26.708,36.302 26.571,36.256 C25.914,36.031 25.565,35.325 25.793,34.678 C25.793,34.678 30.571,21.136 30.571,21.136 C30.571,21.136 23.643,21.136 23.643,21.136 C22.947,21.136 22.382,20.580 22.382,19.896 C22.382,19.211 22.947,18.656 23.643,18.656 C23.643,18.656 32.343,18.656 32.343,18.656 C32.751,18.656 33.134,18.850 33.371,19.177 ZM27.993,55.914 C12.558,55.914 0.002,43.566 0.002,28.389 C0.002,13.211 12.558,0.863 27.993,0.863 C32.878,0.863 37.647,2.128 41.865,4.501 C41.865,4.501 46.078,0.359 46.078,0.359 C46.438,0.004 46.979,-0.102 47.452,0.090 C47.923,0.282 48.230,0.734 48.230,1.235 C48.230,1.235 48.230,10.861 48.230,10.861 C48.230,11.546 47.666,12.101 46.969,12.101 C46.969,12.101 37.181,12.101 37.181,12.101 C36.670,12.101 36.211,11.799 36.015,11.336 C35.820,10.872 35.929,10.339 36.289,9.984 C36.289,9.984 40.019,6.317 40.019,6.317 C36.331,4.370 32.208,3.343 27.993,3.343 C13.949,3.343 2.524,14.579 2.524,28.389 C2.524,42.199 13.949,53.435 27.993,53.435 C42.037,53.435 53.463,42.199 53.463,28.389 C53.463,27.704 54.027,27.149 54.724,27.149 C55.420,27.149 55.984,27.704 55.984,28.389 C55.984,43.566 43.428,55.914 27.993,55.914 ZM45.708,9.621 C45.708,9.621 45.708,4.229 45.708,4.229 C45.708,4.229 40.225,9.621 40.225,9.621 C40.225,9.621 45.708,9.621 45.708,9.621 ZM49.050,29.629 C49.050,29.629 45.897,29.629 45.897,29.629 C45.201,29.629 44.637,29.074 44.637,28.389 C44.637,27.704 45.201,27.149 45.897,27.149 C45.897,27.149 49.050,27.149 49.050,27.149 C49.746,27.149 50.310,27.704 50.310,28.389 C50.310,29.074 49.746,29.629 49.050,29.629 Z" id="path-1" class="cls-2" fill-rule="evenodd"/>
</svg>
