<svg xmlns="http://www.w3.org/2000/svg" xmlns:xlink="http://www.w3.org/1999/xlink" preserveAspectRatio="xMidYMid" width="56" height="56" viewBox="0 0 56 56">
  <defs>
    <style>

      .cls-2 {
        fill: #eec85e;
      }
    </style>
  </defs>
  <path d="M6.929,29.627 C6.233,29.627 5.668,29.071 5.668,28.386 C5.668,27.702 6.233,27.146 6.929,27.146 C6.929,27.146 10.081,27.146 10.081,27.146 C10.778,27.146 11.342,27.702 11.342,28.386 C11.342,29.071 10.778,29.627 10.081,29.627 C10.081,29.627 6.929,29.627 6.929,29.627 ZM26.567,35.082 C26.567,35.767 26.003,36.322 25.306,36.322 C25.306,36.322 17.962,36.322 17.962,36.322 C16.741,36.322 15.955,35.929 15.623,35.156 C15.030,33.772 16.409,32.381 17.870,30.908 C18.114,30.662 18.347,30.427 18.545,30.214 C22.084,26.419 23.453,24.214 23.511,23.659 C23.510,22.584 23.177,21.133 20.294,21.133 C17.728,21.133 17.416,23.524 17.388,23.797 C17.320,24.478 16.692,24.972 16.010,24.909 C15.317,24.842 14.811,24.235 14.879,23.554 C15.048,21.859 16.398,18.654 20.294,18.654 C23.887,18.654 26.031,20.531 26.031,23.675 C26.031,24.214 26.031,25.853 20.405,31.890 C20.190,32.120 19.939,32.374 19.676,32.639 C19.363,32.954 18.897,33.424 18.532,33.842 C18.532,33.842 25.306,33.842 25.306,33.842 C26.003,33.842 26.567,34.397 26.567,35.082 ZM27.986,44.753 C28.682,44.753 29.246,45.308 29.246,45.993 C29.246,45.993 29.246,49.092 29.246,49.092 C29.246,49.777 28.682,50.333 27.986,50.333 C27.289,50.333 26.725,49.777 26.725,49.092 C26.725,49.092 26.725,45.993 26.725,45.993 C26.725,45.308 27.289,44.753 27.986,44.753 ZM26.725,7.681 C26.725,6.996 27.289,6.441 27.986,6.441 C28.682,6.441 29.246,6.996 29.246,7.681 C29.246,7.681 29.246,10.780 29.246,10.780 C29.246,11.465 28.682,12.020 27.986,12.020 C27.289,12.020 26.725,11.465 26.725,10.780 C26.725,10.780 26.725,7.681 26.725,7.681 ZM36.559,26.775 C37.256,26.775 37.820,27.329 37.820,28.015 C37.820,28.015 37.820,29.998 37.820,29.998 C37.820,29.998 39.964,29.998 39.964,29.998 C40.660,29.998 41.225,30.553 41.225,31.238 C41.225,31.923 40.660,32.478 39.964,32.478 C39.964,32.478 37.820,32.478 37.820,32.478 C37.820,32.478 37.820,35.082 37.820,35.082 C37.820,35.767 37.256,36.322 36.559,36.322 C35.863,36.322 35.299,35.767 35.299,35.082 C35.299,35.082 35.299,32.478 35.299,32.478 C35.299,32.478 29.310,32.478 29.310,32.478 C28.849,32.478 28.425,32.231 28.203,31.834 C27.983,31.436 27.999,30.952 28.248,30.570 C28.248,30.570 35.624,19.226 35.624,19.226 C35.998,18.648 36.780,18.481 37.364,18.849 C37.951,19.218 38.123,19.985 37.748,20.561 C37.748,20.561 31.613,29.998 31.613,29.998 C31.613,29.998 35.299,29.998 35.299,29.998 C35.299,29.998 35.299,28.015 35.299,28.015 C35.299,27.329 35.863,26.775 36.559,26.775 ZM27.986,55.912 C12.551,55.912 -0.006,43.564 -0.006,28.386 C-0.006,13.209 12.551,0.862 27.986,0.862 C32.870,0.862 37.640,2.126 41.858,4.499 C41.858,4.499 46.070,0.357 46.070,0.357 C46.432,0.001 46.972,-0.104 47.444,0.088 C47.915,0.280 48.223,0.732 48.223,1.233 C48.223,1.233 48.223,10.859 48.223,10.859 C48.223,11.544 47.658,12.099 46.962,12.099 C46.962,12.099 37.173,12.099 37.173,12.099 C36.663,12.099 36.204,11.797 36.008,11.334 C35.813,10.870 35.921,10.337 36.282,9.982 C36.282,9.982 40.011,6.315 40.011,6.315 C36.323,4.368 32.200,3.341 27.986,3.341 C13.942,3.341 2.516,14.577 2.516,28.386 C2.516,42.197 13.942,53.432 27.986,53.432 C42.030,53.432 53.455,42.197 53.455,28.386 C53.455,27.702 54.020,27.146 54.716,27.146 C55.412,27.146 55.977,27.702 55.977,28.386 C55.977,43.564 43.420,55.912 27.986,55.912 ZM45.701,9.619 C45.701,9.619 45.701,4.227 45.701,4.227 C45.701,4.227 40.217,9.619 40.217,9.619 C40.217,9.619 45.701,9.619 45.701,9.619 ZM49.042,29.627 C49.042,29.627 45.890,29.627 45.890,29.627 C45.194,29.627 44.629,29.071 44.629,28.386 C44.629,27.702 45.194,27.146 45.890,27.146 C45.890,27.146 49.042,27.146 49.042,27.146 C49.739,27.146 50.303,27.702 50.303,28.386 C50.303,29.071 49.739,29.627 49.042,29.627 Z" id="path-1" class="cls-2" fill-rule="evenodd"/>
</svg>
