<svg xmlns="http://www.w3.org/2000/svg" xmlns:xlink="http://www.w3.org/1999/xlink" preserveAspectRatio="xMidYMid" width="24" height="22" viewBox="0 0 24 22">
  <defs>
    <style>

      .cls-2 {
        fill: #e5234b;
      }
    </style>
  </defs>
  <path d="M22.970,11.886 C22.970,11.886 20.439,11.886 20.439,11.886 C20.439,11.886 22.511,13.957 22.511,13.957 C22.902,14.349 22.895,14.976 22.496,15.360 C22.298,15.549 22.043,15.643 21.787,15.643 C21.524,15.643 21.262,15.543 21.063,15.345 C21.063,15.345 17.604,11.886 17.604,11.886 C17.604,11.886 13.815,11.886 13.815,11.886 C13.815,11.886 15.903,15.186 15.903,15.186 C15.903,15.186 20.370,16.332 20.370,16.332 C20.911,16.471 21.235,17.013 21.093,17.542 C20.952,18.072 20.399,18.391 19.857,18.250 C19.857,18.250 17.452,17.633 17.452,17.633 C17.452,17.633 18.636,19.504 18.636,19.504 C18.931,19.969 18.784,20.580 18.308,20.869 C18.143,20.970 17.958,21.017 17.776,21.017 C17.437,21.017 17.106,20.851 16.914,20.548 C16.914,20.548 15.541,18.378 15.541,18.378 C15.541,18.378 14.800,21.143 14.800,21.143 C14.681,21.589 14.270,21.884 13.820,21.884 C13.735,21.884 13.649,21.873 13.563,21.851 C13.022,21.712 12.698,21.170 12.840,20.641 C12.840,20.641 14.069,16.053 14.069,16.053 C14.069,16.053 11.996,12.777 11.996,12.777 C11.996,12.777 9.811,16.230 9.811,16.230 C9.811,16.230 11.065,20.654 11.065,20.654 C11.215,21.182 10.899,21.729 10.361,21.875 C10.270,21.900 10.179,21.912 10.089,21.912 C9.645,21.912 9.238,21.623 9.114,21.185 C9.114,21.185 8.359,18.524 8.359,18.524 C8.359,18.524 7.078,20.548 7.078,20.548 C6.887,20.851 6.556,21.017 6.216,21.017 C6.034,21.017 5.850,20.970 5.684,20.869 C5.208,20.580 5.061,19.969 5.356,19.504 C5.356,19.504 6.506,17.686 6.506,17.686 C6.506,17.686 4.016,18.362 4.016,18.362 C3.474,18.511 2.918,18.200 2.769,17.673 C2.619,17.145 2.935,16.598 3.473,16.452 C3.473,16.452 8.079,15.201 8.079,15.201 C8.079,15.201 10.177,11.886 10.177,11.886 C10.177,11.886 6.649,11.886 6.649,11.886 C6.649,11.886 3.190,15.345 3.190,15.345 C2.991,15.543 2.728,15.643 2.465,15.643 C2.210,15.643 1.954,15.549 1.757,15.360 C1.357,14.976 1.350,14.349 1.742,13.957 C1.742,13.957 3.813,11.886 3.813,11.886 C3.813,11.886 1.022,11.886 1.022,11.886 C0.463,11.886 0.009,11.442 0.009,10.895 C0.009,10.347 0.463,9.903 1.022,9.903 C1.022,9.903 3.431,9.903 3.431,9.903 C3.431,9.903 1.679,8.225 1.679,8.225 C1.279,7.842 1.272,7.214 1.664,6.823 C2.055,6.432 2.696,6.424 3.097,6.808 C3.097,6.808 6.327,9.903 6.327,9.903 C6.327,9.903 10.177,9.903 10.177,9.903 C10.177,9.903 8.205,6.787 8.205,6.787 C8.205,6.787 3.360,5.507 3.360,5.507 C2.820,5.365 2.500,4.820 2.646,4.292 C2.791,3.764 3.345,3.451 3.888,3.593 C3.888,3.593 6.645,4.321 6.645,4.321 C6.645,4.321 5.356,2.285 5.356,2.285 C5.061,1.820 5.208,1.209 5.684,0.920 C6.160,0.632 6.784,0.776 7.078,1.241 C7.078,1.241 8.295,3.164 8.295,3.164 C8.295,3.164 8.965,0.735 8.965,0.735 C9.111,0.207 9.665,-0.105 10.207,0.036 C10.747,0.178 11.067,0.723 10.921,1.252 C10.921,1.252 9.757,5.474 9.757,5.474 C9.757,5.474 11.996,9.012 11.996,9.012 C11.996,9.012 14.174,5.571 14.174,5.571 C14.174,5.571 12.983,1.252 12.983,1.252 C12.837,0.723 13.157,0.178 13.697,0.036 C14.240,-0.105 14.794,0.207 14.939,0.735 C14.939,0.735 15.635,3.261 15.635,3.261 C15.635,3.261 16.914,1.241 16.914,1.241 C17.208,0.776 17.835,0.632 18.308,0.920 C18.784,1.209 18.931,1.820 18.636,2.285 C18.636,2.285 17.365,4.293 17.365,4.293 C17.365,4.293 20.016,3.593 20.016,3.593 C20.560,3.451 21.113,3.764 21.258,4.292 C21.404,4.820 21.085,5.365 20.544,5.507 C20.544,5.507 15.805,6.759 15.805,6.759 C15.805,6.759 13.815,9.903 13.815,9.903 C13.815,9.903 17.926,9.903 17.926,9.903 C17.926,9.903 21.156,6.808 21.156,6.808 C21.555,6.424 22.196,6.432 22.589,6.823 C22.980,7.214 22.973,7.842 22.573,8.225 C22.573,8.225 20.822,9.903 20.822,9.903 C20.822,9.903 22.970,9.903 22.970,9.903 C23.530,9.903 23.983,10.347 23.983,10.895 C23.983,11.442 23.530,11.886 22.970,11.886 Z" id="path-1" class="cls-2" fill-rule="evenodd"/>
</svg>
