<svg xmlns="http://www.w3.org/2000/svg" xmlns:xlink="http://www.w3.org/1999/xlink" preserveAspectRatio="xMidYMid" width="21" height="28" viewBox="0 0 21 28">
  <defs>
    <style>

      .cls-2 {
        fill: #e5234b;
      }
    </style>
  </defs>
  <path d="M20.597,8.791 C20.597,8.791 11.429,19.129 11.429,19.129 C11.429,19.129 11.429,25.894 11.429,25.894 C11.429,25.894 15.088,25.894 15.088,25.894 C15.643,25.894 16.093,26.339 16.093,26.888 C16.093,27.438 15.643,27.883 15.088,27.883 C15.088,27.883 5.760,27.883 5.760,27.883 C5.205,27.883 4.756,27.438 4.756,26.888 C4.756,26.339 5.205,25.894 5.760,25.894 C5.760,25.894 9.420,25.894 9.420,25.894 C9.420,25.894 9.420,19.129 9.420,19.129 C9.420,19.129 0.252,8.791 0.252,8.791 C-0.009,8.498 -0.071,8.080 0.091,7.725 C0.254,7.369 0.612,7.141 1.007,7.141 C1.007,7.141 12.347,7.141 12.347,7.141 C12.347,7.141 16.635,0.471 16.635,0.471 C16.934,0.008 17.555,-0.129 18.023,0.166 C18.490,0.460 18.628,1.075 18.331,1.539 C18.331,1.539 14.729,7.141 14.729,7.141 C14.729,7.141 19.842,7.141 19.842,7.141 C20.237,7.141 20.595,7.369 20.758,7.725 C20.920,8.080 20.858,8.498 20.597,8.791 ZM13.450,9.129 C13.450,9.129 11.299,12.476 11.299,12.476 C11.107,12.773 10.782,12.936 10.450,12.936 C10.266,12.936 10.079,12.886 9.911,12.780 C9.444,12.486 9.306,11.871 9.603,11.408 C9.603,11.408 11.068,9.129 11.068,9.129 C11.068,9.129 3.225,9.129 3.225,9.129 C3.225,9.129 10.249,17.050 10.249,17.050 C10.308,17.039 10.362,17.015 10.425,17.015 C10.487,17.015 10.541,17.039 10.600,17.050 C10.600,17.050 17.624,9.129 17.624,9.129 C17.624,9.129 13.450,9.129 13.450,9.129 Z" id="path-1" class="cls-2" fill-rule="evenodd"/>
</svg>
