<svg xmlns="http://www.w3.org/2000/svg" xmlns:xlink="http://www.w3.org/1999/xlink" preserveAspectRatio="xMidYMid" width="25" height="17" viewBox="0 0 25 17">
  <defs>
    <style>

      .cls-2 {
        fill: #e5234b;
      }
    </style>
  </defs>
  <path d="M16.803,16.958 C13.503,16.958 10.660,14.936 9.353,12.034 C9.329,12.009 9.297,11.999 9.276,11.971 C9.276,11.971 7.851,10.115 7.851,10.115 C7.851,10.115 6.426,11.971 6.426,11.971 C6.288,12.150 6.099,12.245 5.899,12.299 C5.890,12.303 5.880,12.303 5.871,12.306 C5.798,12.323 5.728,12.356 5.653,12.356 C5.640,12.356 5.628,12.350 5.615,12.350 C5.602,12.350 5.589,12.356 5.576,12.356 C5.502,12.356 5.432,12.323 5.359,12.306 C5.349,12.303 5.339,12.303 5.330,12.299 C5.131,12.245 4.941,12.150 4.803,11.971 C4.803,11.971 3.378,10.115 3.378,10.115 C3.378,10.115 1.964,11.957 1.964,11.957 C1.964,11.957 1.964,13.947 1.964,13.947 C1.964,14.509 1.523,14.964 0.978,14.964 C0.434,14.964 -0.008,14.509 -0.008,13.947 C-0.008,13.947 -0.008,3.005 -0.008,3.005 C-0.008,2.443 0.434,1.987 0.978,1.987 C1.523,1.987 1.964,2.443 1.964,3.005 C1.964,3.005 1.964,4.995 1.964,4.995 C1.964,4.995 3.378,6.837 3.378,6.837 C3.378,6.837 4.803,4.981 4.803,4.981 C5.006,4.716 5.311,4.602 5.615,4.614 C5.918,4.602 6.223,4.716 6.426,4.981 C6.426,4.981 7.851,6.837 7.851,6.837 C7.851,6.837 9.276,4.981 9.276,4.981 C9.300,4.949 9.335,4.933 9.363,4.905 C10.670,2.009 13.508,-0.006 16.803,-0.006 C21.334,-0.006 25.020,3.799 25.020,8.476 C25.020,13.153 21.334,16.958 16.803,16.958 ZM1.964,8.273 C1.964,8.273 1.964,8.679 1.964,8.679 C1.964,8.679 2.120,8.476 2.120,8.476 C2.120,8.476 1.964,8.273 1.964,8.273 ZM5.615,7.202 C5.615,7.202 4.637,8.476 4.637,8.476 C4.637,8.476 5.615,9.750 5.615,9.750 C5.615,9.750 6.593,8.476 6.593,8.476 C6.593,8.476 5.615,7.202 5.615,7.202 ZM16.803,2.029 C13.359,2.029 10.557,4.921 10.557,8.476 C10.557,12.030 13.359,14.922 16.803,14.922 C20.246,14.922 23.048,12.030 23.048,8.476 C23.048,4.921 20.246,2.029 16.803,2.029 Z" id="path-1" class="cls-2" fill-rule="evenodd"/>
</svg>
