<svg xmlns="http://www.w3.org/2000/svg" xmlns:xlink="http://www.w3.org/1999/xlink" preserveAspectRatio="xMidYMid" width="25" height="17" viewBox="0 0 25 17">
  <defs>
    <style>

      .cls-2 {
        fill: #e5234b;
      }
    </style>
  </defs>
  <path d="M24.755,2.952 C24.553,3.590 24.439,3.894 24.325,4.197 C24.220,4.478 24.115,4.759 23.928,5.349 C23.906,5.418 23.877,5.484 23.841,5.545 C23.841,5.545 23.316,7.202 23.316,7.202 C23.236,7.453 23.058,7.663 22.819,7.785 C22.670,7.861 22.507,7.900 22.342,7.900 C22.242,7.900 22.141,7.886 22.043,7.856 C20.417,7.371 18.737,7.007 17.051,6.773 C16.592,6.710 16.235,6.354 16.182,5.907 C16.112,5.304 16.075,4.989 16.032,4.709 C13.589,4.466 11.102,4.467 8.659,4.717 C8.618,4.986 8.581,5.302 8.510,5.907 C8.458,6.353 8.101,6.710 7.641,6.773 C5.954,7.007 4.275,7.371 2.650,7.856 C2.392,7.934 2.113,7.908 1.874,7.785 C1.635,7.663 1.456,7.453 1.376,7.202 C1.376,7.202 0.270,3.714 0.270,3.714 C0.255,3.664 0.243,3.614 0.236,3.564 C0.180,3.398 0.116,3.202 0.037,2.952 C-0.042,2.702 -0.016,2.431 0.110,2.200 C0.237,1.968 0.453,1.794 0.711,1.717 C8.448,-0.591 16.344,-0.591 24.081,1.717 C24.618,1.878 24.920,2.431 24.755,2.952 ZM2.280,3.329 C2.280,3.329 3.029,5.691 3.029,5.691 C4.194,5.379 5.381,5.126 6.575,4.934 C6.640,4.411 6.683,4.157 6.789,3.630 C6.874,3.212 7.225,2.893 7.661,2.840 C10.751,2.460 13.936,2.456 17.027,2.830 C17.463,2.883 17.815,3.201 17.900,3.619 C18.009,4.157 18.054,4.425 18.117,4.934 C19.311,5.126 20.498,5.379 21.664,5.691 C21.664,5.691 21.957,4.762 21.957,4.762 C21.980,4.693 22.010,4.626 22.046,4.564 C22.209,4.062 22.309,3.793 22.410,3.523 C22.435,3.458 22.459,3.392 22.485,3.322 C15.775,1.504 8.990,1.506 2.280,3.329 ZM3.092,9.384 C3.287,9.303 7.921,7.404 12.494,7.404 C18.041,7.404 21.943,9.334 22.106,9.416 C22.414,9.571 22.620,9.867 22.651,10.202 C22.651,10.202 23.123,15.160 23.123,15.160 C23.151,15.250 23.166,15.346 23.166,15.445 C23.166,15.991 22.710,16.433 22.147,16.433 C22.140,16.433 22.134,16.432 22.127,16.433 C22.127,16.433 3.002,16.433 3.002,16.433 C2.715,16.433 2.442,16.317 2.249,16.111 C2.056,15.906 1.961,15.631 1.988,15.354 C1.988,15.354 2.478,10.202 2.478,10.202 C2.512,9.841 2.748,9.527 3.092,9.384 ZM21.010,14.457 C21.010,14.457 20.677,10.953 20.677,10.953 C19.523,10.476 16.445,9.380 12.494,9.380 C9.213,9.380 5.767,10.508 4.449,10.989 C4.449,10.989 4.119,14.457 4.119,14.457 C4.119,14.457 21.010,14.457 21.010,14.457 Z" id="path-1" class="cls-2" fill-rule="evenodd"/>
</svg>
