<svg xmlns="http://www.w3.org/2000/svg" xmlns:xlink="http://www.w3.org/1999/xlink" preserveAspectRatio="xMidYMid" width="94" height="64" viewBox="0 0 94 64">
  <defs>
    <style>

      .cls-2 {
        fill: #592a7e;
      }
    </style>
  </defs>
  <path d="M92.503,33.044 C85.669,36.266 62.995,46.842 58.182,47.678 C57.597,47.780 56.995,47.832 56.394,47.832 C56.393,47.832 56.393,47.832 56.393,47.832 C51.155,47.831 45.280,44.077 33.124,35.509 C20.379,26.528 16.523,14.434 16.194,13.332 C14.730,9.448 17.130,8.138 18.567,7.354 C18.719,7.271 18.873,7.187 19.025,7.099 C21.055,5.929 46.702,0.205 46.960,0.148 C47.433,0.043 47.893,-0.010 48.327,-0.010 C51.422,-0.010 52.933,2.492 54.683,5.389 C55.182,6.215 55.698,7.069 56.304,7.979 C59.066,12.123 64.949,18.379 73.182,23.513 C79.664,27.555 88.787,28.034 91.429,28.084 C92.845,28.111 93.997,29.280 93.997,30.690 C93.997,31.692 93.411,32.616 92.503,33.044 ZM71.594,26.038 C64.258,21.464 57.611,15.329 53.811,9.626 C53.168,8.662 52.611,7.739 52.119,6.924 C50.505,4.253 49.670,2.970 48.327,2.970 C48.111,2.970 47.869,2.999 47.608,3.057 C40.792,4.566 22.133,8.892 20.498,9.692 C20.351,9.778 20.178,9.873 20.004,9.967 C18.643,10.710 18.433,10.825 19.011,12.325 C19.011,12.325 19.052,12.448 19.052,12.448 C19.086,12.565 22.666,24.490 34.851,33.077 C46.469,41.264 52.017,44.852 56.393,44.852 C56.393,44.852 56.394,44.852 56.394,44.852 C56.829,44.852 57.245,44.817 57.668,44.743 C61.079,44.150 76.804,37.121 89.828,31.008 C85.550,30.788 77.695,29.843 71.594,26.038 ZM23.790,30.187 C25.912,32.611 34.160,41.594 42.964,45.300 C53.187,49.604 56.180,50.183 58.922,49.273 C61.509,48.414 82.894,38.280 85.317,37.130 C85.468,37.059 85.627,37.024 85.794,37.024 C85.794,37.024 85.808,37.024 85.808,37.024 C87.001,37.024 87.370,38.631 86.296,39.147 C86.296,39.147 58.904,52.307 58.904,52.307 C58.752,52.380 58.585,52.418 58.417,52.418 C58.417,52.418 51.941,52.418 51.941,52.418 C51.941,52.418 41.385,52.914 29.665,49.190 C17.946,45.466 11.546,41.410 5.146,37.438 C4.898,37.284 19.052,31.340 22.510,29.892 C22.957,29.705 23.472,29.823 23.790,30.187 ZM58.134,57.709 C57.996,57.767 57.848,57.797 57.698,57.797 C57.698,57.797 8.253,57.797 8.253,57.797 C7.013,57.797 6.689,56.091 7.843,55.640 C7.843,55.640 20.974,50.513 20.974,50.513 C21.239,50.409 21.527,50.409 21.792,50.513 C22.965,50.971 26.885,52.337 35.483,53.949 C45.203,55.770 56.181,55.713 57.933,55.690 C58.096,55.688 58.249,55.651 58.396,55.581 C58.396,55.581 82.381,44.127 82.381,44.127 C82.532,44.055 82.698,44.017 82.866,44.017 C82.866,44.017 85.172,44.017 85.172,44.017 C86.395,44.017 86.735,45.690 85.608,46.163 C85.608,46.163 58.134,57.709 58.134,57.709 ZM58.549,59.282 C58.549,59.282 90.363,45.952 90.363,45.952 C91.103,45.643 91.920,46.183 91.920,46.982 C91.920,46.982 91.920,48.544 91.920,48.544 C91.920,48.987 91.657,49.388 91.251,49.566 C91.251,49.566 58.557,63.909 58.557,63.909 C58.414,63.972 58.260,64.004 58.104,64.004 C58.104,64.004 1.114,64.004 1.114,64.004 C0.495,64.004 -0.008,63.504 -0.008,62.887 C-0.008,62.887 -0.008,60.486 -0.008,60.486 C-0.008,59.870 0.495,59.370 1.114,59.370 C1.114,59.370 58.114,59.370 58.114,59.370 C58.264,59.370 58.412,59.340 58.549,59.282 Z" id="path-1" class="cls-2" fill-rule="evenodd"/>
</svg>
