<svg xmlns="http://www.w3.org/2000/svg" xmlns:xlink="http://www.w3.org/1999/xlink" preserveAspectRatio="xMidYMid" width="78" height="76" viewBox="0 0 78 76">
  <defs>
    <style>

      .cls-2 {
        fill: #5d2a7e;
      }
    </style>
  </defs>
  <path d="M60.899,52.388 C61.456,53.337 61.736,54.442 61.736,55.711 C61.736,57.656 61.161,59.274 60.008,60.571 C58.856,61.869 57.195,62.635 55.020,62.865 C55.020,62.865 55.020,66.193 55.020,66.193 C55.020,66.193 52.249,66.193 52.249,66.193 C52.249,66.193 52.249,62.879 52.249,62.879 C48.625,62.505 46.383,60.384 45.517,56.525 C45.517,56.525 49.801,55.400 49.801,55.400 C50.196,57.828 51.511,59.044 53.743,59.044 C54.786,59.044 55.557,58.786 56.047,58.263 C56.538,57.741 56.785,57.118 56.785,56.381 C56.785,55.620 56.538,55.041 56.047,54.653 C55.557,54.260 54.462,53.762 52.767,53.159 C51.244,52.627 50.053,52.106 49.197,51.579 C48.340,51.061 47.645,50.339 47.111,49.405 C46.574,48.466 46.307,47.374 46.307,46.134 C46.307,44.507 46.788,43.036 47.740,41.734 C48.697,40.431 50.196,39.637 52.249,39.344 C52.249,39.344 52.249,36.773 52.249,36.773 C52.249,36.773 55.020,36.773 55.020,36.773 C55.020,36.773 55.020,39.345 55.020,39.345 C58.114,39.718 60.122,41.480 61.036,44.631 C61.036,44.631 57.214,46.206 57.214,46.206 C56.471,44.046 55.324,42.964 53.762,42.964 C52.981,42.964 52.354,43.204 51.882,43.688 C51.406,44.171 51.168,44.756 51.168,45.444 C51.168,46.144 51.396,46.681 51.853,47.058 C52.310,47.432 53.286,47.896 54.786,48.447 C56.428,49.051 57.723,49.625 58.656,50.162 C59.594,50.697 60.337,51.445 60.899,52.388 C60.899,52.388 60.899,52.388 60.899,52.388 ZM78.000,51.483 C78.000,65.025 67.088,75.999 53.625,75.999 C40.161,75.999 29.250,65.025 29.250,51.483 C29.250,37.942 40.161,26.967 53.625,26.967 C67.088,26.967 78.000,37.942 78.000,51.483 C78.000,51.483 78.000,51.483 78.000,51.483 ZM73.124,51.483 C73.124,40.666 64.379,31.870 53.625,31.870 C42.870,31.870 34.124,40.666 34.124,51.483 C34.124,62.300 42.870,71.096 53.625,71.096 C64.379,71.096 73.124,62.300 73.124,51.483 C73.124,51.483 73.124,51.483 73.124,51.483 ZM39.000,7.354 C39.000,7.354 68.249,7.354 68.249,7.354 C69.597,7.354 70.687,6.531 70.687,5.516 C70.687,5.516 70.687,1.839 70.687,1.839 C70.687,0.823 69.597,-0.001 68.249,-0.001 C68.249,-0.001 39.000,-0.001 39.000,-0.001 C37.653,-0.001 36.562,0.823 36.562,1.839 C36.562,1.839 36.562,5.516 36.562,5.516 C36.562,6.531 37.653,7.354 39.000,7.354 C39.000,7.354 39.000,7.354 39.000,7.354 ZM39.000,17.161 C39.000,17.161 68.249,17.161 68.249,17.161 C69.597,17.161 70.687,16.337 70.687,15.322 C70.687,15.322 70.687,11.644 70.687,11.644 C70.687,10.629 69.597,9.806 68.249,9.806 C68.249,9.806 39.000,9.806 39.000,9.806 C37.653,9.806 36.562,10.629 36.562,11.644 C36.562,11.644 36.562,15.322 36.562,15.322 C36.562,16.337 37.653,17.161 39.000,17.161 C39.000,17.161 39.000,17.161 39.000,17.161 ZM2.438,66.193 C2.438,66.193 31.183,66.193 31.183,66.193 C29.726,63.951 28.598,61.477 27.850,58.838 C27.850,58.838 2.438,58.838 2.438,58.838 C1.091,58.838 -0.000,59.661 -0.000,60.677 C-0.000,60.677 -0.000,64.354 -0.000,64.354 C-0.000,65.369 1.091,66.193 2.438,66.193 C2.438,66.193 2.438,66.193 2.438,66.193 ZM31.687,68.644 C31.687,68.644 2.438,68.644 2.438,68.644 C1.091,68.644 -0.000,69.468 -0.000,70.483 C-0.000,70.483 -0.000,74.160 -0.000,74.160 C-0.000,75.175 1.091,75.999 2.438,75.999 C2.438,75.999 31.687,75.999 31.687,75.999 C33.035,75.999 34.124,75.175 34.124,74.160 C34.124,74.160 34.124,70.483 34.124,70.483 C34.124,69.468 33.035,68.644 31.687,68.644 C31.687,68.644 31.687,68.644 31.687,68.644 ZM2.438,56.386 C2.438,56.386 27.279,56.386 27.279,56.386 C26.983,54.791 26.812,53.159 26.812,51.483 C26.812,50.655 26.860,49.841 26.936,49.032 C26.936,49.032 2.438,49.032 2.438,49.032 C1.091,49.032 -0.000,49.855 -0.000,50.870 C-0.000,50.870 -0.000,54.548 -0.000,54.548 C-0.000,55.563 1.091,56.386 2.438,56.386 C2.438,56.386 2.438,56.386 2.438,56.386 ZM39.000,26.967 C39.000,26.967 42.523,26.967 42.523,26.967 C45.907,25.406 49.658,24.515 53.625,24.515 C57.585,24.515 61.341,25.407 64.726,26.967 C64.726,26.967 68.249,26.967 68.249,26.967 C69.597,26.967 70.687,26.143 70.687,25.128 C70.687,25.128 70.687,21.451 70.687,21.451 C70.687,20.436 69.597,19.612 68.249,19.612 C68.249,19.612 39.000,19.612 39.000,19.612 C37.653,19.612 36.562,20.436 36.562,21.451 C36.562,21.451 36.562,25.128 36.562,25.128 C36.562,26.143 37.653,26.967 39.000,26.967 C39.000,26.967 39.000,26.967 39.000,26.967 ZM2.438,26.967 C2.438,26.967 31.687,26.967 31.687,26.967 C33.035,26.967 34.124,26.143 34.124,25.128 C34.124,25.128 34.124,21.451 34.124,21.451 C34.124,20.436 33.035,19.612 31.687,19.612 C31.687,19.612 2.438,19.612 2.438,19.612 C1.091,19.612 -0.000,20.436 -0.000,21.451 C-0.000,21.451 -0.000,25.128 -0.000,25.128 C-0.000,26.143 1.091,26.967 2.438,26.967 C2.438,26.967 2.438,26.967 2.438,26.967 ZM2.438,46.580 C2.438,46.580 27.279,46.580 27.279,46.580 C27.755,43.976 28.607,41.509 29.774,39.225 C29.774,39.225 2.438,39.225 2.438,39.225 C1.091,39.225 -0.000,40.049 -0.000,41.063 C-0.000,41.063 -0.000,44.742 -0.000,44.742 C-0.000,45.756 1.091,46.580 2.438,46.580 C2.438,46.580 2.438,46.580 2.438,46.580 ZM2.438,36.773 C2.438,36.773 31.183,36.773 31.183,36.773 C32.049,35.433 33.039,34.188 34.124,33.029 C34.124,33.029 34.124,31.257 34.124,31.257 C34.124,30.242 33.035,29.419 31.688,29.419 C31.688,29.419 2.438,29.419 2.438,29.419 C1.091,29.419 -0.000,30.242 -0.000,31.257 C-0.000,31.257 -0.000,34.934 -0.000,34.934 C-0.000,35.949 1.091,36.773 2.438,36.773 C2.438,36.773 2.438,36.773 2.438,36.773 Z" id="path-1" class="cls-2" fill-rule="evenodd"/>
</svg>
