<svg xmlns="http://www.w3.org/2000/svg" xmlns:xlink="http://www.w3.org/1999/xlink" preserveAspectRatio="xMidYMid" width="101" height="84" viewBox="0 0 101 84">
  <defs>
    <style>

      .cls-2 {
        fill: #592a7e;
      }
    </style>
  </defs>
  <path d="M100.235,8.931 C100.235,8.931 97.148,11.731 97.148,11.731 C96.443,12.370 95.354,12.317 94.714,11.613 C94.714,11.613 89.054,5.379 89.054,5.379 C88.382,4.640 88.478,3.487 89.261,2.868 C89.261,2.868 92.415,0.377 92.415,0.377 C93.115,-0.176 94.123,-0.103 94.736,0.547 C94.736,0.547 100.330,6.471 100.330,6.471 C100.993,7.173 100.950,8.282 100.235,8.931 ZM92.048,16.314 C92.048,16.314 61.676,42.806 61.676,42.806 C61.039,43.362 60.074,43.309 59.502,42.686 C59.502,42.686 53.148,35.772 53.148,35.772 C52.552,35.124 52.610,34.112 53.276,33.536 C53.276,33.536 83.906,7.071 83.906,7.071 C84.552,6.513 85.528,6.578 86.094,7.217 C86.094,7.217 92.190,14.104 92.190,14.104 C92.764,14.753 92.700,15.744 92.048,16.314 ZM42.841,35.086 C42.841,35.086 42.841,37.826 42.841,37.826 C42.841,37.826 40.462,39.348 40.462,39.348 C40.462,39.348 36.034,42.182 36.034,42.182 C36.034,42.182 31.940,44.802 31.940,44.802 C31.940,44.802 27.580,40.380 27.580,40.380 C27.580,40.380 30.507,40.380 30.507,40.380 C30.507,40.380 32.127,41.937 32.127,41.937 C32.127,41.937 36.508,39.135 36.508,39.135 C36.508,39.135 40.936,36.304 40.936,36.304 C40.936,36.304 42.841,35.086 42.841,35.086 ZM17.029,70.773 C17.029,70.773 18.740,57.943 18.740,57.943 C18.740,57.943 38.130,57.943 38.130,57.943 C38.130,57.943 36.134,70.773 36.134,70.773 C36.134,70.773 17.029,70.773 17.029,70.773 ZM22.431,60.621 C22.431,60.621 21.434,68.095 21.434,68.095 C21.434,68.095 32.563,68.095 32.563,68.095 C32.563,68.095 33.726,60.621 33.726,60.621 C33.726,60.621 22.431,60.621 22.431,60.621 ZM40.936,35.522 C40.936,35.522 36.653,38.200 36.653,38.200 C36.653,38.200 25.358,38.200 25.358,38.200 C25.358,38.200 24.362,45.674 24.362,45.674 C24.362,45.674 35.490,45.674 35.490,45.674 C35.490,45.674 36.034,43.179 36.034,43.179 C36.034,43.179 40.462,40.344 40.462,40.344 C40.462,40.344 39.062,48.352 39.062,48.352 C39.062,48.352 19.957,48.352 19.957,48.352 C19.957,48.352 21.668,35.522 21.668,35.522 C21.668,35.522 40.936,35.522 40.936,35.522 ZM46.588,49.387 C45.630,49.650 44.790,48.695 45.173,47.779 C45.173,47.779 49.247,38.034 49.247,38.034 C49.587,37.220 50.663,37.045 51.244,37.709 C51.244,37.709 57.329,44.670 57.329,44.670 C57.907,45.332 57.594,46.371 56.746,46.603 C56.746,46.603 46.588,49.387 46.588,49.387 ZM18.922,27.031 C18.922,27.031 5.467,80.011 5.467,80.011 C5.467,80.011 92.505,80.011 92.505,80.011 C92.505,80.011 80.878,29.522 80.878,29.522 C80.878,29.522 84.366,27.197 84.366,27.197 C84.366,27.197 97.987,83.831 97.987,83.831 C97.987,83.831 -0.014,83.831 -0.014,83.831 C-0.014,83.831 15.434,23.045 15.434,23.045 C15.434,23.045 62.108,23.045 62.108,23.045 C62.108,23.045 57.458,27.031 57.458,27.031 C57.458,27.031 18.922,27.031 18.922,27.031 Z" id="path-1" class="cls-2" fill-rule="evenodd"/>
</svg>
