<svg xmlns="http://www.w3.org/2000/svg" xmlns:xlink="http://www.w3.org/1999/xlink" preserveAspectRatio="xMidYMid" width="62" height="87" viewBox="0 0 62 87">
  <defs>
    <style>

      .cls-2 {
        fill: #5d2a7e;
      }
    </style>
  </defs>
  <path d="M55.571,13.449 C55.571,13.449 55.571,64.890 55.571,64.890 C55.571,64.890 54.332,63.366 54.332,63.366 C54.332,63.366 51.682,65.228 51.682,65.228 C51.682,65.228 51.682,17.301 51.682,17.301 C51.682,17.301 37.253,17.301 37.253,17.301 C37.253,17.301 37.322,3.857 37.322,3.857 C37.322,3.857 3.881,3.857 3.881,3.857 C3.881,3.857 3.881,74.496 3.881,74.496 C3.881,74.496 20.090,74.496 20.090,74.496 C20.090,74.496 24.661,76.276 24.661,76.276 C24.661,76.276 24.932,78.349 24.932,78.349 C24.932,78.349 -0.007,78.349 -0.007,78.349 C-0.007,78.349 -0.007,0.000 -0.007,0.000 C-0.007,0.000 41.225,0.000 41.225,0.000 C41.225,0.000 41.225,0.111 41.225,0.111 C41.225,0.111 55.599,13.393 55.599,13.393 C55.599,13.393 55.543,13.449 55.543,13.449 C55.543,13.449 55.571,13.449 55.571,13.449 ZM41.197,5.350 C41.197,5.350 41.155,13.449 41.155,13.449 C41.155,13.449 49.966,13.449 49.966,13.449 C49.966,13.449 41.197,5.350 41.197,5.350 ZM27.585,64.083 C27.585,64.083 37.702,76.773 37.702,76.773 C37.702,76.773 28.727,83.792 28.727,83.792 C28.727,83.792 27.502,74.455 27.502,74.455 C27.502,74.455 18.610,71.116 18.610,71.116 C18.610,71.116 27.585,64.083 27.585,64.083 ZM10.287,61.290 C10.287,61.290 10.287,58.192 10.287,58.192 C10.287,58.192 26.823,58.192 26.823,58.192 C26.823,58.192 26.823,61.290 26.823,61.290 C26.823,61.290 10.287,61.290 10.287,61.290 ZM10.287,49.114 C10.287,49.114 37.089,49.114 37.089,49.114 C37.089,49.114 37.089,52.211 37.089,52.211 C37.089,52.211 10.287,52.211 10.287,52.211 C10.287,52.211 10.287,49.114 10.287,49.114 ZM43.359,44.354 C43.359,44.354 10.287,44.354 10.287,44.354 C10.287,44.354 10.287,41.243 10.287,41.243 C10.287,41.243 43.359,41.243 43.359,41.243 C43.359,41.243 43.359,44.354 43.359,44.354 ZM10.287,17.450 C10.287,17.450 30.088,17.450 30.088,17.450 C30.088,17.450 30.088,28.150 30.088,28.150 C30.088,28.150 10.287,28.150 10.287,28.150 C10.287,28.150 10.287,17.450 10.287,17.450 ZM37.089,36.082 C37.089,36.082 10.287,36.082 10.287,36.082 C10.287,36.082 10.287,32.971 10.287,32.971 C10.287,32.971 37.089,32.971 37.089,32.971 C37.089,32.971 37.089,36.082 37.089,36.082 ZM32.372,64.094 C32.372,59.299 36.302,55.419 41.113,55.419 C45.956,55.419 49.886,59.299 49.886,64.094 C49.886,68.878 45.956,72.758 41.113,72.758 C36.288,72.758 32.372,68.878 32.372,64.094 ZM61.023,75.994 C61.023,75.994 51.599,77.217 51.599,77.217 C51.599,77.217 48.225,86.017 48.225,86.017 C48.225,86.017 41.127,77.139 41.127,77.139 C41.127,77.139 53.938,67.112 53.938,67.112 C53.938,67.112 61.023,75.994 61.023,75.994 Z" id="path-1" class="cls-2" fill-rule="evenodd"/>
</svg>
