<svg xmlns="http://www.w3.org/2000/svg" xmlns:xlink="http://www.w3.org/1999/xlink" preserveAspectRatio="xMidYMid" width="26" height="26" viewBox="0 0 26 26">
  <defs>
    <style>

      .cls-2 {
        fill: #e5234b;
      }
    </style>
  </defs>
  <path d="M19.638,12.559 C19.617,12.559 19.596,12.558 19.575,12.557 C19.575,12.557 1.528,11.440 1.528,11.440 C1.121,11.415 0.770,11.151 0.638,10.774 C0.613,10.700 0.014,8.945 0.014,6.354 C0.014,3.832 0.603,1.896 0.628,1.815 C0.750,1.421 1.108,1.143 1.528,1.117 C1.528,1.117 19.575,-0.000 19.575,-0.000 C19.576,-0.000 19.577,-0.000 19.578,-0.000 C23.149,-0.000 26.001,2.793 26.001,6.225 C26.001,6.225 26.001,6.331 26.001,6.331 C26.001,9.765 23.147,12.559 19.638,12.559 ZM2.027,6.354 C2.027,7.749 2.226,8.868 2.377,9.518 C2.377,9.518 19.082,10.552 19.082,10.552 C19.085,10.545 19.084,10.538 19.088,10.532 C19.096,10.516 20.044,8.681 20.058,6.037 C20.089,3.870 19.598,2.541 19.335,1.987 C19.335,1.987 2.392,3.037 2.392,3.037 C2.237,3.742 2.027,4.952 2.027,6.354 ZM23.988,6.225 C23.988,4.588 23.029,3.181 21.641,2.469 C21.888,3.348 22.093,4.524 22.072,6.056 C22.062,7.837 21.694,9.284 21.368,10.235 C22.908,9.579 23.988,8.077 23.988,6.331 C23.988,6.331 23.988,6.225 23.988,6.225 ZM14.163,13.967 C14.333,13.633 14.682,13.422 15.064,13.422 C15.066,13.422 15.069,13.422 15.072,13.422 C15.072,13.422 19.294,13.457 19.294,13.457 C19.640,13.460 19.960,13.636 20.142,13.924 C20.323,14.211 20.342,14.570 20.190,14.874 C20.190,14.874 15.499,24.286 15.499,24.286 C15.082,25.319 14.011,26.029 12.802,26.029 C12.429,26.029 12.064,25.961 11.716,25.825 C10.952,25.527 10.380,24.982 10.070,24.277 C9.760,23.572 9.749,22.792 10.039,22.079 C10.039,22.079 14.163,13.967 14.163,13.967 ZM11.919,23.499 C12.017,23.720 12.196,23.891 12.425,23.980 C12.571,24.037 12.686,24.059 12.802,24.059 C13.182,24.059 13.518,23.835 13.659,23.490 C13.659,23.490 17.682,15.414 17.682,15.414 C17.682,15.414 15.684,15.397 15.684,15.397 C15.684,15.397 11.876,22.883 11.876,22.883 C11.819,23.032 11.822,23.277 11.919,23.499 Z" id="path-1" class="cls-2" fill-rule="evenodd"/>
</svg>
