<svg xmlns="http://www.w3.org/2000/svg" xmlns:xlink="http://www.w3.org/1999/xlink" preserveAspectRatio="xMidYMid" width="23" height="21" viewBox="0 0 23 21">
  <defs>
    <style>

      .cls-2 {
        fill: #e5234b;
      }
    </style>
  </defs>
  <path d="M21.931,20.941 C21.931,20.941 3.060,20.941 3.060,20.941 C2.497,20.941 2.040,20.484 2.040,19.919 C2.040,19.919 2.040,17.281 2.040,17.281 C2.040,17.281 1.011,17.281 1.011,17.281 C0.448,17.281 -0.009,16.823 -0.009,16.259 C-0.009,15.694 0.448,15.237 1.011,15.237 C1.011,15.237 2.040,15.237 2.040,15.237 C2.040,15.237 2.040,5.691 2.040,5.691 C2.040,5.691 1.011,5.691 1.011,5.691 C0.448,5.691 -0.009,5.233 -0.009,4.669 C-0.009,4.104 0.448,3.646 1.011,3.646 C1.011,3.646 2.040,3.646 2.040,3.646 C2.040,3.646 2.040,1.008 2.040,1.008 C2.040,0.444 2.497,-0.014 3.060,-0.014 C3.060,-0.014 21.931,-0.014 21.931,-0.014 C22.494,-0.014 22.951,0.444 22.951,1.008 C22.951,1.008 22.951,19.919 22.951,19.919 C22.951,20.484 22.494,20.941 21.931,20.941 ZM20.911,2.030 C20.911,2.030 4.080,2.030 4.080,2.030 C4.080,2.030 4.080,3.646 4.080,3.646 C4.080,3.646 5.283,3.646 5.283,3.646 C5.846,3.646 6.303,4.104 6.303,4.669 C6.303,5.233 5.846,5.691 5.283,5.691 C5.283,5.691 4.080,5.691 4.080,5.691 C4.080,5.691 4.080,15.237 4.080,15.237 C4.080,15.237 5.283,15.237 5.283,15.237 C5.846,15.237 6.303,15.694 6.303,16.259 C6.303,16.823 5.846,17.281 5.283,17.281 C5.283,17.281 4.080,17.281 4.080,17.281 C4.080,17.281 4.080,18.897 4.080,18.897 C4.080,18.897 20.911,18.897 20.911,18.897 C20.911,18.897 20.911,2.030 20.911,2.030 ZM12.515,3.857 C14.694,3.857 16.467,5.634 16.467,7.818 C16.467,8.975 15.968,10.054 15.108,10.801 C15.108,10.801 15.108,15.744 15.108,15.744 C15.108,16.308 14.651,16.766 14.087,16.766 C14.087,16.766 10.942,16.766 10.942,16.766 C10.378,16.766 9.922,16.308 9.922,15.744 C9.922,15.744 9.922,10.800 9.922,10.800 C9.061,10.053 8.562,8.975 8.562,7.818 C8.562,5.634 10.335,3.857 12.515,3.857 ZM11.491,9.430 C11.784,9.618 11.962,9.943 11.962,10.291 C11.962,10.291 11.962,14.722 11.962,14.722 C11.962,14.722 13.067,14.722 13.067,14.722 C13.067,14.722 13.067,10.291 13.067,10.291 C13.067,9.943 13.245,9.618 13.539,9.430 C14.095,9.074 14.427,8.471 14.427,7.818 C14.427,6.762 13.569,5.901 12.515,5.901 C11.460,5.901 10.602,6.762 10.602,7.818 C10.602,8.471 10.934,9.074 11.491,9.430 Z" id="path-1" class="cls-2" fill-rule="evenodd"/>
</svg>
