<svg xmlns="http://www.w3.org/2000/svg" xmlns:xlink="http://www.w3.org/1999/xlink" preserveAspectRatio="xMidYMid" width="24" height="14" viewBox="0 0 24 14">
  <defs>
    <style>

      .cls-2 {
        fill: #e5234b;
      }
    </style>
  </defs>
  <path d="M23.359,7.126 C22.923,7.463 22.295,7.385 21.957,6.948 C19.521,3.804 15.847,2.000 11.876,2.000 C8.083,2.000 4.513,3.674 2.081,6.593 C1.983,6.710 1.887,6.830 1.794,6.951 C1.596,7.205 1.301,7.338 1.003,7.338 C0.788,7.338 0.573,7.270 0.391,7.129 C-0.046,6.790 -0.125,6.162 0.213,5.725 C0.321,5.585 0.433,5.447 0.545,5.311 C3.358,1.936 7.488,0.000 11.876,0.000 C16.470,0.000 20.720,2.086 23.537,5.723 C23.875,6.159 23.796,6.788 23.359,7.126 ZM11.876,4.501 C15.273,4.501 18.443,6.181 20.355,8.995 C20.665,9.452 20.546,10.074 20.090,10.385 C19.633,10.694 19.011,10.576 18.701,10.119 C17.162,7.854 14.610,6.502 11.876,6.502 C9.132,6.502 6.575,7.862 5.037,10.140 C4.843,10.426 4.528,10.581 4.207,10.581 C4.015,10.581 3.820,10.525 3.649,10.409 C3.191,10.100 3.071,9.478 3.380,9.021 C5.290,6.190 8.467,4.501 11.876,4.501 ZM11.876,9.002 C13.788,9.002 15.570,9.950 16.642,11.537 C16.838,11.828 17.009,12.139 17.149,12.462 C17.369,12.969 17.137,13.558 16.631,13.778 C16.124,14.000 15.536,13.766 15.316,13.259 C15.224,13.049 15.113,12.847 14.985,12.657 C14.285,11.621 13.123,11.003 11.876,11.003 C10.366,11.003 9.010,11.902 8.421,13.294 C8.260,13.675 7.890,13.905 7.500,13.905 C7.370,13.905 7.238,13.879 7.111,13.825 C6.602,13.609 6.365,13.023 6.580,12.514 C7.482,10.381 9.561,9.002 11.876,9.002 Z" id="path-1" class="cls-2" fill-rule="evenodd"/>
</svg>
