<?xml version="1.0" encoding="utf-8"?>
<!-- Generator: Adobe Illustrator 16.0.0, SVG Export Plug-In . SVG Version: 6.00 Build 0)  -->
<!DOCTYPE svg PUBLIC "-//W3C//DTD SVG 1.1//EN" "http://www.w3.org/Graphics/SVG/1.1/DTD/svg11.dtd">
<svg version="1.1" id="Layer_1" xmlns="http://www.w3.org/2000/svg" xmlns:xlink="http://www.w3.org/1999/xlink" x="0px" y="0px"
	 width="1000px" height="500px" viewBox="0 0 1000 500" enable-background="new 0 0 1000 500" xml:space="preserve">
<g>
	<g>
		<path fill="#37A3DC" d="M133.699,272.783c23.197,7.795,51.647,4.34,61.388,2.113c0,0-31.216-7.164-52.473-20.405
			c-9.937-6.192-17.706-14.622-22.309-18.449c-2.284-1.896-4.407-1.427-4.407-1.427s-6.342,0.091-6.342,8.961
			C109.556,251.525,114.007,266.165,133.699,272.783z"/>
		<circle fill="#37A3DC" cx="138.857" cy="203.804" r="8.097"/>
		<path fill="#37A3DC" d="M160.275,207.922c5.572-17.041-3.728-35.374-20.77-40.945c-17.042-5.57-35.375,3.729-40.945,20.771
			c-5.571,17.043,3.728,35.374,20.771,40.943C136.372,234.265,154.703,224.963,160.275,207.922z M106.493,190.338
			c4.14-12.662,17.759-19.571,30.421-15.433c12.664,4.142,19.571,17.761,15.434,30.422c-4.14,12.662-17.76,19.569-30.422,15.431
			S102.354,203.002,106.493,190.338z"/>
		<path fill="#37A3DC" d="M230.532,258.793l-12.295,37.613c-3.827,11.705-15.301,18.771-27.077,17.477
			c-2.688,0.053-7.449,0.596-8.105,3.74c-1.154,5.541,3.289,14.711,3.289,14.711s2.153,4.447,1.689,6.025
			c-0.334,1.131-3.312-0.797-7.189-4.85c-4.758-4.971-28.26-27.85-28.26-27.85s-3.275-4.895-10.68-7.22
			c-0.269-0.087-0.448-0.177-0.563-0.272l-55.262-18.063c-13.423-4.39-20.747-18.828-16.358-32.249l27.86-85.231
			c4.389-13.42,18.826-20.746,32.25-16.358l99.91,32.663c13.423,4.387,20.747,18.824,16.359,32.247l-3.023,9.245
			c3.572-2.242,7.702-3.662,12.144-3.996l0.155-0.473c0.84-2.571,1.388-5.167,1.673-7.753c-0.025,0.009-0.042,0.017-0.042,0.017
			s0.036-0.017,0.042-0.021c1.956-17.703-8.659-34.954-26.26-40.708l-27.882-9.113c2.437-1.855,7.035-3.957,15.338-3.893
			c14.304,0.112,16.38,1.91,16.498,2.024c-0.06-0.064-4.58-4.696-13.042-7.963c-8.519-3.291-15.951-2.691-15.951-2.691
			s0.09-8.887-9.286-18.891c-9.375-10.001-19.911-15.114-19.911-15.114s5.637,6.935,5.255,14.013
			c-0.381,7.075-3.133,10.391-3.133,10.391s-4.335-5.358-17.582-10.458c-13.247-5.104-23.248-3.614-23.248-3.614
			s12.434,4.834,17.388,12.883c2.564,4.164,3.491,7.098,3.794,8.965l-23.498-7.681c-20.172-6.594-41.873,4.415-48.467,24.587
			l-27.517,84.177c-6.593,20.172,4.414,41.873,24.587,48.467l58.535,19.134l53.738,51.35c0,0,5.985,6.361,9.766,4.23
			c5.065-2.855,1.704-9.443,1.704-9.443l-11.219-32.598c14.068-1.979,26.491-11.705,31.202-26.119l2.678-8.191V258.793z"/>
		<path fill="#37A3DC" d="M229.208,230.716c5.572-17.043-3.728-35.374-20.771-40.945c-17.042-5.571-35.375,3.726-40.945,20.769
			c-5.572,17.043,3.729,35.374,20.771,40.947C205.304,257.057,223.636,247.759,229.208,230.716z M175.153,213.042
			c4.189-12.812,17.97-19.803,30.781-15.614c12.812,4.189,19.803,17.971,15.614,30.783c-4.187,12.81-17.969,19.8-30.78,15.612
			C177.956,239.634,170.966,225.855,175.153,213.042z"/>
		<circle fill="#37A3DC" cx="203.211" cy="226.933" r="8.096"/>
	</g>
	<g>
		<path fill="#F17F21" d="M265.952,248.867c-3.656,0-6.619,2.965-6.619,6.621c0,3.654,2.963,6.618,6.619,6.618
			c3.655,0,6.617-2.964,6.617-6.618C272.569,251.832,269.606,248.867,265.952,248.867z M290.81,257.361
			c0-12.646-10.253-22.902-22.903-22.902c-12.647,0-22.9,10.256-22.9,22.902c0,12.648,10.253,22.902,22.9,22.902
			C280.556,280.264,290.81,270.01,290.81,257.361z M251.428,257.361c0-9.105,7.377-16.483,16.479-16.483
			c9.101,0,16.479,7.378,16.479,16.483c0,9.098-7.378,16.479-16.479,16.479C258.805,273.841,251.428,266.459,251.428,257.361z
			 M326.927,216.321H309.74c0.605-1.168,1.852-2.905,4.444-5.103c5.013-4.247,14.274-4.759,14.274-4.759s-6.287-3.145-16.145-2.633
			c-9.854,0.512-13.876,3.116-13.876,3.116s-1.103-2.787,0.174-7.547c1.277-4.759,6.5-8.126,6.5-8.126s-8.067,1.104-16.425,5.688
			c-8.355,4.586-10.216,10.48-10.216,10.48s-4.781-2.003-11.123-1.671c-6.339,0.336-10.343,2.45-10.343,2.45
			s1.557-0.891,11.342,2.223c5.503,1.752,8.087,4.135,9.294,5.883h-20.393c-14.755,0-26.717,11.966-26.717,26.72v61.57
			c0,11.008,6.661,20.463,16.173,24.551l-17.286,25.893c0,0-3.113,4.094,0,6.67c2.324,1.928,7.205-1.691,7.205-1.691l41.35-28.701
			h48.954c14.755,0,26.718-11.967,26.718-26.721v-61.57C353.646,228.287,341.683,216.321,326.927,216.321z M346.328,304.229
			c0,9.818-7.958,17.779-17.778,17.779h-47.945c-0.16,0.029-0.322,0.045-0.486,0.045c-2.402,0-5.16,2.221-5.16,2.221
			s-19.213,13.08-22.415,15.305c-3.202,2.221-3.914,1.955-4.534,1.422c-0.624-0.533,1.154-3.111,1.154-3.111
			s6.671-9.252,7.028-12.365c0.234-2.053-2.278-3.256-4.016-3.83c-8.242-1.551-14.482-8.771-14.482-17.465v-62.343
			c0-9.816,7.958-17.776,17.775-17.776h73.08c9.82,0,17.778,7.959,17.778,17.776V304.229z M319.134,288.203
			c0,0-4.103,1.854-21.312,4.497c-17.207,2.65-38.386,1.857-38.386,1.857c5.955,3.569,25.017,10.983,39.445,11.647
			c14.429,0.662,20.649-9.4,22.24-14.695C322.71,286.219,319.134,288.203,319.134,288.203z M317.634,234.459
			c-12.648,0-22.901,10.256-22.901,22.902c0,12.648,10.253,22.902,22.901,22.902c12.649,0,22.901-10.254,22.901-22.902
			C340.535,244.715,330.283,234.459,317.634,234.459z M317.634,273.841c-9.101,0-16.479-7.382-16.479-16.479
			c0-9.105,7.378-16.483,16.479-16.483c9.1,0,16.48,7.378,16.48,16.483C334.114,266.459,326.734,273.841,317.634,273.841z
			 M310.242,249.94c-3.656,0-6.62,2.964-6.62,6.618s2.964,6.617,6.62,6.617c3.655,0,6.617-2.963,6.617-6.617
			S313.896,249.94,310.242,249.94z"/>
	</g>
	<g>
		<g>
			<path fill="#37A3DC" d="M451.246,223.005H433.57c0,0-32.861,42.614-28.723,35.438h-0.232v-35.438h-16.289v79.104h16.289v-27.005
				l7.243-6.79l21.148,33.795h18.686l-27.799-43.904L451.246,223.005z M482.081,240.509c-20.677,0-30.042,15.309-30.042,32.466
				c0,19.031,11.554,30.973,31.744,30.973c8.029,0,15.446-1.246,21.529-3.859l-0.159-12.701c-4.987,1.742-13.454,4.561-19.776,4.451
				c-12.75-0.213-15.973-8.169-16.46-16.006h39.396c0.244-1.369,0.283-1.738,0.283-4.973
				C508.595,254.293,501.298,240.509,482.081,240.509z M469.553,265.387c0.486-4.977,2.674-13.721,11.432-13.721
				c10.03,0,12.41,9.118,12.41,13.721H469.553z M611.084,240.439c-8.243-0.191-13.428,4.214-17.61,10.135l-1.432-3.123l-1.655-5.974
				h-12.982c0.231,5.34,0.465,15.454,0.465,22.889v65.271h15.907v-33.232h0.232c2.555,3.713,9.818,6.863,16.671,6.863
				c12.656,0,23.859-9.639,23.859-30.309C634.539,254.844,626.752,240.799,611.084,240.439z M604.461,290.518
				c-5.109,0-8.588-3.228-9.749-7.988c-0.231-1.161-0.682-5.515-0.682-6.907l-0.254-5.683c0-1.042,0.475-5.93,0.708-6.859
				c1.161-5.225,5.214-9.662,10.208-9.662c12.223,0,13.402,11.297,13.402,20.354C618.095,283.41,614.649,290.518,604.461,290.518z
				 M542.854,240.509c-20.68,0-30.044,15.309-30.044,32.466c0,19.031,11.556,30.973,31.745,30.973
				c8.028,0,15.445-1.246,21.528-3.859l-0.158-12.701c-4.987,1.742-13.452,4.561-19.776,4.451
				c-12.752-0.213-15.975-8.169-16.463-16.006h39.397c0.245-1.369,0.284-1.738,0.284-4.973
				C569.367,254.293,562.068,240.509,542.854,240.509z M530.326,265.387c0.484-4.977,2.674-13.721,11.431-13.721
				c10.03,0,12.408,9.118,12.408,13.721H530.326z"/>
		</g>
	</g>
	<g>
		<g>
			<path fill="#F17F21" d="M720.787,217.896c-5.056,0-8.36,3.407-8.36,7.845c0,4.334,3.199,7.845,8.154,7.845
				c5.263,0,8.466-3.51,8.466-7.845C728.939,221.303,725.844,217.896,720.787,217.896z M673.296,285.658h-1.306
				c-0.819-2.813-19.704-62.52-19.704-62.52h-15.185l26.738,80.141l17.235-0.154l27.087-79.986h-15.843
				C692.319,223.139,673.75,283.486,673.296,285.658z M766.405,266.627c-7.243-2.535-12.245-5.394-12.245-8.293
				c0-2.898,1.009-5.416,7.592-5.416c4.953,0,11.79,0.992,15.742,4.088l5.138-10.679c-3.623-1.811-13.072-4.916-19.952-4.916
				c-14.61,0-24.383,4.452-24.264,18.972c-0.066,7.004,6.353,12.703,19.493,17.868c6.631,2.647,10.336,4.919,10.336,8.06
				c0,3.018-1.821,6.947-9.612,6.475c-5.424-0.324-17.024-2.646-20.408-4.699l-0.083,12.572c4.469,2.414,12.765,3.639,20.491,3.639
				c16.903,0,25.004-8.33,25.004-19.438C783.518,276.289,777.636,270.492,766.405,266.627z M713.309,303.248h15.125v-60.865h-15.125
				V303.248z M792.47,303.248h15.124v-60.865H792.47V303.248z M847.38,241.225c-17.808,0-29.53,12.4-29.53,31.924
				c0,19.4,12.399,30.943,28.516,30.943c14.766,0,29.078-10.069,29.078-32.049C875.443,253.871,864.172,241.225,847.38,241.225z
				 M846.846,291.627c-8.709,0-13.399-8.129-13.399-18.969c0-9.295,3.753-18.973,13.399-18.973c9.246,0,13,9.553,13,18.843
				C859.846,284.014,854.886,291.627,846.846,291.627z M918.516,241.227c-9.508,0-16.012,6.602-18.33,10.313h-0.348l-2.954-9.368
				l-12.335,0.331c0.233,5.101,0.465,14.641,0.465,21.712v38.6h16.3v-36.647c0-1.622,0.116-3.245,0.579-4.403
				c1.277-3.247,3.353-8.092,10.363-8.092c8.794,0,12.386,4.92,12.386,12.225v36.918h16.304v-38.779
				C940.945,247.345,930.108,241.227,918.516,241.227z M799.947,217.896c-5.059,0-8.36,3.407-8.36,7.845
				c0,4.334,3.199,7.845,8.155,7.845c5.265,0,8.462-3.51,8.462-7.845C808.103,221.303,805.007,217.896,799.947,217.896z"/>
		</g>
	</g>
	<g>
		<g>
			<path fill="#37A3DC" d="M449.811,316.521h-1.902v4.684h-2.718v1.602h2.718v10.658c-0.029,2.656,0.844,3.504,3.383,3.504
				c0.573,0,1.116-0.063,1.692-0.063v-1.629c-0.546,0.059-1.089,0.09-1.632,0.09c-1.359-0.09-1.541-0.814-1.541-2.051v-10.51h3.173
				v-1.602h-3.173V316.521z M463.941,320.752c-2.202,0-4.287,1.266-4.98,3.141H458.9v-8.666h-1.903v21.559h1.903v-9.086
				c0.062-3.051,1.873-5.348,4.893-5.348c3.08,0,3.956,2.025,3.956,4.711v9.723h1.902v-10.023
				C469.651,323.049,468.322,320.752,463.941,320.752z M481.13,320.752c-4.951,0-7.035,4.137-7.035,8.244
				c0,4.439,2.084,8.242,7.035,8.242c3.926,0,5.981-2.053,6.795-5.584h-1.902c-0.604,2.355-2.115,3.986-4.893,3.986
				c-3.653,0-5.101-3.355-5.132-6.129h11.988C488.138,325.129,486.145,320.752,481.13,320.752z M475.999,327.908
				c0.301-2.84,2.021-5.557,5.132-5.557c3.082,0,4.863,2.688,4.954,5.557H475.999z M509.486,320.752
				c-2.205,0-4.288,1.266-4.981,3.141h-0.061v-2.688h-1.902v15.58h1.902v-9.086c0.061-3.051,1.871-5.348,4.893-5.348
				c3.081,0,3.956,2.025,3.956,4.711v9.723h1.901v-10.023C515.194,323.049,513.866,320.752,509.486,320.752z M526.676,320.752
				c-4.951,0-7.035,4.137-7.035,8.244c0,4.439,2.084,8.242,7.035,8.242c3.924,0,5.979-2.053,6.793-5.584h-1.899
				c-0.605,2.355-2.117,3.986-4.894,3.986c-3.653,0-5.104-3.355-5.135-6.129h11.988C533.68,325.129,531.689,320.752,526.676,320.752
				z M521.541,327.908c0.305-2.84,2.023-5.557,5.135-5.557c3.08,0,4.862,2.688,4.951,5.557H521.541z M551.761,334.553H551.7
				l-3.804-13.348h-2.147l-3.804,13.348h-0.061l-3.986-13.348h-2.022l5.014,15.58h2.085l3.803-13.104h0.061l3.838,13.104h2.082
				l5.012-15.58h-2.022L551.761,334.553z M618.92,320.752c-4.953,0-7.034,4.137-7.034,8.244c0,4.439,2.081,8.242,7.034,8.242
				c3.928,0,5.979-2.053,6.794-5.584h-1.904c-0.6,2.355-2.113,3.986-4.89,3.986c-3.654,0-5.102-3.355-5.135-6.129h11.991
				C625.927,325.129,623.933,320.752,618.92,320.752z M613.785,327.908c0.302-2.84,2.024-5.557,5.135-5.557
				c3.082,0,4.861,2.688,4.95,5.557H613.785z M635.044,334.49l-5.131-13.285h-2.024l6.219,15.521l-0.661,1.781
				c-0.636,1.449-1.027,2.447-2.719,2.447c-0.424,0-0.846-0.063-1.299-0.152v1.6c0.301,0.123,0.691,0.123,1.448,0.154
				c2.386,0,3.022-0.756,4.107-3.385l6.766-17.967h-1.903L635.044,334.49z M651.043,320.752c-4.951,0-7.035,4.137-7.035,8.244
				c0,4.439,2.084,8.242,7.035,8.242c3.929,0,5.98-2.053,6.797-5.584h-1.905c-0.603,2.355-2.112,3.986-4.892,3.986
				c-3.653,0-5.104-3.355-5.133-6.129h11.988C658.05,325.129,656.058,320.752,651.043,320.752z M645.91,327.908
				c0.303-2.84,2.023-5.557,5.133-5.557c3.081,0,4.862,2.688,4.954,5.557H645.91z M679.068,335.641
				c-3.656,0-5.467-3.322-5.467-6.645c0-3.32,1.811-6.645,5.467-6.645c2.476,0,3.896,1.42,4.408,3.746h1.902
				c-0.422-3.563-2.991-5.346-6.311-5.346c-4.771,0-7.369,3.773-7.369,8.244c0,4.469,2.599,8.242,7.369,8.242
				c3.471,0,5.917-2.291,6.432-6.035h-1.902C683.356,333.797,681.423,335.641,679.068,335.641z M701.484,334.041v-8.275
				c0-4.168-2.989-5.014-5.737-5.014c-3.563,0-6.129,1.57-6.311,5.225h1.902c0.063-2.537,1.813-3.625,4.17-3.625
				c2.234,0,4.074,0.637,4.074,3.203c0,1.721-0.875,1.93-2.443,2.113c-4.108,0.482-8.368,0.631-8.368,5.012
				c0,3.143,2.357,4.559,5.226,4.559c2.989,0,4.349-1.146,5.679-3.168h0.059c0,1.631,0.304,2.715,2.234,2.715
				c0.513,0,0.814-0.027,1.237-0.119v-1.6c-0.148,0.057-0.394,0.119-0.602,0.119C701.851,335.186,701.484,334.764,701.484,334.041z
				 M699.583,330.748c0.031,3.049-2.536,4.893-5.434,4.893c-1.781,0-3.474-1.18-3.474-3.082c0-3.047,4.016-3.02,7.248-3.594
				c0.512-0.09,1.359-0.24,1.601-0.693h0.059V330.748z M708.521,324.861h-0.06v-3.656h-1.754v15.58h1.908v-8.303
				c0-3.23,2.352-5.768,5.793-5.588v-1.898C711.603,320.875,709.488,322.352,708.521,324.861z M723.488,320.752
				c-4.955,0-7.037,4.137-7.037,8.244c0,4.439,2.082,8.242,7.037,8.242c3.927,0,5.979-2.053,6.795-5.584h-1.901
				c-0.605,2.355-2.118,3.986-4.894,3.986c-3.656,0-5.104-3.355-5.134-6.129h11.989C730.493,325.129,728.5,320.752,723.488,320.752z
				 M718.354,327.908c0.3-2.84,2.022-5.557,5.134-5.557c3.081,0,4.862,2.688,4.951,5.557H718.354z M750.573,320.752
				c-4.95,0-7.033,4.137-7.033,8.244c0,4.439,2.083,8.242,7.033,8.242c3.927,0,5.98-2.053,6.795-5.584h-1.901
				c-0.605,2.355-2.114,3.986-4.894,3.986c-3.653,0-5.103-3.355-5.132-6.129h11.987C757.58,325.129,755.587,320.752,750.573,320.752
				z M745.441,327.908c0.302-2.84,2.023-5.557,5.132-5.557c3.081,0,4.864,2.688,4.954,5.557H745.441z M768.09,335.641
				c-3.654,0-5.467-3.322-5.467-6.645c0-3.32,1.813-6.645,5.467-6.645c2.478,0,3.895,1.42,4.408,3.746h1.903
				c-0.424-3.563-2.992-5.346-6.312-5.346c-4.771,0-7.369,3.773-7.369,8.244c0,4.469,2.599,8.242,7.369,8.242
				c3.471,0,5.919-2.291,6.429-6.035h-1.899C772.378,333.797,770.446,335.641,768.09,335.641z M785.145,320.752
				c-4.771,0-7.368,3.773-7.368,8.244c0,4.469,2.598,8.242,7.368,8.242c4.771,0,7.366-3.773,7.366-8.242
				C792.511,324.525,789.916,320.752,785.145,320.752z M785.145,335.641c-3.652,0-5.467-3.322-5.467-6.645
				c0-3.32,1.814-6.645,5.467-6.645c3.654,0,5.467,3.324,5.467,6.645C790.611,332.318,788.799,335.641,785.145,335.641z
				 M803.967,328.24l-2.538-0.572c-1.297-0.332-3.229-0.936-3.229-2.629c0-2.023,1.993-2.688,3.684-2.688
				c2.174,0,3.986,1.057,4.079,3.414h1.9c-0.119-3.385-2.598-5.014-5.706-5.014c-2.748,0-5.857,1.207-5.857,4.377
				c0,2.658,1.869,3.504,4.347,4.168l2.446,0.545c1.721,0.424,3.408,1.025,3.408,2.838c0,2.174-2.471,2.961-4.254,2.961
				c-2.538,0-4.438-1.33-4.59-3.896h-1.902c0.302,3.805,2.779,5.494,6.402,5.494c2.897,0,6.25-1.297,6.25-4.68
				C808.406,329.842,806.141,328.574,803.967,328.24z M817.585,334.49l-5.132-13.285h-2.025l6.225,15.521l-0.668,1.781
				c-0.633,1.449-1.022,2.447-2.717,2.447c-0.421,0-0.846-0.063-1.298-0.152v1.6c0.301,0.123,0.693,0.123,1.448,0.154
				c2.388,0,3.021-0.756,4.109-3.385l6.763-17.967h-1.903L817.585,334.49z M834.637,328.24l-2.538-0.572
				c-1.298-0.332-3.229-0.936-3.229-2.629c0-2.023,1.991-2.688,3.681-2.688c2.176,0,3.988,1.057,4.08,3.414h1.901
				c-0.12-3.385-2.597-5.014-5.708-5.014c-2.747,0-5.856,1.207-5.856,4.377c0,2.658,1.871,3.504,4.346,4.168l2.449,0.545
				c1.719,0.424,3.412,1.025,3.412,2.838c0,2.174-2.479,2.961-4.259,2.961c-2.538,0-4.441-1.33-4.592-3.896h-1.901
				c0.301,3.805,2.777,5.494,6.401,5.494c2.9,0,6.251-1.297,6.251-4.68C839.074,329.842,836.811,328.574,834.637,328.24z
				 M846.058,316.521h-1.905v4.684h-2.716v1.602h2.716v10.658c-0.03,2.656,0.847,3.504,3.383,3.504c0.574,0,1.118-0.063,1.691-0.063
				v-1.629c-0.542,0.059-1.088,0.09-1.631,0.09c-1.357-0.09-1.538-0.814-1.538-2.051v-10.51h3.169v-1.602h-3.169V316.521z
				 M858.787,320.752c-4.951,0-7.036,4.137-7.036,8.244c0,4.439,2.085,8.242,7.036,8.242c3.929,0,5.98-2.053,6.795-5.584h-1.902
				c-0.604,2.355-2.115,3.986-4.893,3.986c-3.654,0-5.103-3.355-5.136-6.129h11.991
				C865.794,325.129,863.799,320.752,858.787,320.752z M853.651,327.908c0.304-2.84,2.026-5.557,5.136-5.557
				c3.08,0,4.861,2.688,4.951,5.557H853.651z M886.062,320.752c-2.054,0-4.014,0.996-4.951,3.049
				c-0.573-2.053-2.42-3.049-4.471-3.049c-2.477,0-4.107,1.207-5.104,3.08h-0.09v-2.627h-1.751v15.58h1.902v-8.691
				c0.031-3.264,1.357-5.742,4.647-5.742c2.417,0,3.295,1.752,3.264,3.867v10.566h1.903v-8.814c0-2.902,0.936-5.619,4.226-5.619
				c2.722,0,3.684,1.389,3.684,3.959v10.475h1.905v-10.566C891.226,322.535,889.473,320.752,886.062,320.752z"/>
		</g>
	</g>
</g>
</svg>
