<?xml version="1.0" encoding="utf-8"?>
<!-- Generator: Adobe Illustrator 17.0.0, SVG Export Plug-In . SVG Version: 6.00 Build 0)  -->
<!DOCTYPE svg PUBLIC "-//W3C//DTD SVG 1.1//EN" "http://www.w3.org/Graphics/SVG/1.1/DTD/svg11.dtd">
<svg version="1.1" id="Layer_1" xmlns="http://www.w3.org/2000/svg" xmlns:xlink="http://www.w3.org/1999/xlink" x="0px" y="0px"
	 width="104.415px" height="65.846px" viewBox="0 0 104.415 65.846" enable-background="new 0 0 104.415 65.846"
	 xml:space="preserve">
<g>
	<path fill="#FFFFFF" d="M103.884,34.041l0.531,0.041l-0.203-4.63l-0.091-0.125c-0.121-0.168-0.281-0.328-0.462-0.478l0.185,0.019
		l0.032-0.537c0.008-0.129,0.033-1.322-1.395-3.581c-1.472-2.328-7.314-3.883-7.532-3.939c-2.129-0.697-5.74-1.981-6.369-2.458
		l-0.175-0.134c-0.955-0.735-2.555-1.965-5.84-2.249c-0.905-0.078-1.719-0.266-2.468-0.512C74.267,6.183,63.949,0,52.208,0
		C40.467,0,30.148,6.183,24.319,15.459c-0.749,0.246-1.563,0.434-2.468,0.512c-3.286,0.284-4.885,1.514-5.84,2.249l-0.175,0.134
		c-0.628,0.477-4.24,1.761-6.339,2.449c-0.248,0.065-6.09,1.62-7.561,3.948c-1.428,2.259-1.403,3.452-1.395,3.581l0.032,0.537
		l0.185-0.019c-0.181,0.151-0.34,0.311-0.462,0.478l-0.09,0.125L0,34.082l0.531-0.041c-0.157,0.162-0.303,0.341-0.427,0.537
		l-0.079,0.126v5.114l0.517-0.04c-0.114,0.119-0.219,0.247-0.307,0.385L0.17,40.265l-0.013,0.121c-0.011,0.103-0.26,2.54,0.52,4.724
		l0.136,0.38l1.047-0.11l-0.875,0.678l0.004,0.256c0.002,0.13,0.063,3.208,1.537,5.182l0.172,0.23l0.794-0.073l-0.794,0.465
		l0.204,0.426c0.078,0.165,1.927,3.938,5.879,3.938c0.092-0.001,0.186-0.003,0.281-0.007c3.242-0.144,13.57-2.537,17.144-3.384
		c6.029,7.755,15.441,12.756,26.002,12.756c10.561,0,19.973-5.001,26.002-12.756c3.574,0.847,13.902,3.24,17.143,3.384
		c0.095,0.004,0.188,0.007,0.281,0.006c3.952,0,5.801-3.773,5.879-3.938l0.204-0.426l-0.794-0.465l0.794,0.073l0.172-0.23
		c1.475-1.974,1.535-5.052,1.537-5.182l0.004-0.256l-0.874-0.678l1.048,0.11l0.135-0.38c0.78-2.184,0.53-4.621,0.519-4.724
		l-0.013-0.121l-0.066-0.102c-0.088-0.138-0.193-0.266-0.307-0.385l0.517,0.04v-5.114l-0.079-0.125
		C104.187,34.381,104.041,34.202,103.884,34.041z M80.609,52.596c-2.714-2.749-5.357-6.455-6.164-7.616
		C74.642,44.993,74.838,45,75.034,45c0.003,0,0.006,0,0.009,0c0.63,0.813,4.73,6.012,8.208,8.176
		c-0.004,0.006-0.008,0.012-0.013,0.019C82.292,52.982,81.402,52.779,80.609,52.596z M73.136,52.349
		c-1.808-3.313-3.445-7.844-4.037-9.552c0.194,0.158,0.392,0.307,0.594,0.448c0.282,0.584,2.635,5.364,6.058,9.753
		C75.132,52.827,74.218,52.589,73.136,52.349z M52.203,57.52c-0.193,0-5.079,0.01-9.286,0.828c-0.842,0.163-1.525,0.176-2.009,0.051
		c0.473-0.09,1.07-0.269,1.818-0.596c2.059-0.899,7.777-0.969,9.481-0.969s7.421,0.07,9.481,0.969
		c0.749,0.327,1.346,0.506,1.819,0.596c-0.484,0.126-1.167,0.112-2.01-0.051c-4.26-0.829-9.201-0.829-9.288-0.828l0,0
		C52.208,57.52,52.206,57.52,52.203,57.52z M28.664,52.998c3.423-4.389,5.776-9.169,6.058-9.753c0.202-0.142,0.4-0.291,0.594-0.448
		c-0.592,1.708-2.228,6.238-4.036,9.551C30.197,52.588,29.283,52.827,28.664,52.998z M21.178,53.194
		c-0.005-0.006-0.009-0.013-0.013-0.019c3.478-2.164,7.578-7.362,8.208-8.175c0.003,0,0.006,0,0.009,0
		c0.196,0,0.392-0.007,0.588-0.021c-0.807,1.161-3.449,4.867-6.163,7.616C23.014,52.779,22.123,52.982,21.178,53.194z
		 M20.213,18.017c0.369,0.036,0.732,0.06,1.08,0.06c0.183,0,0.363-0.005,0.541-0.014c-1.414,0.704-2.598,1.516-3.519,2.247
		C19.02,19.337,19.69,18.566,20.213,18.017z M17.242,21.931c1.115-1.066,3.403-2.98,6.477-4.132l-0.001-0.002
		c1.784-0.413,3.146-1.191,4.037-1.703l0.271-0.155c1.021-0.577,1.829-1.031,3.645-0.626c-6.276,1.802-12.304,5.634-14.89,7.411
		C16.934,22.45,17.087,22.187,17.242,21.931z M16.268,23.712c1.911-1.369,9.078-6.262,16.373-8.13c0.28,0.091,0.584,0.2,0.907,0.325
		c-5.236,1.813-14.857,7.239-17.791,8.922C15.922,24.444,16.092,24.071,16.268,23.712z M15.594,25.22
		c2.568-1.48,13.03-7.423,18.345-9.172c0.168,0.061,0.337,0.122,0.505,0.169c-6.127,2.266-16.026,7.89-19.106,9.673
		C15.421,25.664,15.505,25.439,15.594,25.22z M14.561,28.497c0.317-0.223,0.797-0.557,1.399-0.964
		c0.545-0.376,1.189-0.8,1.881-1.253c0.687-0.462,1.442-0.917,2.186-1.392c0.372-0.238,0.756-0.454,1.128-0.679
		c0.374-0.222,0.741-0.44,1.097-0.651c0.726-0.396,1.404-0.766,1.985-1.083c0.594-0.292,1.095-0.522,1.444-0.689
		c0.349-0.166,0.549-0.26,0.549-0.26s-0.203,0.087-0.558,0.24c-0.354,0.155-0.865,0.367-1.471,0.638
		c-0.594,0.296-1.286,0.642-2.028,1.013c-0.364,0.199-0.74,0.404-1.122,0.612c-0.381,0.211-0.775,0.414-1.156,0.639
		c-0.762,0.449-1.537,0.878-2.242,1.316c-0.71,0.429-1.372,0.831-1.932,1.188c-0.379,0.237-0.708,0.446-0.986,0.624
		c0.104-0.387,0.21-0.773,0.335-1.155c2.337-1.364,13.977-8.072,20.346-10.223c0.125,0.018,0.251,0.037,0.375,0.049
		c-0.177,0.081-0.369,0.168-0.58,0.264c-0.484,0.22-1.049,0.477-1.653,0.752c-0.596,0.297-1.232,0.613-1.868,0.93
		c-2.537,1.268-5.074,2.536-5.074,2.536s2.59-1.151,5.179-2.302c0.647-0.286,1.294-0.573,1.9-0.841
		c0.617-0.247,1.192-0.478,1.686-0.676c0.821-0.329,1.408-0.565,1.584-0.635c0.084-0.004,0.164-0.013,0.246-0.019
		c-1.519,1.178-5.388,3.99-10.315,6.176c-5.15,2.285-10.645,6.066-12.653,7.498C14.329,29.593,14.434,29.043,14.561,28.497z
		 M13.981,32.872c0.062-0.051,0.131-0.107,0.211-0.17c0.328-0.273,0.816-0.647,1.402-1.094c0.289-0.229,0.621-0.453,0.962-0.703
		c0.346-0.243,0.699-0.517,1.085-0.769c0.383-0.257,0.78-0.522,1.183-0.792c0.399-0.276,0.819-0.533,1.24-0.789
		c0.42-0.258,0.84-0.516,1.253-0.769c0.41-0.261,0.838-0.473,1.239-0.703c0.404-0.224,0.795-0.44,1.166-0.645
		c0.367-0.213,0.728-0.386,1.061-0.547c1.331-0.648,2.219-1.08,2.219-1.08s-0.901,0.403-2.254,1.008
		c-0.339,0.149-0.707,0.312-1.081,0.513c-0.378,0.193-0.777,0.397-1.189,0.608c-0.409,0.217-0.846,0.416-1.265,0.664
		c-0.423,0.241-0.852,0.486-1.282,0.731c-0.431,0.243-0.861,0.488-1.27,0.752c-0.413,0.258-0.82,0.511-1.214,0.757
		c-0.397,0.241-0.761,0.504-1.117,0.737c-0.351,0.24-0.692,0.455-0.991,0.676c-0.531,0.379-0.977,0.699-1.313,0.954
		c0.028-0.456,0.067-0.91,0.122-1.36c1.545-1.119,7.454-5.289,12.958-7.731c6.021-2.671,10.5-6.285,11.08-6.763
		c0.904-0.158,1.667-0.415,2.182-0.621c-0.012,0.021-0.024,0.042-0.036,0.063c-0.116,0.12-0.537,0.552-1.153,1.132
		c-0.359,0.349-0.794,0.74-1.262,1.157c-0.459,0.428-0.989,0.835-1.498,1.27c-0.254,0.218-0.53,0.406-0.791,0.608
		c-0.263,0.198-0.522,0.393-0.773,0.581c-0.526,0.341-1.017,0.66-1.438,0.933c-0.441,0.237-0.818,0.419-1.079,0.555
		c-0.262,0.133-0.411,0.209-0.411,0.209s0.153-0.069,0.42-0.189c0.266-0.123,0.653-0.288,1.109-0.505
		c0.436-0.254,0.944-0.551,1.489-0.869c0.261-0.177,0.53-0.36,0.804-0.546c0.271-0.19,0.559-0.367,0.825-0.573
		c0.532-0.411,1.086-0.798,1.568-1.205c0.483-0.391,0.933-0.758,1.308-1.088c-1.489,2.347-3.185,4.46-3.543,4.899
		c-4.366,0.363-8.466,2.617-10.917,5.107c-0.539,0.211-6.494,2.603-11.008,6.756C13.976,33.642,13.968,33.255,13.981,32.872z
		 M41.859,14.218c-0.096,4.01-0.941,22.134-8.305,26.563c-2.415,1.453-5.344,1.286-8.705-0.496c-0.372-0.416-0.704-0.875-0.993-1.37
		c-0.015-0.032-0.054-0.115-0.113-0.264c-0.069-0.187-0.167-0.458-0.249-0.795c-0.083-0.337-0.164-0.737-0.207-1.173
		c-0.028-0.217-0.039-0.443-0.048-0.674c-0.016-0.23,0.001-0.465,0-0.7c0.01-0.234,0.034-0.469,0.051-0.7
		c0.033-0.23,0.066-0.456,0.098-0.675c0.046-0.217,0.091-0.426,0.134-0.625c0.04-0.2,0.106-0.381,0.152-0.553
		c0.09-0.345,0.206-0.619,0.275-0.815c0.072-0.195,0.113-0.307,0.113-0.307s-0.049,0.109-0.134,0.299
		c-0.083,0.191-0.217,0.458-0.331,0.798c-0.058,0.169-0.136,0.348-0.191,0.547c-0.057,0.198-0.116,0.407-0.178,0.623
		c-0.047,0.22-0.096,0.448-0.146,0.679c-0.033,0.234-0.073,0.472-0.1,0.711c-0.015,0.24-0.049,0.481-0.049,0.719
		c-0.006,0.232-0.01,0.461,0.002,0.682c-0.595-2.221-0.358-4.639,0.696-6.75c1.226-2.455,4.633-5.213,8.733-6.53
		c-0.268,0.133-0.54,0.273-0.813,0.435c-0.389,0.206-0.763,0.466-1.151,0.713c-0.384,0.254-0.751,0.547-1.129,0.821
		c-0.355,0.304-0.719,0.598-1.061,0.905c-0.329,0.32-0.653,0.635-0.967,0.939c-0.293,0.324-0.577,0.637-0.845,0.933
		c-0.264,0.3-0.487,0.607-0.706,0.878c-0.216,0.274-0.418,0.521-0.571,0.761c-0.16,0.234-0.299,0.438-0.414,0.605
		c-0.229,0.335-0.36,0.527-0.36,0.527s0.138-0.187,0.379-0.514c0.12-0.163,0.266-0.362,0.434-0.59
		c0.16-0.233,0.371-0.473,0.596-0.738c0.228-0.262,0.46-0.56,0.733-0.849c0.277-0.285,0.569-0.586,0.871-0.898
		c0.321-0.291,0.653-0.592,0.99-0.897c0.348-0.292,0.718-0.57,1.078-0.857c0.383-0.257,0.754-0.532,1.14-0.769
		c0.39-0.23,0.765-0.472,1.154-0.661c0.378-0.207,0.757-0.38,1.118-0.538c0.359-0.161,0.711-0.287,1.032-0.406
		c0.649-0.226,1.202-0.362,1.59-0.446c0.194-0.035,0.348-0.066,0.447-0.077c0.099-0.013,0.151-0.019,0.156-0.02l0.101-0.008
		l0.07-0.084c0.1-0.12,1.527-1.85,2.979-4.002c0.014,0.198,0.025,0.429,0.023,0.699c0,0.299,0.014,0.637,0.003,1.006
		c-0.016,0.369-0.034,0.769-0.053,1.193c-0.008,0.424-0.067,0.868-0.112,1.329c-0.05,0.46-0.09,0.938-0.152,1.42
		c-0.078,0.481-0.157,0.969-0.236,1.457c-0.089,0.487-0.137,0.982-0.258,1.454c-0.107,0.476-0.212,0.944-0.314,1.397
		c-0.102,0.453-0.2,0.892-0.294,1.307c-0.118,0.409-0.229,0.796-0.332,1.154c-0.414,1.43-0.69,2.383-0.69,2.383
		s0.307-0.944,0.767-2.36c0.114-0.355,0.238-0.739,0.37-1.145c0.107-0.413,0.22-0.849,0.337-1.3c0.117-0.451,0.237-0.918,0.36-1.391
		c0.136-0.471,0.201-0.966,0.306-1.452c0.096-0.489,0.191-0.977,0.285-1.458c0.078-0.484,0.134-0.964,0.199-1.426
		c0.06-0.464,0.134-0.91,0.156-1.339c0.033-0.428,0.064-0.833,0.093-1.206c0.024-0.374,0.02-0.719,0.03-1.024
		c0.012-0.304,0.008-0.573-0.003-0.796c-0.006-0.295-0.018-0.491-0.026-0.598c0.251-0.388,0.499-0.783,0.737-1.183
		c-0.024,0.51-0.064,1.176-0.128,1.967c-0.053,0.909-0.186,1.963-0.296,3.096c-0.059,0.566-0.154,1.147-0.233,1.739
		c-0.088,0.591-0.153,1.196-0.263,1.793c-0.111,0.597-0.221,1.194-0.33,1.782c-0.11,0.588-0.205,1.17-0.354,1.719
		c-0.135,0.553-0.266,1.088-0.391,1.595c-0.135,0.504-0.217,0.995-0.375,1.423c-0.565,1.735-0.942,2.891-0.942,2.891
		s0.408-1.147,1.019-2.868c0.17-0.426,0.264-0.913,0.413-1.415c0.138-0.505,0.283-1.038,0.434-1.589
		c0.164-0.548,0.274-1.128,0.401-1.715c0.125-0.587,0.251-1.183,0.378-1.78c0.127-0.597,0.207-1.201,0.312-1.792
		c0.094-0.593,0.205-1.174,0.279-1.74c0.14-1.134,0.302-2.191,0.379-3.103c0.098-0.91,0.162-1.671,0.198-2.206
		c0.033-0.401,0.047-0.671,0.053-0.781c0.249-0.461,0.476-0.918,0.672-1.364C41.714,14.306,41.785,14.262,41.859,14.218z
		 M52.208,9.525c0.225,0.005,3.661,0.076,5.584-0.378c0.752-0.177,1.192-0.202,1.509-0.005c-0.811,0.378-2.809,1.014-7.093,1.014
		c-4.285,0-6.283-0.636-7.093-1.014c0.317-0.198,0.757-0.173,1.509,0.005C48.547,9.601,51.983,9.53,52.208,9.525z M62.78,14.353
		c0.196,0.445,0.422,0.901,0.67,1.361c0.005,0.11,0.02,0.38,0.053,0.782c0.035,0.535,0.1,1.296,0.198,2.206
		c0.077,0.912,0.239,1.968,0.379,3.103c0.074,0.567,0.185,1.148,0.279,1.74c0.104,0.591,0.185,1.196,0.312,1.792
		c0.127,0.596,0.253,1.193,0.378,1.78c0.126,0.586,0.236,1.166,0.401,1.715c0.15,0.551,0.296,1.084,0.434,1.589
		c0.149,0.502,0.243,0.99,0.413,1.415c0.611,1.721,1.019,2.868,1.019,2.868s-0.377-1.157-0.942-2.891
		c-0.158-0.428-0.24-0.919-0.375-1.423c-0.124-0.507-0.255-1.042-0.391-1.595c-0.149-0.55-0.244-1.132-0.354-1.719
		c-0.109-0.588-0.219-1.185-0.33-1.782c-0.111-0.597-0.175-1.202-0.263-1.793c-0.078-0.593-0.173-1.173-0.232-1.739
		c-0.11-1.133-0.243-2.187-0.296-3.096c-0.064-0.791-0.105-1.457-0.128-1.967c0.238,0.4,0.486,0.795,0.737,1.183
		c-0.008,0.107-0.021,0.303-0.026,0.598c-0.011,0.223-0.014,0.492-0.003,0.796c0.01,0.305,0.006,0.65,0.03,1.024
		c0.029,0.374,0.06,0.778,0.093,1.206c0.022,0.429,0.097,0.875,0.156,1.339c0.065,0.463,0.121,0.943,0.199,1.426
		c0.094,0.481,0.19,0.97,0.285,1.458c0.105,0.486,0.17,0.981,0.306,1.452c0.123,0.474,0.243,0.94,0.36,1.391
		c0.117,0.451,0.23,0.887,0.337,1.3c0.131,0.406,0.255,0.79,0.37,1.145c0.46,1.416,0.767,2.36,0.767,2.36s-0.276-0.953-0.69-2.383
		c-0.103-0.357-0.214-0.744-0.332-1.154c-0.093-0.416-0.192-0.854-0.294-1.307c-0.102-0.453-0.207-0.921-0.314-1.397
		c-0.121-0.473-0.169-0.968-0.258-1.454c-0.079-0.488-0.158-0.976-0.236-1.457c-0.062-0.483-0.102-0.96-0.152-1.42
		c-0.044-0.461-0.104-0.905-0.112-1.329c-0.019-0.423-0.037-0.823-0.053-1.193c-0.012-0.369,0.003-0.707,0.003-1.006
		c-0.002-0.271,0.009-0.502,0.023-0.7c1.452,2.152,2.879,3.882,2.979,4.002l0.07,0.084l0.1,0.008
		c0.004,0.001,0.056,0.007,0.156,0.02c0.099,0.012,0.253,0.042,0.447,0.077c0.388,0.083,0.941,0.22,1.59,0.446
		c0.321,0.119,0.673,0.244,1.032,0.406c0.361,0.158,0.74,0.331,1.118,0.538c0.388,0.189,0.763,0.43,1.154,0.661
		c0.386,0.237,0.757,0.512,1.14,0.769c0.36,0.288,0.73,0.565,1.078,0.857c0.337,0.306,0.669,0.606,0.99,0.897
		c0.302,0.311,0.594,0.612,0.871,0.898c0.273,0.29,0.505,0.587,0.733,0.849c0.225,0.265,0.435,0.505,0.596,0.738
		c0.168,0.228,0.314,0.426,0.434,0.59c0.241,0.327,0.379,0.514,0.379,0.514s-0.131-0.192-0.36-0.527
		c-0.115-0.168-0.254-0.372-0.414-0.605c-0.153-0.239-0.355-0.487-0.571-0.761c-0.22-0.271-0.442-0.578-0.706-0.878
		c-0.269-0.297-0.552-0.61-0.845-0.933c-0.314-0.305-0.638-0.62-0.967-0.939c-0.341-0.307-0.705-0.601-1.06-0.905
		c-0.378-0.274-0.745-0.566-1.129-0.821c-0.389-0.248-0.762-0.507-1.151-0.713c-0.273-0.162-0.545-0.302-0.814-0.436
		c4.1,1.316,7.508,4.075,8.734,6.53c1.054,2.11,1.292,4.529,0.696,6.75c0.013-0.222,0.009-0.451,0.002-0.683
		c0.001-0.238-0.033-0.478-0.049-0.719c-0.027-0.239-0.068-0.477-0.1-0.711c-0.05-0.231-0.098-0.459-0.146-0.679
		c-0.062-0.216-0.121-0.425-0.178-0.623c-0.054-0.198-0.133-0.377-0.19-0.547c-0.114-0.34-0.248-0.607-0.331-0.798
		c-0.085-0.19-0.134-0.299-0.134-0.299s0.041,0.112,0.113,0.307c0.07,0.196,0.185,0.47,0.275,0.815
		c0.046,0.172,0.112,0.353,0.152,0.553c0.043,0.199,0.087,0.408,0.134,0.625c0.032,0.219,0.064,0.445,0.098,0.675
		c0.016,0.232,0.04,0.466,0.051,0.7c-0.001,0.235,0.017,0.469,0,0.7c-0.009,0.23-0.02,0.457-0.048,0.674
		c-0.042,0.436-0.124,0.836-0.207,1.173c-0.083,0.338-0.18,0.609-0.249,0.795c-0.062,0.157-0.102,0.24-0.115,0.267
		c-0.288,0.494-0.62,0.952-0.991,1.367c-3.36,1.782-6.29,1.949-8.705,0.496c-7.364-4.429-8.209-22.546-8.306-26.561
		C62.631,14.264,62.702,14.309,62.78,14.353z M90.253,36.631c-2.94-2.736-7.106-4.892-7.698-5.191
		c-0.022-0.046-0.039-0.095-0.062-0.141c-0.319-0.638-0.789-1.299-1.385-1.967c1.302,0.605,4.227,2.235,9.242,6.347
		C90.323,35.996,90.292,36.313,90.253,36.631z M78.123,43.84c-2.388,1.053-5.098,0.78-7.41-0.552c0.224,0.09,0.455,0.18,0.701,0.257
		c0.313,0.115,0.65,0.196,0.988,0.283c0.339,0.088,0.695,0.13,1.043,0.193c0.356,0.017,0.709,0.075,1.059,0.057
		c0.35-0.018,0.695-0.005,1.022-0.078c0.329-0.051,0.647-0.097,0.934-0.205c0.289-0.094,0.57-0.161,0.802-0.294
		c0.237-0.116,0.455-0.223,0.648-0.317c0.176-0.122,0.33-0.229,0.456-0.317c0.252-0.175,0.396-0.275,0.396-0.275
		s-0.148,0.093-0.408,0.257c-0.129,0.081-0.287,0.18-0.467,0.294c-0.195,0.085-0.415,0.18-0.655,0.284
		c-0.233,0.121-0.514,0.174-0.802,0.253c-0.285,0.093-0.599,0.123-0.922,0.158c-0.321,0.057-0.659,0.028-0.999,0.03
		c-0.34,0.002-0.683-0.071-1.026-0.102c-0.337-0.077-0.679-0.133-1.004-0.234c-0.326-0.1-0.647-0.192-0.946-0.318
		c-0.305-0.11-0.589-0.241-0.859-0.366c-0.049-0.022-0.094-0.046-0.141-0.069c1.052,0.411,2.155,0.633,3.26,0.633
		c1.113,0,2.227-0.222,3.287-0.688c0.333-0.147,0.65-0.321,0.958-0.509c0.002-0.001,0.013-0.006,0.013-0.006l-0.001-0.002
		c1.218-0.743,2.232-1.787,2.97-3.064l0,0l0.001-0.002c0.279-0.483,0.523-0.996,0.72-1.541c0.562-1.557,0.707-3.238,0.455-4.875
		c0.075,0.278,0.121,0.578,0.183,0.886c0.031,0.316,0.1,0.641,0.103,0.975c0.022,0.334,0.034,0.674,0.011,1.014
		c0.001,0.341-0.048,0.678-0.091,1.012c-0.027,0.336-0.128,0.653-0.192,0.967c-0.056,0.317-0.188,0.601-0.273,0.883
		c-0.083,0.284-0.208,0.533-0.317,0.767c-0.114,0.23-0.196,0.455-0.309,0.632c-0.108,0.179-0.203,0.336-0.281,0.465
		c-0.156,0.258-0.245,0.406-0.245,0.406s0.096-0.143,0.264-0.394c0.084-0.126,0.186-0.278,0.303-0.453
		c0.122-0.172,0.214-0.393,0.34-0.62c0.121-0.23,0.258-0.477,0.356-0.759c0.099-0.28,0.246-0.564,0.318-0.882
		c0.079-0.316,0.197-0.635,0.241-0.976c0.06-0.338,0.126-0.681,0.142-1.031c0.039-0.348,0.043-0.697,0.037-1.042
		c0.012-0.345-0.042-0.681-0.06-1.01c-0.019-0.124-0.035-0.245-0.052-0.365c0.547,1.913,0.503,3.957-0.167,5.815
		C81.707,41.232,80.15,42.947,78.123,43.84z M83.543,52.752c-3.087-1.912-6.806-6.444-7.87-7.784c0.285-0.022,0.568-0.058,0.85-0.11
		c0.612,0.803,4.039,5.204,7.303,7.484C83.733,52.479,83.638,52.616,83.543,52.752z M76.173,52.704
		c-2.748-3.52-4.804-7.3-5.637-8.923c0.531,0.3,1.082,0.547,1.646,0.738c0.53,0.954,2.777,4.904,4.874,7.252l-0.132,0.053
		C76.824,51.864,76.439,52.059,76.173,52.704z M83.53,35.052c1.149,0.763,4.294,2.921,6.122,4.839
		c-0.044,0.179-0.095,0.358-0.143,0.537c-2.238-2.629-5.209-4.491-5.957-4.938C83.547,35.343,83.542,35.198,83.53,35.052z
		 M89.794,39.299c-2.17-2.181-5.719-4.511-6.339-4.911c-0.109-0.746-0.297-1.483-0.571-2.196c1.4,0.749,4.854,2.712,7.283,5.067
		C90.068,37.935,89.947,38.615,89.794,39.299z M80.505,28.529c-0.09-0.122-0.191-0.245-0.29-0.367
		c2.016,0.889,6.642,3.15,10.203,6.557c-0.005,0.111-0.017,0.222-0.024,0.333C83.929,29.785,81.027,28.696,80.505,28.529z
		 M70.596,41.221c1.169,0.704,2.445,1.055,3.819,1.055c1.208,0,2.493-0.276,3.848-0.819c-0.151,0.108-0.31,0.206-0.469,0.303
		c-0.093,0.041-0.315,0.133-0.666,0.244c-0.469,0.151-1.158,0.327-2.003,0.419c-0.843,0.084-1.847,0.077-2.883-0.163
		c-0.515-0.123-1.044-0.286-1.547-0.529c-0.511-0.227-0.997-0.528-1.456-0.865c-0.223-0.177-0.455-0.344-0.658-0.544
		c-0.214-0.188-0.417-0.386-0.604-0.598c-0.198-0.201-0.375-0.418-0.545-0.637c-0.179-0.212-0.335-0.436-0.486-0.66
		c-0.158-0.219-0.302-0.441-0.429-0.668c-0.129-0.225-0.272-0.437-0.377-0.661c-0.23-0.439-0.438-0.859-0.602-1.26
		c-0.182-0.394-0.314-0.768-0.436-1.099c-0.128-0.328-0.223-0.62-0.295-0.863c-0.151-0.483-0.237-0.759-0.237-0.759
		s0.079,0.278,0.216,0.766c0.065,0.245,0.152,0.54,0.271,0.872c0.113,0.334,0.236,0.714,0.407,1.114
		c0.153,0.408,0.351,0.835,0.57,1.284c0.1,0.229,0.238,0.446,0.362,0.678c0.122,0.233,0.262,0.461,0.415,0.687
		c0.146,0.231,0.298,0.463,0.474,0.683c0.167,0.227,0.341,0.453,0.537,0.663c0.185,0.221,0.387,0.429,0.6,0.628
		c0.203,0.211,0.436,0.389,0.661,0.578c0.463,0.36,0.958,0.685,1.481,0.936c0.516,0.266,1.061,0.451,1.595,0.595
		c0.744,0.194,1.472,0.267,2.145,0.275c-2.543,0.167-5.136-0.916-7.064-2.918c-0.001-0.001-0.001-0.001-0.002-0.002l0,0
		c-0.843-0.875-1.56-1.923-2.088-3.121c-0.017-0.046-1.268-3.49-2.05-6.999c-0.58-6.56-1.155-12.693-1.562-16.318
		c0.148,0.119,0.317,0.243,0.495,0.367C62.075,17.19,62.662,36.449,70.596,41.221z M64.312,57.172l0.011,0.077
		c0,0.002,0.014,0.079,0.012,0.192c-0.312,0.02-0.989-0.035-2.235-0.579c-0.393-0.171-0.895-0.314-1.462-0.435
		c-0.018-0.011-0.034-0.021-0.053-0.033c-0.139-0.087-0.294-0.189-0.477-0.267c-0.179-0.085-0.373-0.177-0.579-0.274
		c-0.213-0.074-0.438-0.151-0.67-0.232c-0.231-0.085-0.471-0.163-0.723-0.212c-0.249-0.058-0.503-0.117-0.756-0.175
		c-0.504-0.124-1.026-0.152-1.503-0.228c-0.241-0.026-0.471-0.075-0.693-0.075c-0.222-0.01-0.431-0.019-0.625-0.027
		c-0.772-0.033-1.286-0.056-1.286-0.056s0.512,0.054,1.279,0.136c0.191,0.02,0.399,0.042,0.618,0.066
		c0.22,0.014,0.446,0.077,0.683,0.118c0.469,0.105,0.98,0.163,1.468,0.317c0.244,0.073,0.488,0.146,0.729,0.218
		c0.243,0.063,0.471,0.154,0.689,0.25c0.211,0.088,0.415,0.173,0.609,0.253c-2.483-0.347-5.582-0.397-7.139-0.397
		c-1.557,0-4.656,0.05-7.139,0.397c0.194-0.081,0.398-0.166,0.609-0.253c0.217-0.096,0.445-0.187,0.689-0.25
		c0.24-0.072,0.484-0.145,0.729-0.218c0.487-0.153,0.999-0.212,1.468-0.317c0.237-0.041,0.463-0.104,0.683-0.118
		c0.219-0.023,0.427-0.045,0.618-0.066c0.768-0.081,1.279-0.136,1.279-0.136s-0.515,0.022-1.286,0.056
		c-0.193,0.008-0.403,0.018-0.625,0.027c-0.223,0-0.453,0.049-0.693,0.075c-0.478,0.076-0.999,0.103-1.503,0.228
		c-0.253,0.059-0.507,0.118-0.756,0.175c-0.252,0.049-0.493,0.127-0.723,0.212c-0.232,0.08-0.457,0.158-0.67,0.232
		c-0.205,0.097-0.4,0.189-0.579,0.274c-0.183,0.078-0.338,0.179-0.477,0.267c-0.019,0.012-0.035,0.022-0.054,0.033
		c-0.567,0.121-1.069,0.264-1.462,0.435c-1.247,0.544-1.926,0.598-2.237,0.578c-0.001-0.11,0.013-0.185,0.014-0.191l0.011-0.077
		c0.006-0.097,0.013-0.203,0.02-0.313c0.669-0.594,4.132-3.274,12.085-3.274c7.904,0,11.406,2.681,12.084,3.275
		C64.299,56.969,64.306,57.075,64.312,57.172z M43.228,20.244c0.293-3.069,0.553-5.65,0.753-7.382
		C44.166,14.673,44.186,17.425,43.228,20.244z M43.136,21.221c1.555-3.756,1.261-7.549,0.971-9.393
		c0.042-0.331,0.081-0.607,0.114-0.818c0.199,0.186,0.443,0.39,0.747,0.603c-0.06,1.402-0.265,5.29-0.768,8.18
		c-0.469,1.565-0.947,3.226-1.381,4.848C42.926,23.457,43.033,22.313,43.136,21.221z M45.493,9.85
		c0.032,0.026,0.081,0.064,0.152,0.114c0.133,0.105,0.323,0.211,0.553,0.348c0.24,0.111,0.508,0.267,0.82,0.369
		c0.153,0.057,0.311,0.115,0.472,0.175c0.165,0.044,0.333,0.088,0.501,0.132c0.169,0.039,0.332,0.099,0.501,0.12
		c0.168,0.026,0.333,0.052,0.492,0.077c0.159,0.025,0.313,0.049,0.458,0.071c0.147,0.008,0.286,0.016,0.415,0.023
		c0.512,0.026,0.853,0.043,0.853,0.043s-0.337-0.049-0.844-0.123c-0.126-0.019-0.262-0.039-0.406-0.061
		c-0.141-0.036-0.29-0.074-0.445-0.113c-0.154-0.039-0.312-0.079-0.473-0.12c-0.162-0.036-0.316-0.11-0.476-0.163
		c-0.158-0.058-0.315-0.116-0.47-0.172c-0.148-0.072-0.294-0.142-0.435-0.21c-0.09-0.039-0.167-0.086-0.248-0.131
		c1.201,0.246,2.905,0.441,5.296,0.441c2.391,0,4.095-0.195,5.295-0.441c-0.081,0.045-0.158,0.092-0.248,0.131
		c-0.141,0.068-0.287,0.139-0.435,0.21c-0.155,0.057-0.313,0.115-0.47,0.172c-0.159,0.053-0.313,0.127-0.476,0.163
		c-0.161,0.041-0.32,0.081-0.473,0.12c-0.154,0.039-0.303,0.077-0.445,0.113c-0.144,0.022-0.281,0.042-0.406,0.061
		c-0.506,0.074-0.844,0.123-0.844,0.123s0.341-0.017,0.853-0.043c0.128-0.007,0.268-0.015,0.415-0.023
		c0.146-0.023,0.299-0.047,0.458-0.071c0.16-0.025,0.325-0.051,0.492-0.077c0.169-0.021,0.332-0.081,0.501-0.12
		c0.168-0.044,0.335-0.089,0.501-0.132c0.161-0.06,0.319-0.118,0.472-0.175c0.312-0.102,0.579-0.258,0.82-0.369
		c0.229-0.138,0.42-0.243,0.553-0.348c0.071-0.05,0.12-0.088,0.152-0.114c0.321-0.112,0.559-0.218,0.741-0.312
		c0.061,0.101,0.12,0.219,0.18,0.353c-0.534,0.625-2.612,2.588-7.635,2.588c-5.024,0-7.101-1.963-7.636-2.588
		c0.059-0.134,0.119-0.252,0.18-0.353C44.934,9.632,45.172,9.738,45.493,9.85z M56.388,12.995c0.604,1.516,2.524,6.496,3.49,10.85
		c-1.714-4.987-3.425-9.285-4.009-10.727C56.045,13.078,56.223,13.039,56.388,12.995z M60.482,25.634
		c-0.739-4.686-3.143-10.944-3.848-12.714c0.279-0.082,0.541-0.17,0.787-0.263c0.664,1.992,3.16,9.608,4.474,15.277
		c0.094,1.042,0.188,2.103,0.283,3.172C61.663,29.292,61.081,27.437,60.482,25.634z M59.198,11.776
		c0.055,1.225,0.201,3.887,0.511,6.346c-0.802-2.608-1.506-4.748-1.809-5.655C58.408,12.247,58.835,12.011,59.198,11.776z
		 M60.434,12.864c0.2,1.732,0.46,4.311,0.753,7.378C60.23,17.424,60.249,14.674,60.434,12.864z M60.309,11.829
		c-0.29,1.844-0.584,5.636,0.97,9.39c0.103,1.091,0.209,2.236,0.318,3.419c-0.434-1.622-0.913-3.283-1.382-4.849
		c-0.503-2.889-0.707-6.775-0.768-8.176c0.303-0.213,0.548-0.417,0.747-0.603C60.228,11.221,60.266,11.498,60.309,11.829z
		 M59.495,46.047c-1.792-5.858-4.367-12.294-4.802-13.37c0.193-0.199,0.362-0.422,0.503-0.662
		c3.541,5.558,4.417,12.202,4.601,14.112C59.701,46.088,59.6,46.063,59.495,46.047z M52.208,33.217
		c-1.629,0-2.955-1.325-2.955-2.955c0-1.629,1.325-2.955,2.955-2.955s2.955,1.325,2.955,2.955
		C55.162,31.891,53.837,33.217,52.208,33.217z M44.921,46.047c-0.105,0.016-0.207,0.04-0.302,0.079
		c0.185-1.91,1.06-8.554,4.601-14.112c0.142,0.241,0.31,0.464,0.504,0.663C49.288,33.753,46.713,40.189,44.921,46.047z
		 M55.455,31.469c0.14-0.376,0.221-0.782,0.221-1.206c0-1.829-1.424-3.328-3.221-3.456l-0.247-6.158l-0.247,6.158
		c-1.797,0.128-3.221,1.627-3.221,3.456c0,0.425,0.08,0.83,0.221,1.206c-1.978,3.012-3.167,6.365-3.876,9.153
		c1.295-9.791,5.866-18.84,6.644-20.327c0.149,0.058,0.31,0.093,0.48,0.093c0.169,0,0.33-0.035,0.479-0.093
		c0.779,1.486,5.351,10.535,6.645,20.33C58.623,37.836,57.434,34.482,55.455,31.469z M52.208,19.874
		c-0.445,0-0.807-0.362-0.807-0.807c0-0.445,0.362-0.807,0.807-0.807s0.807,0.362,0.807,0.807
		C53.015,19.512,52.653,19.874,52.208,19.874z M42.519,27.935c1.315-5.669,3.811-13.286,4.475-15.278
		c0.246,0.093,0.509,0.18,0.787,0.263c-0.704,1.771-3.108,8.028-3.847,12.714c-0.599,1.804-1.181,3.659-1.697,5.474
		C42.33,30.038,42.425,28.978,42.519,27.935z M46.515,12.467c-0.302,0.907-1.007,3.048-1.809,5.657
		c0.311-2.459,0.457-5.123,0.512-6.348C45.58,12.011,46.007,12.247,46.515,12.467z M48.028,12.995
		c0.165,0.045,0.343,0.084,0.519,0.124c-0.584,1.442-2.294,5.739-4.008,10.726C45.504,19.49,47.424,14.511,48.028,12.995z
		 M41.976,34.066c2.047-8.252,6.178-18.615,7.079-20.837c0.368,0.069,0.765,0.124,1.179,0.169c-0.47,1.138-1.569,3.9-2.716,7.484
		c-1.495,1.247-4.065,7.619-4.973,17.663c-0.475,5.254-1.196,8.066-1.751,9.538C41.129,43.956,41.546,39.003,41.976,34.066z
		 M40.677,49.531c0.591-0.956,1.723-3.667,2.38-10.94c0.766-8.469,2.684-14.049,4.028-16.321c-1.166,3.834-2.305,8.409-2.806,12.887
		c-1.092,9.763-1.904,14.251-3.789,16.723C40.549,51.144,40.611,50.358,40.677,49.531z M40.423,52.754
		c2.306-2.455,3.181-6.928,4.368-17.54c1.073-9.594,5.096-19.647,5.979-21.767c0.376,0.029,0.769,0.046,1.181,0.052v4.273
		c-0.606,0.12-1.064,0.655-1.064,1.295c0,0.373,0.157,0.709,0.407,0.95c-0.848,1.613-6.869,13.469-7.062,24.978l0.002,0
		c-0.109,0.814-0.154,1.366-0.167,1.562c-0.167,0.221-0.27,0.494-0.27,0.792c0,0.5,0.283,0.931,0.694,1.155
		c-0.404,0.792-1.86,3.423-4.14,5.209C40.373,53.406,40.398,53.086,40.423,52.754z M44.31,47.348c0-0.445,0.362-0.807,0.807-0.807
		s0.807,0.362,0.807,0.807s-0.362,0.807-0.807,0.807S44.31,47.794,44.31,47.348z M45.861,46.258
		c-0.123-0.084-0.263-0.144-0.411-0.183c1.707-5.554,4.103-11.597,4.683-13.04c0.215,0.161,0.447,0.3,0.697,0.409
		c-0.079,0.258-0.221,0.716-0.411,1.296c-0.146,0.458-0.326,0.989-0.522,1.557c-0.189,0.571-0.419,1.169-0.637,1.772
		c-0.222,0.602-0.47,1.193-0.689,1.753c-0.237,0.552-0.47,1.062-0.665,1.503c-0.099,0.22-0.21,0.41-0.298,0.585
		c-0.091,0.173-0.17,0.324-0.235,0.449c-0.13,0.249-0.205,0.392-0.205,0.392s0.081-0.138,0.224-0.38
		c0.071-0.121,0.158-0.268,0.257-0.437c0.097-0.17,0.218-0.357,0.328-0.571c0.216-0.431,0.476-0.931,0.741-1.473
		c0.247-0.55,0.526-1.131,0.778-1.723c0.248-0.594,0.509-1.183,0.728-1.745c0.226-0.56,0.433-1.084,0.602-1.536
		c0.218-0.569,0.383-1.02,0.476-1.277c0.093,0.025,0.187,0.047,0.283,0.065C49.632,39.967,46.586,45.086,45.861,46.258z
		 M53.402,45.554c0.689,1.354,2.775,5.167,5.626,7.762c-0.254-0.063-0.516-0.123-0.788-0.18c-2.565-2.346-4.672-6.303-5.123-7.184
		C53.236,45.839,53.332,45.704,53.402,45.554z M51.297,45.952c-0.451,0.881-2.558,4.838-5.123,7.184
		c-0.272,0.057-0.533,0.117-0.787,0.18c2.851-2.595,4.938-6.408,5.626-7.762C51.083,45.704,51.179,45.839,51.297,45.952z
		 M51.734,46.228c0.07,0.027,0.142,0.051,0.217,0.066v1.936c-0.996,2.14-2.702,3.839-3.47,4.536
		c-0.486,0.057-0.95,0.123-1.392,0.198C49.445,50.557,51.271,47.136,51.734,46.228z M51.951,49.339v3.222
		c-0.935,0.007-1.81,0.049-2.628,0.12C50.068,51.951,51.12,50.783,51.951,49.339z M52.465,49.339
		c0.83,1.443,1.883,2.612,2.627,3.342c-0.818-0.071-1.692-0.114-2.627-0.12V49.339z M55.935,52.766
		c-0.769-0.697-2.475-2.396-3.47-4.536v-1.936c0.075-0.015,0.147-0.039,0.217-0.066c0.463,0.908,2.289,4.329,4.645,6.736
		C56.884,52.889,56.421,52.823,55.935,52.766z M52.208,45.806c-0.445,0-0.807-0.362-0.807-0.807c0-0.445,0.362-0.807,0.807-0.807
		s0.807,0.362,0.807,0.807C53.015,45.444,52.653,45.806,52.208,45.806z M50.887,44.999c0,0.067,0.01,0.131,0.02,0.195
		c-0.538,1.089-2.855,5.534-6.071,8.265c-0.702,0.193-1.331,0.404-1.888,0.622c2.184-2.68,6.945-8.993,9.004-15.377v5
		C51.345,43.824,50.887,44.359,50.887,44.999z M59.58,53.459c-3.217-2.731-5.533-7.176-6.071-8.265
		c0.01-0.064,0.02-0.128,0.02-0.195c0-0.64-0.458-1.175-1.064-1.295v-4.999c2.058,6.384,6.819,12.697,9.003,15.377
		C60.91,53.863,60.282,53.652,59.58,53.459z M53.111,33.607c0.092,0.256,0.257,0.708,0.476,1.277
		c0.169,0.452,0.377,0.976,0.602,1.536c0.218,0.563,0.479,1.152,0.728,1.745c0.253,0.592,0.531,1.173,0.778,1.723
		c0.265,0.542,0.525,1.042,0.741,1.473c0.11,0.215,0.231,0.401,0.328,0.571c0.099,0.169,0.186,0.316,0.257,0.437
		c0.143,0.242,0.224,0.38,0.224,0.38s-0.075-0.142-0.205-0.392c-0.065-0.124-0.144-0.276-0.235-0.449
		c-0.088-0.175-0.199-0.365-0.298-0.585c-0.194-0.441-0.428-0.951-0.665-1.503c-0.219-0.56-0.467-1.152-0.689-1.753
		c-0.218-0.604-0.448-1.201-0.637-1.772c-0.197-0.568-0.377-1.099-0.522-1.557c-0.19-0.58-0.332-1.038-0.41-1.296
		c0.25-0.108,0.482-0.247,0.697-0.409c0.58,1.443,2.976,7.486,4.683,13.04c-0.148,0.039-0.288,0.099-0.411,0.183
		c-0.725-1.172-3.771-6.291-5.727-12.587C52.924,33.655,53.018,33.632,53.111,33.607z M59.299,46.541
		c0.445,0,0.807,0.362,0.807,0.807s-0.362,0.807-0.807,0.807c-0.445,0-0.807-0.362-0.807-0.807S58.854,46.541,59.299,46.541z
		 M60.62,47.348c0-0.299-0.103-0.571-0.271-0.793c-0.014-0.196-0.059-0.748-0.167-1.561l0.003,0
		c-0.194-11.509-6.215-23.365-7.063-24.978c0.25-0.24,0.407-0.576,0.407-0.95c0-0.64-0.458-1.175-1.064-1.295v-4.273
		c0.412-0.005,0.805-0.023,1.18-0.052c0.883,2.12,4.907,12.173,5.98,21.767c1.186,10.612,2.061,15.085,4.367,17.54
		c0.026,0.332,0.05,0.652,0.074,0.959c-2.278-1.785-3.735-4.416-4.14-5.209C60.337,48.28,60.62,47.849,60.62,47.348z M60.136,35.157
		c-0.501-4.479-1.64-9.053-2.807-12.888c1.344,2.272,3.263,7.852,4.028,16.322c0.657,7.271,1.789,9.983,2.38,10.939
		c0.066,0.827,0.129,1.613,0.186,2.349C62.039,49.408,61.227,44.92,60.136,35.157z M61.869,38.545
		C60.961,28.5,58.39,22.128,56.896,20.881c-1.146-3.583-2.245-6.345-2.716-7.483c0.414-0.045,0.811-0.099,1.179-0.169
		c0.901,2.222,5.032,12.583,7.079,20.836c0.43,4.939,0.848,9.896,1.183,14.024C63.066,46.621,62.345,43.81,61.869,38.545z
		 M41.315,29.836c-0.782,3.507-2.032,6.95-2.044,6.984c-1.743,3.955-5.512,6.302-9.169,6.057c0.675-0.007,1.406-0.08,2.154-0.275
		c0.534-0.143,1.079-0.329,1.595-0.595c0.524-0.251,1.018-0.576,1.481-0.936c0.225-0.189,0.458-0.367,0.661-0.578
		c0.214-0.199,0.416-0.407,0.601-0.628c0.196-0.211,0.37-0.437,0.537-0.663c0.176-0.22,0.328-0.453,0.474-0.683
		c0.153-0.226,0.293-0.455,0.415-0.687c0.124-0.231,0.262-0.448,0.362-0.678c0.219-0.449,0.417-0.876,0.57-1.284
		c0.171-0.4,0.294-0.779,0.407-1.114c0.119-0.332,0.206-0.627,0.271-0.872c0.138-0.487,0.216-0.766,0.216-0.766
		s-0.086,0.276-0.237,0.759c-0.072,0.243-0.167,0.535-0.295,0.863c-0.122,0.33-0.255,0.705-0.436,1.099
		c-0.164,0.401-0.372,0.821-0.602,1.26c-0.105,0.224-0.249,0.436-0.377,0.661c-0.127,0.227-0.271,0.449-0.429,0.668
		c-0.151,0.223-0.307,0.448-0.486,0.66c-0.171,0.218-0.347,0.436-0.545,0.637c-0.187,0.212-0.39,0.41-0.604,0.598
		c-0.203,0.2-0.435,0.367-0.658,0.544c-0.459,0.337-0.945,0.638-1.456,0.865c-0.504,0.243-1.032,0.405-1.547,0.529
		c-1.037,0.24-2.04,0.247-2.883,0.163c-0.845-0.092-1.534-0.268-2.003-0.419c-0.35-0.111-0.572-0.203-0.666-0.244
		c-0.159-0.097-0.318-0.195-0.469-0.304c1.355,0.543,2.64,0.819,3.848,0.819c1.373,0,2.649-0.352,3.818-1.055
		c7.936-4.773,8.522-24.04,8.563-27.338c0.179-0.124,0.347-0.247,0.495-0.367C42.47,17.141,41.896,23.275,41.315,29.836z
		 M28.242,52.704c-0.266-0.645-0.651-0.841-0.75-0.88l-0.133-0.053c2.097-2.348,4.344-6.298,4.874-7.252
		c0.563-0.191,1.114-0.438,1.646-0.738C33.047,45.403,30.992,49.184,28.242,52.704z M26.292,43.84
		c-2.027-0.893-3.584-2.607-4.385-4.826c-0.67-1.858-0.715-3.902-0.167-5.816c-0.017,0.121-0.033,0.242-0.052,0.366
		c-0.017,0.328-0.072,0.664-0.06,1.01c-0.006,0.345-0.002,0.694,0.037,1.042c0.016,0.349,0.081,0.693,0.142,1.031
		c0.044,0.341,0.162,0.66,0.241,0.976c0.072,0.319,0.219,0.602,0.318,0.882c0.097,0.282,0.235,0.529,0.356,0.759
		c0.126,0.227,0.218,0.448,0.34,0.62c0.117,0.175,0.219,0.327,0.303,0.453c0.168,0.251,0.264,0.394,0.264,0.394
		s-0.089-0.148-0.245-0.406c-0.078-0.129-0.172-0.285-0.281-0.465c-0.113-0.176-0.195-0.401-0.309-0.632
		c-0.109-0.233-0.234-0.483-0.317-0.767c-0.085-0.282-0.217-0.566-0.273-0.883c-0.063-0.314-0.165-0.631-0.192-0.967
		c-0.043-0.333-0.092-0.67-0.091-1.012c-0.022-0.34-0.01-0.68,0.011-1.014c0.004-0.335,0.072-0.659,0.103-0.975
		c0.062-0.308,0.108-0.608,0.183-0.886c-0.252,1.637-0.106,3.319,0.455,4.876c0.196,0.544,0.44,1.056,0.719,1.539
		c0,0,0.001,0.003,0.001,0.003l0,0c0.738,1.277,1.751,2.321,2.97,3.064l-0.001,0.002c0,0,0.011,0.005,0.014,0.006
		c0.308,0.187,0.625,0.361,0.958,0.508c1.06,0.467,2.172,0.688,3.286,0.688c1.681,0,3.359-0.509,4.857-1.434
		C32.884,44.378,29.329,45.178,26.292,43.84z M20.59,52.342c3.264-2.281,6.691-6.682,7.302-7.484c0.282,0.052,0.565,0.088,0.85,0.11
		c-1.064,1.34-4.784,5.872-7.87,7.784C20.778,52.615,20.683,52.479,20.59,52.342z M14.066,35.68
		c5.014-4.111,7.939-5.741,9.242-6.347c-0.596,0.668-1.066,1.329-1.385,1.967c-0.023,0.046-0.039,0.094-0.062,0.141
		c-0.594,0.301-4.759,2.456-7.698,5.191C14.124,36.313,14.092,35.996,14.066,35.68z M23.91,28.529
		c-0.524,0.167-3.425,1.258-9.889,6.523c-0.007-0.111-0.019-0.223-0.024-0.333c3.56-3.405,8.185-5.666,10.202-6.556
		C24.101,28.285,24,28.407,23.91,28.529z M21.532,32.192c-0.274,0.713-0.462,1.45-0.571,2.196c-0.619,0.4-4.168,2.73-6.339,4.911
		c-0.154-0.684-0.274-1.364-0.373-2.04C16.677,34.904,20.131,32.941,21.532,32.192z M20.885,35.052
		c-0.012,0.146-0.017,0.291-0.022,0.437c-0.748,0.447-3.718,2.309-5.957,4.938c-0.048-0.179-0.098-0.358-0.143-0.537
		C16.591,37.973,19.737,35.814,20.885,35.052z M20.859,35.792c-0.002,0.351,0.014,0.701,0.049,1.051
		c-0.644,0.416-3.733,2.456-5.735,4.557c-0.067-0.222-0.124-0.443-0.186-0.665C17.102,38.194,19.938,36.353,20.859,35.792z
		 M20.977,37.412c0.072,0.454,0.181,0.902,0.317,1.343c-0.73,0.449-3.787,2.385-5.564,4.32c-0.136-0.374-0.254-0.747-0.374-1.119
		C17.125,40.027,20.017,38.047,20.977,37.412z M21.455,39.261c0.223,0.604,0.502,1.171,0.827,1.698
		c-0.806,0.55-3.762,2.63-5.5,4.674c-0.306-0.676-0.588-1.349-0.844-2.02C17.538,41.775,20.555,39.823,21.455,39.261z
		 M22.424,41.172c0.048,0.073,0.095,0.147,0.145,0.218c-0.733,0.523-3.281,2.405-5.538,4.796c-0.046-0.098-0.087-0.196-0.132-0.294
		C18.6,43.845,21.611,41.727,22.424,41.172z M22.876,41.802c0.147,0.186,0.296,0.368,0.456,0.54
		c-0.813,0.611-3.737,2.84-5.799,4.857c-0.087-0.172-0.179-0.344-0.263-0.515C19.538,44.247,22.156,42.316,22.876,41.802z
		 M23.517,42.525c0.224,0.227,0.46,0.439,0.707,0.638c-0.91,0.799-4.324,3.807-5.981,5.382c-0.204-0.369-0.397-0.738-0.586-1.106
		C19.732,45.397,22.739,43.108,23.517,42.525z M24.636,43.484c0.175,0.124,0.357,0.239,0.542,0.35
		c-0.624,0.77-2.994,3.532-6.415,5.623c-0.088-0.151-0.173-0.302-0.258-0.453C20.168,47.414,23.865,44.161,24.636,43.484z
		 M25.402,43.965c0.126,0.07,0.257,0.132,0.388,0.196c-0.709,0.864-3.325,3.899-6.634,5.967c-0.091-0.149-0.178-0.299-0.267-0.448
		C22.385,47.546,24.801,44.71,25.402,43.965z M26.273,44.381c0.141,0.058,0.283,0.112,0.425,0.161
		c-0.79,0.937-3.809,4.395-6.985,6.47c-0.095-0.15-0.19-0.3-0.283-0.449C22.949,48.362,25.696,45.095,26.273,44.381z M26.958,44.633
		c0.126,0.039,0.254,0.067,0.381,0.1c-0.875,1.126-4.075,5.11-7.041,7.187c-0.154-0.23-0.3-0.46-0.448-0.69
		C23.155,49.071,26.281,45.442,26.958,44.633z M30.306,44.945c0.17-0.019,0.34-0.042,0.51-0.071
		c-0.709,1.254-2.833,4.75-5.833,7.448c-0.226,0.053-0.461,0.108-0.713,0.166C27.062,49.59,29.709,45.812,30.306,44.945z
		 M31.478,44.737c0.134-0.033,0.267-0.069,0.4-0.108c-0.731,1.297-2.95,5.108-4.95,7.233c-0.203,0.049-0.524,0.125-0.942,0.224
		C29.09,49.055,31.138,45.371,31.478,44.737z M35.7,42.468c0.17-0.152,0.336-0.311,0.498-0.476
		c-0.679,2.131-2.251,6.808-3.974,10.158c-0.209,0.042-0.414,0.084-0.614,0.127C33.56,48.639,35.288,43.683,35.7,42.468z
		 M37.034,41.037c0.193-0.248,0.38-0.503,0.556-0.772c0.125-0.132,0.245-0.271,0.365-0.41c-0.667,2.565-2.156,8.516-2.495,11.781
		c-0.888,0.101-1.766,0.238-2.598,0.392C35.008,47.717,36.874,41.57,37.034,41.037z M38.769,38.782
		c0.166-0.248,0.323-0.503,0.472-0.768c-0.343,2.692-1.265,9.649-2.081,13.482c-0.39,0.019-0.782,0.045-1.177,0.082
		C36.435,47.471,38.692,39.067,38.769,38.782z M39.583,37.355c0.055-0.115,0.114-0.226,0.165-0.343
		c0.005-0.013,0.111-0.307,0.279-0.801c-0.434,4.023-1.311,11.853-1.92,15.262c-0.226,0-0.453,0.003-0.683,0.011
		C38.325,47.224,39.346,39.25,39.583,37.355z M40.801,33.791c0.079-0.263,0.159-0.536,0.24-0.817
		c-0.595,6.838-1.169,13.779-1.546,18.557c-0.282-0.026-0.57-0.044-0.866-0.053C39.459,46.763,40.764,34.146,40.801,33.791z
		 M40.298,54.392c2.687-1.923,4.316-4.976,4.691-5.735c0.042,0.004,0.083,0.013,0.127,0.013c0.729,0,1.321-0.593,1.321-1.321
		c0-0.261-0.079-0.503-0.21-0.708c0.582-0.929,3.679-6.031,5.723-12.41v2.581c-1.803,7.593-8.239,15.587-10.041,17.716
		c-0.717,0.341-1.276,0.677-1.692,0.961C40.242,55.15,40.269,54.783,40.298,54.392z M62.505,54.528
		c-1.803-2.129-8.238-10.121-10.041-17.716v-2.58c2.044,6.379,5.142,11.48,5.723,12.408c-0.131,0.205-0.209,0.447-0.209,0.708
		c0,0.728,0.593,1.321,1.321,1.321c0.043,0,0.084-0.009,0.127-0.013c0.375,0.759,2.005,3.811,4.691,5.735
		c0.029,0.392,0.056,0.758,0.081,1.097C63.781,55.204,63.223,54.868,62.505,54.528z M63.375,32.973
		c0.08,0.281,0.161,0.554,0.239,0.817c0.035,0.338,1.341,12.972,2.173,17.689c-0.295,0.009-0.584,0.027-0.866,0.053
		C64.544,46.753,63.97,39.812,63.375,32.973z M66.308,51.473c-0.609-3.408-1.487-11.241-1.92-15.264
		c0.171,0.502,0.279,0.802,0.286,0.818c0.05,0.113,0.107,0.221,0.16,0.331c0.238,1.901,1.258,9.87,2.158,14.126
		C66.761,51.477,66.534,51.474,66.308,51.473z M67.256,51.497c-0.816-3.83-1.737-10.783-2.081-13.478
		c0.149,0.265,0.307,0.522,0.473,0.77c0.105,0.391,2.335,8.711,2.784,12.791C68.038,51.542,67.646,51.516,67.256,51.497z
		 M68.956,51.636c-0.339-3.262-1.826-9.208-2.494-11.776c0.123,0.142,0.245,0.284,0.374,0.419c0.172,0.263,0.356,0.514,0.545,0.757
		c0.159,0.529,2.026,6.68,4.173,10.992C70.723,51.874,69.844,51.737,68.956,51.636z M72.192,52.151
		c-1.723-3.35-3.296-8.027-3.975-10.159c0.162,0.165,0.328,0.324,0.498,0.476c0.412,1.215,2.14,6.172,4.091,9.81
		C72.605,52.235,72.401,52.193,72.192,52.151z M77.488,51.862c-2-2.125-4.219-5.936-4.95-7.233c0.133,0.039,0.266,0.075,0.4,0.108
		c0.34,0.634,2.388,4.318,5.493,7.35C78.012,51.988,77.69,51.911,77.488,51.862z M73.6,44.874c0.17,0.029,0.339,0.052,0.51,0.071
		c0.597,0.867,3.244,4.645,6.036,7.544c-0.252-0.058-0.487-0.113-0.713-0.166C76.435,49.626,74.309,46.129,73.6,44.874z
		 M84.117,51.92c-2.965-2.076-6.166-6.061-7.041-7.187c0.127-0.033,0.255-0.061,0.382-0.1c0.676,0.809,3.803,4.439,7.107,6.597
		C84.417,51.46,84.271,51.69,84.117,51.92z M84.702,51.012c-3.175-2.074-6.195-5.533-6.985-6.47c0.143-0.05,0.285-0.103,0.425-0.161
		c0.577,0.714,3.324,3.981,6.843,6.182C84.892,50.713,84.797,50.863,84.702,51.012z M85.259,50.128
		c-3.306-2.067-5.924-5.103-6.633-5.968c0.13-0.064,0.261-0.126,0.388-0.196c0.601,0.746,3.017,3.581,6.512,5.716
		C85.438,49.83,85.35,49.979,85.259,50.128z M85.653,49.457c-3.42-2.09-5.791-4.853-6.415-5.623c0.185-0.11,0.366-0.226,0.542-0.35
		c0.771,0.677,4.468,3.929,6.132,5.52C85.826,49.155,85.741,49.306,85.653,49.457z M86.173,48.545
		c-1.657-1.575-5.071-4.582-5.981-5.382c0.247-0.199,0.483-0.411,0.707-0.638c0.778,0.583,3.785,2.872,5.861,4.914
		C86.57,47.808,86.378,48.176,86.173,48.545z M86.882,47.199c-2.062-2.017-4.986-4.246-5.799-4.857
		c0.16-0.172,0.31-0.355,0.456-0.54c0.72,0.513,3.337,2.444,5.606,4.882C87.061,46.856,86.969,47.028,86.882,47.199z M87.384,46.186
		c-2.257-2.391-4.805-4.273-5.538-4.796c0.05-0.071,0.097-0.145,0.145-0.218c0.813,0.555,3.824,2.673,5.526,4.72
		C87.472,45.99,87.431,46.088,87.384,46.186z M87.634,45.632c-1.738-2.044-4.694-4.124-5.5-4.674
		c0.325-0.527,0.603-1.093,0.827-1.698c0.9,0.563,3.916,2.514,5.517,4.351C88.221,44.283,87.94,44.956,87.634,45.632z
		 M88.686,43.076c-1.776-1.936-4.834-3.871-5.564-4.321c0.136-0.441,0.245-0.889,0.317-1.343c0.96,0.634,3.851,2.614,5.621,4.545
		C88.94,42.33,88.822,42.702,88.686,43.076z M89.242,41.4c-2.002-2.101-5.091-4.142-5.735-4.557c0.035-0.349,0.051-0.699,0.049-1.05
		c0.922,0.561,3.757,2.402,5.872,4.943C89.367,40.957,89.309,41.178,89.242,41.4z M79.424,27.272
		c-2.451-2.49-6.551-4.744-10.916-5.106c-0.359-0.44-2.054-2.551-3.543-4.899c0.375,0.33,0.825,0.697,1.308,1.088
		c0.482,0.408,1.036,0.794,1.568,1.205c0.266,0.206,0.554,0.383,0.825,0.573c0.274,0.186,0.543,0.369,0.804,0.546
		c0.545,0.318,1.053,0.614,1.489,0.869c0.456,0.217,0.843,0.382,1.109,0.505c0.267,0.12,0.42,0.189,0.42,0.189
		s-0.15-0.076-0.412-0.209c-0.26-0.135-0.638-0.318-1.079-0.555c-0.421-0.273-0.912-0.592-1.438-0.933
		c-0.251-0.189-0.51-0.383-0.773-0.581c-0.26-0.202-0.536-0.39-0.791-0.608c-0.509-0.434-1.039-0.842-1.498-1.27
		c-0.468-0.417-0.903-0.807-1.262-1.157c-0.616-0.58-1.037-1.011-1.153-1.132c-0.012-0.021-0.024-0.042-0.036-0.063
		c0.514,0.206,1.277,0.463,2.181,0.621c0.578,0.477,5.059,4.092,11.081,6.764c5.504,2.441,11.413,6.612,12.958,7.731
		c0.055,0.451,0.094,0.904,0.122,1.36c-0.336-0.255-0.782-0.575-1.313-0.954c-0.299-0.221-0.64-0.436-0.991-0.676
		c-0.356-0.233-0.72-0.496-1.117-0.737c-0.394-0.245-0.801-0.499-1.214-0.757c-0.409-0.264-0.84-0.508-1.27-0.752
		c-0.43-0.245-0.859-0.49-1.282-0.731c-0.419-0.248-0.856-0.447-1.265-0.664c-0.412-0.211-0.811-0.415-1.189-0.608
		c-0.374-0.201-0.742-0.363-1.081-0.513c-1.352-0.605-2.254-1.008-2.254-1.008s0.887,0.432,2.218,1.08
		c0.333,0.16,0.694,0.334,1.061,0.547c0.371,0.205,0.762,0.421,1.166,0.645c0.401,0.23,0.829,0.442,1.239,0.703
		c0.413,0.254,0.833,0.512,1.253,0.769c0.421,0.256,0.841,0.513,1.24,0.789c0.403,0.27,0.799,0.535,1.183,0.792
		c0.386,0.252,0.74,0.526,1.085,0.769c0.341,0.25,0.672,0.474,0.962,0.703c0.586,0.448,1.074,0.821,1.402,1.094
		c0.079,0.063,0.149,0.12,0.211,0.171c0.012,0.383,0.004,0.77-0.002,1.157C85.917,29.874,79.959,27.482,79.424,27.272z
		 M78.734,21.785c0.348,0.167,0.85,0.398,1.444,0.689c0.581,0.317,1.259,0.687,1.985,1.083c0.356,0.211,0.723,0.43,1.097,0.651
		c0.372,0.225,0.756,0.441,1.128,0.679c0.744,0.475,1.499,0.93,2.186,1.392c0.692,0.453,1.336,0.878,1.881,1.253
		c0.602,0.407,1.083,0.742,1.399,0.965c0.127,0.546,0.232,1.096,0.318,1.65c-2.008-1.433-7.502-5.214-12.653-7.498
		c-4.925-2.185-8.796-4.998-10.316-6.176c0.082,0.006,0.162,0.015,0.245,0.019c0.175,0.07,0.763,0.306,1.585,0.636
		c0.493,0.198,1.069,0.429,1.686,0.676c0.606,0.268,1.253,0.555,1.9,0.841c2.59,1.151,5.179,2.302,5.179,2.302
		s-2.537-1.268-5.074-2.536c-0.636-0.317-1.272-0.633-1.868-0.93c-0.605-0.275-1.17-0.532-1.653-0.752
		c-0.211-0.096-0.404-0.184-0.581-0.264c0.124-0.011,0.249-0.031,0.375-0.048c6.369,2.151,18.01,8.861,20.347,10.224
		c0.125,0.382,0.231,0.768,0.335,1.155c-0.278-0.178-0.607-0.388-0.986-0.624c-0.56-0.357-1.222-0.759-1.932-1.188
		c-0.705-0.437-1.48-0.867-2.242-1.316c-0.381-0.225-0.775-0.428-1.155-0.639c-0.382-0.209-0.758-0.414-1.122-0.612
		c-0.742-0.37-1.435-0.716-2.028-1.013c-0.606-0.271-1.116-0.483-1.471-0.638c-0.355-0.153-0.558-0.24-0.558-0.24
		S78.384,21.619,78.734,21.785z M69.971,16.217c0.168-0.047,0.337-0.108,0.505-0.169c5.314,1.749,15.778,7.693,18.345,9.173
		c0.089,0.219,0.173,0.443,0.256,0.67C85.999,24.109,76.099,18.483,69.971,16.217z M70.867,15.907
		c0.323-0.125,0.627-0.234,0.907-0.325c7.296,1.869,14.464,6.762,16.374,8.131c0.176,0.359,0.346,0.732,0.511,1.117
		C85.725,23.147,76.103,17.721,70.867,15.907z M72.743,15.313c1.816-0.406,2.624,0.048,3.645,0.626l0.27,0.155
		c0.892,0.512,2.253,1.291,4.038,1.703l-0.001,0.002c3.076,1.152,5.364,3.067,6.479,4.133c0.155,0.255,0.308,0.519,0.459,0.793
		C85.048,20.949,79.02,17.115,72.743,15.313z M82.581,18.063c0.177,0.009,0.357,0.014,0.541,0.014c0.348,0,0.711-0.024,1.08-0.06
		c0.524,0.549,1.194,1.32,1.899,2.294C85.18,19.58,83.996,18.768,82.581,18.063z M83.241,17.085
		c0.097,0.085,0.266,0.238,0.491,0.457c-1.05,0.064-2.001-0.033-2.851-0.222c-0.002-0.001-0.003-0.001-0.005-0.002l0,0.001
		c-1.717-0.384-3.032-1.137-3.961-1.671l-0.273-0.156c-1.569-0.888-2.706-1.363-6.162,0.014c-3.069,1.22-6.329-0.266-6.825-0.508
		c-0.049-0.096-0.093-0.191-0.139-0.286c1.08,0.473,2.436,0.807,4.071,0.711c2.163-0.127,3.627-0.624,4.697-0.987
		c1.131-0.383,1.813-0.615,2.619-0.273c0.49,0.207,1.015,0.485,1.57,0.78c1.541,0.817,3.46,1.833,6.005,2.053
		C82.745,17.018,82.997,17.05,83.241,17.085z M78.397,14.768c-0.506-0.24-0.986-0.491-1.445-0.734
		c-0.316-0.167-0.621-0.326-0.92-0.476c-0.073-0.091-0.142-0.185-0.217-0.275l0.896-0.752C77.308,13.248,77.863,14,78.397,14.768z
		 M76.542,12.337l-0.896,0.752c-0.522-0.616-1.065-1.214-1.634-1.788l0.827-0.827C75.432,11.071,75.998,11.694,76.542,12.337z
		 M74.658,10.292l-0.827,0.827c-0.573-0.569-1.172-1.112-1.788-1.634l0.752-0.896C73.437,9.133,74.061,9.699,74.658,10.292z
		 M72.601,8.421l-0.752,0.896c-0.62-0.517-1.264-1.005-1.923-1.472l0.671-0.958C71.284,7.373,71.955,7.882,72.601,8.421z
		 M70.387,6.737l-0.671,0.958c-0.662-0.461-1.343-0.895-2.041-1.304l0.585-1.013C68.987,5.804,69.697,6.257,70.387,6.737z
		 M68.037,5.25l-0.585,1.013c-0.699-0.401-1.413-0.779-2.145-1.126l0.494-1.06C66.564,4.438,67.308,4.832,68.037,5.25z
		 M65.567,3.971l-0.494,1.06c-0.731-0.339-1.475-0.655-2.235-0.936l0.4-1.1C64.03,3.289,64.805,3.618,65.567,3.971z M62.995,2.909
		l-0.4,1.1c-0.757-0.273-1.529-0.513-2.312-0.727l0.303-1.13C61.402,2.375,62.206,2.625,62.995,2.909z M57.872,1.541
		c0.833,0.15,1.657,0.327,2.467,0.54l-0.303,1.13c-0.777-0.205-1.568-0.374-2.368-0.518L57.872,1.541z M55.115,1.166
		c0.845,0.077,1.679,0.189,2.504,0.33l-0.203,1.152c-0.791-0.136-1.592-0.243-2.403-0.317L55.115,1.166z M52.336,1.031
		c0.85,0.003,1.69,0.047,2.523,0.116l-0.102,1.166c-0.799-0.066-1.605-0.107-2.421-0.111V1.031z M74.165,12.973
		c-0.714-0.014-1.408,0.216-2.214,0.489c-1.07,0.363-2.403,0.815-4.427,0.934c-3.678,0.211-5.762-1.986-6.175-2.471
		c-0.118-0.931-0.214-1.534-0.28-1.719c-0.663-1.842-1.329-2.576-3.513-2.06c-1.818,0.429-5.302,0.35-5.336,0.351l-0.013,0.514
		l-0.013-0.514c-0.034,0-3.516,0.079-5.336-0.351c-2.183-0.517-2.85,0.219-3.513,2.06c-0.066,0.185-0.162,0.788-0.28,1.718
		c-0.409,0.473-2.531,2.686-6.175,2.472c-2.024-0.119-3.356-0.571-4.427-0.934c-0.806-0.273-1.5-0.503-2.215-0.489
		c5.436-5.978,13.261-9.747,21.959-9.747C60.905,3.226,68.729,6.995,74.165,12.973z M52.079,1.031v1.17
		c-0.815,0.003-1.621,0.045-2.421,0.111l-0.102-1.166C50.39,1.078,51.23,1.034,52.079,1.031z M49.301,1.166l0.102,1.166
		C48.592,2.405,47.791,2.513,47,2.649l-0.203-1.152C47.621,1.355,48.456,1.243,49.301,1.166z M46.544,1.541l0.203,1.152
		c-0.8,0.144-1.59,0.313-2.368,0.518l-0.303-1.13C44.886,1.868,45.71,1.692,46.544,1.541z M43.83,2.152l0.303,1.13
		c-0.783,0.214-1.555,0.454-2.312,0.727l-0.4-1.1C42.209,2.625,43.014,2.375,43.83,2.152z M41.178,2.996l0.4,1.1
		c-0.761,0.281-1.504,0.597-2.235,0.936l-0.494-1.06C39.61,3.618,40.385,3.289,41.178,2.996z M38.615,4.077l0.494,1.06
		c-0.732,0.347-1.446,0.725-2.145,1.126L36.379,5.25C37.108,4.832,37.852,4.438,38.615,4.077z M36.156,5.379l0.585,1.013
		C36.043,6.8,35.362,7.235,34.7,7.695l-0.671-0.958C34.719,6.257,35.428,5.804,36.156,5.379z M33.819,6.886l0.671,0.958
		c-0.66,0.467-1.304,0.956-1.924,1.472l-0.752-0.896C32.461,7.882,33.132,7.373,33.819,6.886z M31.621,8.589l0.752,0.896
		c-0.616,0.522-1.215,1.065-1.788,1.634l-0.827-0.827C30.355,9.699,30.978,9.133,31.621,8.589z M29.576,10.473l0.827,0.827
		c-0.569,0.573-1.112,1.172-1.634,1.788l-0.896-0.752C28.417,11.694,28.983,11.071,29.576,10.473z M27.705,12.531l0.896,0.752
		c-0.074,0.089-0.143,0.184-0.216,0.274c-0.3,0.15-0.605,0.309-0.922,0.476c-0.457,0.242-0.936,0.492-1.44,0.732
		C26.555,13.998,27.108,13.247,27.705,12.531z M21.939,16.995c2.545-0.22,4.463-1.236,6.005-2.053c0.555-0.294,1.08-0.572,1.57-0.78
		c0.806-0.342,1.489-0.11,2.619,0.273c1.069,0.363,2.534,0.86,4.697,0.987c1.634,0.095,2.991-0.24,4.073-0.714
		c-0.047,0.097-0.091,0.192-0.141,0.289c-0.496,0.243-3.751,1.73-6.825,0.508c-3.456-1.376-4.593-0.902-6.162-0.014L27.5,15.648
		c-0.929,0.533-2.244,1.287-3.961,1.671l0-0.001c-0.002,0.001-0.004,0.002-0.006,0.002c-0.85,0.19-1.8,0.286-2.85,0.222
		c0.226-0.219,0.394-0.372,0.492-0.457C21.419,17.05,21.671,17.018,21.939,16.995z M9.016,55.449
		c-2.066,0.092-3.486-1.067-4.313-2.047c0.294-0.132,0.692-0.308,1.171-0.513c0.189-0.083,0.393-0.17,0.604-0.259l1.169,1.142
		L6.911,52.45c0.237-0.098,0.48-0.198,0.733-0.301c0.647-0.274,1.352-0.527,2.05-0.801c0.349-0.138,0.706-0.251,1.053-0.376
		c0.348-0.122,0.691-0.242,1.023-0.358c0.672-0.204,1.3-0.395,1.838-0.558c0.545-0.137,1.003-0.236,1.322-0.313
		c0.32-0.074,0.503-0.117,0.503-0.117s-0.184,0.035-0.507,0.095c-0.322,0.063-0.786,0.143-1.338,0.257
		c-0.546,0.141-1.183,0.305-1.866,0.48c-0.337,0.102-0.686,0.208-1.04,0.315c-0.353,0.11-0.717,0.209-1.072,0.332
		c-0.711,0.244-1.43,0.468-2.091,0.715c-0.664,0.238-1.283,0.462-1.809,0.667c-0.56,0.212-1.014,0.391-1.322,0.514
		c-0.133-0.182-0.245-0.351-0.331-0.49l3.092-1.81c0.773-0.269,1.797-0.614,2.833-0.931c0.523-0.167,1.054-0.307,1.548-0.452
		c0.247-0.075,0.49-0.125,0.719-0.184c0.229-0.057,0.446-0.11,0.646-0.16c0.199-0.055,0.387-0.077,0.551-0.111
		c0.165-0.03,0.308-0.057,0.427-0.078c0.237-0.044,0.372-0.068,0.372-0.068s-0.136,0.017-0.375,0.047
		c-0.12,0.015-0.265,0.033-0.431,0.054c-0.166,0.024-0.357,0.036-0.558,0.079c-0.203,0.038-0.423,0.079-0.656,0.122
		c-0.232,0.046-0.48,0.082-0.731,0.143c-0.503,0.117-1.044,0.225-1.578,0.362c-1.073,0.261-2.138,0.553-2.935,0.779l-3.793,0.347
		l0-0.001c0.31-0.124,0.742-0.294,1.263-0.489c0.537-0.208,1.17-0.435,1.849-0.673c0.676-0.25,1.412-0.469,2.142-0.71
		c0.364-0.125,0.737-0.217,1.1-0.323c0.364-0.103,0.722-0.204,1.069-0.302c0.7-0.169,1.357-0.308,1.92-0.437
		c0.282-0.059,0.546-0.081,0.777-0.118c0.232-0.032,0.435-0.06,0.601-0.083c0.334-0.046,0.525-0.073,0.525-0.073
		s-0.191,0.018-0.527,0.051c-0.168,0.016-0.372,0.036-0.605,0.058c-0.233,0.027-0.5,0.038-0.785,0.085
		c-0.568,0.105-1.234,0.218-1.944,0.358c-0.352,0.084-0.715,0.17-1.085,0.258C9.12,48.343,8.74,48.42,8.371,48.53
		c-0.742,0.211-1.491,0.401-2.18,0.623c-0.692,0.21-1.338,0.411-1.886,0.598c-0.577,0.189-1.046,0.352-1.366,0.466
		c-0.498-0.962-0.728-2.087-0.834-2.885c0.02-0.011,0.035-0.021,0.056-0.033c0.272-0.171,0.692-0.381,1.19-0.641
		c0.252-0.125,0.533-0.243,0.827-0.378c0.294-0.134,0.603-0.277,0.937-0.394c0.33-0.125,0.672-0.253,1.019-0.384
		c0.345-0.139,0.713-0.224,1.072-0.34c0.361-0.109,0.723-0.217,1.079-0.324c0.363-0.081,0.72-0.16,1.065-0.237
		c0.346-0.076,0.681-0.15,0.998-0.22c0.316-0.082,0.624-0.096,0.904-0.142c1.126-0.153,1.876-0.255,1.876-0.255
		s-0.755,0.07-1.887,0.176c-0.282,0.035-0.594,0.036-0.913,0.104c-0.321,0.057-0.66,0.116-1.011,0.178
		c-0.351,0.063-0.713,0.128-1.082,0.193c-0.363,0.092-0.731,0.186-1.1,0.28c-0.367,0.101-0.743,0.172-1.097,0.297
		c-0.356,0.117-0.707,0.233-1.046,0.345c-0.343,0.104-0.662,0.236-0.967,0.359c-0.304,0.124-0.595,0.233-0.857,0.349
		c-0.451,0.211-0.832,0.385-1.122,0.538c-0.008-0.096-0.015-0.183-0.019-0.254l2.574-1.996c0.093-0.035,0.19-0.072,0.294-0.11
		c0.729-0.268,1.715-0.597,2.719-0.866c0.503-0.13,1.004-0.274,1.483-0.366c0.478-0.095,0.92-0.213,1.308-0.261
		c0.773-0.12,1.288-0.201,1.288-0.201s-0.52,0.048-1.299,0.121c-0.392,0.024-0.841,0.116-1.327,0.181
		c-0.487,0.062-0.998,0.176-1.512,0.276c-1.027,0.208-2.041,0.479-2.796,0.704c-0.014,0.004-0.027,0.008-0.042,0.013L1.52,44.382
		c-0.019-0.065-0.032-0.13-0.049-0.195c0.006-0.003,0.01-0.004,0.016-0.007c0.287-0.132,0.703-0.309,1.211-0.512
		c0.501-0.216,1.107-0.416,1.746-0.657c0.325-0.105,0.661-0.213,1.002-0.323c0.343-0.103,0.686-0.233,1.04-0.316
		c0.353-0.092,0.706-0.184,1.053-0.274c0.347-0.094,0.69-0.181,1.027-0.236c0.336-0.064,0.661-0.126,0.969-0.184
		c0.309-0.055,0.599-0.126,0.872-0.143c1.091-0.112,1.819-0.187,1.819-0.187s-0.731,0.043-1.828,0.107
		c-0.276,0.005-0.569,0.063-0.881,0.105c-0.312,0.045-0.641,0.093-0.981,0.142c-0.342,0.041-0.69,0.113-1.043,0.192
		c-0.354,0.076-0.713,0.153-1.072,0.23c-0.362,0.068-0.711,0.184-1.061,0.273c-0.349,0.096-0.692,0.19-1.024,0.282
		c-0.654,0.215-1.275,0.39-1.791,0.586c-0.487,0.17-0.892,0.321-1.19,0.441c-0.196-0.965-0.225-1.899-0.213-2.508
		c0.012-0.004,0.02-0.007,0.033-0.011c0.294-0.11,0.719-0.237,1.229-0.396c0.512-0.151,1.099-0.36,1.747-0.525
		c0.648-0.168,1.339-0.347,2.03-0.526c0.346-0.09,0.692-0.179,1.032-0.267c0.343-0.078,0.684-0.137,1.012-0.204
		c0.658-0.129,1.271-0.25,1.798-0.353c1.054-0.207,1.756-0.345,1.756-0.345s-0.708,0.106-1.769,0.266
		c-0.531,0.08-1.151,0.173-1.815,0.273c-0.332,0.052-0.677,0.097-1.024,0.159c-0.345,0.073-0.696,0.147-1.046,0.221
		c-0.702,0.148-1.404,0.297-2.062,0.436c-0.659,0.136-1.263,0.321-1.786,0.45c-0.446,0.118-0.825,0.214-1.112,0.3
		c0.001-0.015,0.002-0.038,0.003-0.051c0.429-0.551,1.377-0.934,1.725-1.039l3.209-0.973l5.356-1.186l-5.665,0.914l-4.741,0.369
		v-0.013c0.304-0.084,0.744-0.204,1.28-0.344c0.52-0.136,1.126-0.294,1.776-0.464c0.648-0.178,1.349-0.327,2.046-0.494
		c0.698-0.163,1.397-0.325,2.051-0.478c0.328-0.076,0.649-0.119,0.952-0.176c0.303-0.053,0.59-0.104,0.855-0.15
		c1.06-0.187,1.767-0.311,1.767-0.311S11.068,36.37,10,36.509c-0.267,0.035-0.557,0.072-0.863,0.112
		c-0.306,0.044-0.631,0.073-0.962,0.134c-0.662,0.123-1.368,0.255-2.074,0.386c-0.706,0.135-1.415,0.253-2.072,0.403
		c-0.659,0.141-1.274,0.273-1.801,0.385c-0.477,0.102-0.875,0.191-1.175,0.259v-2.668c0.011-0.005,0.018-0.009,0.029-0.014
		c0.264-0.138,0.667-0.306,1.146-0.513c0.241-0.101,0.51-0.191,0.791-0.296c0.282-0.103,0.577-0.219,0.893-0.305
		c0.314-0.094,0.639-0.192,0.969-0.291c0.327-0.11,0.675-0.164,1.014-0.25c0.342-0.078,0.684-0.156,1.02-0.233
		c0.34-0.061,0.677-0.105,1.002-0.157c0.326-0.049,0.64-0.097,0.939-0.143c0.298-0.057,0.584-0.054,0.847-0.079
		c1.053-0.074,1.755-0.123,1.755-0.123s-0.704,0.017-1.761,0.043c-0.264,0.013-0.553-0.003-0.853,0.04
		c-0.302,0.032-0.62,0.065-0.949,0.1c-0.329,0.037-0.671,0.066-1.015,0.112c-0.342,0.062-0.69,0.125-1.038,0.188
		c-0.346,0.071-0.701,0.109-1.036,0.205c-0.338,0.085-0.671,0.168-0.993,0.249c-0.325,0.073-0.629,0.177-0.92,0.268
		c-0.29,0.094-0.568,0.174-0.819,0.265c-0.384,0.145-0.719,0.268-0.985,0.379c0.555-0.719,1.548-1.108,1.558-1.112l2.726-1.028
		c0.416-0.107,0.849-0.214,1.287-0.316c0.519-0.132,1.045-0.221,1.535-0.327c0.492-0.099,0.956-0.154,1.352-0.22
		c0.198-0.038,0.381-0.04,0.544-0.054c0.163-0.012,0.304-0.022,0.421-0.03c0.234-0.017,0.368-0.026,0.368-0.026
		s-0.134,0.001-0.368,0.004c-0.117,0.001-0.26,0.003-0.423,0.005c-0.163,0.004-0.349-0.004-0.549,0.022
		c-0.4,0.042-0.871,0.07-1.369,0.139c-0.497,0.077-1.033,0.135-1.56,0.236c-0.866,0.147-1.72,0.314-2.436,0.467l-3.095,0.241
		l0.02-0.459c0.011-0.004,0.02-0.007,0.031-0.011c0.29-0.1,0.711-0.233,1.221-0.383c0.506-0.163,1.11-0.304,1.75-0.481
		c0.324-0.074,0.659-0.151,0.999-0.229c0.341-0.071,0.685-0.167,1.035-0.22c0.7-0.111,1.395-0.272,2.057-0.334
		c0.331-0.038,0.651-0.074,0.954-0.109c0.304-0.031,0.59-0.078,0.857-0.077c1.066-0.039,1.777-0.064,1.777-0.064
		s-0.712-0.006-1.781-0.016c-0.268-0.012-0.556,0.021-0.862,0.039c-0.306,0.021-0.628,0.043-0.962,0.066
		c-0.67,0.033-1.373,0.162-2.083,0.242c-0.356,0.038-0.704,0.118-1.051,0.175c-0.346,0.063-0.687,0.125-1.017,0.185
		c-0.653,0.149-1.269,0.265-1.787,0.406c-0.447,0.11-0.824,0.21-1.115,0.293l0.074-1.678c0.016-0.007,0.028-0.012,0.044-0.019
		c0.284-0.129,0.699-0.3,1.205-0.494c0.5-0.207,1.106-0.39,1.744-0.618c0.325-0.094,0.662-0.191,1.003-0.29
		c0.343-0.095,0.687-0.209,1.043-0.277c0.353-0.078,0.707-0.156,1.054-0.233c0.174-0.038,0.347-0.076,0.518-0.113
		c0.173-0.024,0.343-0.049,0.511-0.072c0.336-0.048,0.661-0.094,0.97-0.137c0.308-0.045,0.6-0.091,0.872-0.092
		c1.088-0.05,1.813-0.083,1.813-0.083s-0.727,0.001-1.818,0.003c-0.274-0.011-0.568,0.022-0.879,0.054
		c-0.312,0.03-0.64,0.062-0.98,0.095c-0.17,0.016-0.343,0.033-0.518,0.05c-0.173,0.03-0.349,0.06-0.525,0.09
		c-0.354,0.062-0.713,0.125-1.072,0.188c-0.362,0.053-0.713,0.152-1.064,0.233c-0.349,0.084-0.693,0.167-1.026,0.248
		c-0.654,0.201-1.275,0.36-1.792,0.547c-0.386,0.129-0.722,0.247-0.993,0.349c0.503-0.476,1.549-0.967,2.17-1.191l2.976-1.07
		c0.351-0.081,0.709-0.16,1.071-0.243c0.264-0.05,0.528-0.1,0.787-0.149c0.26-0.046,0.515-0.105,0.764-0.136
		c0.498-0.068,0.964-0.14,1.364-0.187c0.805-0.06,1.342-0.1,1.342-0.1s-0.539,0.008-1.348,0.02
		c-0.404,0.022-0.874,0.067-1.379,0.105c-0.253,0.017-0.511,0.061-0.775,0.091c-0.264,0.034-0.532,0.068-0.8,0.102
		c-0.533,0.088-1.068,0.168-1.566,0.262c-0.122,0.024-0.234,0.045-0.352,0.068L1.662,27.72c0.027-0.101,0.063-0.22,0.107-0.349
		c0.305-0.094,0.754-0.228,1.306-0.384c0.523-0.154,1.138-0.318,1.799-0.489c0.658-0.182,1.37-0.333,2.078-0.503
		c0.353-0.089,0.712-0.148,1.063-0.22c0.352-0.069,0.698-0.137,1.033-0.203c0.673-0.107,1.305-0.189,1.846-0.268
		c0.271-0.036,0.521-0.036,0.743-0.054c0.222-0.013,0.415-0.025,0.574-0.034c0.319-0.019,0.501-0.03,0.501-0.03
		s-0.182,0.003-0.501,0.008c-0.16,0.002-0.354,0.005-0.576,0.009c-0.222,0.008-0.475-0.003-0.748,0.021
		c-0.544,0.056-1.182,0.109-1.863,0.187c-0.339,0.051-0.689,0.104-1.045,0.158c-0.355,0.057-0.719,0.1-1.077,0.174
		c-0.717,0.14-1.44,0.26-2.108,0.413c-0.671,0.142-1.296,0.28-1.828,0.412c-0.376,0.088-0.703,0.169-0.974,0.238
		C2.172,26.39,2.431,25.89,2.803,25.3c1.043-1.649,5.374-3.088,6.984-3.512c0.378-0.124,2.676-0.882,4.504-1.601
		c-0.091,0.14-0.183,0.289-0.267,0.45c-0.09,0.162-0.182,0.329-0.276,0.498c-0.081,0.176-0.164,0.354-0.247,0.532
		c-0.079,0.18-0.173,0.352-0.237,0.535c-0.067,0.181-0.133,0.358-0.197,0.53c-0.064,0.172-0.125,0.337-0.184,0.495
		c-0.047,0.161-0.091,0.314-0.131,0.454c-0.16,0.562-0.266,0.936-0.266,0.936s0.137-0.364,0.342-0.91
		c0.052-0.136,0.108-0.283,0.167-0.439c0.071-0.151,0.145-0.31,0.222-0.474c0.077-0.164,0.156-0.334,0.237-0.506
		c0.077-0.174,0.185-0.336,0.276-0.505c0.095-0.167,0.19-0.335,0.283-0.499c0.105-0.157,0.208-0.312,0.308-0.461
		c0.191-0.305,0.411-0.557,0.583-0.784c0.014-0.016,0.026-0.03,0.04-0.045c-0.214,0.505-0.477,1.136-0.724,1.783
		c-0.557,1.42-1.115,2.84-1.115,2.84s0.674-1.366,1.348-2.733c0.33-0.684,0.682-1.36,0.95-1.865
		c0.076-0.144,0.143-0.273,0.202-0.386c0.27-0.125,0.497-0.241,0.668-0.344c-0.174,0.277-0.355,0.575-0.543,0.908
		c-0.247,0.414-0.481,0.881-0.735,1.371c-0.244,0.495-0.487,1.024-0.724,1.576c-0.218,0.561-0.471,1.129-0.658,1.733
		c-0.101,0.299-0.202,0.6-0.304,0.903l-0.253,0.926c-0.185,0.614-0.298,1.245-0.425,1.862c-0.146,0.614-0.188,1.235-0.277,1.828
		c-0.099,0.592-0.091,1.175-0.133,1.722c-0.047,0.548-0.032,1.067-0.017,1.546c0.019,0.478,0.005,0.918,0.047,1.305
		c0.041,0.387,0.077,0.724,0.107,1.001c0.059,0.555,0.093,0.872,0.093,0.872s-0.026-0.318-0.071-0.874
		c-0.023-0.278-0.05-0.615-0.082-1.002c-0.032-0.387-0.008-0.826-0.014-1.303c-0.003-0.477-0.005-0.994,0.056-1.539
		c0.056-0.544,0.062-1.122,0.176-1.708c0.103-0.587,0.16-1.201,0.321-1.807c0.141-0.609,0.269-1.231,0.467-1.835l0.273-0.91
		c0.109-0.297,0.217-0.592,0.324-0.885c0.2-0.592,0.464-1.147,0.693-1.695c0.248-0.539,0.501-1.055,0.754-1.536
		c0.262-0.477,0.504-0.93,0.757-1.332c0.485-0.815,0.945-1.458,1.272-1.9c0.016-0.021,0.027-0.035,0.042-0.055
		c0.47-0.314,1.052-0.639,1.807-0.908c-1.458,1.569-3.712,4.481-5.102,8.664c-1.931,5.812-2.425,15.217,5.963,27.217
		c-0.101,0.022-0.204,0.045-0.306,0.067c-0.273-0.379-0.734-1.038-1.277-1.905c-0.445-0.695-0.929-1.528-1.433-2.43
		c-0.238-0.458-0.501-0.923-0.738-1.411c-0.24-0.486-0.49-0.978-0.711-1.483c-0.233-0.5-0.454-1.005-0.655-1.509
		c-0.214-0.499-0.401-1-0.576-1.486c-0.186-0.483-0.341-0.958-0.481-1.411c-0.147-0.451-0.283-0.879-0.382-1.281
		c-0.106-0.4-0.204-0.767-0.29-1.093c-0.07-0.329-0.13-0.616-0.181-0.853c-0.1-0.473-0.157-0.744-0.157-0.744
		s0.049,0.272,0.136,0.748c0.043,0.238,0.096,0.527,0.156,0.859c0.077,0.328,0.164,0.699,0.259,1.102
		c0.088,0.406,0.211,0.839,0.345,1.295c0.128,0.459,0.269,0.94,0.442,1.43c0.162,0.494,0.334,1.002,0.535,1.509
		c0.187,0.513,0.394,1.027,0.614,1.536c0.208,0.514,0.445,1.016,0.672,1.512c0.225,0.498,0.475,0.974,0.702,1.442
		c0.481,0.922,0.944,1.777,1.373,2.492c0.453,0.772,0.849,1.385,1.122,1.794c-0.169,0.037-0.339,0.074-0.51,0.111
		c-0.065-0.078-0.138-0.165-0.219-0.264c-0.308-0.369-0.698-0.879-1.073-1.4c-0.182-0.264-0.359-0.532-0.525-0.784
		c-0.152-0.26-0.295-0.503-0.417-0.711c-0.208-0.437-0.347-0.728-0.347-0.728s0.11,0.305,0.274,0.762
		c0.102,0.221,0.22,0.479,0.347,0.756c0.141,0.269,0.293,0.557,0.45,0.842c0.325,0.563,0.668,1.117,0.942,1.521
		c0.027,0.041,0.049,0.073,0.075,0.111C14.546,54.631,10.712,55.374,9.016,55.449z M28.422,54.136
		c0.271-0.079,0.711-0.202,1.276-0.348c0.233,0.255,0.461,0.513,0.704,0.758l-0.827,0.827
		C29.179,54.973,28.797,54.558,28.422,54.136z M29.757,55.556l0.827-0.827c0.573,0.569,1.172,1.112,1.788,1.634l-0.752,0.896
		C30.978,56.714,30.355,56.148,29.757,55.556z M31.815,57.427l0.752-0.896c0.62,0.517,1.264,1.005,1.923,1.472l-0.671,0.958
		C33.132,58.474,32.461,57.965,31.815,57.427z M34.029,59.11l0.671-0.958c0.662,0.461,1.343,0.895,2.041,1.304l-0.585,1.013
		C35.428,60.043,34.719,59.591,34.029,59.11z M36.379,60.597l0.585-1.013c0.699,0.401,1.413,0.779,2.145,1.126l-0.495,1.061
		C37.852,61.41,37.108,61.016,36.379,60.597z M38.849,61.876l0.495-1.061c0.731,0.339,1.474,0.654,2.235,0.936l-0.4,1.1
		C40.385,62.559,39.61,62.229,38.849,61.876z M41.42,62.938l0.4-1.1c0.757,0.273,1.529,0.513,2.312,0.727l-0.303,1.131
		C43.014,63.473,42.209,63.223,41.42,62.938z M46.544,64.306c-0.833-0.15-1.658-0.327-2.467-0.54l0.303-1.131
		c0.777,0.205,1.568,0.374,2.368,0.518L46.544,64.306z M49.301,64.682c-0.845-0.077-1.679-0.189-2.504-0.33L47,63.199
		c0.791,0.136,1.592,0.243,2.403,0.317L49.301,64.682z M52.079,64.817c-0.85-0.003-1.69-0.047-2.523-0.116l0.102-1.166
		c0.799,0.066,1.605,0.107,2.421,0.111V64.817z M30.84,53.508c2.392-0.561,5.896-1.205,8.574-0.956
		c-0.165,2.12-0.284,3.714-0.334,4.528c-0.035,0.214-0.127,1.084,0.516,1.741c0.452,0.462,1.142,0.693,2.06,0.693
		c0.435,0,0.922-0.052,1.459-0.157c4.169-0.811,9.016-0.81,9.092-0.809l0.001-0.467l0.001,0.467
		c0.047,0.002,4.918-0.003,9.091,0.809c0.537,0.104,1.024,0.157,1.459,0.157c0.917,0,1.607-0.231,2.06-0.693
		c0.643-0.657,0.551-1.526,0.516-1.741c-0.051-0.814-0.169-2.408-0.334-4.528c2.677-0.246,6.18,0.398,8.572,0.957
		c-5.405,5.608-12.98,9.112-21.366,9.112C43.821,62.621,36.245,59.117,30.84,53.508z M52.336,64.817v-1.171
		c0.815-0.003,1.621-0.045,2.421-0.111l0.102,1.166C54.026,64.77,53.186,64.813,52.336,64.817z M55.115,64.682l-0.102-1.166
		c0.811-0.074,1.611-0.181,2.403-0.317l0.203,1.153C56.794,64.493,55.96,64.605,55.115,64.682z M57.872,64.306l-0.203-1.153
		c0.8-0.144,1.59-0.313,2.368-0.518l0.303,1.131C59.529,63.979,58.705,64.156,57.872,64.306z M60.586,63.695l-0.303-1.131
		c0.783-0.214,1.555-0.454,2.311-0.726l0.4,1.1C62.206,63.223,61.402,63.473,60.586,63.695z M63.237,62.852l-0.4-1.1
		c0.761-0.281,1.504-0.597,2.235-0.936l0.495,1.061C64.805,62.229,64.03,62.559,63.237,62.852z M65.801,61.771l-0.495-1.061
		c0.732-0.347,1.446-0.725,2.145-1.126l0.585,1.013C67.308,61.016,66.564,61.41,65.801,61.771z M68.259,60.469l-0.585-1.013
		c0.698-0.409,1.379-0.843,2.041-1.304l0.671,0.958C69.697,59.591,68.987,60.043,68.259,60.469z M70.596,58.961l-0.671-0.958
		c0.66-0.467,1.303-0.955,1.923-1.472l0.752,0.896C71.955,57.965,71.284,58.474,70.596,58.961z M72.795,57.259l-0.752-0.896
		c0.616-0.522,1.215-1.066,1.788-1.634l0.827,0.827C74.061,56.148,73.437,56.714,72.795,57.259z M74.84,55.374l-0.827-0.827
		c0.243-0.245,0.474-0.502,0.707-0.756c0.562,0.145,1,0.267,1.271,0.345C75.617,54.558,75.237,54.974,74.84,55.374z M99.698,44.045
		c-0.014-0.004-0.027-0.008-0.041-0.013c-0.755-0.226-1.769-0.496-2.796-0.704c-0.514-0.1-1.025-0.213-1.512-0.276
		c-0.486-0.065-0.935-0.157-1.327-0.181c-0.78-0.073-1.299-0.121-1.299-0.121s0.515,0.08,1.288,0.201
		c0.388,0.048,0.83,0.167,1.308,0.261c0.479,0.091,0.98,0.236,1.483,0.366c1.004,0.269,1.99,0.598,2.719,0.866
		c0.104,0.038,0.202,0.075,0.294,0.11l2.574,1.996c-0.004,0.071-0.011,0.158-0.019,0.254c-0.289-0.153-0.671-0.327-1.122-0.538
		c-0.262-0.116-0.554-0.225-0.857-0.349c-0.304-0.123-0.624-0.255-0.967-0.359c-0.339-0.112-0.69-0.227-1.046-0.345
		c-0.354-0.125-0.73-0.196-1.097-0.297c-0.368-0.094-0.737-0.188-1.1-0.28c-0.368-0.066-0.731-0.131-1.082-0.193
		c-0.351-0.062-0.689-0.121-1.011-0.178c-0.319-0.068-0.631-0.069-0.913-0.104c-1.132-0.106-1.887-0.176-1.887-0.176
		s0.75,0.102,1.876,0.255c0.28,0.047,0.588,0.061,0.904,0.142c0.317,0.07,0.652,0.144,0.998,0.22
		c0.345,0.077,0.702,0.156,1.065,0.237c0.356,0.107,0.717,0.216,1.079,0.324c0.359,0.116,0.727,0.201,1.072,0.34
		c0.347,0.131,0.688,0.26,1.018,0.384c0.333,0.116,0.643,0.26,0.937,0.394c0.293,0.135,0.575,0.253,0.827,0.378
		c0.498,0.26,0.918,0.47,1.19,0.641c0.021,0.012,0.037,0.022,0.057,0.033c-0.105,0.798-0.335,1.922-0.834,2.884
		c-0.32-0.113-0.79-0.276-1.366-0.466c-0.548-0.187-1.193-0.388-1.886-0.598c-0.688-0.222-1.438-0.412-2.18-0.623
		c-0.37-0.11-0.749-0.187-1.118-0.278c-0.369-0.088-0.733-0.174-1.085-0.258c-0.71-0.14-1.376-0.253-1.944-0.358
		c-0.285-0.047-0.552-0.059-0.785-0.085c-0.234-0.022-0.438-0.042-0.605-0.058c-0.335-0.032-0.527-0.051-0.527-0.051
		s0.191,0.026,0.525,0.073c0.167,0.023,0.369,0.051,0.601,0.083c0.231,0.036,0.495,0.059,0.777,0.118
		c0.563,0.129,1.221,0.269,1.92,0.437c0.347,0.098,0.705,0.199,1.069,0.302c0.363,0.106,0.736,0.198,1.1,0.323
		c0.73,0.241,1.466,0.46,2.142,0.71c0.68,0.238,1.312,0.464,1.849,0.673c0.521,0.196,0.953,0.365,1.263,0.489l0,0.001l-3.793-0.347
		c-0.797-0.226-1.862-0.518-2.935-0.779c-0.534-0.137-1.075-0.246-1.578-0.362c-0.251-0.06-0.499-0.097-0.731-0.143
		c-0.233-0.043-0.453-0.084-0.656-0.122c-0.202-0.043-0.393-0.055-0.558-0.079c-0.167-0.021-0.312-0.039-0.431-0.054
		c-0.239-0.03-0.375-0.047-0.375-0.047s0.135,0.025,0.372,0.068c0.118,0.022,0.262,0.048,0.427,0.078
		c0.164,0.034,0.352,0.056,0.551,0.111c0.2,0.049,0.417,0.103,0.646,0.16c0.228,0.059,0.472,0.11,0.719,0.184
		c0.494,0.145,1.025,0.285,1.548,0.452c1.036,0.317,2.059,0.662,2.833,0.931l3.092,1.811c-0.085,0.139-0.198,0.308-0.331,0.489
		c-0.307-0.123-0.761-0.303-1.321-0.514c-0.526-0.205-1.145-0.429-1.809-0.667c-0.66-0.247-1.38-0.471-2.091-0.715
		c-0.355-0.123-0.719-0.222-1.072-0.332c-0.354-0.107-0.703-0.213-1.04-0.315c-0.683-0.176-1.32-0.34-1.866-0.48
		c-0.552-0.114-1.016-0.194-1.338-0.257c-0.323-0.061-0.507-0.095-0.507-0.095s0.183,0.043,0.503,0.117
		c0.319,0.077,0.778,0.176,1.322,0.313c0.538,0.163,1.165,0.354,1.838,0.558c0.332,0.116,0.674,0.236,1.023,0.358
		c0.347,0.125,0.704,0.238,1.053,0.376c0.698,0.274,1.403,0.526,2.05,0.801c0.253,0.103,0.497,0.203,0.733,0.301l-0.736,1.323
		l1.169-1.142c0.211,0.089,0.416,0.176,0.604,0.259c0.479,0.205,0.877,0.381,1.171,0.513c-0.826,0.979-2.246,2.136-4.313,2.047
		c-1.696-0.075-5.53-0.818-9.24-1.614c0.025-0.038,0.048-0.07,0.075-0.111c0.274-0.404,0.617-0.959,0.942-1.521
		c0.157-0.285,0.309-0.573,0.45-0.842c0.127-0.277,0.246-0.535,0.347-0.756c0.164-0.457,0.274-0.762,0.274-0.762
		s-0.139,0.291-0.347,0.728c-0.122,0.208-0.264,0.451-0.417,0.711c-0.166,0.252-0.343,0.52-0.525,0.784
		c-0.375,0.522-0.765,1.031-1.073,1.4c-0.08,0.099-0.153,0.186-0.219,0.264c-0.171-0.037-0.34-0.074-0.51-0.111
		c0.273-0.408,0.668-1.021,1.122-1.794c0.429-0.714,0.892-1.569,1.373-2.492c0.227-0.468,0.477-0.944,0.702-1.442
		c0.227-0.497,0.464-0.998,0.672-1.512c0.22-0.509,0.427-1.023,0.614-1.536c0.201-0.507,0.373-1.016,0.535-1.509
		c0.173-0.49,0.314-0.972,0.442-1.43c0.134-0.457,0.258-0.889,0.345-1.295c0.095-0.404,0.182-0.774,0.259-1.102
		c0.06-0.332,0.113-0.621,0.156-0.859c0.086-0.476,0.136-0.748,0.136-0.748s-0.057,0.27-0.157,0.744
		c-0.05,0.236-0.111,0.524-0.181,0.853c-0.086,0.325-0.184,0.692-0.29,1.093c-0.099,0.402-0.235,0.83-0.382,1.281
		c-0.141,0.453-0.295,0.928-0.481,1.411c-0.175,0.487-0.361,0.987-0.576,1.486c-0.201,0.504-0.421,1.01-0.655,1.509
		c-0.221,0.505-0.471,0.996-0.711,1.483c-0.237,0.488-0.5,0.953-0.738,1.411c-0.504,0.901-0.987,1.735-1.433,2.43
		c-0.543,0.866-1.004,1.526-1.277,1.905c-0.102-0.022-0.204-0.045-0.305-0.067c8.388-12,7.894-21.405,5.963-27.217
		c-1.39-4.183-3.644-7.094-5.102-8.664c0.755,0.269,1.337,0.594,1.807,0.908c0.015,0.02,0.026,0.034,0.042,0.055
		c0.327,0.443,0.787,1.085,1.272,1.9c0.254,0.401,0.495,0.855,0.757,1.332c0.252,0.481,0.505,0.997,0.754,1.536
		c0.229,0.548,0.493,1.103,0.693,1.695c0.107,0.293,0.215,0.589,0.324,0.885l0.273,0.91c0.199,0.604,0.327,1.226,0.468,1.835
		c0.16,0.606,0.217,1.22,0.321,1.807c0.113,0.586,0.12,1.165,0.176,1.708c0.06,0.544,0.059,1.061,0.056,1.539
		c-0.006,0.477,0.018,0.916-0.014,1.303c-0.032,0.387-0.059,0.724-0.082,1.002c-0.045,0.556-0.071,0.874-0.071,0.874
		s0.034-0.317,0.093-0.872c0.03-0.278,0.066-0.615,0.107-1.001c0.042-0.387,0.028-0.827,0.047-1.305
		c0.016-0.479,0.03-0.998-0.017-1.546c-0.042-0.547-0.035-1.13-0.133-1.722c-0.089-0.592-0.131-1.214-0.277-1.828
		c-0.127-0.617-0.24-1.249-0.425-1.862l-0.253-0.926c-0.102-0.302-0.204-0.604-0.304-0.903c-0.187-0.604-0.44-1.172-0.658-1.733
		c-0.237-0.552-0.481-1.081-0.724-1.576c-0.253-0.49-0.488-0.957-0.735-1.371c-0.188-0.332-0.369-0.63-0.542-0.907
		c0.171,0.103,0.398,0.219,0.668,0.344c0.059,0.113,0.127,0.242,0.202,0.386c0.268,0.505,0.62,1.181,0.95,1.865
		c0.674,1.366,1.348,2.733,1.348,2.733s-0.557-1.42-1.115-2.84c-0.248-0.647-0.51-1.279-0.724-1.784
		c0.014,0.015,0.026,0.03,0.04,0.045c0.172,0.227,0.392,0.479,0.583,0.784c0.1,0.15,0.203,0.304,0.308,0.461
		c0.093,0.165,0.188,0.332,0.283,0.499c0.091,0.169,0.199,0.331,0.276,0.505c0.081,0.172,0.16,0.342,0.237,0.506
		c0.077,0.164,0.152,0.323,0.223,0.474c0.059,0.156,0.115,0.303,0.167,0.439c0.205,0.546,0.342,0.91,0.342,0.91
		s-0.107-0.374-0.266-0.936c-0.041-0.141-0.085-0.293-0.131-0.454c-0.058-0.157-0.12-0.323-0.184-0.495
		c-0.064-0.172-0.13-0.35-0.197-0.53c-0.064-0.183-0.158-0.355-0.237-0.535c-0.083-0.178-0.165-0.357-0.247-0.532
		c-0.094-0.17-0.187-0.337-0.276-0.498c-0.084-0.161-0.176-0.31-0.267-0.45c1.831,0.719,4.136,1.48,4.533,1.609
		c1.58,0.414,5.91,1.852,6.954,3.503c0.373,0.59,0.631,1.09,0.813,1.506c-0.271-0.068-0.599-0.149-0.974-0.238
		c-0.533-0.131-1.158-0.269-1.828-0.412c-0.668-0.154-1.391-0.274-2.108-0.413c-0.358-0.074-0.722-0.118-1.077-0.174
		c-0.356-0.054-0.706-0.106-1.044-0.158c-0.681-0.078-1.319-0.132-1.864-0.187c-0.273-0.024-0.525-0.014-0.748-0.021
		c-0.222-0.003-0.416-0.006-0.576-0.009c-0.319-0.005-0.501-0.008-0.501-0.008s0.182,0.011,0.501,0.03
		c0.159,0.009,0.352,0.021,0.574,0.034c0.221,0.018,0.472,0.018,0.743,0.054c0.541,0.08,1.173,0.161,1.846,0.268
		c0.335,0.066,0.681,0.134,1.033,0.203c0.351,0.072,0.71,0.131,1.063,0.22c0.708,0.171,1.42,0.321,2.078,0.503
		c0.66,0.171,1.275,0.335,1.799,0.489c0.552,0.156,1,0.29,1.306,0.384c0.044,0.129,0.08,0.248,0.107,0.349l-3.896-0.408
		c-0.118-0.023-0.231-0.044-0.353-0.068c-0.498-0.093-1.033-0.173-1.566-0.262c-0.268-0.034-0.536-0.068-0.8-0.102
		c-0.264-0.03-0.522-0.074-0.775-0.091c-0.505-0.038-0.975-0.083-1.379-0.105c-0.809-0.012-1.348-0.02-1.348-0.02
		s0.537,0.04,1.342,0.1c0.401,0.046,0.866,0.119,1.364,0.187c0.25,0.032,0.504,0.091,0.764,0.136
		c0.26,0.049,0.523,0.099,0.787,0.149c0.354,0.081,0.704,0.158,1.047,0.237l3,1.076c0.621,0.223,1.667,0.714,2.171,1.191
		c-0.271-0.102-0.608-0.221-0.994-0.349c-0.516-0.187-1.137-0.346-1.792-0.547c-0.333-0.08-0.677-0.163-1.026-0.248
		c-0.35-0.081-0.702-0.18-1.064-0.233c-0.359-0.063-0.719-0.126-1.072-0.188c-0.177-0.03-0.352-0.06-0.525-0.09
		c-0.175-0.017-0.348-0.034-0.518-0.05c-0.34-0.033-0.669-0.065-0.98-0.095c-0.311-0.032-0.605-0.064-0.879-0.054
		c-1.091-0.002-1.818-0.003-1.818-0.003s0.725,0.033,1.813,0.083c0.272,0.001,0.564,0.047,0.872,0.092
		c0.308,0.044,0.633,0.09,0.969,0.137c0.168,0.024,0.339,0.048,0.511,0.072c0.171,0.037,0.343,0.075,0.518,0.113
		c0.348,0.077,0.701,0.155,1.054,0.233c0.355,0.068,0.7,0.181,1.043,0.277c0.342,0.099,0.678,0.196,1.003,0.29
		c0.638,0.228,1.243,0.411,1.744,0.618c0.506,0.194,0.921,0.364,1.205,0.494c0.017,0.007,0.029,0.013,0.044,0.019l0.074,1.677
		c-0.291-0.083-0.668-0.183-1.115-0.293c-0.518-0.141-1.134-0.257-1.787-0.406c-0.33-0.06-0.67-0.122-1.016-0.185
		c-0.347-0.056-0.695-0.137-1.051-0.175c-0.71-0.08-1.413-0.21-2.083-0.242c-0.334-0.023-0.656-0.045-0.962-0.066
		c-0.306-0.018-0.594-0.051-0.862-0.039c-1.068,0.009-1.781,0.016-1.781,0.016s0.711,0.026,1.777,0.064
		c0.267,0,0.553,0.046,0.857,0.077c0.303,0.035,0.623,0.071,0.954,0.109c0.662,0.062,1.357,0.223,2.057,0.334
		c0.351,0.053,0.694,0.149,1.035,0.22c0.34,0.078,0.675,0.154,0.999,0.229c0.641,0.177,1.245,0.319,1.75,0.481
		c0.51,0.15,0.931,0.283,1.221,0.383c0.012,0.004,0.02,0.007,0.031,0.011l0.02,0.459l-3.094-0.24
		c-0.716-0.152-1.571-0.32-2.438-0.467c-0.527-0.101-1.063-0.159-1.56-0.236c-0.499-0.069-0.97-0.097-1.369-0.139
		c-0.2-0.026-0.386-0.018-0.549-0.022c-0.164-0.002-0.306-0.003-0.424-0.005c-0.234-0.003-0.368-0.004-0.368-0.004
		s0.134,0.01,0.368,0.026c0.117,0.008,0.259,0.018,0.421,0.03c0.162,0.014,0.346,0.017,0.544,0.054
		c0.396,0.066,0.86,0.121,1.352,0.22c0.491,0.106,1.017,0.195,1.535,0.327c0.471,0.109,0.937,0.225,1.382,0.339l2.63,1.004
		c0.011,0.004,1.004,0.393,1.559,1.112c-0.266-0.11-0.6-0.233-0.985-0.379c-0.251-0.091-0.529-0.171-0.819-0.265
		c-0.291-0.091-0.596-0.195-0.92-0.268c-0.322-0.081-0.655-0.164-0.993-0.249c-0.335-0.096-0.689-0.135-1.036-0.205
		c-0.348-0.063-0.696-0.126-1.038-0.188c-0.345-0.046-0.686-0.075-1.015-0.112c-0.329-0.035-0.647-0.068-0.949-0.1
		c-0.3-0.043-0.589-0.027-0.853-0.04c-1.057-0.026-1.761-0.043-1.761-0.043s0.702,0.049,1.755,0.123
		c0.262,0.025,0.549,0.022,0.847,0.079c0.299,0.045,0.613,0.093,0.939,0.143c0.325,0.051,0.662,0.096,1.002,0.157
		c0.337,0.077,0.678,0.155,1.02,0.233c0.34,0.086,0.687,0.139,1.014,0.25c0.33,0.099,0.654,0.196,0.969,0.291
		c0.316,0.086,0.611,0.202,0.893,0.305c0.281,0.106,0.55,0.196,0.791,0.296c0.48,0.207,0.883,0.374,1.146,0.513
		c0.011,0.005,0.018,0.009,0.029,0.014v2.668c-0.299-0.068-0.697-0.157-1.174-0.259c-0.527-0.113-1.142-0.244-1.801-0.385
		c-0.657-0.149-1.367-0.268-2.072-0.403c-0.706-0.132-1.412-0.263-2.074-0.386c-0.331-0.061-0.657-0.091-0.962-0.134
		c-0.306-0.04-0.596-0.078-0.863-0.112c-1.067-0.139-1.779-0.232-1.779-0.232s0.707,0.124,1.767,0.311
		c0.265,0.047,0.551,0.097,0.855,0.15c0.302,0.057,0.624,0.101,0.952,0.176c0.655,0.153,1.353,0.315,2.051,0.478
		c0.697,0.166,1.398,0.315,2.046,0.494c0.65,0.17,1.256,0.328,1.776,0.464c0.536,0.14,0.976,0.26,1.279,0.344v0.013l-4.74-0.368
		l-5.665-0.915l5.23,1.158l3.336,1.001c0.347,0.104,1.294,0.484,1.724,1.039c0.001,0.013,0.002,0.036,0.003,0.051
		c-0.288-0.086-0.666-0.183-1.112-0.3c-0.524-0.129-1.127-0.314-1.786-0.45c-0.658-0.139-1.36-0.288-2.062-0.436
		c-0.351-0.074-0.701-0.148-1.046-0.221c-0.347-0.062-0.692-0.107-1.024-0.159c-0.664-0.1-1.284-0.193-1.815-0.273
		c-1.061-0.159-1.769-0.266-1.769-0.266s0.702,0.138,1.756,0.345c0.526,0.103,1.14,0.224,1.798,0.353
		c0.328,0.067,0.669,0.126,1.012,0.204c0.341,0.088,0.687,0.178,1.032,0.267c0.691,0.179,1.382,0.358,2.03,0.526
		c0.648,0.165,1.236,0.374,1.748,0.525c0.509,0.159,0.934,0.286,1.228,0.396c0.012,0.004,0.021,0.007,0.033,0.012
		c0.012,0.609-0.016,1.542-0.213,2.508c-0.297-0.119-0.703-0.271-1.19-0.441c-0.516-0.196-1.137-0.371-1.791-0.586
		c-0.332-0.091-0.676-0.186-1.024-0.282c-0.351-0.088-0.7-0.204-1.061-0.273c-0.359-0.077-0.718-0.154-1.072-0.23
		c-0.352-0.08-0.7-0.151-1.043-0.192c-0.34-0.049-0.669-0.097-0.981-0.142c-0.312-0.042-0.605-0.1-0.881-0.105
		c-1.097-0.064-1.828-0.107-1.828-0.107s0.727,0.075,1.819,0.187c0.274,0.017,0.564,0.088,0.872,0.143
		c0.308,0.059,0.633,0.12,0.969,0.184c0.337,0.055,0.68,0.142,1.027,0.236c0.347,0.09,0.7,0.182,1.053,0.274
		c0.355,0.083,0.697,0.214,1.04,0.316c0.341,0.11,0.677,0.218,1.002,0.323c0.639,0.242,1.245,0.441,1.746,0.657
		c0.508,0.202,0.924,0.38,1.211,0.512c0.006,0.003,0.01,0.005,0.016,0.007c-0.017,0.065-0.03,0.13-0.049,0.194L99.698,44.045z"/>
	<path fill="#FFFFFF" d="M70.948,33.375c0,1.11,0.903,2.012,2.012,2.012c1.11,0,2.013-0.903,2.013-2.012s-0.903-2.012-2.013-2.012
		C71.851,31.363,70.948,32.265,70.948,33.375z M73.945,33.375c0,0.543-0.442,0.985-0.985,0.985s-0.985-0.442-0.985-0.985
		s0.442-0.985,0.985-0.985S73.945,32.832,73.945,33.375z"/>
	<path fill="#FFFFFF" d="M52.208,28.25c-1.11,0-2.013,0.903-2.013,2.012c0,1.11,0.903,2.013,2.013,2.013
		c1.109,0,2.012-0.903,2.012-2.013C54.22,29.153,53.317,28.25,52.208,28.25z M52.208,31.247c-0.543,0-0.985-0.442-0.985-0.985
		c0-0.543,0.442-0.985,0.985-0.985s0.985,0.442,0.985,0.985C53.192,30.805,52.751,31.247,52.208,31.247z"/>
	<path fill="#FFFFFF" d="M54.646,29.678c0.027,0.073,0.052,0.142,0.075,0.206c0.01,0.068,0.02,0.13,0.029,0.186
		c0.038,0.225,0.059,0.353,0.059,0.353s-0.004-0.13-0.01-0.358c-0.002-0.057-0.005-0.12-0.008-0.188
		c-0.016-0.068-0.033-0.141-0.052-0.219c-0.036-0.158-0.073-0.342-0.174-0.515c-0.044-0.09-0.09-0.184-0.138-0.281
		c-0.065-0.087-0.131-0.177-0.2-0.27c-0.064-0.097-0.142-0.187-0.238-0.264c-0.09-0.082-0.182-0.167-0.282-0.244
		c-0.221-0.124-0.439-0.277-0.703-0.342c-0.249-0.108-0.527-0.108-0.797-0.145c-0.286,0.039-0.52,0.033-0.791,0.143
		c-0.272,0.067-0.487,0.22-0.709,0.344c-0.1,0.077-0.193,0.162-0.283,0.244c-0.095,0.077-0.173,0.166-0.238,0.264
		c-0.069,0.093-0.135,0.183-0.2,0.27c-0.048,0.097-0.094,0.191-0.138,0.281c-0.101,0.174-0.138,0.356-0.174,0.513
		c-0.019,0.078-0.036,0.151-0.052,0.219c-0.003,0.069-0.006,0.133-0.008,0.191c-0.006,0.228-0.01,0.359-0.01,0.359
		s0.022-0.128,0.059-0.352c0.009-0.055,0.018-0.117,0.028-0.184c0.023-0.064,0.048-0.133,0.075-0.206
		c0.052-0.147,0.105-0.313,0.211-0.474c0.047-0.082,0.096-0.167,0.147-0.255c0.066-0.077,0.135-0.157,0.205-0.239
		c0.065-0.086,0.143-0.164,0.237-0.229c0.09-0.068,0.173-0.148,0.267-0.216c0.206-0.108,0.41-0.246,0.643-0.295
		c0.206-0.094,0.503-0.089,0.73-0.119c0.243,0.031,0.496,0.021,0.724,0.117c0.241,0.052,0.442,0.189,0.649,0.297
		c0.094,0.068,0.177,0.148,0.267,0.216c0.094,0.065,0.171,0.143,0.237,0.229c0.07,0.082,0.139,0.162,0.205,0.239
		c0.051,0.088,0.1,0.174,0.147,0.256C54.542,29.368,54.594,29.532,54.646,29.678z"/>
	<path fill="#FFFFFF" d="M73.997,30.659c0.119,0.032,0.22,0.123,0.338,0.183c0.113,0.07,0.24,0.126,0.34,0.225
		c0.106,0.089,0.215,0.18,0.323,0.271c0.091,0.108,0.182,0.216,0.271,0.323c0.1,0.1,0.155,0.227,0.225,0.34
		c0.059,0.118,0.152,0.219,0.182,0.336c0.044,0.114,0.085,0.222,0.123,0.321c0.083,0.2,0.091,0.394,0.125,0.517
		c0.029,0.127,0.045,0.199,0.045,0.199s0.002-0.074,0.004-0.204c0-0.065-0.001-0.144-0.001-0.234
		c0.001-0.09,0.005-0.192-0.032-0.302c-0.028-0.112-0.058-0.233-0.089-0.361c-0.022-0.135-0.099-0.25-0.16-0.381
		c-0.069-0.125-0.119-0.27-0.225-0.38c-0.095-0.117-0.192-0.237-0.289-0.356c-0.119-0.097-0.239-0.194-0.356-0.289
		c-0.11-0.106-0.255-0.156-0.38-0.225c-0.13-0.06-0.247-0.139-0.379-0.159c-0.127-0.031-0.246-0.061-0.357-0.088
		c-0.108-0.037-0.213-0.034-0.306-0.033c-0.091,0-0.171-0.001-0.237-0.001c-0.129,0.003-0.203,0.005-0.203,0.005
		s0.073,0.016,0.2,0.045c0.125,0.034,0.309,0.042,0.511,0.124C73.772,30.574,73.881,30.616,73.997,30.659z"/>
	<path fill="#FFFFFF" d="M70.155,29.607c-0.029-0.085-0.061-0.177-0.1-0.284c-0.137-0.362-0.338-0.834-0.585-1.281
		c-0.124-0.223-0.243-0.447-0.38-0.643c-0.134-0.197-0.244-0.389-0.368-0.535c-0.233-0.298-0.389-0.497-0.389-0.497
		s0.128,0.216,0.321,0.54c0.103,0.157,0.188,0.361,0.293,0.57c0.109,0.207,0.197,0.441,0.289,0.672
		c0.184,0.462,0.318,0.94,0.403,1.298c0.04,0.18,0.072,0.33,0.088,0.431c0.007,0.041,0.011,0.068,0.015,0.095
		c-0.093,0.095-0.191,0.187-0.27,0.288c-0.257,0.301-0.445,0.624-0.601,0.927c-0.148,0.309-0.244,0.607-0.306,0.874
		c-0.058,0.269-0.092,0.505-0.101,0.701c-0.026,0.194,0.001,0.349-0.002,0.452c0.004,0.104,0.006,0.159,0.006,0.159
		s0.008-0.055,0.022-0.158c0.018-0.102,0.025-0.253,0.073-0.44c0.034-0.188,0.097-0.411,0.185-0.659
		c0.095-0.246,0.222-0.513,0.378-0.792c0.169-0.272,0.367-0.557,0.626-0.814c0.246-0.268,0.557-0.495,0.883-0.711
		c0.331-0.213,0.71-0.362,1.099-0.489c0.403-0.115,0.78-0.163,1.239-0.173c0.39,0.008,0.824,0.058,1.213,0.173
		c0.389,0.126,0.768,0.276,1.099,0.488c0.326,0.216,0.637,0.442,0.884,0.711c0.258,0.257,0.457,0.542,0.626,0.814
		c0.156,0.28,0.284,0.546,0.378,0.793c0.089,0.249,0.152,0.47,0.185,0.658c0.047,0.185,0.055,0.34,0.073,0.441
		c0.014,0.103,0.022,0.158,0.022,0.158s0.002-0.055,0.006-0.159c-0.003-0.104,0.025-0.255-0.002-0.45
		c-0.009-0.197-0.043-0.433-0.102-0.702c-0.063-0.268-0.158-0.566-0.306-0.874c-0.156-0.303-0.345-0.626-0.601-0.927
		c-0.245-0.311-0.56-0.593-0.915-0.84c-0.358-0.246-0.767-0.443-1.203-0.585c-0.445-0.134-0.89-0.198-1.382-0.211
		c-0.422,0.011-0.926,0.077-1.356,0.211c-0.089,0.029-0.171,0.07-0.257,0.103c-0.029-0.027-0.06-0.057-0.098-0.095
		c-0.123-0.113-0.29-0.296-0.489-0.519c-0.104-0.107-0.197-0.24-0.305-0.373c-0.103-0.137-0.226-0.272-0.327-0.43
		c-0.104-0.156-0.212-0.318-0.321-0.482c-0.116-0.161-0.211-0.337-0.305-0.515c-0.096-0.177-0.192-0.354-0.286-0.528
		c-0.1-0.172-0.156-0.36-0.234-0.533c-0.072-0.175-0.142-0.345-0.208-0.505c-0.074-0.159-0.113-0.318-0.154-0.464
		c-0.164-0.587-0.273-0.978-0.273-0.978s0.078,0.4,0.196,0.999c0.029,0.15,0.056,0.315,0.118,0.48
		c0.054,0.167,0.111,0.344,0.17,0.526c0.065,0.181,0.108,0.377,0.195,0.56c0.082,0.185,0.165,0.373,0.248,0.56
		c0.082,0.189,0.165,0.378,0.27,0.551c0.099,0.177,0.197,0.352,0.291,0.521c0.092,0.171,0.207,0.32,0.302,0.47
		c0.101,0.146,0.187,0.292,0.286,0.413c0.174,0.229,0.321,0.416,0.444,0.553c-0.161,0.084-0.32,0.17-0.465,0.27
		C70.305,29.48,70.233,29.546,70.155,29.607z"/>
	<path fill="#FFFFFF" d="M68.531,34.682c-0.044-0.188-0.039-0.342-0.053-0.444c-0.009-0.103-0.014-0.158-0.014-0.158
		s0.001,0.055,0.002,0.159c0.007,0.103-0.009,0.255,0.022,0.448c0.015,0.195,0.055,0.427,0.12,0.691
		c0.07,0.262,0.172,0.553,0.323,0.854c0.159,0.295,0.35,0.609,0.608,0.899c0.245,0.3,0.559,0.569,0.908,0.807
		c0.352,0.237,0.755,0.418,1.177,0.558c0.43,0.131,0.872,0.193,1.338,0.206c0.432-0.012,0.903-0.075,1.325-0.205
		c0.423-0.14,0.826-0.321,1.177-0.558c0.35-0.238,0.664-0.506,0.909-0.807c0.257-0.29,0.448-0.604,0.607-0.899
		c0.15-0.301,0.253-0.592,0.323-0.854c0.065-0.264,0.106-0.496,0.12-0.69c0.03-0.192,0.015-0.345,0.022-0.448
		c0.002-0.103,0.002-0.158,0.002-0.158s-0.005,0.055-0.014,0.158c-0.014,0.102-0.009,0.255-0.053,0.443
		c-0.028,0.19-0.084,0.416-0.166,0.67c-0.087,0.251-0.208,0.526-0.361,0.813c-0.166,0.279-0.362,0.574-0.62,0.842
		c-0.246,0.279-0.558,0.519-0.89,0.745c-0.338,0.222-0.723,0.388-1.125,0.515c-0.411,0.119-0.819,0.17-1.269,0.179
		c-0.415-0.008-0.853-0.06-1.256-0.178c-0.402-0.128-0.787-0.294-1.125-0.515c-0.332-0.226-0.645-0.466-0.891-0.745
		c-0.258-0.268-0.454-0.563-0.62-0.842c-0.153-0.287-0.274-0.561-0.361-0.813C68.616,35.097,68.559,34.872,68.531,34.682z"/>
	<path fill="#FFFFFF" d="M69.698,34.351c-0.035-0.096-0.067-0.187-0.097-0.27c-0.017-0.088-0.026-0.17-0.037-0.243
		c-0.046-0.294-0.072-0.463-0.072-0.463s0.008,0.17,0.022,0.468c0.005,0.074,0.007,0.157,0.017,0.246
		c0.023,0.088,0.048,0.183,0.075,0.284c0.027,0.103,0.056,0.212,0.087,0.327c0.034,0.114,0.104,0.219,0.159,0.337
		c0.062,0.114,0.114,0.242,0.193,0.358c0.087,0.111,0.177,0.226,0.269,0.344c0.085,0.126,0.198,0.23,0.321,0.33
		c0.121,0.101,0.238,0.216,0.376,0.304c0.288,0.159,0.578,0.343,0.918,0.424c0.324,0.136,0.683,0.128,1.032,0.177
		c0.365-0.05,0.681-0.037,1.025-0.175c0.349-0.082,0.637-0.266,0.925-0.425c0.138-0.088,0.255-0.203,0.376-0.303
		c0.123-0.1,0.236-0.204,0.321-0.33c0.092-0.118,0.182-0.233,0.269-0.344c0.078-0.116,0.13-0.244,0.193-0.358
		c0.055-0.118,0.125-0.223,0.159-0.336c0.03-0.114,0.059-0.223,0.086-0.325c0.027-0.101,0.052-0.196,0.075-0.284
		c0.01-0.09,0.012-0.174,0.017-0.249c0.014-0.298,0.022-0.468,0.022-0.468s-0.026,0.168-0.072,0.462
		c-0.012,0.073-0.02,0.154-0.037,0.241c-0.03,0.084-0.062,0.174-0.097,0.271c-0.034,0.096-0.071,0.198-0.109,0.306
		c-0.041,0.106-0.113,0.205-0.172,0.315c-0.066,0.106-0.12,0.225-0.201,0.332c-0.088,0.101-0.179,0.206-0.273,0.313
		c-0.086,0.115-0.198,0.208-0.319,0.295c-0.121,0.086-0.228,0.197-0.36,0.276c-0.273,0.143-0.548,0.313-0.859,0.379
		c-0.283,0.122-0.661,0.11-0.969,0.151c-0.323-0.043-0.66-0.026-0.963-0.149c-0.32-0.068-0.592-0.237-0.866-0.381
		c-0.132-0.079-0.24-0.189-0.36-0.276c-0.121-0.088-0.234-0.181-0.319-0.295c-0.094-0.107-0.185-0.212-0.273-0.313
		c-0.08-0.107-0.135-0.226-0.201-0.332c-0.059-0.109-0.131-0.209-0.172-0.314C69.769,34.548,69.732,34.446,69.698,34.351z"/>
	<path fill="#FFFFFF" d="M69.013,33.026c0.021-0.082,0.032-0.126,0.032-0.126S69.03,32.943,69,33.022
		c-0.027,0.081-0.083,0.192-0.112,0.35c-0.044,0.155-0.07,0.347-0.091,0.569c-0.009,0.223-0.006,0.477,0.047,0.75
		c0.053,0.271,0.132,0.563,0.269,0.851c0.131,0.289,0.304,0.582,0.532,0.845c0.218,0.271,0.49,0.511,0.785,0.726
		c0.297,0.219,0.625,0.38,0.978,0.528c0.334,0.113,0.709,0.217,1.071,0.248c0.363,0.034,0.726,0.035,1.069-0.024
		c0.345-0.045,0.669-0.15,0.959-0.28c0.293-0.125,0.546-0.292,0.765-0.459c0.219-0.169,0.391-0.357,0.532-0.531
		c0.131-0.181,0.239-0.342,0.308-0.486c0.082-0.137,0.115-0.26,0.148-0.337c0.03-0.079,0.046-0.121,0.046-0.121
		s-0.021,0.04-0.059,0.116c-0.04,0.074-0.088,0.189-0.178,0.318c-0.079,0.136-0.197,0.285-0.338,0.449
		c-0.151,0.157-0.329,0.323-0.545,0.477c-0.218,0.15-0.466,0.297-0.751,0.402c-0.281,0.11-0.592,0.19-0.918,0.232
		c-0.325,0.05-0.668,0.044-1.011,0.006c-0.347-0.036-0.671-0.132-1.018-0.254c-0.313-0.128-0.641-0.28-0.92-0.48
		c-0.282-0.198-0.543-0.421-0.753-0.674c-0.217-0.247-0.396-0.513-0.534-0.782c-0.144-0.267-0.232-0.542-0.296-0.799
		c-0.06-0.259-0.084-0.501-0.093-0.718c0.004-0.217,0.013-0.407,0.044-0.56C68.954,33.228,68.994,33.108,69.013,33.026z"/>
	<path fill="#FFFFFF" d="M72.352,30.448c-0.075,0.019-0.156,0.04-0.243,0.062c-0.088,0.023-0.182,0.047-0.28,0.072
		c-0.098,0.028-0.187,0.088-0.288,0.135c-0.098,0.053-0.207,0.097-0.307,0.163c-0.095,0.074-0.194,0.15-0.295,0.229
		c-0.108,0.073-0.198,0.169-0.284,0.274c-0.087,0.103-0.185,0.203-0.261,0.322c-0.137,0.246-0.295,0.494-0.364,0.786
		c-0.116,0.283-0.112,0.572-0.152,0.897c0.042,0.289,0.032,0.573,0.15,0.865c0.071,0.3,0.229,0.546,0.366,0.792
		c0.076,0.118,0.173,0.219,0.26,0.322c0.086,0.105,0.176,0.201,0.284,0.274c0.101,0.079,0.2,0.155,0.295,0.229
		c0.1,0.067,0.209,0.111,0.307,0.163c0.101,0.046,0.191,0.106,0.288,0.135c0.098,0.025,0.191,0.049,0.278,0.072
		c0.087,0.022,0.168,0.043,0.243,0.062c0.077,0.005,0.148,0.009,0.212,0.013c0.254,0.01,0.4,0.015,0.4,0.015
		s-0.143-0.024-0.393-0.065c-0.062-0.01-0.13-0.021-0.204-0.033c-0.071-0.026-0.148-0.054-0.23-0.084
		c-0.165-0.056-0.347-0.123-0.525-0.242c-0.09-0.056-0.191-0.103-0.281-0.172c-0.085-0.075-0.174-0.153-0.264-0.233
		c-0.097-0.073-0.175-0.169-0.249-0.272c-0.073-0.103-0.167-0.193-0.233-0.306c-0.121-0.232-0.264-0.465-0.319-0.727
		c-0.103-0.242-0.092-0.551-0.128-0.834c0.037-0.248,0.021-0.551,0.126-0.802c0.057-0.271,0.2-0.502,0.321-0.734
		c0.066-0.112,0.16-0.203,0.233-0.306c0.074-0.103,0.152-0.199,0.249-0.272c0.091-0.08,0.179-0.158,0.264-0.233
		c0.09-0.069,0.191-0.116,0.281-0.172c0.179-0.12,0.359-0.186,0.523-0.242c0.082-0.03,0.158-0.058,0.229-0.084
		c0.075-0.012,0.145-0.023,0.207-0.033c0.251-0.041,0.394-0.065,0.394-0.065s-0.145,0.006-0.399,0.015
		C72.498,30.44,72.428,30.444,72.352,30.448z"/>
	<path fill="#FFFFFF" d="M68.182,36.899c0.145,0.231,0.329,0.509,0.574,0.802c0.24,0.295,0.536,0.614,0.904,0.911
		c0.36,0.307,0.793,0.588,1.274,0.845c0.49,0.239,1.032,0.456,1.624,0.567c0.59,0.103,1.22,0.154,1.852,0.064
		c0.63-0.092,1.253-0.29,1.832-0.585c0.548-0.305,1.082-0.73,1.502-1.2c0.426-0.476,0.732-1.028,0.974-1.577
		c0.236-0.555,0.357-1.126,0.429-1.666c0.053-0.543,0.058-1.06,0.002-1.529c-0.043-0.471-0.144-0.894-0.257-1.258
		c-0.108-0.367-0.237-0.672-0.349-0.921c-0.101-0.253-0.228-0.429-0.292-0.559c-0.071-0.126-0.108-0.194-0.108-0.194
		s0.029,0.072,0.083,0.206c0.049,0.136,0.145,0.326,0.224,0.584c0.087,0.255,0.185,0.565,0.256,0.931
		c0.075,0.364,0.133,0.779,0.154,1.232c0.028,0.453-0.007,0.945-0.085,1.454c-0.098,0.507-0.245,1.03-0.473,1.539
		c-0.236,0.504-0.541,0.995-0.929,1.427c-0.398,0.43-0.841,0.78-1.374,1.077c-0.522,0.271-1.085,0.456-1.658,0.547
		c-0.575,0.084-1.152,0.065-1.703-0.017c-0.55-0.092-1.068-0.26-1.544-0.459c-0.467-0.217-0.896-0.461-1.258-0.736
		c-0.365-0.269-0.68-0.547-0.94-0.812c-0.265-0.263-0.468-0.515-0.632-0.728c-0.17-0.208-0.277-0.395-0.363-0.512
		c-0.082-0.12-0.125-0.184-0.125-0.184s0.035,0.069,0.101,0.198C67.952,36.474,68.027,36.675,68.182,36.899z"/>
	<path fill="#FFFFFF" d="M91.197,48.223c0.724,0.169,1.688,0.388,2.645,0.645c0.96,0.246,1.92,0.493,2.64,0.677
		c0.724,0.178,1.206,0.296,1.206,0.296s-0.459-0.192-1.165-0.434c-0.703-0.25-1.657-0.53-2.618-0.788
		c-0.482-0.122-0.971-0.221-1.425-0.326c-0.457-0.094-0.891-0.149-1.258-0.213c-0.37-0.052-0.684-0.06-0.9-0.082
		c-0.217-0.014-0.341-0.022-0.341-0.022S90.47,48.079,91.197,48.223z"/>
	<path fill="#FFFFFF" d="M33.467,33.375c0-1.11-0.903-2.012-2.013-2.012c-1.11,0-2.013,0.903-2.013,2.012s0.903,2.012,2.013,2.012
		C32.565,35.388,33.467,34.485,33.467,33.375z M31.455,34.36c-0.543,0-0.985-0.442-0.985-0.985s0.442-0.985,0.985-0.985
		c0.543,0,0.985,0.442,0.985,0.985S31.998,34.36,31.455,34.36z"/>
	<path fill="#FFFFFF" d="M31.015,30.363c-0.092-0.001-0.198-0.004-0.306,0.033c-0.111,0.027-0.23,0.057-0.357,0.088
		c-0.132,0.02-0.249,0.099-0.379,0.159c-0.125,0.069-0.27,0.119-0.38,0.225c-0.117,0.095-0.237,0.192-0.356,0.289
		c-0.097,0.119-0.193,0.239-0.289,0.356c-0.106,0.11-0.156,0.255-0.225,0.38c-0.06,0.13-0.138,0.246-0.16,0.381
		c-0.032,0.128-0.061,0.249-0.089,0.361c-0.037,0.11-0.033,0.212-0.032,0.302c0,0.09-0.001,0.169-0.001,0.234
		c0.003,0.13,0.004,0.204,0.004,0.204s0.016-0.072,0.045-0.199c0.034-0.123,0.042-0.318,0.125-0.517
		c0.038-0.099,0.079-0.207,0.123-0.321c0.03-0.117,0.123-0.219,0.182-0.336c0.07-0.113,0.126-0.24,0.225-0.34
		c0.09-0.106,0.18-0.214,0.271-0.323c0.108-0.091,0.216-0.182,0.323-0.271c0.1-0.099,0.227-0.155,0.34-0.225
		c0.118-0.06,0.218-0.151,0.338-0.183c0.115-0.044,0.224-0.085,0.325-0.123c0.202-0.082,0.386-0.089,0.511-0.124
		c0.127-0.029,0.2-0.045,0.2-0.045s-0.074-0.002-0.203-0.005C31.186,30.363,31.106,30.363,31.015,30.363z"/>
	<path fill="#FFFFFF" d="M26.963,33.375c0,0,0.008-0.055,0.022-0.158c0.018-0.101,0.025-0.257,0.073-0.441
		c0.034-0.187,0.096-0.409,0.185-0.658c0.094-0.247,0.222-0.513,0.378-0.793c0.169-0.272,0.367-0.557,0.626-0.814
		c0.246-0.268,0.558-0.495,0.884-0.711c0.332-0.213,0.71-0.363,1.099-0.488c0.389-0.115,0.823-0.165,1.213-0.173
		c0.459,0.01,0.836,0.058,1.239,0.173c0.389,0.127,0.768,0.276,1.099,0.489c0.326,0.216,0.637,0.443,0.883,0.711
		c0.258,0.257,0.457,0.542,0.626,0.814c0.156,0.28,0.283,0.546,0.378,0.792c0.089,0.248,0.152,0.471,0.185,0.659
		c0.047,0.186,0.054,0.337,0.073,0.44c0.014,0.103,0.022,0.158,0.022,0.158s0.002-0.055,0.006-0.159
		c-0.003-0.103,0.025-0.258-0.002-0.452c-0.009-0.196-0.043-0.431-0.101-0.701c-0.062-0.268-0.158-0.566-0.306-0.874
		c-0.156-0.303-0.345-0.626-0.601-0.927c-0.079-0.101-0.177-0.194-0.27-0.288c0.004-0.026,0.009-0.054,0.015-0.095
		c0.015-0.101,0.048-0.251,0.088-0.431c0.085-0.358,0.22-0.836,0.403-1.298c0.092-0.231,0.181-0.465,0.289-0.672
		c0.105-0.209,0.19-0.413,0.293-0.57c0.193-0.324,0.321-0.54,0.321-0.54s-0.155,0.199-0.388,0.497
		c-0.124,0.145-0.234,0.337-0.368,0.535c-0.137,0.196-0.257,0.42-0.38,0.643c-0.247,0.447-0.449,0.919-0.585,1.281
		c-0.039,0.107-0.071,0.199-0.1,0.284c-0.078-0.062-0.15-0.127-0.234-0.185c-0.146-0.1-0.305-0.186-0.466-0.27
		c0.123-0.138,0.27-0.325,0.444-0.553c0.099-0.12,0.185-0.266,0.286-0.413c0.095-0.15,0.21-0.299,0.302-0.47
		c0.094-0.169,0.192-0.344,0.291-0.521c0.105-0.174,0.189-0.362,0.27-0.551c0.083-0.188,0.166-0.376,0.248-0.56
		c0.087-0.182,0.13-0.379,0.195-0.56c0.059-0.183,0.116-0.359,0.17-0.526c0.062-0.165,0.088-0.33,0.118-0.48
		c0.117-0.6,0.196-0.999,0.196-0.999s-0.109,0.391-0.273,0.978c-0.041,0.146-0.079,0.306-0.154,0.464
		c-0.066,0.161-0.136,0.33-0.208,0.505c-0.078,0.172-0.134,0.36-0.234,0.533c-0.094,0.174-0.19,0.351-0.286,0.528
		c-0.094,0.178-0.189,0.354-0.305,0.515c-0.109,0.164-0.217,0.326-0.321,0.482c-0.101,0.158-0.224,0.293-0.327,0.43
		c-0.108,0.133-0.201,0.266-0.305,0.373c-0.199,0.223-0.366,0.406-0.489,0.519c-0.037,0.038-0.069,0.068-0.098,0.095
		c-0.086-0.033-0.168-0.074-0.257-0.103c-0.43-0.134-0.933-0.2-1.356-0.211c-0.492,0.013-0.937,0.077-1.382,0.211
		c-0.435,0.142-0.845,0.339-1.203,0.585c-0.356,0.248-0.671,0.53-0.916,0.84c-0.257,0.3-0.445,0.624-0.601,0.927
		c-0.148,0.309-0.243,0.607-0.306,0.874c-0.058,0.269-0.092,0.505-0.102,0.702c-0.026,0.195,0.001,0.346-0.002,0.45
		C26.961,33.32,26.963,33.375,26.963,33.375z"/>
	<path fill="#FFFFFF" d="M27.199,35.351c-0.082-0.253-0.138-0.479-0.166-0.67c-0.044-0.188-0.039-0.341-0.053-0.443
		c-0.009-0.103-0.014-0.158-0.014-0.158s0.001,0.055,0.002,0.158c0.007,0.103-0.009,0.257,0.021,0.448
		c0.015,0.194,0.055,0.426,0.12,0.69c0.07,0.263,0.172,0.553,0.323,0.854c0.159,0.295,0.35,0.609,0.607,0.899
		c0.245,0.3,0.559,0.569,0.909,0.807c0.352,0.237,0.755,0.418,1.177,0.558c0.426,0.131,0.887,0.194,1.332,0.206
		c0.453-0.013,0.905-0.075,1.332-0.206c0.423-0.14,0.825-0.321,1.177-0.558c0.349-0.238,0.663-0.507,0.908-0.807
		c0.257-0.29,0.448-0.603,0.607-0.899c0.15-0.301,0.253-0.592,0.323-0.854c0.065-0.264,0.106-0.496,0.121-0.691
		c0.03-0.192,0.015-0.344,0.022-0.448c0.002-0.103,0.002-0.159,0.002-0.159s-0.005,0.055-0.014,0.158
		c-0.014,0.102-0.009,0.256-0.053,0.444c-0.028,0.19-0.084,0.415-0.166,0.669c-0.087,0.252-0.208,0.526-0.361,0.813
		c-0.166,0.279-0.362,0.574-0.62,0.842c-0.246,0.279-0.558,0.519-0.891,0.745c-0.338,0.222-0.723,0.388-1.125,0.515
		c-0.406,0.119-0.834,0.171-1.263,0.178c-0.437-0.009-0.855-0.06-1.263-0.179c-0.402-0.128-0.787-0.294-1.125-0.515
		c-0.332-0.226-0.645-0.466-0.89-0.745c-0.258-0.268-0.454-0.563-0.62-0.842C27.407,35.876,27.287,35.602,27.199,35.351z"/>
	<path fill="#FFFFFF" d="M28.192,34.348c-0.035-0.097-0.067-0.187-0.097-0.271c-0.017-0.087-0.025-0.168-0.037-0.241
		c-0.046-0.294-0.072-0.462-0.072-0.462s0.008,0.17,0.022,0.468c0.005,0.075,0.007,0.159,0.017,0.249
		c0.023,0.088,0.048,0.182,0.075,0.284c0.027,0.102,0.056,0.21,0.086,0.325c0.034,0.114,0.104,0.218,0.159,0.336
		c0.062,0.114,0.114,0.242,0.193,0.358c0.087,0.111,0.177,0.226,0.269,0.344c0.085,0.126,0.198,0.23,0.321,0.33
		c0.121,0.101,0.238,0.215,0.376,0.303c0.288,0.159,0.576,0.343,0.925,0.425c0.338,0.137,0.674,0.126,1.012,0.174
		c0.374-0.047,0.715-0.041,1.045-0.176c0.341-0.08,0.63-0.264,0.918-0.424c0.138-0.088,0.255-0.203,0.376-0.304
		c0.123-0.1,0.236-0.204,0.321-0.33c0.092-0.118,0.182-0.233,0.269-0.344c0.078-0.116,0.13-0.244,0.193-0.358
		c0.055-0.118,0.125-0.222,0.159-0.337c0.031-0.115,0.06-0.224,0.087-0.327c0.027-0.102,0.052-0.197,0.075-0.284
		c0.01-0.089,0.011-0.172,0.017-0.246c0.014-0.298,0.022-0.468,0.022-0.468s-0.026,0.168-0.072,0.463
		c-0.012,0.073-0.02,0.156-0.037,0.243c-0.03,0.083-0.063,0.174-0.097,0.27c-0.034,0.095-0.07,0.197-0.109,0.303
		c-0.041,0.105-0.113,0.205-0.172,0.314c-0.065,0.106-0.12,0.225-0.201,0.332c-0.088,0.101-0.179,0.206-0.273,0.313
		c-0.086,0.115-0.198,0.208-0.319,0.295c-0.121,0.087-0.228,0.197-0.36,0.276c-0.273,0.143-0.546,0.313-0.866,0.381
		c-0.297,0.124-0.652,0.106-0.95,0.15c-0.333-0.043-0.693-0.03-0.982-0.152c-0.311-0.066-0.586-0.235-0.859-0.379
		c-0.132-0.079-0.239-0.19-0.36-0.276c-0.121-0.088-0.234-0.181-0.319-0.295c-0.094-0.107-0.185-0.212-0.273-0.313
		c-0.08-0.107-0.135-0.226-0.201-0.332c-0.059-0.11-0.131-0.209-0.172-0.315C28.263,34.546,28.226,34.444,28.192,34.348z"/>
	<path fill="#FFFFFF" d="M35.135,35.46c-0.138,0.269-0.317,0.534-0.534,0.782c-0.21,0.253-0.472,0.476-0.753,0.674
		c-0.279,0.201-0.607,0.353-0.92,0.48c-0.348,0.121-0.671,0.217-1.018,0.254c-0.342,0.038-0.685,0.044-1.011-0.006
		c-0.326-0.042-0.636-0.122-0.918-0.232c-0.284-0.105-0.533-0.252-0.751-0.402c-0.216-0.154-0.395-0.32-0.545-0.477
		c-0.141-0.165-0.259-0.313-0.338-0.449c-0.09-0.129-0.138-0.244-0.178-0.318c-0.039-0.076-0.059-0.116-0.059-0.116
		s0.016,0.042,0.046,0.121c0.033,0.078,0.066,0.2,0.148,0.337c0.069,0.144,0.177,0.305,0.309,0.486
		c0.141,0.173,0.312,0.361,0.532,0.531c0.219,0.167,0.472,0.334,0.765,0.459c0.29,0.13,0.613,0.234,0.959,0.28
		c0.343,0.059,0.706,0.058,1.069,0.024c0.362-0.031,0.737-0.135,1.071-0.248c0.353-0.148,0.681-0.309,0.977-0.528
		c0.295-0.215,0.567-0.455,0.785-0.726c0.228-0.263,0.401-0.556,0.532-0.845c0.137-0.288,0.216-0.58,0.269-0.851
		c0.052-0.272,0.056-0.527,0.047-0.75c-0.021-0.223-0.047-0.415-0.091-0.569c-0.03-0.158-0.086-0.269-0.112-0.35
		c-0.03-0.079-0.046-0.122-0.046-0.122s0.011,0.044,0.032,0.126c0.019,0.082,0.059,0.202,0.077,0.357
		c0.031,0.153,0.041,0.343,0.044,0.56c-0.009,0.217-0.033,0.46-0.093,0.718C35.367,34.918,35.279,35.193,35.135,35.46z"/>
	<path fill="#FFFFFF" d="M32.067,36.301c0.075-0.019,0.156-0.04,0.242-0.062c0.087-0.023,0.18-0.047,0.278-0.072
		c0.097-0.028,0.187-0.088,0.288-0.135c0.098-0.053,0.207-0.097,0.307-0.163c0.095-0.074,0.194-0.15,0.295-0.229
		c0.108-0.073,0.198-0.169,0.284-0.274c0.087-0.103,0.185-0.204,0.26-0.322c0.137-0.246,0.295-0.492,0.366-0.792
		c0.118-0.292,0.108-0.576,0.15-0.865c-0.041-0.325-0.036-0.614-0.152-0.897c-0.069-0.292-0.227-0.54-0.364-0.786
		c-0.075-0.118-0.174-0.218-0.261-0.322c-0.086-0.105-0.176-0.201-0.284-0.274c-0.101-0.079-0.2-0.155-0.295-0.229
		c-0.1-0.067-0.209-0.111-0.307-0.163c-0.101-0.046-0.19-0.106-0.288-0.135c-0.099-0.025-0.192-0.05-0.28-0.072
		c-0.087-0.022-0.168-0.043-0.243-0.062c-0.076-0.005-0.146-0.009-0.21-0.013c-0.254-0.01-0.399-0.015-0.399-0.015
		s0.143,0.024,0.394,0.065c0.062,0.01,0.132,0.021,0.207,0.033c0.071,0.026,0.147,0.054,0.229,0.084
		c0.164,0.055,0.344,0.122,0.523,0.242c0.09,0.056,0.191,0.103,0.281,0.172c0.085,0.075,0.174,0.153,0.264,0.233
		c0.097,0.073,0.175,0.169,0.249,0.272c0.073,0.103,0.166,0.194,0.233,0.306c0.121,0.232,0.264,0.463,0.321,0.734
		c0.105,0.251,0.089,0.554,0.126,0.802c-0.036,0.283-0.025,0.592-0.128,0.834c-0.055,0.263-0.198,0.496-0.319,0.727
		c-0.066,0.112-0.161,0.203-0.233,0.306c-0.074,0.103-0.152,0.199-0.249,0.272c-0.091,0.08-0.179,0.158-0.264,0.233
		c-0.09,0.069-0.191,0.116-0.281,0.172c-0.178,0.12-0.36,0.187-0.525,0.242c-0.082,0.03-0.159,0.058-0.23,0.084
		c-0.074,0.012-0.143,0.023-0.205,0.033c-0.25,0.041-0.393,0.065-0.393,0.065s0.145-0.006,0.4-0.015
		C31.918,36.311,31.989,36.306,32.067,36.301z"/>
	<path fill="#FFFFFF" d="M36.15,36.846c-0.164,0.213-0.366,0.465-0.632,0.728c-0.261,0.264-0.575,0.543-0.94,0.812
		c-0.362,0.275-0.79,0.518-1.258,0.736c-0.476,0.2-0.994,0.367-1.544,0.459c-0.55,0.082-1.128,0.101-1.703,0.017
		c-0.567-0.087-1.149-0.283-1.645-0.539c-0.559-0.312-0.983-0.651-1.387-1.084c-0.388-0.432-0.693-0.923-0.929-1.427
		c-0.228-0.509-0.375-1.033-0.473-1.539c-0.078-0.509-0.113-1.001-0.085-1.454c0.021-0.453,0.079-0.869,0.154-1.232
		c0.071-0.366,0.169-0.676,0.256-0.931c0.079-0.257,0.175-0.447,0.224-0.584c0.054-0.135,0.084-0.206,0.084-0.206
		s-0.038,0.067-0.109,0.194c-0.064,0.13-0.191,0.306-0.292,0.559c-0.112,0.249-0.241,0.554-0.349,0.921
		c-0.113,0.364-0.214,0.787-0.257,1.258c-0.056,0.47-0.05,0.986,0.003,1.529c0.072,0.54,0.193,1.111,0.429,1.666
		c0.241,0.549,0.548,1.101,0.974,1.577c0.415,0.467,0.968,0.902,1.489,1.193c0.604,0.309,1.209,0.497,1.844,0.592
		c0.632,0.09,1.262,0.04,1.852-0.064c0.592-0.111,1.134-0.328,1.624-0.567c0.481-0.257,0.914-0.539,1.274-0.845
		c0.368-0.297,0.664-0.616,0.904-0.911c0.245-0.292,0.429-0.57,0.574-0.802c0.155-0.225,0.23-0.426,0.303-0.551
		c0.066-0.129,0.101-0.198,0.101-0.198s-0.044,0.064-0.125,0.184C36.426,36.45,36.32,36.638,36.15,36.846z"/>
	<path fill="#FFFFFF" d="M13.193,48.08c-0.367,0.064-0.801,0.119-1.258,0.213c-0.454,0.105-0.943,0.204-1.425,0.326
		c-0.961,0.258-1.915,0.538-2.618,0.788c-0.706,0.242-1.165,0.434-1.165,0.434s0.483-0.119,1.206-0.296
		c0.72-0.185,1.68-0.431,2.641-0.677c0.957-0.257,1.921-0.476,2.645-0.645c0.727-0.144,1.216-0.246,1.216-0.246
		s-0.124,0.008-0.341,0.022C13.877,48.02,13.563,48.029,13.193,48.08z"/>
	<circle fill="#FFFFFF" cx="52.208" cy="19.067" r="0.285"/>
	<circle fill="#FFFFFF" cx="52.208" cy="44.999" r="0.285"/>
	<circle fill="#FFFFFF" cx="59.299" cy="47.348" r="0.285"/>
	<circle fill="#FFFFFF" cx="45.117" cy="47.348" r="0.285"/>
</g>
</svg>
