<?xml version="1.0" encoding="utf-8"?>
<!-- Generator: Adobe Illustrator 17.0.0, SVG Export Plug-In . SVG Version: 6.00 Build 0)  -->
<!DOCTYPE svg PUBLIC "-//W3C//DTD SVG 1.1//EN" "http://www.w3.org/Graphics/SVG/1.1/DTD/svg11.dtd">
<svg version="1.1" id="Layer_1" xmlns="http://www.w3.org/2000/svg" xmlns:xlink="http://www.w3.org/1999/xlink" x="0px" y="0px"
	 width="464.536px" height="402.068px" viewBox="0 0 464.536 402.068" enable-background="new 0 0 464.536 402.068"
	 xml:space="preserve">
<g>
	<g>
		<path fill="#FFFFFF" d="M37.887,315.355c-5.671-1.665-9.07-2.839-10.205-3.522c-2.532-1.477-3.798-3.236-3.798-5.282
			c0-2.084,0.963-3.747,2.895-5.001c1.699-1.097,3.631-1.646,5.785-1.646c4.464,0,8.891,1.716,13.279,5.151l8.036-15.623
			c-8-4.185-16.169-6.281-24.506-6.281c-8.303,0-14.942,2.771-19.921,8.312c-4.265,4.708-6.395,10.643-6.395,17.806
			c0,6.858,2.058,11.984,6.177,15.375c1.438,1.169,3.176,2.186,5.217,3.052c1.285,0.564,4.422,1.583,9.411,3.052
			c4.12,1.181,7.051,2.343,8.789,3.488c2.343,1.525,3.515,3.43,3.515,5.717c0,2.515-1.06,4.459-3.176,5.831
			c-1.816,1.22-4.028,1.828-6.637,1.828c-5.785,0-11.701-2.733-17.75-8.206L0,355.595c8.262,5.848,17.223,8.772,26.883,8.772
			c4.602,0,8.905-0.697,12.904-2.096c11.469-3.965,17.205-12.483,17.205-25.554c0-5.1-1.305-9.273-3.912-12.522
			C50.055,320.381,44.992,317.435,37.887,315.355z"/>
		<path fill="#FFFFFF" d="M123.532,292.992c-4.717-5.313-11.621-7.971-20.713-7.971H70.841v77.253h20.093v-25.636h12.563
			c9.886,0,16.959-2.958,21.224-8.876c3.282-4.563,4.924-10.326,4.924-17.3C129.644,303.376,127.606,297.552,123.532,292.992z
			 M106.603,317.612c-1.629,1.893-4.619,2.837-8.971,2.837h-6.698v-19.241h6.753c4.052,0,6.918,0.862,8.603,2.583
			c1.685,1.721,2.527,4.021,2.527,6.896C108.817,313.601,108.077,315.91,106.603,317.612z"/>
		<path fill="#FFFFFF" d="M223.379,323.903c0-10.527-3.488-19.752-10.467-27.677c-7.963-9.017-18.735-13.526-32.32-13.526
			c-13.581,0-24.356,4.51-32.315,13.526c-3.171,3.585-5.698,7.896-7.586,12.933c-1.886,5.035-2.827,9.951-2.827,14.744
			c0,10.491,3.49,19.694,10.469,27.619c7.961,9.017,18.714,13.526,32.259,13.526c13.585,0,24.356-4.509,32.32-13.526
			C219.89,343.596,223.379,334.393,223.379,323.903z M197.333,337.973c-4.352,5.071-9.929,7.603-16.741,7.603
			c-6.809,0-12.369-2.551-16.682-7.659c-3.481-4.125-5.219-8.794-5.219-14.015c0-2.534,0.455-5.03,1.36-7.489
			c1.588-4.313,4.255-7.765,8.003-10.358c3.745-2.59,7.925-3.888,12.538-3.888c6.696,0,12.277,2.534,16.741,7.603
			c3.481,3.975,5.219,8.683,5.219,14.131C202.552,329.235,200.814,333.929,197.333,337.973z"/>
		<polygon fill="#FFFFFF" points="291.842,332.278 254.885,285.021 234.794,285.021 234.794,362.274 254.885,362.274 
			254.885,314.961 291.842,362.274 311.935,362.274 311.935,285.021 291.842,285.021 		"/>
		<path fill="#FFFFFF" d="M366.987,334.655h16.528c-0.608,3.832-1.893,6.727-3.861,8.68c-2.992,2.965-7.039,4.451-12.151,4.451
			c-5.751,0-10.35-1.825-13.795-5.478c-4.655-4.892-6.981-11.011-6.981-18.351c0-3.539,0.641-6.964,1.929-10.275
			c3.444-8.997,9.537-13.495,18.28-13.495c4.277,0,7.966,1.278,11.069,3.832c2.159,1.801,4.05,4.505,5.676,8.111l19.019-7.869
			c-3.207-6.49-7.073-11.394-11.602-14.715c-6.339-4.679-14.076-7.017-23.206-7.017c-13.659,0-24.298,4.359-31.92,13.074
			c-6.715,7.661-10.072,17.111-10.072,28.355c0,10.15,2.866,18.885,8.603,26.205c7.581,9.658,18.467,14.49,32.654,14.49
			c8.716,0,16.262-2.077,22.64-6.228c6.601-4.338,11.338-10.525,14.207-18.563c1.886-5.282,2.827-12.11,2.827-20.488h-39.843
			V334.655z"/>
		<polygon fill="#FFFFFF" points="464.536,301.774 464.536,285.021 420.561,285.021 420.561,362.274 464.536,362.274 
			464.536,345.523 440.652,345.523 440.652,331.714 463.234,331.714 463.234,314.961 440.652,314.961 440.652,301.774 		"/>
		<path fill="#FFFFFF" d="M233.54,47.925c13.214,0,23.964-10.748,23.964-23.961C257.504,10.75,246.754,0,233.54,0
			c-13.214,0-23.961,10.75-23.961,23.964C209.579,37.178,220.326,47.925,233.54,47.925z"/>
		<path fill="#FFFFFF" d="M252.171,44.376c-4.924,4.498-11.452,7.267-18.631,7.267c-2.561,0-5.03-0.378-7.388-1.031l26.74,74.302
			c0,0,18.999,3.994,28.064,23.857c9.067,19.858,48.356,106.213,48.356,106.213L252.171,44.376z"/>
		<path fill="#FFFFFF" d="M193.818,135.325c2.118-1.791,4.018-3.311,5.703-4.587c6.819-4.57,12.759-5.824,12.759-5.824
			l18.423-51.195L221.8,48.985c-3.125-1.477-5.942-3.5-8.3-5.979l-77.642,211.977c0,0,39.291-86.354,48.358-106.213
			C186.823,143.059,190.255,138.697,193.818,135.325z"/>
		<path fill="#FFFFFF" d="M102.238,387.978h-5.311v14.09h5.311c4.308,0,7.533-3.028,7.533-7.056
			C109.771,390.926,106.605,387.978,102.238,387.978z M102.257,399.783H99.43v-9.52h2.827c2.825,0,4.851,2.024,4.851,4.791
			C107.108,397.798,104.983,399.783,102.257,399.783z"/>
		<rect x="116.135" y="387.978" fill="#FFFFFF" width="2.486" height="14.09"/>
		<path fill="#FFFFFF" d="M131.997,396.895h3.926v2.505c-0.76,0.281-1.903,0.561-3.205,0.561c-2.927,0-5.09-2.084-5.09-4.909
			c0-2.885,2.024-4.969,5.33-4.969c1.864,0,3.687,0.922,3.687,0.922l0.862-2.125c0,0-1.823-1.142-4.967-1.142
			c-4.171,0-7.596,3.207-7.596,7.274c0,4.168,3.166,7.295,7.934,7.295c3.346,0,5.451-1.602,5.451-1.602v-6.032h-6.332V396.895z"/>
		<rect x="145.063" y="387.978" fill="#FFFFFF" width="2.484" height="14.09"/>
		<polygon fill="#FFFFFF" points="152.94,390.263 157.65,390.263 157.65,402.068 160.155,402.068 160.155,390.263 164.786,390.263 
			164.786,387.978 152.94,387.978 		"/>
		<path fill="#FFFFFF" d="M173.473,387.859l-6.613,14.209h2.605l1.222-2.808h6.051l1.244,2.808h2.665l-6.613-14.209H173.473z
			 M171.568,397.278l2.145-4.851l2.144,4.851H171.568z"/>
		<polygon fill="#FFFFFF" points="188.58,387.978 186.092,387.978 186.092,402.068 195.251,402.068 195.251,399.783 188.58,399.783 
					"/>
		<path fill="#FFFFFF" d="M216.594,387.859l-6.615,14.209h2.607l1.222-2.808h6.051l1.244,2.808h2.663l-6.613-14.209H216.594z
			 M214.689,397.278l2.145-4.851l2.145,4.851H214.689z"/>
		<polygon fill="#FFFFFF" points="238.71,396.977 229.994,387.898 229.212,387.898 229.212,402.068 231.696,402.068 231.696,393.33 
			240.535,402.167 241.196,402.167 241.196,387.978 238.71,387.978 		"/>
		<path fill="#FFFFFF" d="M253.728,387.978h-5.311v14.09h5.311c4.309,0,7.535-3.028,7.535-7.056
			C261.263,390.926,258.097,387.978,253.728,387.978z M253.747,399.783h-2.825v-9.52h2.825c2.827,0,4.851,2.024,4.851,4.791
			C258.598,397.798,256.473,399.783,253.747,399.783z"/>
		<path fill="#FFFFFF" d="M283.946,387.978h-5.311v14.09h5.311c4.309,0,7.535-3.028,7.535-7.056
			C291.481,390.926,288.315,387.978,283.946,387.978z M283.966,399.783h-2.825v-9.52h2.825c2.827,0,4.851,2.024,4.851,4.791
			C288.817,397.798,286.691,399.783,283.966,399.783z"/>
		<polygon fill="#FFFFFF" points="297.811,402.068 306.971,402.068 306.971,399.783 300.295,399.783 300.295,396.416 
			306.346,396.416 306.346,394.211 300.295,394.211 300.295,390.263 306.971,390.263 306.971,387.978 297.811,387.978 		"/>
		<path fill="#FFFFFF" d="M318.154,393.952c-1.985-0.721-2.747-1.283-2.747-2.186c0-0.98,0.68-1.803,2.167-1.803
			c1.079,0,2.323,0.482,3.144,0.941l0.801-2.205c-0.901-0.521-2.384-0.961-3.887-0.961c-3.007,0-4.73,1.963-4.73,4.088
			c0,1.685,0.944,2.987,3.689,3.989c2.544,0.942,3.065,1.501,3.065,2.445c0,0.901-0.76,1.723-2.426,1.723
			c-1.261,0-2.665-0.482-3.827-1.263l-0.862,2.244c1.283,0.782,2.946,1.343,4.611,1.343c3.144,0,5.049-1.544,5.049-4.047
			C322.201,396.416,321.298,395.174,318.154,393.952z"/>
		<rect x="328.436" y="387.978" fill="#FFFFFF" width="2.484" height="14.09"/>
		<path fill="#FFFFFF" d="M344.296,396.895h3.928v2.505c-0.762,0.281-1.905,0.561-3.207,0.561c-2.924,0-5.088-2.084-5.088-4.909
			c0-2.885,2.024-4.969,5.33-4.969c1.864,0,3.687,0.922,3.687,0.922l0.862-2.125c0,0-1.823-1.142-4.969-1.142
			c-4.168,0-7.596,3.207-7.596,7.274c0,4.168,3.166,7.295,7.934,7.295c3.348,0,5.452-1.602,5.452-1.602v-6.032h-6.333V396.895z"/>
		<polygon fill="#FFFFFF" points="366.822,396.977 358.103,387.898 357.321,387.898 357.321,402.068 359.807,402.068 
			359.807,393.33 368.645,402.167 369.306,402.167 369.306,387.978 366.822,387.978 		"/>
	</g>
	<polygon fill="#FFFFFF" points="299.416,189.291 316.123,225.998 318.695,225.998 305.251,189.291 	"/>
	<polygon fill="#FFFFFF" points="159.401,190.708 148.284,221.058 150.843,222.054 164.578,191.878 	"/>
	<path fill="#FFFFFF" d="M317.043,181.924l1.753-1.753l4.324,4.325l8.076-7.783l-4.371-4.372l1.752-1.753l4.403,4.404l8.076-7.784
		l-4.453-4.451l1.753-1.753l4.485,4.484l8.531-8.222l-2.774-1.123c-0.307-0.126-7.579-2.994-15.951-0.031
		c-11.641,4.125-20.565,4.476-25.806,1.019l-1.28-0.842l-6.143,5.754l12.263,33.479l9.656-9.306L317.043,181.924z"/>
	<g>
		<path fill="#FFFFFF" d="M293.538,213.006l8.88-8.559c-5.006-10.997-10.077-22.134-14.432-31.698l-55.717,52.19l-55.303-51.8
			c-4.369,9.593-9.438,20.73-14.437,31.705l8.523,8.214l4.135-4.134l1.752,1.752l-4.102,4.102l8.077,7.784l4.055-4.056l1.753,1.752
			l-4.022,4.024l8.075,7.782l3.974-3.975l1.752,1.752l-3.942,3.943l8.077,7.784l3.894-3.894l1.753,1.752l-3.862,3.862l8.075,7.782
			l3.814-3.814l1.752,1.752l-3.781,3.781l8.076,7.784l3.734-3.734l1.753,1.752l-3.702,3.702l8.563,8.253l1.548,1.548l0.712-0.712
			l0.001,0.001l9.486-9.142l-3.65-3.65l1.753-1.752l3.682,3.682l8.076-7.784l-3.729-3.729l1.752-1.752l3.762,3.762l8.075-7.783
			l-3.809-3.809l1.753-1.752l3.842,3.842l8.077-7.785l-3.89-3.891l1.752-1.752l3.922,3.923l8.075-7.783l-3.97-3.971l1.753-1.752
			l4.002,4.004l8.077-7.785l-4.05-4.05l1.752-1.752L293.538,213.006z"/>
		<path fill="#FFFFFF" d="M158.974,156.29l-1.278,0.842c-5.243,3.457-14.165,3.103-25.808-1.019
			c-8.37-2.96-15.642-0.094-15.949,0.031l-2.774,1.123l8.585,8.274l4.537-4.536l1.753,1.753l-4.504,4.503l8.076,7.784l4.455-4.456
			l1.752,1.753l-4.423,4.423l8.076,7.783l4.376-4.376l1.753,1.753l-4.344,4.344l10.039,9.676l12.265-33.486L158.974,156.29z"/>
	</g>
</g>
</svg>
