<?xml version="1.0" encoding="utf-8"?>
<!-- Generator: Adobe Illustrator 17.0.0, SVG Export Plug-In . SVG Version: 6.00 Build 0)  -->
<!DOCTYPE svg PUBLIC "-//W3C//DTD SVG 1.1//EN" "http://www.w3.org/Graphics/SVG/1.1/DTD/svg11.dtd">
<svg version="1.1" id="Layer_1" xmlns="http://www.w3.org/2000/svg" xmlns:xlink="http://www.w3.org/1999/xlink" x="0px" y="0px"
	 width="669.253px" height="199.918px" viewBox="0 0 669.253 199.918" enable-background="new 0 0 669.253 199.918"
	 xml:space="preserve">
<g>
	<path fill="#FFFFFF" d="M242.604,75.628c-5.671-1.665-9.07-2.839-10.205-3.522c-2.532-1.477-3.798-3.236-3.798-5.282
		c0-2.084,0.963-3.747,2.895-5.001c1.699-1.097,3.631-1.646,5.785-1.646c4.464,0,8.891,1.716,13.279,5.151l8.036-15.623
		c-8-4.185-16.169-6.281-24.506-6.281c-8.303,0-14.942,2.771-19.921,8.312c-4.265,4.708-6.395,10.643-6.395,17.806
		c0,6.858,2.058,11.984,6.177,15.375c1.438,1.169,3.176,2.186,5.217,3.052c1.285,0.564,4.422,1.583,9.411,3.052
		c4.12,1.181,7.051,2.343,8.789,3.488c2.343,1.525,3.515,3.43,3.515,5.717c0,2.515-1.06,4.459-3.176,5.831
		c-1.816,1.22-4.028,1.828-6.637,1.828c-5.785,0-11.701-2.733-17.75-8.206l-8.603,16.186c8.262,5.848,17.223,8.772,26.883,8.772
		c4.602,0,8.905-0.697,12.904-2.096c11.469-3.965,17.205-12.483,17.205-25.554c0-5.1-1.305-9.273-3.912-12.522
		C254.772,80.653,249.708,77.707,242.604,75.628z"/>
	<path fill="#FFFFFF" d="M328.249,53.264c-4.717-5.313-11.621-7.971-20.713-7.971h-31.978v77.253h20.093V96.91h12.563
		c9.886,0,16.959-2.958,21.224-8.876c3.282-4.563,4.924-10.326,4.924-17.3C334.361,63.648,332.323,57.824,328.249,53.264z
		 M311.319,77.884c-1.629,1.893-4.619,2.837-8.971,2.837h-6.698V61.479h6.753c4.052,0,6.918,0.862,8.603,2.583
		c1.685,1.721,2.527,4.021,2.527,6.896C313.534,73.873,312.793,76.182,311.319,77.884z"/>
	<path fill="#FFFFFF" d="M428.095,84.175c0-10.527-3.488-19.752-10.467-27.677c-7.964-9.017-18.735-13.526-32.32-13.526
		c-13.581,0-24.356,4.51-32.315,13.526c-3.171,3.585-5.698,7.896-7.586,12.933c-1.886,5.035-2.827,9.951-2.827,14.744
		c0,10.491,3.49,19.694,10.469,27.619c7.961,9.017,18.713,13.526,32.259,13.526c13.585,0,24.356-4.509,32.32-13.526
		C424.607,103.869,428.095,94.666,428.095,84.175z M402.05,98.246c-4.352,5.071-9.929,7.603-16.741,7.603
		c-6.809,0-12.369-2.551-16.682-7.659c-3.481-4.125-5.219-8.794-5.219-14.015c0-2.534,0.455-5.03,1.36-7.489
		c1.588-4.313,4.255-7.765,8.003-10.358c3.745-2.59,7.925-3.888,12.538-3.888c6.696,0,12.277,2.534,16.741,7.603
		c3.481,3.975,5.219,8.683,5.219,14.131C407.269,89.507,405.531,94.201,402.05,98.246z"/>
	<polygon fill="#FFFFFF" points="496.559,92.55 459.602,45.293 439.511,45.293 439.511,122.546 459.602,122.546 459.602,75.233 
		496.559,122.546 516.652,122.546 516.652,45.293 496.559,45.293 	"/>
	<path fill="#FFFFFF" d="M571.704,94.927h16.528c-0.607,3.832-1.893,6.727-3.861,8.68c-2.992,2.965-7.039,4.451-12.151,4.451
		c-5.751,0-10.35-1.825-13.795-5.478c-4.655-4.892-6.981-11.011-6.981-18.351c0-3.539,0.641-6.964,1.929-10.275
		c3.444-8.997,9.537-13.495,18.28-13.495c4.277,0,7.966,1.278,11.069,3.832c2.159,1.801,4.05,4.505,5.676,8.111l19.019-7.869
		c-3.207-6.49-7.073-11.394-11.602-14.715c-6.339-4.679-14.076-7.017-23.206-7.017c-13.659,0-24.298,4.359-31.92,13.074
		c-6.715,7.661-10.072,17.111-10.072,28.355c0,10.15,2.866,18.886,8.603,26.205c7.581,9.658,18.467,14.49,32.654,14.49
		c8.716,0,16.262-2.077,22.64-6.228c6.601-4.338,11.338-10.525,14.206-18.563c1.886-5.282,2.827-12.11,2.827-20.488h-39.843V94.927z
		"/>
	<polygon fill="#FFFFFF" points="669.253,62.046 669.253,45.293 625.278,45.293 625.278,122.546 669.253,122.546 669.253,105.795 
		645.369,105.795 645.369,91.986 667.95,91.986 667.95,75.233 645.369,75.233 645.369,62.046 	"/>
	<g>
		<path fill="#FFFFFF" d="M215.417,139.764h-9.025v23.944h9.025c7.321,0,12.801-5.145,12.801-11.99
			C228.218,144.774,222.837,139.764,215.417,139.764z M215.45,159.825h-4.804v-16.178h4.804c4.801,0,8.243,3.439,8.243,8.141
			C223.693,156.452,220.081,159.825,215.45,159.825z"/>
		<rect x="239.032" y="139.764" fill="#FFFFFF" width="4.224" height="23.944"/>
		<path fill="#FFFFFF" d="M265.987,154.918h6.672v4.258c-1.292,0.477-3.233,0.954-5.446,0.954c-4.973,0-8.65-3.542-8.65-8.342
			c0-4.903,3.439-8.445,9.058-8.445c3.167,0,6.265,1.567,6.265,1.567l1.464-3.612c0,0-3.097-1.941-8.441-1.941
			c-7.087,0-12.908,5.45-12.908,12.361c0,7.083,5.381,12.397,13.483,12.397c5.685,0,9.264-2.723,9.264-2.723v-10.251h-10.761
			V154.918z"/>
		<rect x="288.191" y="139.764" fill="#FFFFFF" width="4.221" height="23.944"/>
		<polygon fill="#FFFFFF" points="301.576,143.647 309.58,143.647 309.58,163.708 313.837,163.708 313.837,143.647 321.706,143.647 
			321.706,139.764 301.576,139.764 		"/>
		<path fill="#FFFFFF" d="M336.469,139.563l-11.238,24.145h4.426l2.077-4.771h10.283l2.114,4.771h4.529l-11.238-24.145H336.469z
			 M333.232,155.568l3.645-8.243l3.644,8.243H333.232z"/>
		<polygon fill="#FFFFFF" points="362.141,139.764 357.912,139.764 357.912,163.708 373.477,163.708 373.477,159.825 
			362.141,159.825 		"/>
		<path fill="#FFFFFF" d="M409.745,139.563l-11.242,24.145h4.43l2.077-4.771h10.283l2.114,4.771h4.525l-11.238-24.145H409.745z
			 M406.507,155.568l3.644-8.243l3.645,8.243H406.507z"/>
		<polygon fill="#FFFFFF" points="447.328,155.058 432.516,139.628 431.188,139.628 431.188,163.708 435.408,163.708 
			435.408,148.859 450.43,163.877 451.553,163.877 451.553,139.764 447.328,139.764 		"/>
		<path fill="#FFFFFF" d="M472.848,139.764h-9.025v23.944h9.025c7.322,0,12.805-5.145,12.805-11.99
			C485.653,144.774,480.272,139.764,472.848,139.764z M472.881,159.825h-4.801v-16.178h4.801c4.804,0,8.243,3.439,8.243,8.141
			C481.124,156.452,477.512,159.825,472.881,159.825z"/>
		<path fill="#FFFFFF" d="M524.199,139.764h-9.025v23.944h9.025c7.322,0,12.805-5.145,12.805-11.99
			C537.004,144.774,531.624,139.764,524.199,139.764z M524.232,159.825h-4.8v-16.178h4.8c4.804,0,8.244,3.439,8.244,8.141
			C532.476,156.452,528.864,159.825,524.232,159.825z"/>
		<polygon fill="#FFFFFF" points="547.761,163.708 563.326,163.708 563.326,159.825 551.981,159.825 551.981,154.104 
			562.264,154.104 562.264,150.356 551.981,150.356 551.981,143.647 563.326,143.647 563.326,139.764 547.761,139.764 		"/>
		<path fill="#FFFFFF" d="M582.329,149.916c-3.373-1.226-4.669-2.18-4.669-3.714c0-1.666,1.156-3.064,3.682-3.064
			c1.834,0,3.948,0.818,5.343,1.6l1.362-3.747c-1.531-0.885-4.052-1.633-6.606-1.633c-5.109,0-8.038,3.336-8.038,6.947
			c0,2.863,1.604,5.076,6.268,6.779c4.323,1.6,5.208,2.55,5.208,4.154c0,1.53-1.292,2.929-4.122,2.929
			c-2.143,0-4.529-0.818-6.503-2.147l-1.465,3.813c2.18,1.329,5.006,2.283,7.836,2.283c5.343,0,8.58-2.624,8.58-6.878
			C589.207,154.104,587.672,151.993,582.329,149.916z"/>
		<rect x="599.803" y="139.764" fill="#FFFFFF" width="4.221" height="23.944"/>
		<path fill="#FFFFFF" d="M626.754,154.918h6.676v4.258c-1.296,0.477-3.237,0.954-5.45,0.954c-4.969,0-8.647-3.542-8.647-8.342
			c0-4.903,3.44-8.445,9.058-8.445c3.168,0,6.265,1.567,6.265,1.567l1.465-3.612c0,0-3.098-1.941-8.444-1.941
			c-7.083,0-12.908,5.45-12.908,12.361c0,7.083,5.38,12.397,13.483,12.397c5.689,0,9.264-2.723,9.264-2.723v-10.251h-10.761V154.918
			z"/>
		<polygon fill="#FFFFFF" points="665.033,155.058 650.216,139.628 648.887,139.628 648.887,163.708 653.112,163.708 
			653.112,148.859 668.13,163.877 669.253,163.877 669.253,139.764 665.033,139.764 		"/>
	</g>
	<g>
		<path fill="#FFFFFF" d="M89.346,35.212c9.709,0,17.607-7.897,17.607-17.605C106.953,7.898,99.055,0,89.346,0
			c-9.709,0-17.605,7.898-17.605,17.607C71.741,27.316,79.638,35.212,89.346,35.212z"/>
		<path fill="#FFFFFF" d="M89.346,37.944c-1.882,0-3.696-0.278-5.428-0.758l19.647,54.592c0,0,13.959,2.934,20.62,17.529
			c6.662,14.591,35.529,78.038,35.529,78.038l-56.678-154.74C99.418,35.909,94.622,37.944,89.346,37.944z"/>
		<path fill="#FFFFFF" d="M60.162,99.427c1.556-1.316,2.952-2.433,4.19-3.37c5.01-3.358,9.374-4.279,9.374-4.279l13.536-37.615
			l-6.541-18.172c-2.296-1.085-4.366-2.572-6.098-4.393L17.576,187.345c0,0,28.868-63.447,35.531-78.038
			C55.022,105.11,57.544,101.905,60.162,99.427z"/>
		<path fill="#FFFFFF" d="M169.653,121.59l6.268-6.041l-2.038-0.825c-0.226-0.093-5.568-2.2-11.72-0.023
			c-8.553,3.031-15.11,3.288-18.96,0.749l-0.941-0.619l-4.514,4.227l9.01,24.598l8.406-8.101l0,0l5.933-5.718l0,0l1.312-1.264v0
			l5.934-5.719v0L169.653,121.59L169.653,121.59z"/>
		<path fill="#FFFFFF" d="M21.701,135.593L21.701,135.593l8.688,8.373l3.979-10.864l0,0l5.033-13.74l-4.839-4.532l-0.939,0.619
			c-3.852,2.54-10.408,2.28-18.962-0.749c-6.15-2.175-11.492-0.069-11.718,0.023l-2.038,0.825l19.173,18.478L21.701,135.593z"/>
		<path fill="#FFFFFF" d="M135.464,140.353L135.464,140.353c-2.142-4.706-4.221-9.271-6.114-13.429L88.413,165.27L47.78,127.211
			c-1.779,3.906-3.718,8.165-5.716,12.554l0,0l-4.891,10.741l51.226,49.412l51.554-49.704c-1.374-3.017-2.754-6.049-4.111-9.029
			L135.464,140.353z"/>
	</g>
</g>
</svg>
